%TF.GenerationSoftware,KiCad,Pcbnew,9.0.7*%
%TF.CreationDate,2026-02-17T01:40:48-06:00*%
%TF.ProjectId,Esp12-F,45737031-322d-4462-9e6b-696361645f70,rev?*%
%TF.SameCoordinates,Original*%
%TF.FileFunction,Copper,L1,Top*%
%TF.FilePolarity,Positive*%
%FSLAX46Y46*%
G04 Gerber Fmt 4.6, Leading zero omitted, Abs format (unit mm)*
G04 Created by KiCad (PCBNEW 9.0.7) date 2026-02-17 01:40:48*
%MOMM*%
%LPD*%
G01*
G04 APERTURE LIST*
G04 Aperture macros list*
%AMRoundRect*
0 Rectangle with rounded corners*
0 $1 Rounding radius*
0 $2 $3 $4 $5 $6 $7 $8 $9 X,Y pos of 4 corners*
0 Add a 4 corners polygon primitive as box body*
4,1,4,$2,$3,$4,$5,$6,$7,$8,$9,$2,$3,0*
0 Add four circle primitives for the rounded corners*
1,1,$1+$1,$2,$3*
1,1,$1+$1,$4,$5*
1,1,$1+$1,$6,$7*
1,1,$1+$1,$8,$9*
0 Add four rect primitives between the rounded corners*
20,1,$1+$1,$2,$3,$4,$5,0*
20,1,$1+$1,$4,$5,$6,$7,0*
20,1,$1+$1,$6,$7,$8,$9,0*
20,1,$1+$1,$8,$9,$2,$3,0*%
G04 Aperture macros list end*
%TA.AperFunction,ComponentPad*%
%ADD10C,1.600000*%
%TD*%
%TA.AperFunction,ComponentPad*%
%ADD11RoundRect,0.250000X-0.550000X-0.550000X0.550000X-0.550000X0.550000X0.550000X-0.550000X0.550000X0*%
%TD*%
%TA.AperFunction,ComponentPad*%
%ADD12R,1.700000X1.700000*%
%TD*%
%TA.AperFunction,ComponentPad*%
%ADD13C,1.700000*%
%TD*%
%TA.AperFunction,SMDPad,CuDef*%
%ADD14R,2.500000X1.000000*%
%TD*%
%TA.AperFunction,SMDPad,CuDef*%
%ADD15R,1.000000X1.800000*%
%TD*%
%TA.AperFunction,ComponentPad*%
%ADD16R,1.500000X1.500000*%
%TD*%
%TA.AperFunction,ViaPad*%
%ADD17C,0.600000*%
%TD*%
%TA.AperFunction,Conductor*%
%ADD18C,0.500000*%
%TD*%
G04 APERTURE END LIST*
D10*
%TO.P,C2,1*%
%TO.N,GND*%
X130500000Y-107000000D03*
%TO.P,C2,2*%
%TO.N,3.3V*%
X135500000Y-107000000D03*
%TD*%
%TO.P,R3,1*%
%TO.N,GND*%
X150190000Y-100500000D03*
%TO.P,R3,2*%
%TO.N,Net-(U1-GPIO15)*%
X157810000Y-100500000D03*
%TD*%
D11*
%TO.P,C1,1*%
%TO.N,GND*%
X140044888Y-106500000D03*
D10*
%TO.P,C1,2*%
%TO.N,3.3V*%
X142044888Y-106500000D03*
%TD*%
D12*
%TO.P,J3,1,Pin_1*%
%TO.N,Net-(J3-Pin_1)*%
X125000000Y-92690000D03*
D13*
%TO.P,J3,2,Pin_2*%
%TO.N,Net-(J3-Pin_2)*%
X125000000Y-95230000D03*
%TO.P,J3,3,Pin_3*%
%TO.N,Net-(J3-Pin_3)*%
X125000000Y-97770000D03*
%TO.P,J3,4,Pin_4*%
%TO.N,Net-(J3-Pin_4)*%
X125000000Y-100310000D03*
%TD*%
D12*
%TO.P,J1,1,Pin_1*%
%TO.N,GND*%
X161500000Y-83460000D03*
D13*
%TO.P,J1,2,Pin_2*%
%TO.N,unconnected-(J1-Pin_2-Pad2)*%
X161500000Y-86000000D03*
%TO.P,J1,3,Pin_3*%
%TO.N,Net-(J1-Pin_3)*%
X161500000Y-88540000D03*
%TO.P,J1,4,Pin_4*%
%TO.N,Net-(J1-Pin_4)*%
X161500000Y-91080000D03*
%TO.P,J1,5,Pin_5*%
%TO.N,unconnected-(J1-Pin_5-Pad5)*%
X161500000Y-93620000D03*
%TO.P,J1,6,Pin_6*%
%TO.N,3.3V*%
X161500000Y-96160000D03*
%TD*%
D12*
%TO.P,J6,1,Pin_1*%
%TO.N,Net-(J1-Pin_4)*%
X153500000Y-85880000D03*
D13*
%TO.P,J6,2,Pin_2*%
%TO.N,Net-(J1-Pin_3)*%
X153500000Y-88420000D03*
%TO.P,J6,3,Pin_3*%
%TO.N,Net-(J6-Pin_3)*%
X153500000Y-90960000D03*
%TO.P,J6,4,Pin_4*%
%TO.N,Net-(J6-Pin_4)*%
X153500000Y-93500000D03*
%TD*%
D14*
%TO.P,U1,1,~{RST}*%
%TO.N,Net-(U1-~{RST})*%
X130850000Y-86500000D03*
%TO.P,U1,2,ADC*%
%TO.N,Net-(J9-Pin_1)*%
X130850000Y-88500000D03*
%TO.P,U1,3,EN*%
%TO.N,Net-(U1-EN)*%
X130850000Y-90500000D03*
%TO.P,U1,4,GPIO16*%
%TO.N,Net-(J3-Pin_1)*%
X130850000Y-92500000D03*
%TO.P,U1,5,GPIO14*%
%TO.N,Net-(J3-Pin_2)*%
X130850000Y-94500000D03*
%TO.P,U1,6,GPIO12*%
%TO.N,Net-(J3-Pin_3)*%
X130850000Y-96500000D03*
%TO.P,U1,7,GPIO13*%
%TO.N,Net-(J3-Pin_4)*%
X130850000Y-98500000D03*
%TO.P,U1,8,VCC*%
%TO.N,3.3V*%
X130850000Y-100500000D03*
D15*
%TO.P,U1,9,CS0*%
%TO.N,unconnected-(U1-CS0-Pad9)*%
X133450000Y-102000000D03*
%TO.P,U1,10,MISO*%
%TO.N,unconnected-(U1-MISO-Pad10)*%
X135450000Y-102000000D03*
%TO.P,U1,11,GPIO9*%
%TO.N,unconnected-(U1-GPIO9-Pad11)*%
X137450000Y-102000000D03*
%TO.P,U1,12,GPIO10*%
%TO.N,unconnected-(U1-GPIO10-Pad12)*%
X139450000Y-102000000D03*
%TO.P,U1,13,MOSI*%
%TO.N,unconnected-(U1-MOSI-Pad13)*%
X141450000Y-102000000D03*
%TO.P,U1,14,SCLK*%
%TO.N,unconnected-(U1-SCLK-Pad14)*%
X143450000Y-102000000D03*
D14*
%TO.P,U1,15,GND*%
%TO.N,GND*%
X146050000Y-100500000D03*
%TO.P,U1,16,GPIO15*%
%TO.N,Net-(U1-GPIO15)*%
X146050000Y-98500000D03*
%TO.P,U1,17,GPIO2*%
%TO.N,Net-(U1-GPIO2)*%
X146050000Y-96500000D03*
%TO.P,U1,18,GPIO0*%
%TO.N,Net-(SW2-A)*%
X146050000Y-94500000D03*
%TO.P,U1,19,GPIO4*%
%TO.N,Net-(J6-Pin_4)*%
X146050000Y-92500000D03*
%TO.P,U1,20,GPIO5*%
%TO.N,Net-(J6-Pin_3)*%
X146050000Y-90500000D03*
%TO.P,U1,21,GPIO3/RXD*%
%TO.N,Net-(J1-Pin_3)*%
X146050000Y-88500000D03*
%TO.P,U1,22,GPIO1/TXD*%
%TO.N,Net-(J1-Pin_4)*%
X146050000Y-86500000D03*
%TD*%
D16*
%TO.P,SW2,1,A*%
%TO.N,Net-(SW2-A)*%
X153460000Y-80500000D03*
D10*
%TO.P,SW2,2,B*%
%TO.N,GND*%
X150920000Y-80500000D03*
%TO.P,SW2,3,C*%
%TO.N,Net-(SW2-C)*%
X156000000Y-80500000D03*
%TD*%
%TO.P,R2,1*%
%TO.N,3.3V*%
X119690000Y-80500000D03*
%TO.P,R2,2*%
%TO.N,Net-(U1-~{RST})*%
X127310000Y-80500000D03*
%TD*%
%TO.P,R4,1*%
%TO.N,3.3V*%
X157620000Y-103500000D03*
%TO.P,R4,2*%
%TO.N,Net-(U1-GPIO2)*%
X150000000Y-103500000D03*
%TD*%
%TO.P,R1,1*%
%TO.N,3.3V*%
X119190000Y-88500000D03*
%TO.P,R1,2*%
%TO.N,Net-(U1-EN)*%
X126810000Y-88500000D03*
%TD*%
D12*
%TO.P,RST,1,Pin_1*%
%TO.N,Net-(J9-Pin_1)*%
X125500000Y-84500000D03*
%TD*%
D10*
%TO.P,R5,1*%
%TO.N,3.3V*%
X150000000Y-106500000D03*
%TO.P,R5,2*%
%TO.N,Net-(SW2-C)*%
X157620000Y-106500000D03*
%TD*%
D17*
%TO.N,Net-(SW2-C)*%
X157000000Y-82710000D03*
%TO.N,Net-(SW2-A)*%
X149500000Y-93500000D03*
%TO.N,Net-(U1-GPIO2)*%
X148500000Y-97000000D03*
X148000000Y-101500000D03*
%TO.N,Net-(J1-Pin_4)*%
X156500000Y-87500000D03*
%TD*%
D18*
%TO.N,3.3V*%
X160500000Y-97160000D02*
X161500000Y-96160000D01*
X159500000Y-105000000D02*
X160500000Y-104000000D01*
X160500000Y-104000000D02*
X160500000Y-97160000D01*
X159500000Y-105500000D02*
X159500000Y-105000000D01*
X119190000Y-88500000D02*
X119190000Y-81000000D01*
X119190000Y-81000000D02*
X119690000Y-80500000D01*
%TO.N,Net-(U1-~{RST})*%
X128301000Y-85363074D02*
X128301000Y-81491000D01*
X129437926Y-86500000D02*
X128301000Y-85363074D01*
X130850000Y-86500000D02*
X129437926Y-86500000D01*
X128301000Y-81491000D02*
X127310000Y-80500000D01*
%TO.N,3.3V*%
X119190000Y-90690000D02*
X119190000Y-88500000D01*
X122000000Y-93500000D02*
X119190000Y-90690000D01*
X122000000Y-101000000D02*
X122000000Y-93500000D01*
X125500000Y-104500000D02*
X122000000Y-101000000D01*
X128700000Y-104500000D02*
X125500000Y-104500000D01*
X125500000Y-104777688D02*
X125500000Y-104500000D01*
X130503529Y-109781217D02*
X125500000Y-104777688D01*
X146718783Y-109781217D02*
X130503529Y-109781217D01*
X159500000Y-105500000D02*
X159500000Y-109000000D01*
X158718783Y-109781217D02*
X146718783Y-109781217D01*
X159500000Y-109000000D02*
X158718783Y-109781217D01*
X159500000Y-105380000D02*
X159500000Y-105500000D01*
X157620000Y-103500000D02*
X159500000Y-105380000D01*
%TO.N,Net-(SW2-C)*%
X156000000Y-81710000D02*
X157000000Y-82710000D01*
X156000000Y-80500000D02*
X156000000Y-81710000D01*
%TO.N,Net-(SW2-A)*%
X148500000Y-94500000D02*
X149500000Y-93500000D01*
X146050000Y-94500000D02*
X148500000Y-94500000D01*
%TO.N,Net-(U1-GPIO15)*%
X146050000Y-98500000D02*
X155810000Y-98500000D01*
X155810000Y-98500000D02*
X157810000Y-100500000D01*
%TO.N,Net-(U1-GPIO2)*%
X146550000Y-97000000D02*
X146050000Y-96500000D01*
X148500000Y-97000000D02*
X146550000Y-97000000D01*
X150000000Y-103500000D02*
X148000000Y-101500000D01*
%TO.N,3.3V*%
X150000000Y-106500000D02*
X146718783Y-109781217D01*
%TO.N,Net-(J9-Pin_1)*%
X126400000Y-85400000D02*
X125500000Y-84500000D01*
X127000000Y-85400000D02*
X126400000Y-85400000D01*
X130100000Y-88500000D02*
X127000000Y-85400000D01*
X130850000Y-88500000D02*
X130100000Y-88500000D01*
%TO.N,Net-(U1-EN)*%
X128810000Y-90500000D02*
X130850000Y-90500000D01*
X126810000Y-88500000D02*
X128810000Y-90500000D01*
%TO.N,3.3V*%
X128700000Y-104500000D02*
X130850000Y-102350000D01*
%TO.N,GND*%
X146050000Y-100500000D02*
X150190000Y-100500000D01*
X146050000Y-106450000D02*
X146050000Y-100500000D01*
X144749000Y-107751000D02*
X146050000Y-106450000D01*
X141295888Y-107751000D02*
X144749000Y-107751000D01*
X140044888Y-106500000D02*
X141295888Y-107751000D01*
X131751000Y-108251000D02*
X138293888Y-108251000D01*
X130500000Y-107000000D02*
X131751000Y-108251000D01*
X138293888Y-108251000D02*
X140044888Y-106500000D01*
%TO.N,3.3V*%
X140926258Y-104250000D02*
X142044888Y-105368630D01*
X132750000Y-104250000D02*
X140926258Y-104250000D01*
X132750000Y-104250000D02*
X135500000Y-107000000D01*
X142044888Y-105368630D02*
X142044888Y-106500000D01*
X130850000Y-102350000D02*
X132750000Y-104250000D01*
X130850000Y-100500000D02*
X130850000Y-102350000D01*
%TO.N,Net-(J3-Pin_4)*%
X126810000Y-98500000D02*
X125000000Y-100310000D01*
X130850000Y-98500000D02*
X126810000Y-98500000D01*
%TO.N,Net-(J3-Pin_3)*%
X126270000Y-96500000D02*
X125000000Y-97770000D01*
X130850000Y-96500000D02*
X126270000Y-96500000D01*
%TO.N,Net-(J3-Pin_2)*%
X125730000Y-94500000D02*
X125000000Y-95230000D01*
X130850000Y-94500000D02*
X125730000Y-94500000D01*
%TO.N,Net-(J3-Pin_1)*%
X130660000Y-92690000D02*
X130850000Y-92500000D01*
X125000000Y-92690000D02*
X130660000Y-92690000D01*
%TO.N,GND*%
X153880000Y-83460000D02*
X150920000Y-80500000D01*
X161500000Y-83460000D02*
X153880000Y-83460000D01*
%TO.N,Net-(J1-Pin_4)*%
X154880000Y-85880000D02*
X156500000Y-87500000D01*
X153500000Y-85880000D02*
X154880000Y-85880000D01*
%TO.N,Net-(J1-Pin_3)*%
X154420000Y-88420000D02*
X154540000Y-88540000D01*
X154540000Y-88540000D02*
X161500000Y-88540000D01*
X153500000Y-88420000D02*
X154420000Y-88420000D01*
%TO.N,Net-(J1-Pin_4)*%
X152880000Y-86500000D02*
X146050000Y-86500000D01*
X153500000Y-85880000D02*
X152880000Y-86500000D01*
%TO.N,Net-(J1-Pin_3)*%
X146130000Y-88420000D02*
X146050000Y-88500000D01*
X153500000Y-88420000D02*
X146130000Y-88420000D01*
%TO.N,Net-(J6-Pin_3)*%
X146510000Y-90960000D02*
X146050000Y-90500000D01*
X153500000Y-90960000D02*
X146510000Y-90960000D01*
%TO.N,Net-(J6-Pin_4)*%
X153500000Y-93500000D02*
X152500000Y-92500000D01*
X152500000Y-92500000D02*
X146050000Y-92500000D01*
%TD*%
%TA.AperFunction,Conductor*%
%TO.N,GND*%
G36*
X160318028Y-89292041D02*
G01*
X160323391Y-89290955D01*
X160351198Y-89301781D01*
X160379818Y-89310185D01*
X160384751Y-89314844D01*
X160388500Y-89316304D01*
X160413097Y-89341615D01*
X160469892Y-89419788D01*
X160620213Y-89570109D01*
X160792182Y-89695050D01*
X160800946Y-89699516D01*
X160851742Y-89747491D01*
X160868536Y-89815312D01*
X160845998Y-89881447D01*
X160800946Y-89920484D01*
X160792182Y-89924949D01*
X160620213Y-90049890D01*
X160469890Y-90200213D01*
X160344951Y-90372179D01*
X160248444Y-90561585D01*
X160182753Y-90763760D01*
X160149500Y-90973713D01*
X160149500Y-91186286D01*
X160182747Y-91396204D01*
X160182754Y-91396243D01*
X160248202Y-91597671D01*
X160248444Y-91598414D01*
X160344951Y-91787820D01*
X160469890Y-91959786D01*
X160620213Y-92110109D01*
X160792182Y-92235050D01*
X160800946Y-92239516D01*
X160851742Y-92287491D01*
X160868536Y-92355312D01*
X160845998Y-92421447D01*
X160800946Y-92460484D01*
X160792182Y-92464949D01*
X160620213Y-92589890D01*
X160469890Y-92740213D01*
X160344951Y-92912179D01*
X160248444Y-93101585D01*
X160182753Y-93303760D01*
X160161096Y-93440500D01*
X160149500Y-93513713D01*
X160149500Y-93726287D01*
X160157144Y-93774548D01*
X160176624Y-93897544D01*
X160182754Y-93936243D01*
X160227735Y-94074681D01*
X160248444Y-94138414D01*
X160344951Y-94327820D01*
X160469890Y-94499786D01*
X160620213Y-94650109D01*
X160792182Y-94775050D01*
X160800946Y-94779516D01*
X160851742Y-94827491D01*
X160868536Y-94895312D01*
X160845998Y-94961447D01*
X160800946Y-95000484D01*
X160792182Y-95004949D01*
X160620213Y-95129890D01*
X160469890Y-95280213D01*
X160344951Y-95452179D01*
X160248444Y-95641585D01*
X160182753Y-95843760D01*
X160149500Y-96053713D01*
X160149500Y-96266292D01*
X160164616Y-96361728D01*
X160155662Y-96431021D01*
X160129824Y-96468807D01*
X159917047Y-96681584D01*
X159878085Y-96739895D01*
X159878086Y-96739896D01*
X159834914Y-96804508D01*
X159778343Y-96941082D01*
X159778340Y-96941092D01*
X159749500Y-97086079D01*
X159749500Y-103637769D01*
X159729815Y-103704808D01*
X159713181Y-103725450D01*
X159397680Y-104040951D01*
X159336357Y-104074436D01*
X159266665Y-104069452D01*
X159222318Y-104040951D01*
X158946473Y-103765106D01*
X158912988Y-103703783D01*
X158911681Y-103658028D01*
X158920500Y-103602352D01*
X158920500Y-103397648D01*
X158911970Y-103343793D01*
X158888477Y-103195465D01*
X158833003Y-103024734D01*
X158825220Y-103000781D01*
X158825218Y-103000778D01*
X158825218Y-103000776D01*
X158767822Y-102888132D01*
X158732287Y-102818390D01*
X158724556Y-102807749D01*
X158611971Y-102652786D01*
X158467213Y-102508028D01*
X158301613Y-102387715D01*
X158301612Y-102387714D01*
X158301610Y-102387713D01*
X158244653Y-102358691D01*
X158119223Y-102294781D01*
X157924534Y-102231522D01*
X157749995Y-102203878D01*
X157722352Y-102199500D01*
X157517648Y-102199500D01*
X157493329Y-102203351D01*
X157315465Y-102231522D01*
X157120776Y-102294781D01*
X156938386Y-102387715D01*
X156772786Y-102508028D01*
X156628028Y-102652786D01*
X156507715Y-102818386D01*
X156414781Y-103000776D01*
X156351522Y-103195465D01*
X156319500Y-103397648D01*
X156319500Y-103602351D01*
X156351522Y-103804534D01*
X156414781Y-103999223D01*
X156507715Y-104181613D01*
X156628028Y-104347213D01*
X156772786Y-104491971D01*
X156868992Y-104561867D01*
X156938390Y-104612287D01*
X157054607Y-104671503D01*
X157120776Y-104705218D01*
X157120778Y-104705218D01*
X157120781Y-104705220D01*
X157192171Y-104728416D01*
X157315465Y-104768477D01*
X157356915Y-104775042D01*
X157517648Y-104800500D01*
X157517649Y-104800500D01*
X157722350Y-104800500D01*
X157722352Y-104800500D01*
X157778027Y-104791681D01*
X157847319Y-104800635D01*
X157885106Y-104826473D01*
X158100913Y-105042280D01*
X158134398Y-105103603D01*
X158129414Y-105173295D01*
X158087542Y-105229228D01*
X158022078Y-105253645D01*
X157974914Y-105247892D01*
X157924536Y-105231523D01*
X157789746Y-105210174D01*
X157722352Y-105199500D01*
X157517648Y-105199500D01*
X157493329Y-105203351D01*
X157315465Y-105231522D01*
X157120776Y-105294781D01*
X156938386Y-105387715D01*
X156772786Y-105508028D01*
X156628028Y-105652786D01*
X156507715Y-105818386D01*
X156414781Y-106000776D01*
X156351522Y-106195465D01*
X156319500Y-106397648D01*
X156319500Y-106602351D01*
X156351522Y-106804534D01*
X156414781Y-106999223D01*
X156433683Y-107036319D01*
X156505250Y-107176777D01*
X156507715Y-107181613D01*
X156628028Y-107347213D01*
X156772786Y-107491971D01*
X156885071Y-107573549D01*
X156938390Y-107612287D01*
X157054607Y-107671503D01*
X157120776Y-107705218D01*
X157120778Y-107705218D01*
X157120781Y-107705220D01*
X157210459Y-107734358D01*
X157315465Y-107768477D01*
X157399564Y-107781797D01*
X157517648Y-107800500D01*
X157517649Y-107800500D01*
X157722351Y-107800500D01*
X157722352Y-107800500D01*
X157924534Y-107768477D01*
X158119219Y-107705220D01*
X158301610Y-107612287D01*
X158401017Y-107540064D01*
X158467213Y-107491971D01*
X158467215Y-107491968D01*
X158467219Y-107491966D01*
X158537819Y-107421366D01*
X158599142Y-107387881D01*
X158668834Y-107392865D01*
X158724767Y-107434737D01*
X158749184Y-107500201D01*
X158749500Y-107509047D01*
X158749500Y-108637770D01*
X158729815Y-108704809D01*
X158713181Y-108725451D01*
X158444234Y-108994398D01*
X158382911Y-109027883D01*
X158356553Y-109030717D01*
X148830013Y-109030717D01*
X148762974Y-109011032D01*
X148717219Y-108958228D01*
X148707275Y-108889070D01*
X148736300Y-108825514D01*
X148742332Y-108819036D01*
X149237554Y-108323813D01*
X149734894Y-107826471D01*
X149796215Y-107792988D01*
X149841970Y-107791681D01*
X149897648Y-107800500D01*
X149897649Y-107800500D01*
X150102351Y-107800500D01*
X150102352Y-107800500D01*
X150304534Y-107768477D01*
X150499219Y-107705220D01*
X150681610Y-107612287D01*
X150781017Y-107540064D01*
X150847213Y-107491971D01*
X150847215Y-107491968D01*
X150847219Y-107491966D01*
X150991966Y-107347219D01*
X150991968Y-107347215D01*
X150991971Y-107347213D01*
X151044732Y-107274590D01*
X151112287Y-107181610D01*
X151205220Y-106999219D01*
X151268477Y-106804534D01*
X151300500Y-106602352D01*
X151300500Y-106397648D01*
X151280232Y-106269685D01*
X151268477Y-106195465D01*
X151237458Y-106100000D01*
X151205220Y-106000781D01*
X151205218Y-106000778D01*
X151205218Y-106000776D01*
X151147610Y-105887715D01*
X151112287Y-105818390D01*
X151095134Y-105794781D01*
X150991971Y-105652786D01*
X150847213Y-105508028D01*
X150681613Y-105387715D01*
X150681612Y-105387714D01*
X150681610Y-105387713D01*
X150622675Y-105357684D01*
X150499223Y-105294781D01*
X150304534Y-105231522D01*
X150129995Y-105203878D01*
X150102352Y-105199500D01*
X149897648Y-105199500D01*
X149873329Y-105203351D01*
X149695465Y-105231522D01*
X149500776Y-105294781D01*
X149318386Y-105387715D01*
X149152786Y-105508028D01*
X149008028Y-105652786D01*
X148887715Y-105818386D01*
X148794781Y-106000776D01*
X148731522Y-106195465D01*
X148699500Y-106397648D01*
X148699500Y-106602351D01*
X148708318Y-106658026D01*
X148699363Y-106727320D01*
X148673526Y-106765105D01*
X146444234Y-108994398D01*
X146382911Y-109027883D01*
X146356553Y-109030717D01*
X130865758Y-109030717D01*
X130798719Y-109011032D01*
X130778077Y-108994398D01*
X130294440Y-108510761D01*
X130260955Y-108449438D01*
X130265939Y-108379746D01*
X130307811Y-108323813D01*
X130373275Y-108299396D01*
X130392775Y-108300238D01*
X130392824Y-108299618D01*
X130397681Y-108300000D01*
X130602317Y-108300000D01*
X130804417Y-108267990D01*
X130999031Y-108204755D01*
X131181349Y-108111859D01*
X131225921Y-108079474D01*
X130546446Y-107400000D01*
X130552661Y-107400000D01*
X130654394Y-107372741D01*
X130745606Y-107320080D01*
X130820080Y-107245606D01*
X130872741Y-107154394D01*
X130900000Y-107052661D01*
X130900000Y-107046448D01*
X131579474Y-107725922D01*
X131579474Y-107725921D01*
X131611859Y-107681349D01*
X131704755Y-107499031D01*
X131767990Y-107304417D01*
X131800000Y-107102317D01*
X131800000Y-106897682D01*
X131767990Y-106695582D01*
X131704755Y-106500968D01*
X131611859Y-106318650D01*
X131579474Y-106274077D01*
X131579474Y-106274076D01*
X130900000Y-106953551D01*
X130900000Y-106947339D01*
X130872741Y-106845606D01*
X130820080Y-106754394D01*
X130745606Y-106679920D01*
X130654394Y-106627259D01*
X130552661Y-106600000D01*
X130546446Y-106600000D01*
X131225922Y-105920524D01*
X131225921Y-105920523D01*
X131181359Y-105888147D01*
X131181350Y-105888141D01*
X130999031Y-105795244D01*
X130804417Y-105732009D01*
X130602317Y-105700000D01*
X130397683Y-105700000D01*
X130195582Y-105732009D01*
X130000968Y-105795244D01*
X129818644Y-105888143D01*
X129774077Y-105920523D01*
X129774077Y-105920524D01*
X130453554Y-106600000D01*
X130447339Y-106600000D01*
X130345606Y-106627259D01*
X130254394Y-106679920D01*
X130179920Y-106754394D01*
X130127259Y-106845606D01*
X130100000Y-106947339D01*
X130100000Y-106953553D01*
X129420524Y-106274077D01*
X129420523Y-106274077D01*
X129388143Y-106318644D01*
X129295244Y-106500968D01*
X129232009Y-106695582D01*
X129200000Y-106897682D01*
X129200000Y-107102319D01*
X129200382Y-107107176D01*
X129198247Y-107107343D01*
X129190435Y-107167779D01*
X129145435Y-107221228D01*
X129078682Y-107241864D01*
X129011370Y-107223135D01*
X128989238Y-107205558D01*
X127245861Y-105462181D01*
X127212376Y-105400858D01*
X127217360Y-105331166D01*
X127259232Y-105275233D01*
X127324696Y-105250816D01*
X127333542Y-105250500D01*
X128773920Y-105250500D01*
X128880857Y-105229228D01*
X128918913Y-105221658D01*
X129055495Y-105165084D01*
X129104729Y-105132186D01*
X129178416Y-105082952D01*
X130762318Y-103499047D01*
X130823641Y-103465563D01*
X130893332Y-103470547D01*
X130937680Y-103499048D01*
X132167048Y-104728416D01*
X133170641Y-105732009D01*
X134173526Y-106734893D01*
X134207011Y-106796216D01*
X134208318Y-106841971D01*
X134199500Y-106897647D01*
X134199500Y-107102351D01*
X134231522Y-107304534D01*
X134294781Y-107499223D01*
X134387715Y-107681613D01*
X134508028Y-107847213D01*
X134652786Y-107991971D01*
X134773226Y-108079474D01*
X134818390Y-108112287D01*
X134934607Y-108171503D01*
X135000776Y-108205218D01*
X135000778Y-108205218D01*
X135000781Y-108205220D01*
X135105137Y-108239127D01*
X135195465Y-108268477D01*
X135296557Y-108284488D01*
X135397648Y-108300500D01*
X135397649Y-108300500D01*
X135602351Y-108300500D01*
X135602352Y-108300500D01*
X135804534Y-108268477D01*
X135999219Y-108205220D01*
X136181610Y-108112287D01*
X136274590Y-108044732D01*
X136347213Y-107991971D01*
X136347215Y-107991968D01*
X136347219Y-107991966D01*
X136491966Y-107847219D01*
X136491968Y-107847215D01*
X136491971Y-107847213D01*
X136549175Y-107768477D01*
X136612287Y-107681610D01*
X136705220Y-107499219D01*
X136768477Y-107304534D01*
X136800500Y-107102352D01*
X136800500Y-106897648D01*
X136792257Y-106845606D01*
X136772052Y-106718036D01*
X136768477Y-106695465D01*
X136711362Y-106519685D01*
X136705220Y-106500781D01*
X136705218Y-106500778D01*
X136705218Y-106500776D01*
X136652671Y-106397648D01*
X136612287Y-106318390D01*
X136580092Y-106274077D01*
X136491971Y-106152786D01*
X136347213Y-106008028D01*
X136181613Y-105887715D01*
X136181612Y-105887714D01*
X136181610Y-105887713D01*
X136111857Y-105852172D01*
X135999223Y-105794781D01*
X135804534Y-105731522D01*
X135629995Y-105703878D01*
X135602352Y-105699500D01*
X135397648Y-105699500D01*
X135341971Y-105708318D01*
X135272678Y-105699363D01*
X135234893Y-105673526D01*
X134773549Y-105212181D01*
X134740064Y-105150858D01*
X134745048Y-105081166D01*
X134786920Y-105025233D01*
X134852384Y-105000816D01*
X134861230Y-105000500D01*
X139207488Y-105000500D01*
X139274527Y-105020185D01*
X139320282Y-105072989D01*
X139330226Y-105142147D01*
X139301201Y-105205703D01*
X139246492Y-105242206D01*
X139175768Y-105265641D01*
X139175763Y-105265643D01*
X139026542Y-105357684D01*
X138902572Y-105481654D01*
X138810531Y-105630875D01*
X138810529Y-105630880D01*
X138755382Y-105797302D01*
X138755381Y-105797309D01*
X138744888Y-105900013D01*
X138744888Y-106250000D01*
X139729202Y-106250000D01*
X139724808Y-106254394D01*
X139672147Y-106345606D01*
X139644888Y-106447339D01*
X139644888Y-106552661D01*
X139672147Y-106654394D01*
X139724808Y-106745606D01*
X139729202Y-106750000D01*
X138744889Y-106750000D01*
X138744889Y-107099986D01*
X138755382Y-107202697D01*
X138810529Y-107369119D01*
X138810531Y-107369124D01*
X138902572Y-107518345D01*
X139026542Y-107642315D01*
X139175763Y-107734356D01*
X139175768Y-107734358D01*
X139342190Y-107789505D01*
X139342197Y-107789506D01*
X139444907Y-107799999D01*
X139794887Y-107799999D01*
X139794888Y-107799998D01*
X139794888Y-106815686D01*
X139799282Y-106820080D01*
X139890494Y-106872741D01*
X139992227Y-106900000D01*
X140097549Y-106900000D01*
X140199282Y-106872741D01*
X140290494Y-106820080D01*
X140294888Y-106815686D01*
X140294888Y-107799999D01*
X140644860Y-107799999D01*
X140644874Y-107799998D01*
X140747585Y-107789505D01*
X140914007Y-107734358D01*
X140914012Y-107734356D01*
X141063233Y-107642315D01*
X141132000Y-107573549D01*
X141193323Y-107540064D01*
X141263015Y-107545048D01*
X141292562Y-107560909D01*
X141363278Y-107612287D01*
X141422211Y-107642315D01*
X141545664Y-107705218D01*
X141545666Y-107705218D01*
X141545669Y-107705220D01*
X141635347Y-107734358D01*
X141740353Y-107768477D01*
X141824452Y-107781797D01*
X141942536Y-107800500D01*
X141942537Y-107800500D01*
X142147239Y-107800500D01*
X142147240Y-107800500D01*
X142349422Y-107768477D01*
X142544107Y-107705220D01*
X142726498Y-107612287D01*
X142825905Y-107540064D01*
X142892101Y-107491971D01*
X142892103Y-107491968D01*
X142892107Y-107491966D01*
X143036854Y-107347219D01*
X143036856Y-107347215D01*
X143036859Y-107347213D01*
X143089620Y-107274590D01*
X143157175Y-107181610D01*
X143250108Y-106999219D01*
X143313365Y-106804534D01*
X143345388Y-106602352D01*
X143345388Y-106397648D01*
X143325120Y-106269685D01*
X143313365Y-106195465D01*
X143282346Y-106100000D01*
X143250108Y-106000781D01*
X143250106Y-106000778D01*
X143250106Y-106000776D01*
X143192498Y-105887715D01*
X143157175Y-105818390D01*
X143140022Y-105794781D01*
X143036859Y-105652786D01*
X142892105Y-105508032D01*
X142892100Y-105508028D01*
X142846503Y-105474900D01*
X142845902Y-105474121D01*
X142844980Y-105473776D01*
X142824625Y-105446528D01*
X142803837Y-105419571D01*
X142803558Y-105418328D01*
X142803164Y-105417801D01*
X142802051Y-105411620D01*
X142795695Y-105383306D01*
X142795388Y-105378953D01*
X142795388Y-105294712D01*
X142787708Y-105256104D01*
X142766547Y-105149718D01*
X142733406Y-105069710D01*
X142709972Y-105013135D01*
X142651806Y-104926083D01*
X142627840Y-104890214D01*
X142084839Y-104347213D01*
X141404679Y-103667052D01*
X141404676Y-103667049D01*
X141345637Y-103627601D01*
X141300832Y-103573989D01*
X141292125Y-103504664D01*
X141322279Y-103441636D01*
X141381722Y-103404917D01*
X141414524Y-103400499D01*
X141997872Y-103400499D01*
X142057483Y-103394091D01*
X142192331Y-103343796D01*
X142307546Y-103257546D01*
X142350734Y-103199854D01*
X142406667Y-103157984D01*
X142476359Y-103153000D01*
X142537682Y-103186485D01*
X142549263Y-103199850D01*
X142592454Y-103257546D01*
X142621873Y-103279569D01*
X142707664Y-103343793D01*
X142707671Y-103343797D01*
X142842517Y-103394091D01*
X142842516Y-103394091D01*
X142849444Y-103394835D01*
X142902127Y-103400500D01*
X143997872Y-103400499D01*
X144057483Y-103394091D01*
X144192331Y-103343796D01*
X144307546Y-103257546D01*
X144393796Y-103142331D01*
X144416795Y-103080668D01*
X144458665Y-103024734D01*
X144524129Y-103000316D01*
X144532977Y-103000000D01*
X147500000Y-103000000D01*
X147500000Y-102360729D01*
X147519685Y-102293690D01*
X147572489Y-102247935D01*
X147641647Y-102237991D01*
X147705203Y-102267016D01*
X147711667Y-102273035D01*
X148257019Y-102818386D01*
X148673526Y-103234893D01*
X148707011Y-103296216D01*
X148708318Y-103341971D01*
X148699500Y-103397647D01*
X148699500Y-103602351D01*
X148731522Y-103804534D01*
X148794781Y-103999223D01*
X148887715Y-104181613D01*
X149008028Y-104347213D01*
X149152786Y-104491971D01*
X149248992Y-104561867D01*
X149318390Y-104612287D01*
X149434607Y-104671503D01*
X149500776Y-104705218D01*
X149500778Y-104705218D01*
X149500781Y-104705220D01*
X149572171Y-104728416D01*
X149695465Y-104768477D01*
X149736915Y-104775042D01*
X149897648Y-104800500D01*
X149897649Y-104800500D01*
X150102351Y-104800500D01*
X150102352Y-104800500D01*
X150304534Y-104768477D01*
X150499219Y-104705220D01*
X150681610Y-104612287D01*
X150774590Y-104544732D01*
X150847213Y-104491971D01*
X150847215Y-104491968D01*
X150847219Y-104491966D01*
X150991966Y-104347219D01*
X150991968Y-104347215D01*
X150991971Y-104347213D01*
X151044732Y-104274590D01*
X151112287Y-104181610D01*
X151205220Y-103999219D01*
X151268477Y-103804534D01*
X151300500Y-103602352D01*
X151300500Y-103397648D01*
X151291970Y-103343793D01*
X151268477Y-103195465D01*
X151213003Y-103024734D01*
X151205220Y-103000781D01*
X151205218Y-103000778D01*
X151205218Y-103000776D01*
X151147822Y-102888132D01*
X151112287Y-102818390D01*
X151104556Y-102807749D01*
X150991971Y-102652786D01*
X150847213Y-102508028D01*
X150681613Y-102387715D01*
X150681612Y-102387714D01*
X150681610Y-102387713D01*
X150624653Y-102358691D01*
X150499223Y-102294781D01*
X150304534Y-102231522D01*
X150129995Y-102203878D01*
X150102352Y-102199500D01*
X149897648Y-102199500D01*
X149841971Y-102208318D01*
X149772678Y-102199363D01*
X149734893Y-102173526D01*
X149378372Y-101817004D01*
X149344887Y-101755681D01*
X149349871Y-101685989D01*
X149391743Y-101630056D01*
X149457207Y-101605639D01*
X149522348Y-101618838D01*
X149690968Y-101704755D01*
X149885582Y-101767990D01*
X150087683Y-101800000D01*
X150292317Y-101800000D01*
X150494417Y-101767990D01*
X150689031Y-101704755D01*
X150871349Y-101611859D01*
X150915921Y-101579474D01*
X150236446Y-100900000D01*
X150242661Y-100900000D01*
X150344394Y-100872741D01*
X150435606Y-100820080D01*
X150510080Y-100745606D01*
X150562741Y-100654394D01*
X150590000Y-100552661D01*
X150590000Y-100546447D01*
X151269474Y-101225921D01*
X151301859Y-101181349D01*
X151394755Y-100999031D01*
X151457990Y-100804417D01*
X151490000Y-100602317D01*
X151490000Y-100397682D01*
X151457990Y-100195582D01*
X151394755Y-100000968D01*
X151301859Y-99818650D01*
X151269474Y-99774077D01*
X151269474Y-99774076D01*
X150590000Y-100453551D01*
X150590000Y-100447339D01*
X150562741Y-100345606D01*
X150510080Y-100254394D01*
X150435606Y-100179920D01*
X150344394Y-100127259D01*
X150242661Y-100100000D01*
X150236446Y-100100000D01*
X150915922Y-99420524D01*
X150913066Y-99384228D01*
X150927431Y-99315851D01*
X150976482Y-99266094D01*
X151036684Y-99250500D01*
X155447770Y-99250500D01*
X155514809Y-99270185D01*
X155535451Y-99286819D01*
X156483526Y-100234893D01*
X156517011Y-100296216D01*
X156518318Y-100341971D01*
X156509500Y-100397647D01*
X156509500Y-100397648D01*
X156509500Y-100602352D01*
X156513283Y-100626239D01*
X156541522Y-100804534D01*
X156604781Y-100999223D01*
X156642841Y-101073918D01*
X156690402Y-101167262D01*
X156697715Y-101181613D01*
X156818028Y-101347213D01*
X156962786Y-101491971D01*
X157083226Y-101579474D01*
X157128390Y-101612287D01*
X157244607Y-101671503D01*
X157310776Y-101705218D01*
X157310778Y-101705218D01*
X157310781Y-101705220D01*
X157397809Y-101733497D01*
X157505465Y-101768477D01*
X157606557Y-101784488D01*
X157707648Y-101800500D01*
X157707649Y-101800500D01*
X157912351Y-101800500D01*
X157912352Y-101800500D01*
X158114534Y-101768477D01*
X158309219Y-101705220D01*
X158491610Y-101612287D01*
X158634235Y-101508665D01*
X158657213Y-101491971D01*
X158657215Y-101491968D01*
X158657219Y-101491966D01*
X158801966Y-101347219D01*
X158801968Y-101347215D01*
X158801971Y-101347213D01*
X158896505Y-101217096D01*
X158922287Y-101181610D01*
X159015220Y-100999219D01*
X159078477Y-100804534D01*
X159110500Y-100602352D01*
X159110500Y-100397648D01*
X159102247Y-100345541D01*
X159078477Y-100195465D01*
X159015353Y-100001191D01*
X159015220Y-100000781D01*
X159015218Y-100000778D01*
X159015218Y-100000776D01*
X158981503Y-99934607D01*
X158922287Y-99818390D01*
X158913583Y-99806410D01*
X158801971Y-99652786D01*
X158657213Y-99508028D01*
X158491613Y-99387715D01*
X158491612Y-99387714D01*
X158491610Y-99387713D01*
X158432404Y-99357546D01*
X158309223Y-99294781D01*
X158114534Y-99231522D01*
X157939995Y-99203878D01*
X157912352Y-99199500D01*
X157707648Y-99199500D01*
X157651971Y-99208318D01*
X157582678Y-99199363D01*
X157544893Y-99173526D01*
X156288421Y-97917052D01*
X156288414Y-97917046D01*
X156214729Y-97867812D01*
X156214729Y-97867813D01*
X156165491Y-97834913D01*
X156028917Y-97778343D01*
X156028907Y-97778340D01*
X155883920Y-97749500D01*
X155883918Y-97749500D01*
X149181941Y-97749500D01*
X149114902Y-97729815D01*
X149069147Y-97677011D01*
X149059203Y-97607853D01*
X149088228Y-97544297D01*
X149094260Y-97537819D01*
X149121786Y-97510292D01*
X149121789Y-97510289D01*
X149209394Y-97379179D01*
X149269737Y-97233497D01*
X149300500Y-97078842D01*
X149300500Y-96921158D01*
X149300500Y-96921155D01*
X149300499Y-96921153D01*
X149289890Y-96867820D01*
X149269737Y-96766503D01*
X149233249Y-96678412D01*
X149209397Y-96620827D01*
X149209390Y-96620814D01*
X149121789Y-96489711D01*
X149121786Y-96489707D01*
X149010292Y-96378213D01*
X149010288Y-96378210D01*
X148879185Y-96290609D01*
X148879172Y-96290602D01*
X148733501Y-96230264D01*
X148733489Y-96230261D01*
X148578845Y-96199500D01*
X148578842Y-96199500D01*
X148421158Y-96199500D01*
X148421155Y-96199500D01*
X148266511Y-96230260D01*
X148266506Y-96230262D01*
X148266504Y-96230262D01*
X148266503Y-96230263D01*
X148242844Y-96240062D01*
X148195396Y-96249500D01*
X147924499Y-96249500D01*
X147857460Y-96229815D01*
X147811705Y-96177011D01*
X147800499Y-96125500D01*
X147800499Y-95952129D01*
X147800498Y-95952123D01*
X147798960Y-95937816D01*
X147794091Y-95892517D01*
X147743796Y-95757669D01*
X147743795Y-95757668D01*
X147743793Y-95757664D01*
X147657547Y-95642455D01*
X147657545Y-95642453D01*
X147611325Y-95607853D01*
X147599854Y-95599265D01*
X147557983Y-95543333D01*
X147552999Y-95473642D01*
X147586484Y-95412319D01*
X147586514Y-95412289D01*
X147592769Y-95406037D01*
X147657546Y-95357546D01*
X147705807Y-95293076D01*
X147712100Y-95286789D01*
X147735279Y-95274142D01*
X147756419Y-95258318D01*
X147768167Y-95256198D01*
X147773434Y-95253325D01*
X147781056Y-95253872D01*
X147799751Y-95250500D01*
X148573920Y-95250500D01*
X148671462Y-95231096D01*
X148718913Y-95221658D01*
X148855495Y-95165084D01*
X148904729Y-95132186D01*
X148908157Y-95129896D01*
X148941701Y-95107483D01*
X148978416Y-95082952D01*
X149815297Y-94246069D01*
X149855522Y-94219192D01*
X149879179Y-94209394D01*
X150010289Y-94121789D01*
X150121789Y-94010289D01*
X150209394Y-93879179D01*
X150269737Y-93733497D01*
X150300500Y-93578842D01*
X150300500Y-93421158D01*
X150296442Y-93400758D01*
X150296031Y-93398690D01*
X150302260Y-93329099D01*
X150345123Y-93273922D01*
X150411013Y-93250678D01*
X150417649Y-93250500D01*
X152026998Y-93250500D01*
X152094037Y-93270185D01*
X152139792Y-93322989D01*
X152149256Y-93388812D01*
X152149882Y-93388862D01*
X152149663Y-93391640D01*
X152149736Y-93392147D01*
X152149500Y-93393706D01*
X152149500Y-93606286D01*
X152181902Y-93810867D01*
X152182754Y-93816243D01*
X152245803Y-94010288D01*
X152248444Y-94018414D01*
X152344951Y-94207820D01*
X152469890Y-94379786D01*
X152620213Y-94530109D01*
X152792179Y-94655048D01*
X152792181Y-94655049D01*
X152792184Y-94655051D01*
X152981588Y-94751557D01*
X153183757Y-94817246D01*
X153393713Y-94850500D01*
X153393714Y-94850500D01*
X153606286Y-94850500D01*
X153606287Y-94850500D01*
X153816243Y-94817246D01*
X154018412Y-94751557D01*
X154207816Y-94655051D01*
X154229789Y-94639086D01*
X154379786Y-94530109D01*
X154379788Y-94530106D01*
X154379792Y-94530104D01*
X154530104Y-94379792D01*
X154530106Y-94379788D01*
X154530109Y-94379786D01*
X154646787Y-94219191D01*
X154655051Y-94207816D01*
X154751557Y-94018412D01*
X154817246Y-93816243D01*
X154850500Y-93606287D01*
X154850500Y-93393713D01*
X154817246Y-93183757D01*
X154751557Y-92981588D01*
X154655051Y-92792184D01*
X154655049Y-92792181D01*
X154655048Y-92792179D01*
X154530109Y-92620213D01*
X154379786Y-92469890D01*
X154207820Y-92344951D01*
X154207115Y-92344591D01*
X154199054Y-92340485D01*
X154148259Y-92292512D01*
X154131463Y-92224692D01*
X154153999Y-92158556D01*
X154199054Y-92119515D01*
X154207816Y-92115051D01*
X154229789Y-92099086D01*
X154379786Y-91990109D01*
X154379788Y-91990106D01*
X154379792Y-91990104D01*
X154530104Y-91839792D01*
X154530106Y-91839788D01*
X154530109Y-91839786D01*
X154655048Y-91667820D01*
X154655047Y-91667820D01*
X154655051Y-91667816D01*
X154751557Y-91478412D01*
X154817246Y-91276243D01*
X154850500Y-91066287D01*
X154850500Y-90853713D01*
X154817246Y-90643757D01*
X154751557Y-90441588D01*
X154655051Y-90252184D01*
X154655049Y-90252181D01*
X154655048Y-90252179D01*
X154530109Y-90080213D01*
X154379786Y-89929890D01*
X154207820Y-89804951D01*
X154207115Y-89804591D01*
X154199054Y-89800485D01*
X154148259Y-89752512D01*
X154131463Y-89684692D01*
X154153999Y-89618556D01*
X154199054Y-89579515D01*
X154207816Y-89575051D01*
X154249046Y-89545096D01*
X154379786Y-89450109D01*
X154379788Y-89450106D01*
X154379792Y-89450104D01*
X154503077Y-89326819D01*
X154564400Y-89293334D01*
X154590758Y-89290500D01*
X154613918Y-89290500D01*
X160312779Y-89290500D01*
X160318028Y-89292041D01*
G37*
%TD.AperFunction*%
%TA.AperFunction,Conductor*%
G36*
X149410355Y-99270185D02*
G01*
X149456110Y-99322989D01*
X149466934Y-99384230D01*
X149464077Y-99420524D01*
X150143554Y-100100000D01*
X150137339Y-100100000D01*
X150035606Y-100127259D01*
X149944394Y-100179920D01*
X149869920Y-100254394D01*
X149817259Y-100345606D01*
X149790000Y-100447339D01*
X149790000Y-100453553D01*
X149110524Y-99774077D01*
X149110523Y-99774077D01*
X149078143Y-99818644D01*
X148985244Y-100000968D01*
X148922009Y-100195582D01*
X148890000Y-100397682D01*
X148890000Y-100602317D01*
X148922009Y-100804417D01*
X148985244Y-100999031D01*
X149071160Y-101167650D01*
X149074130Y-101183465D01*
X149081841Y-101197587D01*
X149080445Y-101217096D01*
X149084056Y-101236320D01*
X149078004Y-101251228D01*
X149076857Y-101267279D01*
X149065134Y-101282938D01*
X149057779Y-101301060D01*
X149044627Y-101310330D01*
X149034985Y-101323212D01*
X149016660Y-101330046D01*
X149000673Y-101341317D01*
X148984596Y-101342006D01*
X148969521Y-101347629D01*
X148950408Y-101343471D01*
X148930867Y-101344309D01*
X148916210Y-101336031D01*
X148901248Y-101332777D01*
X148872994Y-101311626D01*
X148746071Y-101184703D01*
X148719191Y-101144475D01*
X148709394Y-101120821D01*
X148678056Y-101073920D01*
X148621789Y-100989710D01*
X148510292Y-100878213D01*
X148510288Y-100878210D01*
X148379185Y-100790609D01*
X148379172Y-100790602D01*
X148233501Y-100730264D01*
X148233489Y-100730261D01*
X148078845Y-100699500D01*
X148078842Y-100699500D01*
X147921158Y-100699500D01*
X147921155Y-100699500D01*
X147766510Y-100730261D01*
X147766507Y-100730262D01*
X147766506Y-100730262D01*
X147766503Y-100730263D01*
X147685410Y-100763852D01*
X147671452Y-100769634D01*
X147601982Y-100777102D01*
X147539503Y-100745826D01*
X147503851Y-100685737D01*
X147500000Y-100655072D01*
X147500000Y-99537554D01*
X147509271Y-99505979D01*
X147517470Y-99474093D01*
X147519198Y-99472172D01*
X147519685Y-99470515D01*
X147539664Y-99446651D01*
X147544455Y-99442205D01*
X147657546Y-99357546D01*
X147707196Y-99291221D01*
X147715415Y-99283597D01*
X147737058Y-99272810D01*
X147756419Y-99258318D01*
X147771653Y-99255569D01*
X147777949Y-99252432D01*
X147784857Y-99253187D01*
X147799751Y-99250500D01*
X149343316Y-99250500D01*
X149410355Y-99270185D01*
G37*
%TD.AperFunction*%
%TA.AperFunction,Conductor*%
G36*
X163442539Y-78020185D02*
G01*
X163488294Y-78072989D01*
X163499500Y-78124500D01*
X163499500Y-97488032D01*
X163479815Y-97555071D01*
X163427011Y-97600826D01*
X163399818Y-97609624D01*
X161462481Y-97997092D01*
X161460384Y-97997493D01*
X161449365Y-97999500D01*
X161434108Y-97999500D01*
X161401709Y-98008180D01*
X161396721Y-98009089D01*
X161366811Y-98005923D01*
X161336739Y-98005207D01*
X161332421Y-98002284D01*
X161327239Y-98001736D01*
X161303791Y-97982905D01*
X161278878Y-97966042D01*
X161276826Y-97961249D01*
X161272762Y-97957986D01*
X161263216Y-97929465D01*
X161251376Y-97901812D01*
X161250816Y-97892415D01*
X161250587Y-97891729D01*
X161250739Y-97891125D01*
X161250500Y-97887096D01*
X161250500Y-97633002D01*
X161270185Y-97565963D01*
X161322989Y-97520208D01*
X161388812Y-97510743D01*
X161388862Y-97510118D01*
X161391640Y-97510336D01*
X161392147Y-97510264D01*
X161393706Y-97510499D01*
X161393713Y-97510500D01*
X161606286Y-97510500D01*
X161606287Y-97510500D01*
X161816243Y-97477246D01*
X162018412Y-97411557D01*
X162207816Y-97315051D01*
X162295170Y-97251585D01*
X162379786Y-97190109D01*
X162379788Y-97190106D01*
X162379792Y-97190104D01*
X162530104Y-97039792D01*
X162530106Y-97039788D01*
X162530109Y-97039786D01*
X162655048Y-96867820D01*
X162655047Y-96867820D01*
X162655051Y-96867816D01*
X162751557Y-96678412D01*
X162817246Y-96476243D01*
X162850500Y-96266287D01*
X162850500Y-96053713D01*
X162817246Y-95843757D01*
X162751557Y-95641588D01*
X162655051Y-95452184D01*
X162655049Y-95452181D01*
X162655048Y-95452179D01*
X162530109Y-95280213D01*
X162379786Y-95129890D01*
X162207820Y-95004951D01*
X162207115Y-95004591D01*
X162199054Y-95000485D01*
X162148259Y-94952512D01*
X162131463Y-94884692D01*
X162153999Y-94818556D01*
X162199054Y-94779515D01*
X162207816Y-94775051D01*
X162295170Y-94711585D01*
X162379786Y-94650109D01*
X162379788Y-94650106D01*
X162379792Y-94650104D01*
X162530104Y-94499792D01*
X162530106Y-94499788D01*
X162530109Y-94499786D01*
X162655048Y-94327820D01*
X162655047Y-94327820D01*
X162655051Y-94327816D01*
X162751557Y-94138412D01*
X162817246Y-93936243D01*
X162850500Y-93726287D01*
X162850500Y-93513713D01*
X162817246Y-93303757D01*
X162751557Y-93101588D01*
X162655051Y-92912184D01*
X162655049Y-92912181D01*
X162655048Y-92912179D01*
X162530109Y-92740213D01*
X162379786Y-92589890D01*
X162207820Y-92464951D01*
X162207115Y-92464591D01*
X162199054Y-92460485D01*
X162148259Y-92412512D01*
X162131463Y-92344692D01*
X162153999Y-92278556D01*
X162199054Y-92239515D01*
X162207816Y-92235051D01*
X162240153Y-92211557D01*
X162379786Y-92110109D01*
X162379788Y-92110106D01*
X162379792Y-92110104D01*
X162530104Y-91959792D01*
X162530106Y-91959788D01*
X162530109Y-91959786D01*
X162655048Y-91787820D01*
X162655047Y-91787820D01*
X162655051Y-91787816D01*
X162751557Y-91598412D01*
X162817246Y-91396243D01*
X162850500Y-91186287D01*
X162850500Y-90973713D01*
X162817246Y-90763757D01*
X162751557Y-90561588D01*
X162655051Y-90372184D01*
X162655049Y-90372181D01*
X162655048Y-90372179D01*
X162530109Y-90200213D01*
X162379786Y-90049890D01*
X162207820Y-89924951D01*
X162207115Y-89924591D01*
X162199054Y-89920485D01*
X162148259Y-89872512D01*
X162131463Y-89804692D01*
X162153999Y-89738556D01*
X162199054Y-89699515D01*
X162207816Y-89695051D01*
X162280210Y-89642454D01*
X162379786Y-89570109D01*
X162379788Y-89570106D01*
X162379792Y-89570104D01*
X162530104Y-89419792D01*
X162530106Y-89419788D01*
X162530109Y-89419786D01*
X162655048Y-89247820D01*
X162655047Y-89247820D01*
X162655051Y-89247816D01*
X162751557Y-89058412D01*
X162817246Y-88856243D01*
X162850500Y-88646287D01*
X162850500Y-88433713D01*
X162817246Y-88223757D01*
X162751557Y-88021588D01*
X162655051Y-87832184D01*
X162655049Y-87832181D01*
X162655048Y-87832179D01*
X162530109Y-87660213D01*
X162379786Y-87509890D01*
X162207820Y-87384951D01*
X162207115Y-87384591D01*
X162199054Y-87380485D01*
X162148259Y-87332512D01*
X162131463Y-87264692D01*
X162153999Y-87198556D01*
X162199054Y-87159515D01*
X162207816Y-87155051D01*
X162300728Y-87087547D01*
X162379786Y-87030109D01*
X162379788Y-87030106D01*
X162379792Y-87030104D01*
X162530104Y-86879792D01*
X162530106Y-86879788D01*
X162530109Y-86879786D01*
X162655048Y-86707820D01*
X162655047Y-86707820D01*
X162655051Y-86707816D01*
X162751557Y-86518412D01*
X162817246Y-86316243D01*
X162850500Y-86106287D01*
X162850500Y-85893713D01*
X162817246Y-85683757D01*
X162751557Y-85481588D01*
X162655051Y-85292184D01*
X162655049Y-85292181D01*
X162655048Y-85292179D01*
X162530109Y-85120213D01*
X162416181Y-85006285D01*
X162382696Y-84944962D01*
X162387680Y-84875270D01*
X162429552Y-84819337D01*
X162460529Y-84802422D01*
X162592086Y-84753354D01*
X162592093Y-84753350D01*
X162707187Y-84667190D01*
X162707190Y-84667187D01*
X162793350Y-84552093D01*
X162793354Y-84552086D01*
X162843596Y-84417379D01*
X162843598Y-84417372D01*
X162849999Y-84357844D01*
X162850000Y-84357827D01*
X162850000Y-83710000D01*
X161933012Y-83710000D01*
X161965925Y-83652993D01*
X162000000Y-83525826D01*
X162000000Y-83394174D01*
X161965925Y-83267007D01*
X161933012Y-83210000D01*
X162850000Y-83210000D01*
X162850000Y-82562172D01*
X162849999Y-82562155D01*
X162843598Y-82502627D01*
X162843596Y-82502620D01*
X162793354Y-82367913D01*
X162793350Y-82367906D01*
X162707190Y-82252812D01*
X162707187Y-82252809D01*
X162592093Y-82166649D01*
X162592086Y-82166645D01*
X162457379Y-82116403D01*
X162457372Y-82116401D01*
X162397844Y-82110000D01*
X161750000Y-82110000D01*
X161750000Y-83026988D01*
X161692993Y-82994075D01*
X161565826Y-82960000D01*
X161434174Y-82960000D01*
X161307007Y-82994075D01*
X161250000Y-83026988D01*
X161250000Y-82110000D01*
X160602155Y-82110000D01*
X160542627Y-82116401D01*
X160542620Y-82116403D01*
X160407913Y-82166645D01*
X160407906Y-82166649D01*
X160292812Y-82252809D01*
X160292809Y-82252812D01*
X160206649Y-82367906D01*
X160206645Y-82367913D01*
X160156403Y-82502620D01*
X160156401Y-82502627D01*
X160150000Y-82562155D01*
X160150000Y-83210000D01*
X161066988Y-83210000D01*
X161034075Y-83267007D01*
X161000000Y-83394174D01*
X161000000Y-83525826D01*
X161034075Y-83652993D01*
X161066988Y-83710000D01*
X160150000Y-83710000D01*
X160150000Y-84357844D01*
X160156401Y-84417372D01*
X160156403Y-84417379D01*
X160206645Y-84552086D01*
X160206649Y-84552093D01*
X160292809Y-84667187D01*
X160292812Y-84667190D01*
X160407906Y-84753350D01*
X160407913Y-84753354D01*
X160539470Y-84802422D01*
X160595404Y-84844293D01*
X160619821Y-84909758D01*
X160604969Y-84978031D01*
X160583819Y-85006285D01*
X160469889Y-85120215D01*
X160344951Y-85292179D01*
X160248444Y-85481585D01*
X160182753Y-85683760D01*
X160149500Y-85893713D01*
X160149500Y-86106286D01*
X160182753Y-86316239D01*
X160248444Y-86518414D01*
X160344951Y-86707820D01*
X160469890Y-86879786D01*
X160620213Y-87030109D01*
X160792182Y-87155050D01*
X160800946Y-87159516D01*
X160851742Y-87207491D01*
X160868536Y-87275312D01*
X160845998Y-87341447D01*
X160800946Y-87380484D01*
X160792182Y-87384949D01*
X160620213Y-87509890D01*
X160469892Y-87660211D01*
X160413097Y-87738385D01*
X160357767Y-87781051D01*
X160312779Y-87789500D01*
X157409692Y-87789500D01*
X157342653Y-87769815D01*
X157296898Y-87717011D01*
X157286954Y-87647853D01*
X157288075Y-87641308D01*
X157300500Y-87578844D01*
X157300500Y-87421155D01*
X157300499Y-87421153D01*
X157294729Y-87392147D01*
X157269737Y-87266503D01*
X157263546Y-87251557D01*
X157209397Y-87120827D01*
X157209390Y-87120814D01*
X157121789Y-86989711D01*
X157121786Y-86989707D01*
X157010292Y-86878213D01*
X157010288Y-86878210D01*
X156879185Y-86790609D01*
X156879175Y-86790604D01*
X156855523Y-86780807D01*
X156815295Y-86753927D01*
X155358413Y-85297045D01*
X155309179Y-85264150D01*
X155276355Y-85242218D01*
X155235495Y-85214916D01*
X155235494Y-85214915D01*
X155235492Y-85214914D01*
X155235490Y-85214913D01*
X155098917Y-85158343D01*
X155098907Y-85158340D01*
X154950307Y-85128781D01*
X154888396Y-85096396D01*
X154853822Y-85035680D01*
X154850499Y-85007164D01*
X154850499Y-84982129D01*
X154850498Y-84982123D01*
X154850497Y-84982116D01*
X154844091Y-84922517D01*
X154839332Y-84909758D01*
X154793797Y-84787671D01*
X154793793Y-84787664D01*
X154707547Y-84672455D01*
X154707544Y-84672452D01*
X154592335Y-84586206D01*
X154592328Y-84586202D01*
X154457482Y-84535908D01*
X154457483Y-84535908D01*
X154397883Y-84529501D01*
X154397881Y-84529500D01*
X154397873Y-84529500D01*
X154397864Y-84529500D01*
X152602129Y-84529500D01*
X152602123Y-84529501D01*
X152542516Y-84535908D01*
X152407671Y-84586202D01*
X152407664Y-84586206D01*
X152292455Y-84672452D01*
X152292452Y-84672455D01*
X152206206Y-84787664D01*
X152206202Y-84787671D01*
X152155908Y-84922517D01*
X152150815Y-84969896D01*
X152149501Y-84982123D01*
X152149500Y-84982135D01*
X152149500Y-85625500D01*
X152129815Y-85692539D01*
X152077011Y-85738294D01*
X152025500Y-85749500D01*
X148612902Y-85749500D01*
X148545863Y-85729815D01*
X148500108Y-85677011D01*
X148490164Y-85607853D01*
X148493127Y-85593407D01*
X148500500Y-85565892D01*
X148500500Y-80397682D01*
X149620000Y-80397682D01*
X149620000Y-80602317D01*
X149652009Y-80804417D01*
X149715244Y-80999031D01*
X149808141Y-81181350D01*
X149808147Y-81181359D01*
X149840523Y-81225921D01*
X149840524Y-81225922D01*
X150520000Y-80546446D01*
X150520000Y-80552661D01*
X150547259Y-80654394D01*
X150599920Y-80745606D01*
X150674394Y-80820080D01*
X150765606Y-80872741D01*
X150867339Y-80900000D01*
X150873553Y-80900000D01*
X150194076Y-81579474D01*
X150238650Y-81611859D01*
X150420968Y-81704755D01*
X150615582Y-81767990D01*
X150817683Y-81800000D01*
X151022317Y-81800000D01*
X151224417Y-81767990D01*
X151419031Y-81704755D01*
X151601349Y-81611859D01*
X151645921Y-81579474D01*
X150966447Y-80900000D01*
X150972661Y-80900000D01*
X151074394Y-80872741D01*
X151165606Y-80820080D01*
X151240080Y-80745606D01*
X151292741Y-80654394D01*
X151320000Y-80552661D01*
X151320000Y-80546447D01*
X151999474Y-81225921D01*
X152010823Y-81225028D01*
X152041818Y-81201128D01*
X152111431Y-81195149D01*
X152173226Y-81227754D01*
X152207584Y-81288592D01*
X152210097Y-81303424D01*
X152215909Y-81357483D01*
X152266202Y-81492328D01*
X152266206Y-81492335D01*
X152352452Y-81607544D01*
X152352455Y-81607547D01*
X152467664Y-81693793D01*
X152467671Y-81693797D01*
X152602517Y-81744091D01*
X152602516Y-81744091D01*
X152609444Y-81744835D01*
X152662127Y-81750500D01*
X154257872Y-81750499D01*
X154317483Y-81744091D01*
X154452331Y-81693796D01*
X154567546Y-81607546D01*
X154653796Y-81492331D01*
X154704091Y-81357483D01*
X154709823Y-81304162D01*
X154736560Y-81239615D01*
X154793952Y-81199767D01*
X154863777Y-81197273D01*
X154923866Y-81232925D01*
X154933430Y-81244536D01*
X155008028Y-81347212D01*
X155008032Y-81347217D01*
X155008034Y-81347219D01*
X155152781Y-81491966D01*
X155198384Y-81525098D01*
X155241050Y-81580425D01*
X155249500Y-81625416D01*
X155249500Y-81783918D01*
X155249500Y-81783920D01*
X155249499Y-81783920D01*
X155278340Y-81928907D01*
X155278343Y-81928917D01*
X155334914Y-82065492D01*
X155367812Y-82114727D01*
X155367813Y-82114730D01*
X155417046Y-82188414D01*
X155417052Y-82188421D01*
X156253927Y-83025295D01*
X156280806Y-83065521D01*
X156290606Y-83089179D01*
X156290607Y-83089181D01*
X156378207Y-83220284D01*
X156378213Y-83220292D01*
X156489707Y-83331786D01*
X156489711Y-83331789D01*
X156620814Y-83419390D01*
X156620827Y-83419397D01*
X156766498Y-83479735D01*
X156766503Y-83479737D01*
X156921153Y-83510499D01*
X156921156Y-83510500D01*
X156921158Y-83510500D01*
X157078844Y-83510500D01*
X157078845Y-83510499D01*
X157233497Y-83479737D01*
X157379179Y-83419394D01*
X157510289Y-83331789D01*
X157621789Y-83220289D01*
X157709394Y-83089179D01*
X157769737Y-82943497D01*
X157800500Y-82788842D01*
X157800500Y-82631158D01*
X157800500Y-82631155D01*
X157800499Y-82631153D01*
X157790930Y-82583042D01*
X157769738Y-82476508D01*
X157769737Y-82476507D01*
X157769737Y-82476503D01*
X157724755Y-82367906D01*
X157709397Y-82330827D01*
X157709390Y-82330814D01*
X157621789Y-82199711D01*
X157621786Y-82199707D01*
X157510292Y-82088213D01*
X157510284Y-82088207D01*
X157379181Y-82000607D01*
X157379179Y-82000606D01*
X157355521Y-81990806D01*
X157315295Y-81963927D01*
X156932957Y-81581589D01*
X156899472Y-81520266D01*
X156904456Y-81450574D01*
X156932953Y-81406231D01*
X156991966Y-81347219D01*
X157112287Y-81181610D01*
X157205220Y-80999219D01*
X157268477Y-80804534D01*
X157300500Y-80602352D01*
X157300500Y-80397648D01*
X157292257Y-80345606D01*
X157268477Y-80195465D01*
X157237458Y-80100000D01*
X157205220Y-80000781D01*
X157205218Y-80000778D01*
X157205218Y-80000776D01*
X157171503Y-79934607D01*
X157112287Y-79818390D01*
X157080092Y-79774077D01*
X156991971Y-79652786D01*
X156847213Y-79508028D01*
X156681613Y-79387715D01*
X156681612Y-79387714D01*
X156681610Y-79387713D01*
X156624653Y-79358691D01*
X156499223Y-79294781D01*
X156304534Y-79231522D01*
X156129995Y-79203878D01*
X156102352Y-79199500D01*
X155897648Y-79199500D01*
X155873329Y-79203351D01*
X155695465Y-79231522D01*
X155500776Y-79294781D01*
X155318386Y-79387715D01*
X155152786Y-79508028D01*
X155008032Y-79652782D01*
X155008028Y-79652787D01*
X154933430Y-79755463D01*
X154878100Y-79798129D01*
X154808487Y-79804108D01*
X154746692Y-79771502D01*
X154712334Y-79710664D01*
X154709822Y-79695831D01*
X154704091Y-79642516D01*
X154653797Y-79507671D01*
X154653793Y-79507664D01*
X154567547Y-79392455D01*
X154567544Y-79392452D01*
X154452335Y-79306206D01*
X154452328Y-79306202D01*
X154317482Y-79255908D01*
X154317483Y-79255908D01*
X154257883Y-79249501D01*
X154257881Y-79249500D01*
X154257873Y-79249500D01*
X154257864Y-79249500D01*
X152662129Y-79249500D01*
X152662123Y-79249501D01*
X152602516Y-79255908D01*
X152467671Y-79306202D01*
X152467664Y-79306206D01*
X152352455Y-79392452D01*
X152352452Y-79392455D01*
X152266206Y-79507664D01*
X152266202Y-79507671D01*
X152215908Y-79642516D01*
X152210096Y-79696576D01*
X152183357Y-79761127D01*
X152125964Y-79800974D01*
X152056139Y-79803467D01*
X152007698Y-79774724D01*
X151999474Y-79774076D01*
X151320000Y-80453551D01*
X151320000Y-80447339D01*
X151292741Y-80345606D01*
X151240080Y-80254394D01*
X151165606Y-80179920D01*
X151074394Y-80127259D01*
X150972661Y-80100000D01*
X150966446Y-80100000D01*
X151645922Y-79420524D01*
X151645921Y-79420523D01*
X151601359Y-79388147D01*
X151601350Y-79388141D01*
X151419031Y-79295244D01*
X151224417Y-79232009D01*
X151022317Y-79200000D01*
X150817683Y-79200000D01*
X150615582Y-79232009D01*
X150420968Y-79295244D01*
X150238644Y-79388143D01*
X150194077Y-79420523D01*
X150194077Y-79420524D01*
X150873554Y-80100000D01*
X150867339Y-80100000D01*
X150765606Y-80127259D01*
X150674394Y-80179920D01*
X150599920Y-80254394D01*
X150547259Y-80345606D01*
X150520000Y-80447339D01*
X150520000Y-80453553D01*
X149840524Y-79774077D01*
X149840523Y-79774077D01*
X149808143Y-79818644D01*
X149715244Y-80000968D01*
X149652009Y-80195582D01*
X149620000Y-80397682D01*
X148500500Y-80397682D01*
X148500500Y-78124500D01*
X148520185Y-78057461D01*
X148572989Y-78011706D01*
X148624500Y-78000500D01*
X163375500Y-78000500D01*
X163442539Y-78020185D01*
G37*
%TD.AperFunction*%
%TD*%
M02*
