%TF.GenerationSoftware,KiCad,Pcbnew,9.0.7*%
%TF.CreationDate,2026-02-17T02:08:45-06:00*%
%TF.ProjectId,Esp12-F,45737031-322d-4462-9e6b-696361645f70,rev?*%
%TF.SameCoordinates,Original*%
%TF.FileFunction,Copper,L1,Top*%
%TF.FilePolarity,Positive*%
%FSLAX46Y46*%
G04 Gerber Fmt 4.6, Leading zero omitted, Abs format (unit mm)*
G04 Created by KiCad (PCBNEW 9.0.7) date 2026-02-17 02:08:45*
%MOMM*%
%LPD*%
G01*
G04 APERTURE LIST*
G04 Aperture macros list*
%AMRoundRect*
0 Rectangle with rounded corners*
0 $1 Rounding radius*
0 $2 $3 $4 $5 $6 $7 $8 $9 X,Y pos of 4 corners*
0 Add a 4 corners polygon primitive as box body*
4,1,4,$2,$3,$4,$5,$6,$7,$8,$9,$2,$3,0*
0 Add four circle primitives for the rounded corners*
1,1,$1+$1,$2,$3*
1,1,$1+$1,$4,$5*
1,1,$1+$1,$6,$7*
1,1,$1+$1,$8,$9*
0 Add four rect primitives between the rounded corners*
20,1,$1+$1,$2,$3,$4,$5,0*
20,1,$1+$1,$4,$5,$6,$7,0*
20,1,$1+$1,$6,$7,$8,$9,0*
20,1,$1+$1,$8,$9,$2,$3,0*%
G04 Aperture macros list end*
%TA.AperFunction,ComponentPad*%
%ADD10C,1.600000*%
%TD*%
%TA.AperFunction,ComponentPad*%
%ADD11RoundRect,0.250000X-0.550000X-0.550000X0.550000X-0.550000X0.550000X0.550000X-0.550000X0.550000X0*%
%TD*%
%TA.AperFunction,ComponentPad*%
%ADD12R,1.700000X1.700000*%
%TD*%
%TA.AperFunction,ComponentPad*%
%ADD13C,1.700000*%
%TD*%
%TA.AperFunction,SMDPad,CuDef*%
%ADD14R,2.500000X1.000000*%
%TD*%
%TA.AperFunction,SMDPad,CuDef*%
%ADD15R,1.000000X1.800000*%
%TD*%
%TA.AperFunction,ComponentPad*%
%ADD16R,1.500000X1.500000*%
%TD*%
%TA.AperFunction,ViaPad*%
%ADD17C,0.600000*%
%TD*%
%TA.AperFunction,Conductor*%
%ADD18C,0.500000*%
%TD*%
G04 APERTURE END LIST*
D10*
%TO.P,C2,1*%
%TO.N,GND*%
X135500000Y-109500000D03*
%TO.P,C2,2*%
%TO.N,3.3V*%
X135500000Y-104500000D03*
%TD*%
%TO.P,R3,1*%
%TO.N,GND*%
X150190000Y-100500000D03*
%TO.P,R3,2*%
%TO.N,Net-(U1-GPIO15)*%
X157810000Y-100500000D03*
%TD*%
D11*
%TO.P,C1,1*%
%TO.N,GND*%
X140044888Y-106500000D03*
D10*
%TO.P,C1,2*%
%TO.N,3.3V*%
X142044888Y-106500000D03*
%TD*%
D12*
%TO.P,J3,1,Pin_1*%
%TO.N,Net-(J3-Pin_1)*%
X125000000Y-92690000D03*
D13*
%TO.P,J3,2,Pin_2*%
%TO.N,Net-(J3-Pin_2)*%
X125000000Y-95230000D03*
%TO.P,J3,3,Pin_3*%
%TO.N,Net-(J3-Pin_3)*%
X125000000Y-97770000D03*
%TO.P,J3,4,Pin_4*%
%TO.N,Net-(J3-Pin_4)*%
X125000000Y-100310000D03*
%TD*%
D12*
%TO.P,J1,1,Pin_1*%
%TO.N,GND*%
X161500000Y-83460000D03*
D13*
%TO.P,J1,2,Pin_2*%
%TO.N,unconnected-(J1-Pin_2-Pad2)*%
X161500000Y-86000000D03*
%TO.P,J1,3,Pin_3*%
%TO.N,Net-(J1-Pin_3)*%
X161500000Y-88540000D03*
%TO.P,J1,4,Pin_4*%
%TO.N,Net-(J1-Pin_4)*%
X161500000Y-91080000D03*
%TO.P,J1,5,Pin_5*%
%TO.N,unconnected-(J1-Pin_5-Pad5)*%
X161500000Y-93620000D03*
%TO.P,J1,6,Pin_6*%
%TO.N,3.3V*%
X161500000Y-96160000D03*
%TD*%
D12*
%TO.P,J6,1,Pin_1*%
%TO.N,Net-(J1-Pin_4)*%
X153500000Y-85880000D03*
D13*
%TO.P,J6,2,Pin_2*%
%TO.N,Net-(J1-Pin_3)*%
X153500000Y-88420000D03*
%TO.P,J6,3,Pin_3*%
%TO.N,Net-(J6-Pin_3)*%
X153500000Y-90960000D03*
%TO.P,J6,4,Pin_4*%
%TO.N,Net-(J6-Pin_4)*%
X153500000Y-93500000D03*
%TD*%
D14*
%TO.P,U1,1,~{RST}*%
%TO.N,Net-(U1-~{RST})*%
X130850000Y-86500000D03*
%TO.P,U1,2,ADC*%
%TO.N,Net-(J9-Pin_1)*%
X130850000Y-88500000D03*
%TO.P,U1,3,EN*%
%TO.N,Net-(U1-EN)*%
X130850000Y-90500000D03*
%TO.P,U1,4,GPIO16*%
%TO.N,Net-(J3-Pin_1)*%
X130850000Y-92500000D03*
%TO.P,U1,5,GPIO14*%
%TO.N,Net-(J3-Pin_2)*%
X130850000Y-94500000D03*
%TO.P,U1,6,GPIO12*%
%TO.N,Net-(J3-Pin_3)*%
X130850000Y-96500000D03*
%TO.P,U1,7,GPIO13*%
%TO.N,Net-(J3-Pin_4)*%
X130850000Y-98500000D03*
%TO.P,U1,8,VCC*%
%TO.N,3.3V*%
X130850000Y-100500000D03*
D15*
%TO.P,U1,9,CS0*%
%TO.N,unconnected-(U1-CS0-Pad9)*%
X133450000Y-102000000D03*
%TO.P,U1,10,MISO*%
%TO.N,unconnected-(U1-MISO-Pad10)*%
X135450000Y-102000000D03*
%TO.P,U1,11,GPIO9*%
%TO.N,unconnected-(U1-GPIO9-Pad11)*%
X137450000Y-102000000D03*
%TO.P,U1,12,GPIO10*%
%TO.N,unconnected-(U1-GPIO10-Pad12)*%
X139450000Y-102000000D03*
%TO.P,U1,13,MOSI*%
%TO.N,unconnected-(U1-MOSI-Pad13)*%
X141450000Y-102000000D03*
%TO.P,U1,14,SCLK*%
%TO.N,unconnected-(U1-SCLK-Pad14)*%
X143450000Y-102000000D03*
D14*
%TO.P,U1,15,GND*%
%TO.N,GND*%
X146050000Y-100500000D03*
%TO.P,U1,16,GPIO15*%
%TO.N,Net-(U1-GPIO15)*%
X146050000Y-98500000D03*
%TO.P,U1,17,GPIO2*%
%TO.N,Net-(U1-GPIO2)*%
X146050000Y-96500000D03*
%TO.P,U1,18,GPIO0*%
%TO.N,Net-(SW2-A)*%
X146050000Y-94500000D03*
%TO.P,U1,19,GPIO4*%
%TO.N,Net-(J6-Pin_4)*%
X146050000Y-92500000D03*
%TO.P,U1,20,GPIO5*%
%TO.N,Net-(J6-Pin_3)*%
X146050000Y-90500000D03*
%TO.P,U1,21,GPIO3/RXD*%
%TO.N,Net-(J1-Pin_3)*%
X146050000Y-88500000D03*
%TO.P,U1,22,GPIO1/TXD*%
%TO.N,Net-(J1-Pin_4)*%
X146050000Y-86500000D03*
%TD*%
D16*
%TO.P,SW2,1,A*%
%TO.N,Net-(SW2-A)*%
X153460000Y-80500000D03*
D10*
%TO.P,SW2,2,B*%
%TO.N,GND*%
X150920000Y-80500000D03*
%TO.P,SW2,3,C*%
%TO.N,Net-(SW2-C)*%
X156000000Y-80500000D03*
%TD*%
%TO.P,R2,1*%
%TO.N,3.3V*%
X119690000Y-80500000D03*
%TO.P,R2,2*%
%TO.N,Net-(U1-~{RST})*%
X127310000Y-80500000D03*
%TD*%
%TO.P,R4,1*%
%TO.N,3.3V*%
X157620000Y-103500000D03*
%TO.P,R4,2*%
%TO.N,Net-(U1-GPIO2)*%
X150000000Y-103500000D03*
%TD*%
%TO.P,R1,1*%
%TO.N,3.3V*%
X119190000Y-88500000D03*
%TO.P,R1,2*%
%TO.N,Net-(U1-EN)*%
X126810000Y-88500000D03*
%TD*%
D12*
%TO.P,RST,1,Pin_1*%
%TO.N,Net-(J9-Pin_1)*%
X125500000Y-84500000D03*
%TD*%
D10*
%TO.P,R5,1*%
%TO.N,3.3V*%
X150000000Y-106500000D03*
%TO.P,R5,2*%
%TO.N,Net-(SW2-C)*%
X157620000Y-106500000D03*
%TD*%
D17*
%TO.N,GND*%
X151000000Y-85500000D03*
%TO.N,Net-(SW2-C)*%
X156000000Y-82710000D03*
%TO.N,Net-(SW2-A)*%
X149500000Y-93500000D03*
%TO.N,Net-(U1-GPIO2)*%
X148500000Y-97000000D03*
X149000000Y-101500000D03*
%TO.N,Net-(J1-Pin_4)*%
X156500000Y-87500000D03*
%TD*%
D18*
%TO.N,3.3V*%
X122500000Y-85190000D02*
X122500000Y-83310000D01*
X122500000Y-83310000D02*
X119690000Y-80500000D01*
X119190000Y-88500000D02*
X122500000Y-85190000D01*
X158364141Y-107864141D02*
X152635859Y-107864141D01*
X151271718Y-106500000D02*
X150000000Y-106500000D01*
X158500000Y-108000000D02*
X158364141Y-107864141D01*
X159273571Y-107226429D02*
X158500000Y-108000000D01*
X159273571Y-105500000D02*
X159273571Y-107226429D01*
X152635859Y-107864141D02*
X151271718Y-106500000D01*
%TO.N,GND*%
X153460000Y-83040000D02*
X151000000Y-85500000D01*
X153460000Y-83040000D02*
X150920000Y-80500000D01*
%TO.N,3.3V*%
X160500000Y-103500000D02*
X160500000Y-97160000D01*
X160500000Y-97160000D02*
X161500000Y-96160000D01*
X159273571Y-104726429D02*
X160500000Y-103500000D01*
X159273571Y-105500000D02*
X159273571Y-104726429D01*
X159273571Y-105153571D02*
X159273571Y-105500000D01*
X157620000Y-103500000D02*
X159273571Y-105153571D01*
X142044888Y-105368630D02*
X141176258Y-104500000D01*
X142044888Y-106500000D02*
X142044888Y-105368630D01*
X141176258Y-104500000D02*
X135500000Y-104500000D01*
%TO.N,GND*%
X137044888Y-109500000D02*
X140044888Y-106500000D01*
X135500000Y-109500000D02*
X137044888Y-109500000D01*
%TO.N,3.3V*%
X122810832Y-100810832D02*
X122810832Y-92120832D01*
X124500000Y-102500000D02*
X122810832Y-100810832D01*
X131648000Y-102500000D02*
X124500000Y-102500000D01*
X133648000Y-104500000D02*
X131648000Y-102500000D01*
X122810832Y-92120832D02*
X119190000Y-88500000D01*
X133648000Y-104500000D02*
X135500000Y-104500000D01*
X130850000Y-101702000D02*
X133648000Y-104500000D01*
X130850000Y-100500000D02*
X130850000Y-101702000D01*
%TO.N,Net-(U1-~{RST})*%
X127310000Y-81810000D02*
X127310000Y-80500000D01*
X128749000Y-83249000D02*
X127310000Y-81810000D01*
X128749000Y-85811074D02*
X128749000Y-83249000D01*
X130850000Y-86251000D02*
X129188926Y-86251000D01*
X129188926Y-86251000D02*
X128749000Y-85811074D01*
X130850000Y-86500000D02*
X130850000Y-86251000D01*
%TO.N,GND*%
X155420000Y-85000000D02*
X153460000Y-83040000D01*
X158000000Y-85000000D02*
X155420000Y-85000000D01*
X159000000Y-84000000D02*
X158000000Y-85000000D01*
X160000000Y-84000000D02*
X159000000Y-84000000D01*
X161500000Y-83460000D02*
X160540000Y-83460000D01*
X160540000Y-83460000D02*
X160000000Y-84000000D01*
%TO.N,Net-(SW2-C)*%
X156000000Y-82710000D02*
X156000000Y-80500000D01*
%TO.N,Net-(U1-GPIO2)*%
X149000000Y-102500000D02*
X150000000Y-103500000D01*
X149000000Y-101500000D02*
X149000000Y-102500000D01*
%TO.N,Net-(SW2-A)*%
X148500000Y-94500000D02*
X149500000Y-93500000D01*
X146050000Y-94500000D02*
X148500000Y-94500000D01*
%TO.N,Net-(U1-GPIO15)*%
X146050000Y-98500000D02*
X155810000Y-98500000D01*
X155810000Y-98500000D02*
X157810000Y-100500000D01*
%TO.N,Net-(U1-GPIO2)*%
X146550000Y-97000000D02*
X146050000Y-96500000D01*
X148500000Y-97000000D02*
X146550000Y-97000000D01*
%TO.N,Net-(J9-Pin_1)*%
X126400000Y-85400000D02*
X125500000Y-84500000D01*
X127000000Y-85400000D02*
X126400000Y-85400000D01*
X130100000Y-88500000D02*
X127000000Y-85400000D01*
X130850000Y-88500000D02*
X130100000Y-88500000D01*
%TO.N,Net-(U1-EN)*%
X128810000Y-90500000D02*
X130850000Y-90500000D01*
X126810000Y-88500000D02*
X128810000Y-90500000D01*
%TO.N,GND*%
X146050000Y-100500000D02*
X150190000Y-100500000D01*
X146050000Y-106450000D02*
X146050000Y-100500000D01*
X144749000Y-107751000D02*
X146050000Y-106450000D01*
X141295888Y-107751000D02*
X144749000Y-107751000D01*
X140044888Y-106500000D02*
X141295888Y-107751000D01*
%TO.N,Net-(J3-Pin_4)*%
X126810000Y-98500000D02*
X125000000Y-100310000D01*
X130850000Y-98500000D02*
X126810000Y-98500000D01*
%TO.N,Net-(J3-Pin_3)*%
X126270000Y-96500000D02*
X125000000Y-97770000D01*
X130850000Y-96500000D02*
X126270000Y-96500000D01*
%TO.N,Net-(J3-Pin_2)*%
X125730000Y-94500000D02*
X125000000Y-95230000D01*
X130850000Y-94500000D02*
X125730000Y-94500000D01*
%TO.N,Net-(J3-Pin_1)*%
X130660000Y-92690000D02*
X130850000Y-92500000D01*
X125000000Y-92690000D02*
X130660000Y-92690000D01*
%TO.N,Net-(J1-Pin_4)*%
X154880000Y-85880000D02*
X156500000Y-87500000D01*
X153500000Y-85880000D02*
X154880000Y-85880000D01*
%TO.N,Net-(J1-Pin_3)*%
X154420000Y-88420000D02*
X154540000Y-88540000D01*
X154540000Y-88540000D02*
X161500000Y-88540000D01*
X153500000Y-88420000D02*
X154420000Y-88420000D01*
%TO.N,Net-(J1-Pin_4)*%
X152880000Y-86500000D02*
X146050000Y-86500000D01*
X153500000Y-85880000D02*
X152880000Y-86500000D01*
%TO.N,Net-(J1-Pin_3)*%
X146130000Y-88420000D02*
X146050000Y-88500000D01*
X153500000Y-88420000D02*
X146130000Y-88420000D01*
%TO.N,Net-(J6-Pin_3)*%
X146510000Y-90960000D02*
X146050000Y-90500000D01*
X153500000Y-90960000D02*
X146510000Y-90960000D01*
%TO.N,Net-(J6-Pin_4)*%
X153500000Y-93500000D02*
X152500000Y-92500000D01*
X152500000Y-92500000D02*
X146050000Y-92500000D01*
%TD*%
%TA.AperFunction,Conductor*%
%TO.N,GND*%
G36*
X160379818Y-89310185D02*
G01*
X160413097Y-89341615D01*
X160469892Y-89419788D01*
X160620213Y-89570109D01*
X160792182Y-89695050D01*
X160800946Y-89699516D01*
X160851742Y-89747491D01*
X160868536Y-89815312D01*
X160845998Y-89881447D01*
X160800946Y-89920484D01*
X160792182Y-89924949D01*
X160620213Y-90049890D01*
X160469890Y-90200213D01*
X160344951Y-90372179D01*
X160248444Y-90561585D01*
X160182753Y-90763760D01*
X160149500Y-90973713D01*
X160149500Y-91186286D01*
X160182747Y-91396204D01*
X160182754Y-91396243D01*
X160248202Y-91597671D01*
X160248444Y-91598414D01*
X160344951Y-91787820D01*
X160469890Y-91959786D01*
X160620213Y-92110109D01*
X160792182Y-92235050D01*
X160800946Y-92239516D01*
X160851742Y-92287491D01*
X160868536Y-92355312D01*
X160845998Y-92421447D01*
X160800946Y-92460484D01*
X160792182Y-92464949D01*
X160620213Y-92589890D01*
X160469890Y-92740213D01*
X160344951Y-92912179D01*
X160248444Y-93101585D01*
X160182753Y-93303760D01*
X160161096Y-93440500D01*
X160149500Y-93513713D01*
X160149500Y-93726287D01*
X160158377Y-93782331D01*
X160177202Y-93901193D01*
X160182754Y-93936243D01*
X160234075Y-94094193D01*
X160248444Y-94138414D01*
X160344951Y-94327820D01*
X160469890Y-94499786D01*
X160620213Y-94650109D01*
X160792182Y-94775050D01*
X160800946Y-94779516D01*
X160851742Y-94827491D01*
X160868536Y-94895312D01*
X160845998Y-94961447D01*
X160800946Y-95000484D01*
X160792182Y-95004949D01*
X160620213Y-95129890D01*
X160469890Y-95280213D01*
X160344951Y-95452179D01*
X160248444Y-95641585D01*
X160182753Y-95843760D01*
X160149500Y-96053713D01*
X160149500Y-96266292D01*
X160164616Y-96361728D01*
X160155662Y-96431021D01*
X160129824Y-96468807D01*
X159917047Y-96681584D01*
X159878085Y-96739895D01*
X159878086Y-96739896D01*
X159834914Y-96804508D01*
X159778343Y-96941082D01*
X159778340Y-96941092D01*
X159749500Y-97086079D01*
X159749500Y-103137769D01*
X159729815Y-103204808D01*
X159713181Y-103225450D01*
X159147680Y-103790951D01*
X159139734Y-103795289D01*
X159134309Y-103802537D01*
X159109549Y-103811771D01*
X159086357Y-103824436D01*
X159077327Y-103823790D01*
X159068845Y-103826954D01*
X159043024Y-103821337D01*
X159016665Y-103819452D01*
X159007611Y-103813633D01*
X159000572Y-103812102D01*
X158972318Y-103790951D01*
X158946473Y-103765106D01*
X158912988Y-103703783D01*
X158911681Y-103658028D01*
X158920500Y-103602352D01*
X158920500Y-103397648D01*
X158911970Y-103343793D01*
X158888477Y-103195465D01*
X158846376Y-103065892D01*
X158825220Y-103000781D01*
X158825218Y-103000778D01*
X158825218Y-103000776D01*
X158774903Y-102902029D01*
X158732287Y-102818390D01*
X158724556Y-102807749D01*
X158611971Y-102652786D01*
X158467213Y-102508028D01*
X158301613Y-102387715D01*
X158301612Y-102387714D01*
X158301610Y-102387713D01*
X158244653Y-102358691D01*
X158119223Y-102294781D01*
X157924534Y-102231522D01*
X157727775Y-102200359D01*
X157722352Y-102199500D01*
X157517648Y-102199500D01*
X157512225Y-102200359D01*
X157315465Y-102231522D01*
X157120776Y-102294781D01*
X156938386Y-102387715D01*
X156772786Y-102508028D01*
X156628028Y-102652786D01*
X156507715Y-102818386D01*
X156414781Y-103000776D01*
X156351522Y-103195465D01*
X156319500Y-103397648D01*
X156319500Y-103602351D01*
X156351522Y-103804534D01*
X156414781Y-103999223D01*
X156507715Y-104181613D01*
X156628028Y-104347213D01*
X156772786Y-104491971D01*
X156915737Y-104595829D01*
X156938390Y-104612287D01*
X157054607Y-104671503D01*
X157120776Y-104705218D01*
X157120778Y-104705218D01*
X157120781Y-104705220D01*
X157225137Y-104739127D01*
X157315465Y-104768477D01*
X157399564Y-104781797D01*
X157517648Y-104800500D01*
X157517649Y-104800500D01*
X157722350Y-104800500D01*
X157722352Y-104800500D01*
X157778027Y-104791681D01*
X157847319Y-104800635D01*
X157885106Y-104826473D01*
X158100913Y-105042280D01*
X158134398Y-105103603D01*
X158129414Y-105173295D01*
X158087542Y-105229228D01*
X158022078Y-105253645D01*
X157974914Y-105247892D01*
X157924536Y-105231523D01*
X157789746Y-105210174D01*
X157722352Y-105199500D01*
X157517648Y-105199500D01*
X157493329Y-105203351D01*
X157315465Y-105231522D01*
X157120776Y-105294781D01*
X156938386Y-105387715D01*
X156772786Y-105508028D01*
X156628028Y-105652786D01*
X156507715Y-105818386D01*
X156414781Y-106000776D01*
X156351522Y-106195465D01*
X156319500Y-106397648D01*
X156319500Y-106602351D01*
X156351522Y-106804534D01*
X156373685Y-106872741D01*
X156399218Y-106951324D01*
X156401213Y-107021163D01*
X156365133Y-107080996D01*
X156302432Y-107111825D01*
X156281287Y-107113641D01*
X152998089Y-107113641D01*
X152931050Y-107093956D01*
X152910408Y-107077322D01*
X151750139Y-105917052D01*
X151750132Y-105917046D01*
X151676447Y-105867812D01*
X151676447Y-105867813D01*
X151627209Y-105834913D01*
X151490635Y-105778343D01*
X151490625Y-105778340D01*
X151345638Y-105749500D01*
X151345636Y-105749500D01*
X151125418Y-105749500D01*
X151058379Y-105729815D01*
X151025100Y-105698385D01*
X150991971Y-105652787D01*
X150991967Y-105652782D01*
X150847213Y-105508028D01*
X150681613Y-105387715D01*
X150681612Y-105387714D01*
X150681610Y-105387713D01*
X150609498Y-105350970D01*
X150499223Y-105294781D01*
X150304534Y-105231522D01*
X150129995Y-105203878D01*
X150102352Y-105199500D01*
X149897648Y-105199500D01*
X149873329Y-105203351D01*
X149695465Y-105231522D01*
X149500776Y-105294781D01*
X149318386Y-105387715D01*
X149152786Y-105508028D01*
X149008028Y-105652786D01*
X148887715Y-105818386D01*
X148794781Y-106000776D01*
X148731522Y-106195465D01*
X148699500Y-106397648D01*
X148699500Y-106602351D01*
X148731522Y-106804534D01*
X148794781Y-106999223D01*
X148887715Y-107181613D01*
X149008028Y-107347213D01*
X149152786Y-107491971D01*
X149265071Y-107573549D01*
X149318390Y-107612287D01*
X149434607Y-107671503D01*
X149500776Y-107705218D01*
X149500778Y-107705218D01*
X149500781Y-107705220D01*
X149590459Y-107734358D01*
X149695465Y-107768477D01*
X149796557Y-107784488D01*
X149897648Y-107800500D01*
X149897649Y-107800500D01*
X150102351Y-107800500D01*
X150102352Y-107800500D01*
X150304534Y-107768477D01*
X150499219Y-107705220D01*
X150681610Y-107612287D01*
X150847219Y-107491966D01*
X150937089Y-107402095D01*
X150998408Y-107368613D01*
X151068100Y-107373597D01*
X151112448Y-107402098D01*
X151998169Y-108287819D01*
X152031654Y-108349142D01*
X152026670Y-108418834D01*
X151984798Y-108474767D01*
X151919334Y-108499184D01*
X151910488Y-108499500D01*
X144026401Y-108499500D01*
X143987116Y-108495345D01*
X143960772Y-108499500D01*
X143934108Y-108499500D01*
X143934106Y-108499500D01*
X143934100Y-108499501D01*
X143902276Y-108508028D01*
X143889506Y-108510738D01*
X143856943Y-108515874D01*
X143856942Y-108515874D01*
X143841452Y-108522757D01*
X143841453Y-108522758D01*
X143832568Y-108526706D01*
X143806814Y-108533608D01*
X143772618Y-108553349D01*
X143766637Y-108556008D01*
X143766631Y-108556012D01*
X140742662Y-109900000D01*
X139535597Y-110436474D01*
X139417834Y-110488813D01*
X139367473Y-110499500D01*
X136624073Y-110499500D01*
X136557034Y-110479815D01*
X136511279Y-110427011D01*
X136501335Y-110357853D01*
X136523755Y-110302614D01*
X136611859Y-110181349D01*
X136704755Y-109999031D01*
X136767990Y-109804417D01*
X136800000Y-109602317D01*
X136800000Y-109397682D01*
X136767990Y-109195582D01*
X136704755Y-109000968D01*
X136611859Y-108818650D01*
X136579474Y-108774077D01*
X136579474Y-108774076D01*
X135900000Y-109453551D01*
X135900000Y-109447339D01*
X135872741Y-109345606D01*
X135820080Y-109254394D01*
X135745606Y-109179920D01*
X135654394Y-109127259D01*
X135552661Y-109100000D01*
X135546446Y-109100000D01*
X136225922Y-108420524D01*
X136225921Y-108420523D01*
X136181359Y-108388147D01*
X136181350Y-108388141D01*
X135999031Y-108295244D01*
X135804417Y-108232009D01*
X135602317Y-108200000D01*
X135397683Y-108200000D01*
X135195582Y-108232009D01*
X135000968Y-108295244D01*
X134818644Y-108388143D01*
X134774077Y-108420523D01*
X134774077Y-108420524D01*
X135453554Y-109100000D01*
X135447339Y-109100000D01*
X135345606Y-109127259D01*
X135254394Y-109179920D01*
X135179920Y-109254394D01*
X135127259Y-109345606D01*
X135100000Y-109447339D01*
X135100000Y-109453553D01*
X134420524Y-108774077D01*
X134420523Y-108774077D01*
X134388143Y-108818644D01*
X134295244Y-109000968D01*
X134232009Y-109195582D01*
X134200000Y-109397682D01*
X134200000Y-109602317D01*
X134232009Y-109804417D01*
X134295244Y-109999031D01*
X134388140Y-110181349D01*
X134476245Y-110302614D01*
X134499725Y-110368420D01*
X134483900Y-110436474D01*
X134433794Y-110485169D01*
X134375927Y-110499500D01*
X133004856Y-110499500D01*
X132937817Y-110479815D01*
X132892062Y-110427011D01*
X132883608Y-110401482D01*
X132770306Y-109872741D01*
X132614672Y-109146446D01*
X132474812Y-108493765D01*
X132095710Y-106724620D01*
X132095710Y-106724616D01*
X131503253Y-103959819D01*
X131500500Y-103946972D01*
X131500500Y-103934108D01*
X131486731Y-103882723D01*
X131475584Y-103830701D01*
X131475581Y-103830696D01*
X131475209Y-103829648D01*
X131466836Y-103807885D01*
X131466391Y-103806812D01*
X131441361Y-103763459D01*
X131441359Y-103763456D01*
X131439790Y-103760738D01*
X131415561Y-103713380D01*
X131406939Y-103703836D01*
X131400505Y-103692692D01*
X131400501Y-103692687D01*
X131365112Y-103657298D01*
X131360779Y-103652740D01*
X131327219Y-103615591D01*
X131316412Y-103608598D01*
X131307314Y-103599500D01*
X131261241Y-103572899D01*
X131258614Y-103571199D01*
X131258612Y-103571197D01*
X131216578Y-103543999D01*
X131215591Y-103543531D01*
X131194174Y-103534017D01*
X131193186Y-103533608D01*
X131144817Y-103520647D01*
X131144817Y-103520646D01*
X131141770Y-103519829D01*
X131091175Y-103503483D01*
X131078322Y-103502830D01*
X131075326Y-103502027D01*
X131065893Y-103499500D01*
X131065892Y-103499500D01*
X131015838Y-103499500D01*
X131009554Y-103499341D01*
X130989848Y-103498341D01*
X130974320Y-103492912D01*
X130973442Y-103493477D01*
X130964487Y-103495748D01*
X130959820Y-103496748D01*
X130933840Y-103499500D01*
X126087466Y-103499500D01*
X126053401Y-103494729D01*
X126049901Y-103493729D01*
X125990848Y-103456385D01*
X125961360Y-103393043D01*
X125970799Y-103323813D01*
X126016167Y-103270677D01*
X126083061Y-103250503D01*
X126083966Y-103250500D01*
X130938507Y-103250500D01*
X130961456Y-103257238D01*
X130967273Y-103253905D01*
X130996133Y-103250500D01*
X131285770Y-103250500D01*
X131352809Y-103270185D01*
X131373451Y-103286819D01*
X131779319Y-103692686D01*
X132127073Y-104040440D01*
X133065049Y-104978416D01*
X133169584Y-105082951D01*
X133169587Y-105082953D01*
X133169588Y-105082954D01*
X133292503Y-105165083D01*
X133292506Y-105165085D01*
X133342665Y-105185861D01*
X133349080Y-105188518D01*
X133429088Y-105221659D01*
X133545241Y-105244763D01*
X133568380Y-105249365D01*
X133574081Y-105250500D01*
X133574082Y-105250500D01*
X133574083Y-105250500D01*
X133721918Y-105250500D01*
X134374582Y-105250500D01*
X134441621Y-105270185D01*
X134474900Y-105301615D01*
X134508028Y-105347212D01*
X134508032Y-105347217D01*
X134652786Y-105491971D01*
X134751771Y-105563886D01*
X134818390Y-105612287D01*
X134921639Y-105664895D01*
X135000776Y-105705218D01*
X135000778Y-105705218D01*
X135000781Y-105705220D01*
X135054893Y-105722802D01*
X135195465Y-105768477D01*
X135257750Y-105778342D01*
X135397648Y-105800500D01*
X135397649Y-105800500D01*
X135602351Y-105800500D01*
X135602352Y-105800500D01*
X135804534Y-105768477D01*
X135999219Y-105705220D01*
X136181610Y-105612287D01*
X136274590Y-105544732D01*
X136347213Y-105491971D01*
X136347215Y-105491968D01*
X136347219Y-105491966D01*
X136491966Y-105347219D01*
X136509570Y-105322989D01*
X136525100Y-105301615D01*
X136580429Y-105258949D01*
X136625418Y-105250500D01*
X138834365Y-105250500D01*
X138901404Y-105270185D01*
X138947159Y-105322989D01*
X138957103Y-105392147D01*
X138928078Y-105455703D01*
X138922046Y-105462181D01*
X138902572Y-105481654D01*
X138810531Y-105630875D01*
X138810529Y-105630880D01*
X138755382Y-105797302D01*
X138755381Y-105797309D01*
X138744888Y-105900013D01*
X138744888Y-106250000D01*
X139729202Y-106250000D01*
X139724808Y-106254394D01*
X139672147Y-106345606D01*
X139644888Y-106447339D01*
X139644888Y-106552661D01*
X139672147Y-106654394D01*
X139724808Y-106745606D01*
X139729202Y-106750000D01*
X138744889Y-106750000D01*
X138744889Y-107099986D01*
X138755382Y-107202697D01*
X138810529Y-107369119D01*
X138810531Y-107369124D01*
X138902572Y-107518345D01*
X139026542Y-107642315D01*
X139175763Y-107734356D01*
X139175768Y-107734358D01*
X139342190Y-107789505D01*
X139342197Y-107789506D01*
X139444907Y-107799999D01*
X139794887Y-107799999D01*
X139794888Y-107799998D01*
X139794888Y-106815686D01*
X139799282Y-106820080D01*
X139890494Y-106872741D01*
X139992227Y-106900000D01*
X140097549Y-106900000D01*
X140199282Y-106872741D01*
X140290494Y-106820080D01*
X140294888Y-106815686D01*
X140294888Y-107799999D01*
X140644860Y-107799999D01*
X140644874Y-107799998D01*
X140747585Y-107789505D01*
X140914007Y-107734358D01*
X140914012Y-107734356D01*
X141063233Y-107642315D01*
X141132000Y-107573549D01*
X141193323Y-107540064D01*
X141263015Y-107545048D01*
X141292562Y-107560909D01*
X141363278Y-107612287D01*
X141422211Y-107642315D01*
X141545664Y-107705218D01*
X141545666Y-107705218D01*
X141545669Y-107705220D01*
X141635347Y-107734358D01*
X141740353Y-107768477D01*
X141841445Y-107784488D01*
X141942536Y-107800500D01*
X141942537Y-107800500D01*
X142147239Y-107800500D01*
X142147240Y-107800500D01*
X142349422Y-107768477D01*
X142544107Y-107705220D01*
X142726498Y-107612287D01*
X142825905Y-107540064D01*
X142892101Y-107491971D01*
X142892103Y-107491968D01*
X142892107Y-107491966D01*
X143036854Y-107347219D01*
X143036856Y-107347215D01*
X143036859Y-107347213D01*
X143089620Y-107274590D01*
X143157175Y-107181610D01*
X143250108Y-106999219D01*
X143313365Y-106804534D01*
X143345388Y-106602352D01*
X143345388Y-106397648D01*
X143325120Y-106269685D01*
X143313365Y-106195465D01*
X143250106Y-106000776D01*
X143182357Y-105867813D01*
X143157175Y-105818390D01*
X143141854Y-105797302D01*
X143036859Y-105652786D01*
X142892105Y-105508032D01*
X142892100Y-105508028D01*
X142846503Y-105474900D01*
X142803837Y-105419571D01*
X142795388Y-105374582D01*
X142795388Y-105294709D01*
X142766547Y-105149722D01*
X142766546Y-105149721D01*
X142766546Y-105149717D01*
X142737525Y-105079653D01*
X142709975Y-105013141D01*
X142709968Y-105013128D01*
X142627840Y-104890215D01*
X142627839Y-104890214D01*
X142523304Y-104785679D01*
X142333454Y-104595829D01*
X141654679Y-103917052D01*
X141654672Y-103917046D01*
X141580987Y-103867812D01*
X141580987Y-103867813D01*
X141531749Y-103834913D01*
X141395175Y-103778343D01*
X141395165Y-103778340D01*
X141250178Y-103749500D01*
X141250176Y-103749500D01*
X136625418Y-103749500D01*
X136558379Y-103729815D01*
X136525100Y-103698385D01*
X136491971Y-103652787D01*
X136491967Y-103652782D01*
X136347217Y-103508032D01*
X136347212Y-103508028D01*
X136293302Y-103468860D01*
X136250636Y-103413530D01*
X136244657Y-103343917D01*
X136273471Y-103286203D01*
X136281812Y-103276809D01*
X136307546Y-103257546D01*
X136353841Y-103195703D01*
X136357284Y-103191827D01*
X136382681Y-103175939D01*
X136406667Y-103157984D01*
X136411992Y-103157603D01*
X136416518Y-103154772D01*
X136446472Y-103155137D01*
X136476359Y-103153000D01*
X136481045Y-103155558D01*
X136486382Y-103155624D01*
X136511379Y-103172122D01*
X136537682Y-103186485D01*
X136543749Y-103193487D01*
X136544696Y-103194112D01*
X136545118Y-103195066D01*
X136549263Y-103199850D01*
X136592454Y-103257546D01*
X136609338Y-103270185D01*
X136707664Y-103343793D01*
X136707671Y-103343797D01*
X136842517Y-103394091D01*
X136842516Y-103394091D01*
X136849444Y-103394835D01*
X136902127Y-103400500D01*
X137997872Y-103400499D01*
X138057483Y-103394091D01*
X138192331Y-103343796D01*
X138307546Y-103257546D01*
X138350734Y-103199854D01*
X138406667Y-103157984D01*
X138476359Y-103153000D01*
X138537682Y-103186485D01*
X138549263Y-103199850D01*
X138592454Y-103257546D01*
X138609338Y-103270185D01*
X138707664Y-103343793D01*
X138707671Y-103343797D01*
X138842517Y-103394091D01*
X138842516Y-103394091D01*
X138849444Y-103394835D01*
X138902127Y-103400500D01*
X139997872Y-103400499D01*
X140057483Y-103394091D01*
X140192331Y-103343796D01*
X140307546Y-103257546D01*
X140350734Y-103199854D01*
X140406667Y-103157984D01*
X140476359Y-103153000D01*
X140537682Y-103186485D01*
X140549263Y-103199850D01*
X140592454Y-103257546D01*
X140609338Y-103270185D01*
X140707664Y-103343793D01*
X140707671Y-103343797D01*
X140842517Y-103394091D01*
X140842516Y-103394091D01*
X140849444Y-103394835D01*
X140902127Y-103400500D01*
X141997872Y-103400499D01*
X142057483Y-103394091D01*
X142192331Y-103343796D01*
X142307546Y-103257546D01*
X142350734Y-103199854D01*
X142406667Y-103157984D01*
X142476359Y-103153000D01*
X142537682Y-103186485D01*
X142549263Y-103199850D01*
X142592454Y-103257546D01*
X142609338Y-103270185D01*
X142707664Y-103343793D01*
X142707671Y-103343797D01*
X142842517Y-103394091D01*
X142842516Y-103394091D01*
X142849444Y-103394835D01*
X142902127Y-103400500D01*
X143997872Y-103400499D01*
X144057483Y-103394091D01*
X144192331Y-103343796D01*
X144307546Y-103257546D01*
X144393796Y-103142331D01*
X144416795Y-103080668D01*
X144458665Y-103024734D01*
X144524129Y-103000316D01*
X144532977Y-103000000D01*
X147500000Y-103000000D01*
X147500000Y-99537554D01*
X147509271Y-99505979D01*
X147517470Y-99474093D01*
X147519198Y-99472172D01*
X147519685Y-99470515D01*
X147539664Y-99446651D01*
X147544455Y-99442205D01*
X147657546Y-99357546D01*
X147707196Y-99291221D01*
X147715415Y-99283597D01*
X147737058Y-99272810D01*
X147756419Y-99258318D01*
X147771653Y-99255569D01*
X147777949Y-99252432D01*
X147784857Y-99253187D01*
X147799751Y-99250500D01*
X149343316Y-99250500D01*
X149410355Y-99270185D01*
X149456110Y-99322989D01*
X149466934Y-99384230D01*
X149464077Y-99420524D01*
X150143554Y-100100000D01*
X150137339Y-100100000D01*
X150035606Y-100127259D01*
X149944394Y-100179920D01*
X149869920Y-100254394D01*
X149817259Y-100345606D01*
X149790000Y-100447339D01*
X149790000Y-100453553D01*
X149110524Y-99774077D01*
X149110523Y-99774077D01*
X149078143Y-99818644D01*
X148985244Y-100000968D01*
X148922009Y-100195582D01*
X148890000Y-100397682D01*
X148890000Y-100603933D01*
X148870315Y-100670972D01*
X148817511Y-100716727D01*
X148790194Y-100725550D01*
X148766505Y-100730262D01*
X148766498Y-100730264D01*
X148620827Y-100790602D01*
X148620814Y-100790609D01*
X148489711Y-100878210D01*
X148489707Y-100878213D01*
X148378213Y-100989707D01*
X148378210Y-100989711D01*
X148290609Y-101120814D01*
X148290602Y-101120827D01*
X148230264Y-101266498D01*
X148230261Y-101266510D01*
X148199500Y-101421153D01*
X148199500Y-101578846D01*
X148230261Y-101733489D01*
X148230263Y-101733497D01*
X148240061Y-101757151D01*
X148249500Y-101804604D01*
X148249500Y-102573918D01*
X148249500Y-102573920D01*
X148249499Y-102573920D01*
X148278340Y-102718907D01*
X148278343Y-102718917D01*
X148334912Y-102855488D01*
X148334920Y-102855503D01*
X148366009Y-102902029D01*
X148366010Y-102902032D01*
X148366011Y-102902032D01*
X148417048Y-102978416D01*
X148673527Y-103234894D01*
X148707011Y-103296215D01*
X148708318Y-103341971D01*
X148699500Y-103397647D01*
X148699500Y-103602351D01*
X148731522Y-103804534D01*
X148794781Y-103999223D01*
X148887715Y-104181613D01*
X149008028Y-104347213D01*
X149152786Y-104491971D01*
X149295737Y-104595829D01*
X149318390Y-104612287D01*
X149434607Y-104671503D01*
X149500776Y-104705218D01*
X149500778Y-104705218D01*
X149500781Y-104705220D01*
X149605137Y-104739127D01*
X149695465Y-104768477D01*
X149779564Y-104781797D01*
X149897648Y-104800500D01*
X149897649Y-104800500D01*
X150102351Y-104800500D01*
X150102352Y-104800500D01*
X150304534Y-104768477D01*
X150499219Y-104705220D01*
X150681610Y-104612287D01*
X150774590Y-104544732D01*
X150847213Y-104491971D01*
X150847215Y-104491968D01*
X150847219Y-104491966D01*
X150991966Y-104347219D01*
X150991968Y-104347215D01*
X150991971Y-104347213D01*
X151044732Y-104274590D01*
X151112287Y-104181610D01*
X151205220Y-103999219D01*
X151268477Y-103804534D01*
X151300500Y-103602352D01*
X151300500Y-103397648D01*
X151291970Y-103343793D01*
X151268477Y-103195465D01*
X151226376Y-103065892D01*
X151205220Y-103000781D01*
X151205218Y-103000778D01*
X151205218Y-103000776D01*
X151154903Y-102902029D01*
X151112287Y-102818390D01*
X151104556Y-102807749D01*
X150991971Y-102652786D01*
X150847213Y-102508028D01*
X150681613Y-102387715D01*
X150681612Y-102387714D01*
X150681610Y-102387713D01*
X150624653Y-102358691D01*
X150499223Y-102294781D01*
X150304534Y-102231522D01*
X150107775Y-102200359D01*
X150102352Y-102199500D01*
X149897648Y-102199500D01*
X149893893Y-102200094D01*
X149875355Y-102197698D01*
X149856853Y-102200359D01*
X149841424Y-102193313D01*
X149824603Y-102191139D01*
X149810302Y-102179099D01*
X149793297Y-102171334D01*
X149784126Y-102157064D01*
X149771152Y-102146142D01*
X149765630Y-102128283D01*
X149755523Y-102112556D01*
X149750964Y-102080849D01*
X149750513Y-102079390D01*
X149750500Y-102077621D01*
X149750500Y-101891780D01*
X149770185Y-101824741D01*
X149822989Y-101778986D01*
X149892147Y-101769042D01*
X149893898Y-101769307D01*
X150087683Y-101800000D01*
X150292317Y-101800000D01*
X150494417Y-101767990D01*
X150689031Y-101704755D01*
X150871349Y-101611859D01*
X150915921Y-101579474D01*
X150236446Y-100900000D01*
X150242661Y-100900000D01*
X150344394Y-100872741D01*
X150435606Y-100820080D01*
X150510080Y-100745606D01*
X150562741Y-100654394D01*
X150590000Y-100552661D01*
X150590000Y-100546447D01*
X151269474Y-101225921D01*
X151301859Y-101181349D01*
X151394755Y-100999031D01*
X151457990Y-100804417D01*
X151490000Y-100602317D01*
X151490000Y-100397682D01*
X151457990Y-100195582D01*
X151394755Y-100000968D01*
X151301859Y-99818650D01*
X151269474Y-99774077D01*
X151269474Y-99774076D01*
X150590000Y-100453551D01*
X150590000Y-100447339D01*
X150562741Y-100345606D01*
X150510080Y-100254394D01*
X150435606Y-100179920D01*
X150344394Y-100127259D01*
X150242661Y-100100000D01*
X150236446Y-100100000D01*
X150915922Y-99420524D01*
X150913066Y-99384228D01*
X150927431Y-99315851D01*
X150976482Y-99266094D01*
X151036684Y-99250500D01*
X155447770Y-99250500D01*
X155514809Y-99270185D01*
X155535451Y-99286819D01*
X156483526Y-100234893D01*
X156517011Y-100296216D01*
X156518318Y-100341971D01*
X156509500Y-100397647D01*
X156509500Y-100397648D01*
X156509500Y-100602352D01*
X156512370Y-100620472D01*
X156541522Y-100804534D01*
X156604781Y-100999223D01*
X156697715Y-101181613D01*
X156818028Y-101347213D01*
X156962786Y-101491971D01*
X157082362Y-101578846D01*
X157128390Y-101612287D01*
X157244607Y-101671503D01*
X157310776Y-101705218D01*
X157310778Y-101705218D01*
X157310781Y-101705220D01*
X157386477Y-101729815D01*
X157505465Y-101768477D01*
X157571816Y-101778986D01*
X157707648Y-101800500D01*
X157707649Y-101800500D01*
X157912351Y-101800500D01*
X157912352Y-101800500D01*
X158114534Y-101768477D01*
X158309219Y-101705220D01*
X158491610Y-101612287D01*
X158634235Y-101508665D01*
X158657213Y-101491971D01*
X158657215Y-101491968D01*
X158657219Y-101491966D01*
X158801966Y-101347219D01*
X158801968Y-101347215D01*
X158801971Y-101347213D01*
X158916342Y-101189792D01*
X158922287Y-101181610D01*
X159015220Y-100999219D01*
X159078477Y-100804534D01*
X159110500Y-100602352D01*
X159110500Y-100397648D01*
X159102257Y-100345606D01*
X159078477Y-100195465D01*
X159015353Y-100001191D01*
X159015220Y-100000781D01*
X159015218Y-100000778D01*
X159015218Y-100000776D01*
X158981503Y-99934607D01*
X158922287Y-99818390D01*
X158914556Y-99807749D01*
X158801971Y-99652786D01*
X158657213Y-99508028D01*
X158491613Y-99387715D01*
X158491612Y-99387714D01*
X158491610Y-99387713D01*
X158432396Y-99357542D01*
X158309223Y-99294781D01*
X158114534Y-99231522D01*
X157939995Y-99203878D01*
X157912352Y-99199500D01*
X157707648Y-99199500D01*
X157651971Y-99208318D01*
X157582678Y-99199363D01*
X157544893Y-99173526D01*
X156288421Y-97917052D01*
X156288414Y-97917046D01*
X156214729Y-97867812D01*
X156214729Y-97867813D01*
X156165491Y-97834913D01*
X156028917Y-97778343D01*
X156028907Y-97778340D01*
X155883920Y-97749500D01*
X155883918Y-97749500D01*
X149181941Y-97749500D01*
X149114902Y-97729815D01*
X149069147Y-97677011D01*
X149059203Y-97607853D01*
X149088228Y-97544297D01*
X149094260Y-97537819D01*
X149121786Y-97510292D01*
X149121789Y-97510289D01*
X149209394Y-97379179D01*
X149269737Y-97233497D01*
X149300500Y-97078842D01*
X149300500Y-96921158D01*
X149300500Y-96921155D01*
X149300499Y-96921153D01*
X149289890Y-96867820D01*
X149269737Y-96766503D01*
X149233249Y-96678412D01*
X149209397Y-96620827D01*
X149209390Y-96620814D01*
X149121789Y-96489711D01*
X149121786Y-96489707D01*
X149010292Y-96378213D01*
X149010288Y-96378210D01*
X148879185Y-96290609D01*
X148879172Y-96290602D01*
X148733501Y-96230264D01*
X148733489Y-96230261D01*
X148578845Y-96199500D01*
X148578842Y-96199500D01*
X148421158Y-96199500D01*
X148421155Y-96199500D01*
X148266511Y-96230260D01*
X148266506Y-96230262D01*
X148266504Y-96230262D01*
X148266503Y-96230263D01*
X148242844Y-96240062D01*
X148195396Y-96249500D01*
X147924499Y-96249500D01*
X147857460Y-96229815D01*
X147811705Y-96177011D01*
X147800499Y-96125500D01*
X147800499Y-95952129D01*
X147800498Y-95952123D01*
X147798960Y-95937817D01*
X147794091Y-95892517D01*
X147753948Y-95784889D01*
X147743797Y-95757671D01*
X147743793Y-95757664D01*
X147657547Y-95642455D01*
X147657545Y-95642453D01*
X147611325Y-95607853D01*
X147599854Y-95599265D01*
X147557983Y-95543333D01*
X147552999Y-95473642D01*
X147586484Y-95412319D01*
X147586514Y-95412289D01*
X147592769Y-95406037D01*
X147657546Y-95357546D01*
X147705807Y-95293076D01*
X147712100Y-95286789D01*
X147735279Y-95274142D01*
X147756419Y-95258318D01*
X147768167Y-95256198D01*
X147773434Y-95253325D01*
X147781056Y-95253872D01*
X147799751Y-95250500D01*
X148573920Y-95250500D01*
X148671462Y-95231096D01*
X148718913Y-95221658D01*
X148855495Y-95165084D01*
X148904729Y-95132186D01*
X148908157Y-95129896D01*
X148941701Y-95107483D01*
X148978416Y-95082952D01*
X149815297Y-94246069D01*
X149855522Y-94219192D01*
X149879179Y-94209394D01*
X150010289Y-94121789D01*
X150121789Y-94010289D01*
X150209394Y-93879179D01*
X150269737Y-93733497D01*
X150300500Y-93578842D01*
X150300500Y-93421158D01*
X150296442Y-93400758D01*
X150296031Y-93398690D01*
X150302260Y-93329099D01*
X150345123Y-93273922D01*
X150411013Y-93250678D01*
X150417649Y-93250500D01*
X152026998Y-93250500D01*
X152094037Y-93270185D01*
X152139792Y-93322989D01*
X152149256Y-93388812D01*
X152149882Y-93388862D01*
X152149663Y-93391640D01*
X152149736Y-93392147D01*
X152149500Y-93393706D01*
X152149500Y-93606286D01*
X152171801Y-93747093D01*
X152182754Y-93816243D01*
X152245803Y-94010288D01*
X152248444Y-94018414D01*
X152344951Y-94207820D01*
X152469890Y-94379786D01*
X152620213Y-94530109D01*
X152792179Y-94655048D01*
X152792181Y-94655049D01*
X152792184Y-94655051D01*
X152981588Y-94751557D01*
X153183757Y-94817246D01*
X153393713Y-94850500D01*
X153393714Y-94850500D01*
X153606286Y-94850500D01*
X153606287Y-94850500D01*
X153816243Y-94817246D01*
X154018412Y-94751557D01*
X154207816Y-94655051D01*
X154257972Y-94618611D01*
X154379786Y-94530109D01*
X154379788Y-94530106D01*
X154379792Y-94530104D01*
X154530104Y-94379792D01*
X154530106Y-94379788D01*
X154530109Y-94379786D01*
X154646787Y-94219191D01*
X154655051Y-94207816D01*
X154751557Y-94018412D01*
X154817246Y-93816243D01*
X154850500Y-93606287D01*
X154850500Y-93393713D01*
X154817246Y-93183757D01*
X154751557Y-92981588D01*
X154655051Y-92792184D01*
X154655049Y-92792181D01*
X154655048Y-92792179D01*
X154530109Y-92620213D01*
X154379786Y-92469890D01*
X154207820Y-92344951D01*
X154207115Y-92344591D01*
X154199054Y-92340485D01*
X154148259Y-92292512D01*
X154131463Y-92224692D01*
X154153999Y-92158556D01*
X154199054Y-92119515D01*
X154207816Y-92115051D01*
X154229789Y-92099086D01*
X154379786Y-91990109D01*
X154379788Y-91990106D01*
X154379792Y-91990104D01*
X154530104Y-91839792D01*
X154530106Y-91839788D01*
X154530109Y-91839786D01*
X154655048Y-91667820D01*
X154655047Y-91667820D01*
X154655051Y-91667816D01*
X154751557Y-91478412D01*
X154817246Y-91276243D01*
X154850500Y-91066287D01*
X154850500Y-90853713D01*
X154817246Y-90643757D01*
X154751557Y-90441588D01*
X154655051Y-90252184D01*
X154655049Y-90252181D01*
X154655048Y-90252179D01*
X154530109Y-90080213D01*
X154379786Y-89929890D01*
X154207820Y-89804951D01*
X154207115Y-89804591D01*
X154199054Y-89800485D01*
X154148259Y-89752512D01*
X154131463Y-89684692D01*
X154153999Y-89618556D01*
X154199054Y-89579515D01*
X154207816Y-89575051D01*
X154249046Y-89545096D01*
X154379786Y-89450109D01*
X154379788Y-89450106D01*
X154379792Y-89450104D01*
X154503077Y-89326819D01*
X154564400Y-89293334D01*
X154590758Y-89290500D01*
X154613918Y-89290500D01*
X160312779Y-89290500D01*
X160379818Y-89310185D01*
G37*
%TD.AperFunction*%
%TA.AperFunction,Conductor*%
G36*
X150612230Y-79020185D02*
G01*
X150657985Y-79072989D01*
X150667929Y-79142147D01*
X150638904Y-79205703D01*
X150583510Y-79242431D01*
X150420968Y-79295244D01*
X150238644Y-79388143D01*
X150194077Y-79420523D01*
X150194077Y-79420524D01*
X150873554Y-80100000D01*
X150867339Y-80100000D01*
X150765606Y-80127259D01*
X150674394Y-80179920D01*
X150599920Y-80254394D01*
X150547259Y-80345606D01*
X150520000Y-80447339D01*
X150520000Y-80453553D01*
X149840524Y-79774077D01*
X149840523Y-79774077D01*
X149808143Y-79818644D01*
X149715244Y-80000968D01*
X149652009Y-80195582D01*
X149620000Y-80397682D01*
X149620000Y-80602317D01*
X149652009Y-80804417D01*
X149715244Y-80999031D01*
X149808141Y-81181350D01*
X149808147Y-81181359D01*
X149840523Y-81225921D01*
X149840524Y-81225922D01*
X150520000Y-80546446D01*
X150520000Y-80552661D01*
X150547259Y-80654394D01*
X150599920Y-80745606D01*
X150674394Y-80820080D01*
X150765606Y-80872741D01*
X150867339Y-80900000D01*
X150873553Y-80900000D01*
X150194076Y-81579474D01*
X150238650Y-81611859D01*
X150420968Y-81704755D01*
X150615582Y-81767990D01*
X150817683Y-81800000D01*
X151022317Y-81800000D01*
X151224417Y-81767990D01*
X151419031Y-81704755D01*
X151601349Y-81611859D01*
X151645921Y-81579474D01*
X150966447Y-80900000D01*
X150972661Y-80900000D01*
X151074394Y-80872741D01*
X151165606Y-80820080D01*
X151240080Y-80745606D01*
X151292741Y-80654394D01*
X151320000Y-80552661D01*
X151320000Y-80546447D01*
X151999474Y-81225921D01*
X152010823Y-81225028D01*
X152041818Y-81201128D01*
X152111431Y-81195149D01*
X152173226Y-81227754D01*
X152207584Y-81288592D01*
X152210097Y-81303424D01*
X152215909Y-81357483D01*
X152266202Y-81492328D01*
X152266206Y-81492335D01*
X152352452Y-81607544D01*
X152352455Y-81607547D01*
X152467664Y-81693793D01*
X152467671Y-81693797D01*
X152602517Y-81744091D01*
X152602516Y-81744091D01*
X152609444Y-81744835D01*
X152662127Y-81750500D01*
X154257872Y-81750499D01*
X154317483Y-81744091D01*
X154452331Y-81693796D01*
X154567546Y-81607546D01*
X154653796Y-81492331D01*
X154704091Y-81357483D01*
X154709823Y-81304162D01*
X154736560Y-81239615D01*
X154793952Y-81199767D01*
X154863777Y-81197273D01*
X154923866Y-81232925D01*
X154933430Y-81244536D01*
X155008028Y-81347212D01*
X155008032Y-81347217D01*
X155008034Y-81347219D01*
X155152781Y-81491966D01*
X155198384Y-81525098D01*
X155241050Y-81580425D01*
X155249500Y-81625416D01*
X155249500Y-82405396D01*
X155240062Y-82452844D01*
X155230982Y-82474767D01*
X155230262Y-82476506D01*
X155230260Y-82476511D01*
X155199500Y-82631153D01*
X155199500Y-82788846D01*
X155230261Y-82943489D01*
X155230264Y-82943501D01*
X155290602Y-83089172D01*
X155290609Y-83089185D01*
X155378210Y-83220288D01*
X155378213Y-83220292D01*
X155489707Y-83331786D01*
X155489711Y-83331789D01*
X155620814Y-83419390D01*
X155620827Y-83419397D01*
X155729850Y-83464555D01*
X155766503Y-83479737D01*
X155921153Y-83510499D01*
X155921156Y-83510500D01*
X155921158Y-83510500D01*
X156078844Y-83510500D01*
X156078845Y-83510499D01*
X156233497Y-83479737D01*
X156379179Y-83419394D01*
X156510289Y-83331789D01*
X156621789Y-83220289D01*
X156709394Y-83089179D01*
X156769737Y-82943497D01*
X156800500Y-82788842D01*
X156800500Y-82631158D01*
X156800500Y-82631155D01*
X156800499Y-82631153D01*
X156791497Y-82585894D01*
X156791493Y-82585881D01*
X156769737Y-82476503D01*
X156756380Y-82444256D01*
X156754144Y-82435237D01*
X156754548Y-82425748D01*
X156750500Y-82405396D01*
X156750500Y-81625416D01*
X156770185Y-81558377D01*
X156801613Y-81525099D01*
X156847219Y-81491966D01*
X156991966Y-81347219D01*
X156991968Y-81347215D01*
X156991971Y-81347213D01*
X157070144Y-81239615D01*
X157112287Y-81181610D01*
X157205220Y-80999219D01*
X157268477Y-80804534D01*
X157300500Y-80602352D01*
X157300500Y-80397648D01*
X157292257Y-80345606D01*
X157268477Y-80195465D01*
X157237458Y-80100000D01*
X157205220Y-80000781D01*
X157205218Y-80000778D01*
X157205218Y-80000776D01*
X157171503Y-79934607D01*
X157112287Y-79818390D01*
X157080092Y-79774077D01*
X156991971Y-79652786D01*
X156847213Y-79508028D01*
X156681613Y-79387715D01*
X156681612Y-79387714D01*
X156681610Y-79387713D01*
X156624653Y-79358691D01*
X156499223Y-79294781D01*
X156338106Y-79242431D01*
X156280431Y-79202993D01*
X156253233Y-79138634D01*
X156265148Y-79069788D01*
X156312392Y-79018312D01*
X156376425Y-79000500D01*
X158375500Y-79000500D01*
X158442539Y-79020185D01*
X158488294Y-79072989D01*
X158499500Y-79124500D01*
X158499500Y-81065891D01*
X158533608Y-81193187D01*
X158552508Y-81225922D01*
X158599500Y-81307314D01*
X158692686Y-81400500D01*
X158806814Y-81466392D01*
X158934108Y-81500500D01*
X162875500Y-81500500D01*
X162942539Y-81520185D01*
X162988294Y-81572989D01*
X162999500Y-81624500D01*
X162999500Y-82270730D01*
X162979815Y-82337769D01*
X162927011Y-82383524D01*
X162857853Y-82393468D01*
X162794297Y-82364443D01*
X162776234Y-82345042D01*
X162707187Y-82252809D01*
X162592093Y-82166649D01*
X162592086Y-82166645D01*
X162457379Y-82116403D01*
X162457372Y-82116401D01*
X162397844Y-82110000D01*
X161750000Y-82110000D01*
X161750000Y-83026988D01*
X161692993Y-82994075D01*
X161565826Y-82960000D01*
X161434174Y-82960000D01*
X161307007Y-82994075D01*
X161250000Y-83026988D01*
X161250000Y-82110000D01*
X160602155Y-82110000D01*
X160542627Y-82116401D01*
X160542620Y-82116403D01*
X160407913Y-82166645D01*
X160407906Y-82166649D01*
X160292812Y-82252809D01*
X160292809Y-82252812D01*
X160206649Y-82367906D01*
X160206645Y-82367913D01*
X160156403Y-82502620D01*
X160156401Y-82502627D01*
X160150000Y-82562155D01*
X160150000Y-83210000D01*
X161066988Y-83210000D01*
X161034075Y-83267007D01*
X161000000Y-83394174D01*
X161000000Y-83525826D01*
X161034075Y-83652993D01*
X161066988Y-83710000D01*
X160150000Y-83710000D01*
X160150000Y-84357844D01*
X160156401Y-84417372D01*
X160156403Y-84417379D01*
X160206645Y-84552086D01*
X160206649Y-84552093D01*
X160292809Y-84667187D01*
X160292812Y-84667190D01*
X160407906Y-84753350D01*
X160407913Y-84753354D01*
X160539470Y-84802422D01*
X160595404Y-84844293D01*
X160619821Y-84909758D01*
X160604969Y-84978031D01*
X160583819Y-85006285D01*
X160469889Y-85120215D01*
X160344951Y-85292179D01*
X160248444Y-85481585D01*
X160182753Y-85683760D01*
X160157359Y-85844091D01*
X160149500Y-85893713D01*
X160149500Y-86106287D01*
X160182754Y-86316243D01*
X160234075Y-86474193D01*
X160248444Y-86518414D01*
X160344951Y-86707820D01*
X160469890Y-86879786D01*
X160620213Y-87030109D01*
X160792182Y-87155050D01*
X160800946Y-87159516D01*
X160851742Y-87207491D01*
X160868536Y-87275312D01*
X160845998Y-87341447D01*
X160800946Y-87380484D01*
X160792182Y-87384949D01*
X160620213Y-87509890D01*
X160469892Y-87660211D01*
X160413097Y-87738385D01*
X160357767Y-87781051D01*
X160312779Y-87789500D01*
X157409692Y-87789500D01*
X157342653Y-87769815D01*
X157296898Y-87717011D01*
X157286954Y-87647853D01*
X157288075Y-87641308D01*
X157300500Y-87578844D01*
X157300500Y-87421155D01*
X157300499Y-87421153D01*
X157294729Y-87392147D01*
X157269737Y-87266503D01*
X157263546Y-87251557D01*
X157209397Y-87120827D01*
X157209390Y-87120814D01*
X157121789Y-86989711D01*
X157121786Y-86989707D01*
X157010292Y-86878213D01*
X157010288Y-86878210D01*
X156879185Y-86790609D01*
X156879175Y-86790604D01*
X156855523Y-86780807D01*
X156815295Y-86753927D01*
X155358421Y-85297052D01*
X155358420Y-85297051D01*
X155351128Y-85292179D01*
X155255259Y-85228122D01*
X155255259Y-85228121D01*
X155235495Y-85214916D01*
X155235490Y-85214913D01*
X155098917Y-85158343D01*
X155098907Y-85158340D01*
X154950307Y-85128781D01*
X154888396Y-85096396D01*
X154853822Y-85035680D01*
X154850499Y-85007164D01*
X154850499Y-84982129D01*
X154850498Y-84982123D01*
X154850497Y-84982116D01*
X154844091Y-84922517D01*
X154841455Y-84915450D01*
X154793797Y-84787671D01*
X154793793Y-84787664D01*
X154707547Y-84672455D01*
X154707544Y-84672452D01*
X154592335Y-84586206D01*
X154592328Y-84586202D01*
X154457482Y-84535908D01*
X154457483Y-84535908D01*
X154397883Y-84529501D01*
X154397881Y-84529500D01*
X154397873Y-84529500D01*
X154397864Y-84529500D01*
X152602129Y-84529500D01*
X152602123Y-84529501D01*
X152542516Y-84535908D01*
X152407671Y-84586202D01*
X152407664Y-84586206D01*
X152292455Y-84672452D01*
X152292452Y-84672455D01*
X152206206Y-84787664D01*
X152206202Y-84787671D01*
X152155908Y-84922517D01*
X152150815Y-84969896D01*
X152149501Y-84982123D01*
X152149500Y-84982135D01*
X152149500Y-85625500D01*
X152129815Y-85692539D01*
X152077011Y-85738294D01*
X152025500Y-85749500D01*
X148112902Y-85749500D01*
X148045863Y-85729815D01*
X148000108Y-85677011D01*
X147990164Y-85607853D01*
X147993127Y-85593407D01*
X148000500Y-85565892D01*
X148000500Y-79124500D01*
X148020185Y-79057461D01*
X148072989Y-79011706D01*
X148124500Y-79000500D01*
X150545191Y-79000500D01*
X150612230Y-79020185D01*
G37*
%TD.AperFunction*%
%TA.AperFunction,Conductor*%
G36*
X155690614Y-79020185D02*
G01*
X155736369Y-79072989D01*
X155746313Y-79142147D01*
X155717288Y-79205703D01*
X155661894Y-79242431D01*
X155500776Y-79294781D01*
X155318386Y-79387715D01*
X155152786Y-79508028D01*
X155008032Y-79652782D01*
X155008028Y-79652787D01*
X154933430Y-79755463D01*
X154878100Y-79798129D01*
X154808487Y-79804108D01*
X154746692Y-79771502D01*
X154712334Y-79710664D01*
X154709822Y-79695831D01*
X154704091Y-79642516D01*
X154653797Y-79507671D01*
X154653793Y-79507664D01*
X154567547Y-79392455D01*
X154567544Y-79392452D01*
X154452335Y-79306206D01*
X154452328Y-79306202D01*
X154317482Y-79255908D01*
X154317483Y-79255908D01*
X154257883Y-79249501D01*
X154257881Y-79249500D01*
X154257873Y-79249500D01*
X154257864Y-79249500D01*
X152662129Y-79249500D01*
X152662123Y-79249501D01*
X152602516Y-79255908D01*
X152467671Y-79306202D01*
X152467664Y-79306206D01*
X152352455Y-79392452D01*
X152352452Y-79392455D01*
X152266206Y-79507664D01*
X152266202Y-79507671D01*
X152215908Y-79642516D01*
X152210096Y-79696576D01*
X152183357Y-79761127D01*
X152125964Y-79800974D01*
X152056139Y-79803467D01*
X152007698Y-79774724D01*
X151999474Y-79774076D01*
X151320000Y-80453551D01*
X151320000Y-80447339D01*
X151292741Y-80345606D01*
X151240080Y-80254394D01*
X151165606Y-80179920D01*
X151074394Y-80127259D01*
X150972661Y-80100000D01*
X150966446Y-80100000D01*
X151645922Y-79420524D01*
X151645921Y-79420523D01*
X151601359Y-79388147D01*
X151601350Y-79388141D01*
X151419031Y-79295244D01*
X151256490Y-79242431D01*
X151198815Y-79202993D01*
X151171617Y-79138634D01*
X151183532Y-79069788D01*
X151230776Y-79018312D01*
X151294809Y-79000500D01*
X155623575Y-79000500D01*
X155690614Y-79020185D01*
G37*
%TD.AperFunction*%
%TD*%
M02*
