%TF.GenerationSoftware,KiCad,Pcbnew,9.0.7*%
%TF.CreationDate,2026-02-17T01:21:17-06:00*%
%TF.ProjectId,Esp12-F,45737031-322d-4462-9e6b-696361645f70,rev?*%
%TF.SameCoordinates,Original*%
%TF.FileFunction,Legend,Bot*%
%TF.FilePolarity,Positive*%
%FSLAX46Y46*%
G04 Gerber Fmt 4.6, Leading zero omitted, Abs format (unit mm)*
G04 Created by KiCad (PCBNEW 9.0.7) date 2026-02-17 01:21:17*
%MOMM*%
%LPD*%
G01*
G04 APERTURE LIST*
%ADD10C,0.150000*%
G04 APERTURE END LIST*
D10*
X161884398Y-80917438D02*
X161979636Y-80869819D01*
X161979636Y-80869819D02*
X162122493Y-80869819D01*
X162122493Y-80869819D02*
X162265350Y-80917438D01*
X162265350Y-80917438D02*
X162360588Y-81012676D01*
X162360588Y-81012676D02*
X162408207Y-81107914D01*
X162408207Y-81107914D02*
X162455826Y-81298390D01*
X162455826Y-81298390D02*
X162455826Y-81441247D01*
X162455826Y-81441247D02*
X162408207Y-81631723D01*
X162408207Y-81631723D02*
X162360588Y-81726961D01*
X162360588Y-81726961D02*
X162265350Y-81822200D01*
X162265350Y-81822200D02*
X162122493Y-81869819D01*
X162122493Y-81869819D02*
X162027255Y-81869819D01*
X162027255Y-81869819D02*
X161884398Y-81822200D01*
X161884398Y-81822200D02*
X161836779Y-81774580D01*
X161836779Y-81774580D02*
X161836779Y-81441247D01*
X161836779Y-81441247D02*
X162027255Y-81441247D01*
X161408207Y-81869819D02*
X161408207Y-80869819D01*
X161408207Y-80869819D02*
X160836779Y-81869819D01*
X160836779Y-81869819D02*
X160836779Y-80869819D01*
X160360588Y-81869819D02*
X160360588Y-80869819D01*
X160360588Y-80869819D02*
X160122493Y-80869819D01*
X160122493Y-80869819D02*
X159979636Y-80917438D01*
X159979636Y-80917438D02*
X159884398Y-81012676D01*
X159884398Y-81012676D02*
X159836779Y-81107914D01*
X159836779Y-81107914D02*
X159789160Y-81298390D01*
X159789160Y-81298390D02*
X159789160Y-81441247D01*
X159789160Y-81441247D02*
X159836779Y-81631723D01*
X159836779Y-81631723D02*
X159884398Y-81726961D01*
X159884398Y-81726961D02*
X159979636Y-81822200D01*
X159979636Y-81822200D02*
X160122493Y-81869819D01*
X160122493Y-81869819D02*
X160360588Y-81869819D01*
X122639411Y-94917438D02*
X122734649Y-94869819D01*
X122734649Y-94869819D02*
X122877506Y-94869819D01*
X122877506Y-94869819D02*
X123020363Y-94917438D01*
X123020363Y-94917438D02*
X123115601Y-95012676D01*
X123115601Y-95012676D02*
X123163220Y-95107914D01*
X123163220Y-95107914D02*
X123210839Y-95298390D01*
X123210839Y-95298390D02*
X123210839Y-95441247D01*
X123210839Y-95441247D02*
X123163220Y-95631723D01*
X123163220Y-95631723D02*
X123115601Y-95726961D01*
X123115601Y-95726961D02*
X123020363Y-95822200D01*
X123020363Y-95822200D02*
X122877506Y-95869819D01*
X122877506Y-95869819D02*
X122782268Y-95869819D01*
X122782268Y-95869819D02*
X122639411Y-95822200D01*
X122639411Y-95822200D02*
X122591792Y-95774580D01*
X122591792Y-95774580D02*
X122591792Y-95441247D01*
X122591792Y-95441247D02*
X122782268Y-95441247D01*
X122163220Y-95869819D02*
X122163220Y-94869819D01*
X122163220Y-94869819D02*
X121782268Y-94869819D01*
X121782268Y-94869819D02*
X121687030Y-94917438D01*
X121687030Y-94917438D02*
X121639411Y-94965057D01*
X121639411Y-94965057D02*
X121591792Y-95060295D01*
X121591792Y-95060295D02*
X121591792Y-95203152D01*
X121591792Y-95203152D02*
X121639411Y-95298390D01*
X121639411Y-95298390D02*
X121687030Y-95346009D01*
X121687030Y-95346009D02*
X121782268Y-95393628D01*
X121782268Y-95393628D02*
X122163220Y-95393628D01*
X121163220Y-95869819D02*
X121163220Y-94869819D01*
X120496554Y-94869819D02*
X120306078Y-94869819D01*
X120306078Y-94869819D02*
X120210840Y-94917438D01*
X120210840Y-94917438D02*
X120115602Y-95012676D01*
X120115602Y-95012676D02*
X120067983Y-95203152D01*
X120067983Y-95203152D02*
X120067983Y-95536485D01*
X120067983Y-95536485D02*
X120115602Y-95726961D01*
X120115602Y-95726961D02*
X120210840Y-95822200D01*
X120210840Y-95822200D02*
X120306078Y-95869819D01*
X120306078Y-95869819D02*
X120496554Y-95869819D01*
X120496554Y-95869819D02*
X120591792Y-95822200D01*
X120591792Y-95822200D02*
X120687030Y-95726961D01*
X120687030Y-95726961D02*
X120734649Y-95536485D01*
X120734649Y-95536485D02*
X120734649Y-95203152D01*
X120734649Y-95203152D02*
X120687030Y-95012676D01*
X120687030Y-95012676D02*
X120591792Y-94917438D01*
X120591792Y-94917438D02*
X120496554Y-94869819D01*
X119115602Y-95869819D02*
X119687030Y-95869819D01*
X119401316Y-95869819D02*
X119401316Y-94869819D01*
X119401316Y-94869819D02*
X119496554Y-95012676D01*
X119496554Y-95012676D02*
X119591792Y-95107914D01*
X119591792Y-95107914D02*
X119687030Y-95155533D01*
X118734649Y-94965057D02*
X118687030Y-94917438D01*
X118687030Y-94917438D02*
X118591792Y-94869819D01*
X118591792Y-94869819D02*
X118353697Y-94869819D01*
X118353697Y-94869819D02*
X118258459Y-94917438D01*
X118258459Y-94917438D02*
X118210840Y-94965057D01*
X118210840Y-94965057D02*
X118163221Y-95060295D01*
X118163221Y-95060295D02*
X118163221Y-95155533D01*
X118163221Y-95155533D02*
X118210840Y-95298390D01*
X118210840Y-95298390D02*
X118782268Y-95869819D01*
X118782268Y-95869819D02*
X118163221Y-95869819D01*
X162806077Y-88369819D02*
X162234649Y-88369819D01*
X162520363Y-89369819D02*
X162520363Y-88369819D01*
X161996553Y-88369819D02*
X161329887Y-89369819D01*
X161329887Y-88369819D02*
X161996553Y-89369819D01*
X160948934Y-89369819D02*
X160948934Y-88369819D01*
X160948934Y-88369819D02*
X160710839Y-88369819D01*
X160710839Y-88369819D02*
X160567982Y-88417438D01*
X160567982Y-88417438D02*
X160472744Y-88512676D01*
X160472744Y-88512676D02*
X160425125Y-88607914D01*
X160425125Y-88607914D02*
X160377506Y-88798390D01*
X160377506Y-88798390D02*
X160377506Y-88941247D01*
X160377506Y-88941247D02*
X160425125Y-89131723D01*
X160425125Y-89131723D02*
X160472744Y-89226961D01*
X160472744Y-89226961D02*
X160567982Y-89322200D01*
X160567982Y-89322200D02*
X160710839Y-89369819D01*
X160710839Y-89369819D02*
X160948934Y-89369819D01*
X162806077Y-93369819D02*
X162472744Y-94369819D01*
X162472744Y-94369819D02*
X162139411Y-93369819D01*
X161234649Y-94274580D02*
X161282268Y-94322200D01*
X161282268Y-94322200D02*
X161425125Y-94369819D01*
X161425125Y-94369819D02*
X161520363Y-94369819D01*
X161520363Y-94369819D02*
X161663220Y-94322200D01*
X161663220Y-94322200D02*
X161758458Y-94226961D01*
X161758458Y-94226961D02*
X161806077Y-94131723D01*
X161806077Y-94131723D02*
X161853696Y-93941247D01*
X161853696Y-93941247D02*
X161853696Y-93798390D01*
X161853696Y-93798390D02*
X161806077Y-93607914D01*
X161806077Y-93607914D02*
X161758458Y-93512676D01*
X161758458Y-93512676D02*
X161663220Y-93417438D01*
X161663220Y-93417438D02*
X161520363Y-93369819D01*
X161520363Y-93369819D02*
X161425125Y-93369819D01*
X161425125Y-93369819D02*
X161282268Y-93417438D01*
X161282268Y-93417438D02*
X161234649Y-93465057D01*
X160234649Y-94274580D02*
X160282268Y-94322200D01*
X160282268Y-94322200D02*
X160425125Y-94369819D01*
X160425125Y-94369819D02*
X160520363Y-94369819D01*
X160520363Y-94369819D02*
X160663220Y-94322200D01*
X160663220Y-94322200D02*
X160758458Y-94226961D01*
X160758458Y-94226961D02*
X160806077Y-94131723D01*
X160806077Y-94131723D02*
X160853696Y-93941247D01*
X160853696Y-93941247D02*
X160853696Y-93798390D01*
X160853696Y-93798390D02*
X160806077Y-93607914D01*
X160806077Y-93607914D02*
X160758458Y-93512676D01*
X160758458Y-93512676D02*
X160663220Y-93417438D01*
X160663220Y-93417438D02*
X160520363Y-93369819D01*
X160520363Y-93369819D02*
X160425125Y-93369819D01*
X160425125Y-93369819D02*
X160282268Y-93417438D01*
X160282268Y-93417438D02*
X160234649Y-93465057D01*
X151139411Y-92917438D02*
X151234649Y-92869819D01*
X151234649Y-92869819D02*
X151377506Y-92869819D01*
X151377506Y-92869819D02*
X151520363Y-92917438D01*
X151520363Y-92917438D02*
X151615601Y-93012676D01*
X151615601Y-93012676D02*
X151663220Y-93107914D01*
X151663220Y-93107914D02*
X151710839Y-93298390D01*
X151710839Y-93298390D02*
X151710839Y-93441247D01*
X151710839Y-93441247D02*
X151663220Y-93631723D01*
X151663220Y-93631723D02*
X151615601Y-93726961D01*
X151615601Y-93726961D02*
X151520363Y-93822200D01*
X151520363Y-93822200D02*
X151377506Y-93869819D01*
X151377506Y-93869819D02*
X151282268Y-93869819D01*
X151282268Y-93869819D02*
X151139411Y-93822200D01*
X151139411Y-93822200D02*
X151091792Y-93774580D01*
X151091792Y-93774580D02*
X151091792Y-93441247D01*
X151091792Y-93441247D02*
X151282268Y-93441247D01*
X150663220Y-93869819D02*
X150663220Y-92869819D01*
X150663220Y-92869819D02*
X150282268Y-92869819D01*
X150282268Y-92869819D02*
X150187030Y-92917438D01*
X150187030Y-92917438D02*
X150139411Y-92965057D01*
X150139411Y-92965057D02*
X150091792Y-93060295D01*
X150091792Y-93060295D02*
X150091792Y-93203152D01*
X150091792Y-93203152D02*
X150139411Y-93298390D01*
X150139411Y-93298390D02*
X150187030Y-93346009D01*
X150187030Y-93346009D02*
X150282268Y-93393628D01*
X150282268Y-93393628D02*
X150663220Y-93393628D01*
X149663220Y-93869819D02*
X149663220Y-92869819D01*
X148996554Y-92869819D02*
X148806078Y-92869819D01*
X148806078Y-92869819D02*
X148710840Y-92917438D01*
X148710840Y-92917438D02*
X148615602Y-93012676D01*
X148615602Y-93012676D02*
X148567983Y-93203152D01*
X148567983Y-93203152D02*
X148567983Y-93536485D01*
X148567983Y-93536485D02*
X148615602Y-93726961D01*
X148615602Y-93726961D02*
X148710840Y-93822200D01*
X148710840Y-93822200D02*
X148806078Y-93869819D01*
X148806078Y-93869819D02*
X148996554Y-93869819D01*
X148996554Y-93869819D02*
X149091792Y-93822200D01*
X149091792Y-93822200D02*
X149187030Y-93726961D01*
X149187030Y-93726961D02*
X149234649Y-93536485D01*
X149234649Y-93536485D02*
X149234649Y-93203152D01*
X149234649Y-93203152D02*
X149187030Y-93012676D01*
X149187030Y-93012676D02*
X149091792Y-92917438D01*
X149091792Y-92917438D02*
X148996554Y-92869819D01*
X147710840Y-93203152D02*
X147710840Y-93869819D01*
X147948935Y-92822200D02*
X148187030Y-93536485D01*
X148187030Y-93536485D02*
X147567983Y-93536485D01*
X162091792Y-86869819D02*
X162425125Y-86393628D01*
X162663220Y-86869819D02*
X162663220Y-85869819D01*
X162663220Y-85869819D02*
X162282268Y-85869819D01*
X162282268Y-85869819D02*
X162187030Y-85917438D01*
X162187030Y-85917438D02*
X162139411Y-85965057D01*
X162139411Y-85965057D02*
X162091792Y-86060295D01*
X162091792Y-86060295D02*
X162091792Y-86203152D01*
X162091792Y-86203152D02*
X162139411Y-86298390D01*
X162139411Y-86298390D02*
X162187030Y-86346009D01*
X162187030Y-86346009D02*
X162282268Y-86393628D01*
X162282268Y-86393628D02*
X162663220Y-86393628D01*
X161758458Y-85869819D02*
X161091792Y-86869819D01*
X161091792Y-85869819D02*
X161758458Y-86869819D01*
X151091792Y-88869819D02*
X151425125Y-88393628D01*
X151663220Y-88869819D02*
X151663220Y-87869819D01*
X151663220Y-87869819D02*
X151282268Y-87869819D01*
X151282268Y-87869819D02*
X151187030Y-87917438D01*
X151187030Y-87917438D02*
X151139411Y-87965057D01*
X151139411Y-87965057D02*
X151091792Y-88060295D01*
X151091792Y-88060295D02*
X151091792Y-88203152D01*
X151091792Y-88203152D02*
X151139411Y-88298390D01*
X151139411Y-88298390D02*
X151187030Y-88346009D01*
X151187030Y-88346009D02*
X151282268Y-88393628D01*
X151282268Y-88393628D02*
X151663220Y-88393628D01*
X150758458Y-87869819D02*
X150091792Y-88869819D01*
X150091792Y-87869819D02*
X150758458Y-88869819D01*
X151806077Y-85369819D02*
X151234649Y-85369819D01*
X151520363Y-86369819D02*
X151520363Y-85369819D01*
X150996553Y-85369819D02*
X150329887Y-86369819D01*
X150329887Y-85369819D02*
X150996553Y-86369819D01*
X149948934Y-86369819D02*
X149948934Y-85369819D01*
X149948934Y-85369819D02*
X149710839Y-85369819D01*
X149710839Y-85369819D02*
X149567982Y-85417438D01*
X149567982Y-85417438D02*
X149472744Y-85512676D01*
X149472744Y-85512676D02*
X149425125Y-85607914D01*
X149425125Y-85607914D02*
X149377506Y-85798390D01*
X149377506Y-85798390D02*
X149377506Y-85941247D01*
X149377506Y-85941247D02*
X149425125Y-86131723D01*
X149425125Y-86131723D02*
X149472744Y-86226961D01*
X149472744Y-86226961D02*
X149567982Y-86322200D01*
X149567982Y-86322200D02*
X149710839Y-86369819D01*
X149710839Y-86369819D02*
X149948934Y-86369819D01*
X122639411Y-92417438D02*
X122734649Y-92369819D01*
X122734649Y-92369819D02*
X122877506Y-92369819D01*
X122877506Y-92369819D02*
X123020363Y-92417438D01*
X123020363Y-92417438D02*
X123115601Y-92512676D01*
X123115601Y-92512676D02*
X123163220Y-92607914D01*
X123163220Y-92607914D02*
X123210839Y-92798390D01*
X123210839Y-92798390D02*
X123210839Y-92941247D01*
X123210839Y-92941247D02*
X123163220Y-93131723D01*
X123163220Y-93131723D02*
X123115601Y-93226961D01*
X123115601Y-93226961D02*
X123020363Y-93322200D01*
X123020363Y-93322200D02*
X122877506Y-93369819D01*
X122877506Y-93369819D02*
X122782268Y-93369819D01*
X122782268Y-93369819D02*
X122639411Y-93322200D01*
X122639411Y-93322200D02*
X122591792Y-93274580D01*
X122591792Y-93274580D02*
X122591792Y-92941247D01*
X122591792Y-92941247D02*
X122782268Y-92941247D01*
X122163220Y-93369819D02*
X122163220Y-92369819D01*
X122163220Y-92369819D02*
X121782268Y-92369819D01*
X121782268Y-92369819D02*
X121687030Y-92417438D01*
X121687030Y-92417438D02*
X121639411Y-92465057D01*
X121639411Y-92465057D02*
X121591792Y-92560295D01*
X121591792Y-92560295D02*
X121591792Y-92703152D01*
X121591792Y-92703152D02*
X121639411Y-92798390D01*
X121639411Y-92798390D02*
X121687030Y-92846009D01*
X121687030Y-92846009D02*
X121782268Y-92893628D01*
X121782268Y-92893628D02*
X122163220Y-92893628D01*
X121163220Y-93369819D02*
X121163220Y-92369819D01*
X120496554Y-92369819D02*
X120306078Y-92369819D01*
X120306078Y-92369819D02*
X120210840Y-92417438D01*
X120210840Y-92417438D02*
X120115602Y-92512676D01*
X120115602Y-92512676D02*
X120067983Y-92703152D01*
X120067983Y-92703152D02*
X120067983Y-93036485D01*
X120067983Y-93036485D02*
X120115602Y-93226961D01*
X120115602Y-93226961D02*
X120210840Y-93322200D01*
X120210840Y-93322200D02*
X120306078Y-93369819D01*
X120306078Y-93369819D02*
X120496554Y-93369819D01*
X120496554Y-93369819D02*
X120591792Y-93322200D01*
X120591792Y-93322200D02*
X120687030Y-93226961D01*
X120687030Y-93226961D02*
X120734649Y-93036485D01*
X120734649Y-93036485D02*
X120734649Y-92703152D01*
X120734649Y-92703152D02*
X120687030Y-92512676D01*
X120687030Y-92512676D02*
X120591792Y-92417438D01*
X120591792Y-92417438D02*
X120496554Y-92369819D01*
X119115602Y-93369819D02*
X119687030Y-93369819D01*
X119401316Y-93369819D02*
X119401316Y-92369819D01*
X119401316Y-92369819D02*
X119496554Y-92512676D01*
X119496554Y-92512676D02*
X119591792Y-92607914D01*
X119591792Y-92607914D02*
X119687030Y-92655533D01*
X118258459Y-92703152D02*
X118258459Y-93369819D01*
X118496554Y-92322200D02*
X118734649Y-93036485D01*
X118734649Y-93036485D02*
X118115602Y-93036485D01*
X151139411Y-90417438D02*
X151234649Y-90369819D01*
X151234649Y-90369819D02*
X151377506Y-90369819D01*
X151377506Y-90369819D02*
X151520363Y-90417438D01*
X151520363Y-90417438D02*
X151615601Y-90512676D01*
X151615601Y-90512676D02*
X151663220Y-90607914D01*
X151663220Y-90607914D02*
X151710839Y-90798390D01*
X151710839Y-90798390D02*
X151710839Y-90941247D01*
X151710839Y-90941247D02*
X151663220Y-91131723D01*
X151663220Y-91131723D02*
X151615601Y-91226961D01*
X151615601Y-91226961D02*
X151520363Y-91322200D01*
X151520363Y-91322200D02*
X151377506Y-91369819D01*
X151377506Y-91369819D02*
X151282268Y-91369819D01*
X151282268Y-91369819D02*
X151139411Y-91322200D01*
X151139411Y-91322200D02*
X151091792Y-91274580D01*
X151091792Y-91274580D02*
X151091792Y-90941247D01*
X151091792Y-90941247D02*
X151282268Y-90941247D01*
X150663220Y-91369819D02*
X150663220Y-90369819D01*
X150663220Y-90369819D02*
X150282268Y-90369819D01*
X150282268Y-90369819D02*
X150187030Y-90417438D01*
X150187030Y-90417438D02*
X150139411Y-90465057D01*
X150139411Y-90465057D02*
X150091792Y-90560295D01*
X150091792Y-90560295D02*
X150091792Y-90703152D01*
X150091792Y-90703152D02*
X150139411Y-90798390D01*
X150139411Y-90798390D02*
X150187030Y-90846009D01*
X150187030Y-90846009D02*
X150282268Y-90893628D01*
X150282268Y-90893628D02*
X150663220Y-90893628D01*
X149663220Y-91369819D02*
X149663220Y-90369819D01*
X148996554Y-90369819D02*
X148806078Y-90369819D01*
X148806078Y-90369819D02*
X148710840Y-90417438D01*
X148710840Y-90417438D02*
X148615602Y-90512676D01*
X148615602Y-90512676D02*
X148567983Y-90703152D01*
X148567983Y-90703152D02*
X148567983Y-91036485D01*
X148567983Y-91036485D02*
X148615602Y-91226961D01*
X148615602Y-91226961D02*
X148710840Y-91322200D01*
X148710840Y-91322200D02*
X148806078Y-91369819D01*
X148806078Y-91369819D02*
X148996554Y-91369819D01*
X148996554Y-91369819D02*
X149091792Y-91322200D01*
X149091792Y-91322200D02*
X149187030Y-91226961D01*
X149187030Y-91226961D02*
X149234649Y-91036485D01*
X149234649Y-91036485D02*
X149234649Y-90703152D01*
X149234649Y-90703152D02*
X149187030Y-90512676D01*
X149187030Y-90512676D02*
X149091792Y-90417438D01*
X149091792Y-90417438D02*
X148996554Y-90369819D01*
X147663221Y-90369819D02*
X148139411Y-90369819D01*
X148139411Y-90369819D02*
X148187030Y-90846009D01*
X148187030Y-90846009D02*
X148139411Y-90798390D01*
X148139411Y-90798390D02*
X148044173Y-90750771D01*
X148044173Y-90750771D02*
X147806078Y-90750771D01*
X147806078Y-90750771D02*
X147710840Y-90798390D01*
X147710840Y-90798390D02*
X147663221Y-90846009D01*
X147663221Y-90846009D02*
X147615602Y-90941247D01*
X147615602Y-90941247D02*
X147615602Y-91179342D01*
X147615602Y-91179342D02*
X147663221Y-91274580D01*
X147663221Y-91274580D02*
X147710840Y-91322200D01*
X147710840Y-91322200D02*
X147806078Y-91369819D01*
X147806078Y-91369819D02*
X148044173Y-91369819D01*
X148044173Y-91369819D02*
X148139411Y-91322200D01*
X148139411Y-91322200D02*
X148187030Y-91274580D01*
X122639411Y-97417438D02*
X122734649Y-97369819D01*
X122734649Y-97369819D02*
X122877506Y-97369819D01*
X122877506Y-97369819D02*
X123020363Y-97417438D01*
X123020363Y-97417438D02*
X123115601Y-97512676D01*
X123115601Y-97512676D02*
X123163220Y-97607914D01*
X123163220Y-97607914D02*
X123210839Y-97798390D01*
X123210839Y-97798390D02*
X123210839Y-97941247D01*
X123210839Y-97941247D02*
X123163220Y-98131723D01*
X123163220Y-98131723D02*
X123115601Y-98226961D01*
X123115601Y-98226961D02*
X123020363Y-98322200D01*
X123020363Y-98322200D02*
X122877506Y-98369819D01*
X122877506Y-98369819D02*
X122782268Y-98369819D01*
X122782268Y-98369819D02*
X122639411Y-98322200D01*
X122639411Y-98322200D02*
X122591792Y-98274580D01*
X122591792Y-98274580D02*
X122591792Y-97941247D01*
X122591792Y-97941247D02*
X122782268Y-97941247D01*
X122163220Y-98369819D02*
X122163220Y-97369819D01*
X122163220Y-97369819D02*
X121782268Y-97369819D01*
X121782268Y-97369819D02*
X121687030Y-97417438D01*
X121687030Y-97417438D02*
X121639411Y-97465057D01*
X121639411Y-97465057D02*
X121591792Y-97560295D01*
X121591792Y-97560295D02*
X121591792Y-97703152D01*
X121591792Y-97703152D02*
X121639411Y-97798390D01*
X121639411Y-97798390D02*
X121687030Y-97846009D01*
X121687030Y-97846009D02*
X121782268Y-97893628D01*
X121782268Y-97893628D02*
X122163220Y-97893628D01*
X121163220Y-98369819D02*
X121163220Y-97369819D01*
X120496554Y-97369819D02*
X120306078Y-97369819D01*
X120306078Y-97369819D02*
X120210840Y-97417438D01*
X120210840Y-97417438D02*
X120115602Y-97512676D01*
X120115602Y-97512676D02*
X120067983Y-97703152D01*
X120067983Y-97703152D02*
X120067983Y-98036485D01*
X120067983Y-98036485D02*
X120115602Y-98226961D01*
X120115602Y-98226961D02*
X120210840Y-98322200D01*
X120210840Y-98322200D02*
X120306078Y-98369819D01*
X120306078Y-98369819D02*
X120496554Y-98369819D01*
X120496554Y-98369819D02*
X120591792Y-98322200D01*
X120591792Y-98322200D02*
X120687030Y-98226961D01*
X120687030Y-98226961D02*
X120734649Y-98036485D01*
X120734649Y-98036485D02*
X120734649Y-97703152D01*
X120734649Y-97703152D02*
X120687030Y-97512676D01*
X120687030Y-97512676D02*
X120591792Y-97417438D01*
X120591792Y-97417438D02*
X120496554Y-97369819D01*
X119115602Y-98369819D02*
X119687030Y-98369819D01*
X119401316Y-98369819D02*
X119401316Y-97369819D01*
X119401316Y-97369819D02*
X119496554Y-97512676D01*
X119496554Y-97512676D02*
X119591792Y-97607914D01*
X119591792Y-97607914D02*
X119687030Y-97655533D01*
X118782268Y-97369819D02*
X118163221Y-97369819D01*
X118163221Y-97369819D02*
X118496554Y-97750771D01*
X118496554Y-97750771D02*
X118353697Y-97750771D01*
X118353697Y-97750771D02*
X118258459Y-97798390D01*
X118258459Y-97798390D02*
X118210840Y-97846009D01*
X118210840Y-97846009D02*
X118163221Y-97941247D01*
X118163221Y-97941247D02*
X118163221Y-98179342D01*
X118163221Y-98179342D02*
X118210840Y-98274580D01*
X118210840Y-98274580D02*
X118258459Y-98322200D01*
X118258459Y-98322200D02*
X118353697Y-98369819D01*
X118353697Y-98369819D02*
X118639411Y-98369819D01*
X118639411Y-98369819D02*
X118734649Y-98322200D01*
X118734649Y-98322200D02*
X118782268Y-98274580D01*
X122639411Y-90417438D02*
X122734649Y-90369819D01*
X122734649Y-90369819D02*
X122877506Y-90369819D01*
X122877506Y-90369819D02*
X123020363Y-90417438D01*
X123020363Y-90417438D02*
X123115601Y-90512676D01*
X123115601Y-90512676D02*
X123163220Y-90607914D01*
X123163220Y-90607914D02*
X123210839Y-90798390D01*
X123210839Y-90798390D02*
X123210839Y-90941247D01*
X123210839Y-90941247D02*
X123163220Y-91131723D01*
X123163220Y-91131723D02*
X123115601Y-91226961D01*
X123115601Y-91226961D02*
X123020363Y-91322200D01*
X123020363Y-91322200D02*
X122877506Y-91369819D01*
X122877506Y-91369819D02*
X122782268Y-91369819D01*
X122782268Y-91369819D02*
X122639411Y-91322200D01*
X122639411Y-91322200D02*
X122591792Y-91274580D01*
X122591792Y-91274580D02*
X122591792Y-90941247D01*
X122591792Y-90941247D02*
X122782268Y-90941247D01*
X122163220Y-91369819D02*
X122163220Y-90369819D01*
X122163220Y-90369819D02*
X121782268Y-90369819D01*
X121782268Y-90369819D02*
X121687030Y-90417438D01*
X121687030Y-90417438D02*
X121639411Y-90465057D01*
X121639411Y-90465057D02*
X121591792Y-90560295D01*
X121591792Y-90560295D02*
X121591792Y-90703152D01*
X121591792Y-90703152D02*
X121639411Y-90798390D01*
X121639411Y-90798390D02*
X121687030Y-90846009D01*
X121687030Y-90846009D02*
X121782268Y-90893628D01*
X121782268Y-90893628D02*
X122163220Y-90893628D01*
X121163220Y-91369819D02*
X121163220Y-90369819D01*
X120496554Y-90369819D02*
X120306078Y-90369819D01*
X120306078Y-90369819D02*
X120210840Y-90417438D01*
X120210840Y-90417438D02*
X120115602Y-90512676D01*
X120115602Y-90512676D02*
X120067983Y-90703152D01*
X120067983Y-90703152D02*
X120067983Y-91036485D01*
X120067983Y-91036485D02*
X120115602Y-91226961D01*
X120115602Y-91226961D02*
X120210840Y-91322200D01*
X120210840Y-91322200D02*
X120306078Y-91369819D01*
X120306078Y-91369819D02*
X120496554Y-91369819D01*
X120496554Y-91369819D02*
X120591792Y-91322200D01*
X120591792Y-91322200D02*
X120687030Y-91226961D01*
X120687030Y-91226961D02*
X120734649Y-91036485D01*
X120734649Y-91036485D02*
X120734649Y-90703152D01*
X120734649Y-90703152D02*
X120687030Y-90512676D01*
X120687030Y-90512676D02*
X120591792Y-90417438D01*
X120591792Y-90417438D02*
X120496554Y-90369819D01*
X119115602Y-91369819D02*
X119687030Y-91369819D01*
X119401316Y-91369819D02*
X119401316Y-90369819D01*
X119401316Y-90369819D02*
X119496554Y-90512676D01*
X119496554Y-90512676D02*
X119591792Y-90607914D01*
X119591792Y-90607914D02*
X119687030Y-90655533D01*
X118258459Y-90369819D02*
X118448935Y-90369819D01*
X118448935Y-90369819D02*
X118544173Y-90417438D01*
X118544173Y-90417438D02*
X118591792Y-90465057D01*
X118591792Y-90465057D02*
X118687030Y-90607914D01*
X118687030Y-90607914D02*
X118734649Y-90798390D01*
X118734649Y-90798390D02*
X118734649Y-91179342D01*
X118734649Y-91179342D02*
X118687030Y-91274580D01*
X118687030Y-91274580D02*
X118639411Y-91322200D01*
X118639411Y-91322200D02*
X118544173Y-91369819D01*
X118544173Y-91369819D02*
X118353697Y-91369819D01*
X118353697Y-91369819D02*
X118258459Y-91322200D01*
X118258459Y-91322200D02*
X118210840Y-91274580D01*
X118210840Y-91274580D02*
X118163221Y-91179342D01*
X118163221Y-91179342D02*
X118163221Y-90941247D01*
X118163221Y-90941247D02*
X118210840Y-90846009D01*
X118210840Y-90846009D02*
X118258459Y-90798390D01*
X118258459Y-90798390D02*
X118353697Y-90750771D01*
X118353697Y-90750771D02*
X118544173Y-90750771D01*
X118544173Y-90750771D02*
X118639411Y-90798390D01*
X118639411Y-90798390D02*
X118687030Y-90846009D01*
X118687030Y-90846009D02*
X118734649Y-90941247D01*
X139261904Y-88454819D02*
X139261904Y-89264342D01*
X139261904Y-89264342D02*
X139214285Y-89359580D01*
X139214285Y-89359580D02*
X139166666Y-89407200D01*
X139166666Y-89407200D02*
X139071428Y-89454819D01*
X139071428Y-89454819D02*
X138880952Y-89454819D01*
X138880952Y-89454819D02*
X138785714Y-89407200D01*
X138785714Y-89407200D02*
X138738095Y-89359580D01*
X138738095Y-89359580D02*
X138690476Y-89264342D01*
X138690476Y-89264342D02*
X138690476Y-88454819D01*
X137690476Y-89454819D02*
X138261904Y-89454819D01*
X137976190Y-89454819D02*
X137976190Y-88454819D01*
X137976190Y-88454819D02*
X138071428Y-88597676D01*
X138071428Y-88597676D02*
X138166666Y-88692914D01*
X138166666Y-88692914D02*
X138261904Y-88740533D01*
X125547619Y-83454819D02*
X125880952Y-82978628D01*
X126119047Y-83454819D02*
X126119047Y-82454819D01*
X126119047Y-82454819D02*
X125738095Y-82454819D01*
X125738095Y-82454819D02*
X125642857Y-82502438D01*
X125642857Y-82502438D02*
X125595238Y-82550057D01*
X125595238Y-82550057D02*
X125547619Y-82645295D01*
X125547619Y-82645295D02*
X125547619Y-82788152D01*
X125547619Y-82788152D02*
X125595238Y-82883390D01*
X125595238Y-82883390D02*
X125642857Y-82931009D01*
X125642857Y-82931009D02*
X125738095Y-82978628D01*
X125738095Y-82978628D02*
X126119047Y-82978628D01*
X125166666Y-83407200D02*
X125023809Y-83454819D01*
X125023809Y-83454819D02*
X124785714Y-83454819D01*
X124785714Y-83454819D02*
X124690476Y-83407200D01*
X124690476Y-83407200D02*
X124642857Y-83359580D01*
X124642857Y-83359580D02*
X124595238Y-83264342D01*
X124595238Y-83264342D02*
X124595238Y-83169104D01*
X124595238Y-83169104D02*
X124642857Y-83073866D01*
X124642857Y-83073866D02*
X124690476Y-83026247D01*
X124690476Y-83026247D02*
X124785714Y-82978628D01*
X124785714Y-82978628D02*
X124976190Y-82931009D01*
X124976190Y-82931009D02*
X125071428Y-82883390D01*
X125071428Y-82883390D02*
X125119047Y-82835771D01*
X125119047Y-82835771D02*
X125166666Y-82740533D01*
X125166666Y-82740533D02*
X125166666Y-82645295D01*
X125166666Y-82645295D02*
X125119047Y-82550057D01*
X125119047Y-82550057D02*
X125071428Y-82502438D01*
X125071428Y-82502438D02*
X124976190Y-82454819D01*
X124976190Y-82454819D02*
X124738095Y-82454819D01*
X124738095Y-82454819D02*
X124595238Y-82502438D01*
X124309523Y-82454819D02*
X123738095Y-82454819D01*
X124023809Y-83454819D02*
X124023809Y-82454819D01*
M02*
