M48
; DRILL file {KiCad 9.0.7} date 2026-02-17T02:08:49-0600
; FORMAT={-:-/ absolute / metric / decimal}
; #@! TF.CreationDate,2026-02-17T02:08:49-06:00
; #@! TF.GenerationSoftware,Kicad,Pcbnew,9.0.7
; #@! TF.FileFunction,Plated,1,2,PTH
FMAT,2
METRIC
; #@! TA.AperFunction,Plated,PTH,ViaDrill
T1C0.300
; #@! TA.AperFunction,Plated,PTH,ComponentDrill
T2C0.800
; #@! TA.AperFunction,Plated,PTH,ComponentDrill
T3C1.000
%
G90
G05
T1
X148.5Y-97.0
X149.0Y-101.5
X149.5Y-93.5
X151.0Y-85.5
X156.0Y-82.71
X156.5Y-87.5
T2
X119.19Y-88.5
X119.69Y-80.5
X126.81Y-88.5
X127.31Y-80.5
X135.5Y-104.5
X135.5Y-109.5
X140.045Y-106.5
X142.045Y-106.5
X150.0Y-103.5
X150.0Y-106.5
X150.19Y-100.5
X150.92Y-80.5
X153.46Y-80.5
X156.0Y-80.5
X157.62Y-103.5
X157.62Y-106.5
X157.81Y-100.5
T3
X125.0Y-92.69
X125.0Y-95.23
X125.0Y-97.77
X125.0Y-100.31
X125.5Y-84.5
X153.5Y-85.88
X153.5Y-88.42
X153.5Y-90.96
X153.5Y-93.5
X161.5Y-83.46
X161.5Y-86.0
X161.5Y-88.54
X161.5Y-91.08
X161.5Y-93.62
X161.5Y-96.16
M30
