M48
; DRILL file {KiCad 9.0.7} date 2026-02-17T01:21:19-0600
; FORMAT={-:-/ absolute / metric / decimal}
; #@! TF.CreationDate,2026-02-17T01:21:19-06:00
; #@! TF.GenerationSoftware,Kicad,Pcbnew,9.0.7
; #@! TF.FileFunction,Plated,1,2,PTH
FMAT,2
METRIC
; #@! TA.AperFunction,Plated,PTH,ViaDrill
T1C0.300
; #@! TA.AperFunction,Plated,PTH,ComponentDrill
T2C0.800
; #@! TA.AperFunction,Plated,PTH,ComponentDrill
T3C1.000
%
G90
G05
T1
X119.106Y-89.665
X132.5Y-104.0
X149.5Y-102.5
X150.97Y-103.53
X152.0Y-97.5
X152.75Y-100.5
X155.0Y-83.5
X155.25Y-85.0
X155.5Y-97.75
X157.0Y-86.5
X157.0Y-89.0
X157.97Y-83.53
X158.0Y-95.5
X159.0Y-88.5
X159.03Y-99.47
X159.25Y-85.5
T2
X119.19Y-88.5
X119.88Y-79.0
X122.0Y-100.5
X122.0Y-107.0
X124.0Y-100.5
X126.81Y-88.5
X127.0Y-107.0
X127.5Y-79.0
X132.0Y-107.5
X139.62Y-107.5
X142.88Y-107.5
X150.5Y-107.5
X150.92Y-80.5
X153.46Y-80.5
X153.69Y-107.5
X156.0Y-80.5
X161.31Y-107.5
T3
X116.0Y-90.38
X116.0Y-92.92
X116.0Y-95.46
X116.0Y-98.0
X122.0Y-83.0
X153.5Y-85.88
X153.5Y-88.42
X153.5Y-90.96
X153.5Y-93.5
X164.5Y-81.3
X164.5Y-83.84
X164.5Y-86.38
X164.5Y-88.92
X164.5Y-91.46
X164.5Y-94.0
M30
