%TF.GenerationSoftware,KiCad,Pcbnew,9.0.7*%
%TF.CreationDate,2026-02-17T01:21:17-06:00*%
%TF.ProjectId,Esp12-F,45737031-322d-4462-9e6b-696361645f70,rev?*%
%TF.SameCoordinates,Original*%
%TF.FileFunction,Copper,L1,Top*%
%TF.FilePolarity,Positive*%
%FSLAX46Y46*%
G04 Gerber Fmt 4.6, Leading zero omitted, Abs format (unit mm)*
G04 Created by KiCad (PCBNEW 9.0.7) date 2026-02-17 01:21:17*
%MOMM*%
%LPD*%
G01*
G04 APERTURE LIST*
G04 Aperture macros list*
%AMRoundRect*
0 Rectangle with rounded corners*
0 $1 Rounding radius*
0 $2 $3 $4 $5 $6 $7 $8 $9 X,Y pos of 4 corners*
0 Add a 4 corners polygon primitive as box body*
4,1,4,$2,$3,$4,$5,$6,$7,$8,$9,$2,$3,0*
0 Add four circle primitives for the rounded corners*
1,1,$1+$1,$2,$3*
1,1,$1+$1,$4,$5*
1,1,$1+$1,$6,$7*
1,1,$1+$1,$8,$9*
0 Add four rect primitives between the rounded corners*
20,1,$1+$1,$2,$3,$4,$5,0*
20,1,$1+$1,$4,$5,$6,$7,0*
20,1,$1+$1,$6,$7,$8,$9,0*
20,1,$1+$1,$8,$9,$2,$3,0*%
G04 Aperture macros list end*
%TA.AperFunction,ComponentPad*%
%ADD10C,1.600000*%
%TD*%
%TA.AperFunction,ComponentPad*%
%ADD11RoundRect,0.250000X-0.550000X-0.550000X0.550000X-0.550000X0.550000X0.550000X-0.550000X0.550000X0*%
%TD*%
%TA.AperFunction,ComponentPad*%
%ADD12R,1.700000X1.700000*%
%TD*%
%TA.AperFunction,ComponentPad*%
%ADD13C,1.700000*%
%TD*%
%TA.AperFunction,SMDPad,CuDef*%
%ADD14R,2.500000X1.000000*%
%TD*%
%TA.AperFunction,SMDPad,CuDef*%
%ADD15R,1.000000X1.800000*%
%TD*%
%TA.AperFunction,ComponentPad*%
%ADD16R,1.500000X1.500000*%
%TD*%
%TA.AperFunction,ViaPad*%
%ADD17C,0.600000*%
%TD*%
%TA.AperFunction,Conductor*%
%ADD18C,0.500000*%
%TD*%
G04 APERTURE END LIST*
D10*
%TO.P,C2,1*%
%TO.N,GND*%
X122000000Y-107000000D03*
%TO.P,C2,2*%
%TO.N,3.3V*%
X127000000Y-107000000D03*
%TD*%
%TO.P,R3,1*%
%TO.N,GND*%
X153690000Y-107500000D03*
%TO.P,R3,2*%
%TO.N,Net-(U1-GPIO15)*%
X161310000Y-107500000D03*
%TD*%
D11*
%TO.P,C1,1*%
%TO.N,GND*%
X122000000Y-100500000D03*
D10*
%TO.P,C1,2*%
%TO.N,3.3V*%
X124000000Y-100500000D03*
%TD*%
D12*
%TO.P,J3,1,Pin_1*%
%TO.N,Net-(J3-Pin_1)*%
X116000000Y-90380000D03*
D13*
%TO.P,J3,2,Pin_2*%
%TO.N,Net-(J3-Pin_2)*%
X116000000Y-92920000D03*
%TO.P,J3,3,Pin_3*%
%TO.N,Net-(J3-Pin_3)*%
X116000000Y-95460000D03*
%TO.P,J3,4,Pin_4*%
%TO.N,Net-(J3-Pin_4)*%
X116000000Y-98000000D03*
%TD*%
D12*
%TO.P,J1,1,Pin_1*%
%TO.N,GND*%
X164500000Y-81300000D03*
D13*
%TO.P,J1,2,Pin_2*%
%TO.N,unconnected-(J1-Pin_2-Pad2)*%
X164500000Y-83840000D03*
%TO.P,J1,3,Pin_3*%
%TO.N,Net-(J1-Pin_3)*%
X164500000Y-86380000D03*
%TO.P,J1,4,Pin_4*%
%TO.N,Net-(J1-Pin_4)*%
X164500000Y-88920000D03*
%TO.P,J1,5,Pin_5*%
%TO.N,unconnected-(J1-Pin_5-Pad5)*%
X164500000Y-91460000D03*
%TO.P,J1,6,Pin_6*%
%TO.N,3.3V*%
X164500000Y-94000000D03*
%TD*%
D12*
%TO.P,J6,1,Pin_1*%
%TO.N,Net-(J1-Pin_4)*%
X153500000Y-85880000D03*
D13*
%TO.P,J6,2,Pin_2*%
%TO.N,Net-(J1-Pin_3)*%
X153500000Y-88420000D03*
%TO.P,J6,3,Pin_3*%
%TO.N,Net-(J6-Pin_3)*%
X153500000Y-90960000D03*
%TO.P,J6,4,Pin_4*%
%TO.N,Net-(J6-Pin_4)*%
X153500000Y-93500000D03*
%TD*%
D14*
%TO.P,U1,1,~{RST}*%
%TO.N,Net-(U1-~{RST})*%
X130850000Y-86500000D03*
%TO.P,U1,2,ADC*%
%TO.N,Net-(J9-Pin_1)*%
X130850000Y-88500000D03*
%TO.P,U1,3,EN*%
%TO.N,Net-(U1-EN)*%
X130850000Y-90500000D03*
%TO.P,U1,4,GPIO16*%
%TO.N,Net-(J3-Pin_1)*%
X130850000Y-92500000D03*
%TO.P,U1,5,GPIO14*%
%TO.N,Net-(J3-Pin_2)*%
X130850000Y-94500000D03*
%TO.P,U1,6,GPIO12*%
%TO.N,Net-(J3-Pin_3)*%
X130850000Y-96500000D03*
%TO.P,U1,7,GPIO13*%
%TO.N,Net-(J3-Pin_4)*%
X130850000Y-98500000D03*
%TO.P,U1,8,VCC*%
%TO.N,3.3V*%
X130850000Y-100500000D03*
D15*
%TO.P,U1,9,CS0*%
%TO.N,unconnected-(U1-CS0-Pad9)*%
X133450000Y-102000000D03*
%TO.P,U1,10,MISO*%
%TO.N,unconnected-(U1-MISO-Pad10)*%
X135450000Y-102000000D03*
%TO.P,U1,11,GPIO9*%
%TO.N,unconnected-(U1-GPIO9-Pad11)*%
X137450000Y-102000000D03*
%TO.P,U1,12,GPIO10*%
%TO.N,unconnected-(U1-GPIO10-Pad12)*%
X139450000Y-102000000D03*
%TO.P,U1,13,MOSI*%
%TO.N,unconnected-(U1-MOSI-Pad13)*%
X141450000Y-102000000D03*
%TO.P,U1,14,SCLK*%
%TO.N,unconnected-(U1-SCLK-Pad14)*%
X143450000Y-102000000D03*
D14*
%TO.P,U1,15,GND*%
%TO.N,GND*%
X146050000Y-100500000D03*
%TO.P,U1,16,GPIO15*%
%TO.N,Net-(U1-GPIO15)*%
X146050000Y-98500000D03*
%TO.P,U1,17,GPIO2*%
%TO.N,Net-(U1-GPIO2)*%
X146050000Y-96500000D03*
%TO.P,U1,18,GPIO0*%
%TO.N,Net-(SW2-A)*%
X146050000Y-94500000D03*
%TO.P,U1,19,GPIO4*%
%TO.N,Net-(J6-Pin_4)*%
X146050000Y-92500000D03*
%TO.P,U1,20,GPIO5*%
%TO.N,Net-(J6-Pin_3)*%
X146050000Y-90500000D03*
%TO.P,U1,21,GPIO3/RXD*%
%TO.N,Net-(J1-Pin_3)*%
X146050000Y-88500000D03*
%TO.P,U1,22,GPIO1/TXD*%
%TO.N,Net-(J1-Pin_4)*%
X146050000Y-86500000D03*
%TD*%
D16*
%TO.P,SW2,1,A*%
%TO.N,Net-(SW2-A)*%
X153460000Y-80500000D03*
D10*
%TO.P,SW2,2,B*%
%TO.N,GND*%
X150920000Y-80500000D03*
%TO.P,SW2,3,C*%
%TO.N,Net-(SW2-C)*%
X156000000Y-80500000D03*
%TD*%
%TO.P,R2,1*%
%TO.N,3.3V*%
X119880000Y-79000000D03*
%TO.P,R2,2*%
%TO.N,Net-(U1-~{RST})*%
X127500000Y-79000000D03*
%TD*%
%TO.P,R4,1*%
%TO.N,3.3V*%
X150500000Y-107500000D03*
%TO.P,R4,2*%
%TO.N,Net-(U1-GPIO2)*%
X142880000Y-107500000D03*
%TD*%
%TO.P,R1,1*%
%TO.N,3.3V*%
X119190000Y-88500000D03*
%TO.P,R1,2*%
%TO.N,Net-(U1-EN)*%
X126810000Y-88500000D03*
%TD*%
D12*
%TO.P,RST,1,Pin_1*%
%TO.N,Net-(J9-Pin_1)*%
X122000000Y-83000000D03*
%TD*%
D10*
%TO.P,R5,1*%
%TO.N,3.3V*%
X132000000Y-107500000D03*
%TO.P,R5,2*%
%TO.N,Net-(SW2-C)*%
X139620000Y-107500000D03*
%TD*%
D17*
%TO.N,3.3V*%
X132500000Y-104000000D03*
X159030331Y-99469669D03*
X119105849Y-89664813D03*
%TO.N,GND*%
X155000000Y-83500000D03*
X152750000Y-100500000D03*
X158000000Y-95500000D03*
X157969669Y-83530331D03*
X155500000Y-97750000D03*
%TO.N,Net-(U1-GPIO2)*%
X150969669Y-103530331D03*
X152000000Y-97500000D03*
%TO.N,Net-(SW2-C)*%
X149500000Y-102500000D03*
%TO.N,Net-(J1-Pin_4)*%
X157000000Y-86500000D03*
X155250000Y-85000000D03*
%TO.N,Net-(J1-Pin_3)*%
X157000000Y-89000000D03*
X159000000Y-88500000D03*
X159250000Y-85500000D03*
%TD*%
D18*
%TO.N,3.3V*%
X164500000Y-94000000D02*
X159030331Y-99469669D01*
X130850000Y-100500000D02*
X130850000Y-101150000D01*
X129500000Y-108000000D02*
X129500000Y-104000000D01*
X119190000Y-88500000D02*
X119190000Y-89580662D01*
X130850000Y-106350000D02*
X132000000Y-107500000D01*
X119190000Y-89580662D02*
X119105849Y-89664813D01*
X129500000Y-104000000D02*
X130850000Y-102650000D01*
X132500000Y-104000000D02*
X132000000Y-103500000D01*
X119190000Y-88500000D02*
X119190000Y-79690000D01*
X130850000Y-100500000D02*
X130850000Y-103500000D01*
X148500000Y-109500000D02*
X131000000Y-109500000D01*
X130850000Y-102650000D02*
X130850000Y-100500000D01*
X150500000Y-107500000D02*
X148500000Y-109500000D01*
X131000000Y-109500000D02*
X129500000Y-108000000D01*
X127000000Y-105000000D02*
X127000000Y-107000000D01*
X119190000Y-79690000D02*
X119880000Y-79000000D01*
X130850000Y-103500000D02*
X130850000Y-106350000D01*
X131500000Y-107000000D02*
X132000000Y-107500000D01*
X130850000Y-101150000D02*
X127000000Y-105000000D01*
X132000000Y-103500000D02*
X130850000Y-103500000D01*
X130850000Y-100500000D02*
X124000000Y-100500000D01*
%TO.N,GND*%
X147992925Y-110437793D02*
X143556470Y-110437793D01*
X155750000Y-97750000D02*
X155500000Y-97750000D01*
X151101324Y-110398676D02*
X147992925Y-110437793D01*
X122000000Y-100500000D02*
X122000000Y-107000000D01*
X158000000Y-95500000D02*
X155750000Y-97750000D01*
X153920000Y-83500000D02*
X155000000Y-83500000D01*
X152000000Y-104000000D02*
X152000000Y-109500000D01*
X149000000Y-100500000D02*
X152250000Y-103750000D01*
X153690000Y-105190000D02*
X153690000Y-107500000D01*
X146050000Y-100500000D02*
X149000000Y-100500000D01*
X143556470Y-110437793D02*
X143499929Y-110494334D01*
X152250000Y-103750000D02*
X152000000Y-104000000D01*
X152000000Y-109500000D02*
X151101324Y-110398676D01*
X157969669Y-83530331D02*
X160200000Y-81300000D01*
X160200000Y-81300000D02*
X164500000Y-81300000D01*
X131495538Y-110645401D02*
X125645401Y-110645401D01*
X152250000Y-103750000D02*
X153690000Y-105190000D01*
X143499929Y-110494334D02*
X131495538Y-110645401D01*
X152750000Y-100500000D02*
X149000000Y-100500000D01*
X150920000Y-80500000D02*
X153920000Y-83500000D01*
X125645401Y-110645401D02*
X122000000Y-107000000D01*
%TO.N,Net-(J3-Pin_1)*%
X118880000Y-90380000D02*
X116000000Y-90380000D01*
X121000000Y-92500000D02*
X118880000Y-90380000D01*
X130850000Y-92500000D02*
X121000000Y-92500000D01*
%TO.N,Net-(J3-Pin_2)*%
X117580000Y-94500000D02*
X130850000Y-94500000D01*
X116000000Y-92920000D02*
X117580000Y-94500000D01*
%TO.N,Net-(J3-Pin_4)*%
X119000000Y-97000000D02*
X127008636Y-97000000D01*
X127008636Y-97000000D02*
X128508636Y-98500000D01*
X116000000Y-98000000D02*
X116500000Y-97500000D01*
X118500000Y-97500000D02*
X119000000Y-97000000D01*
X128508636Y-98500000D02*
X130850000Y-98500000D01*
X116500000Y-97500000D02*
X118500000Y-97500000D01*
%TO.N,Net-(J9-Pin_1)*%
X130100000Y-88500000D02*
X128801000Y-87201000D01*
X128801000Y-87201000D02*
X128709636Y-87201000D01*
X126500000Y-86000000D02*
X125500000Y-85000000D01*
X130850000Y-88500000D02*
X130100000Y-88500000D01*
X127799000Y-86199000D02*
X127600000Y-86000000D01*
X128709636Y-87201000D02*
X127799000Y-86290364D01*
X127799000Y-86290364D02*
X127799000Y-86199000D01*
X127600000Y-86000000D02*
X126500000Y-86000000D01*
X125500000Y-85000000D02*
X124000000Y-85000000D01*
X124000000Y-85000000D02*
X122000000Y-83000000D01*
%TO.N,Net-(U1-EN)*%
X128810000Y-90500000D02*
X130850000Y-90500000D01*
X126810000Y-88500000D02*
X128810000Y-90500000D01*
%TO.N,Net-(U1-~{RST})*%
X127500000Y-83150000D02*
X127500000Y-79000000D01*
X130850000Y-86500000D02*
X129000000Y-86500000D01*
X128500000Y-84150000D02*
X127500000Y-83150000D01*
X128500000Y-86000000D02*
X128500000Y-84150000D01*
X129000000Y-86500000D02*
X128500000Y-86000000D01*
%TO.N,Net-(U1-GPIO15)*%
X161310000Y-102810000D02*
X161310000Y-107500000D01*
X146050000Y-98500000D02*
X157000000Y-98500000D01*
X157000000Y-98500000D02*
X161310000Y-102810000D01*
%TO.N,Net-(U1-GPIO2)*%
X142880000Y-107500000D02*
X142880000Y-106120000D01*
X144000000Y-105000000D02*
X148000000Y-105000000D01*
X142880000Y-106120000D02*
X144000000Y-105000000D01*
X148000000Y-105000000D02*
X149500000Y-105000000D01*
X149500000Y-105000000D02*
X150500000Y-104000000D01*
X150500000Y-104000000D02*
X150969669Y-103530331D01*
X152000000Y-97500000D02*
X151000000Y-96500000D01*
X151000000Y-96500000D02*
X146050000Y-96500000D01*
%TO.N,Net-(J3-Pin_3)*%
X116000000Y-95460000D02*
X116040000Y-95500000D01*
X127500000Y-96500000D02*
X130850000Y-96500000D01*
X126500000Y-95500000D02*
X127500000Y-96500000D01*
X116040000Y-95500000D02*
X126500000Y-95500000D01*
%TO.N,Net-(J6-Pin_4)*%
X153500000Y-93500000D02*
X152500000Y-92500000D01*
X152500000Y-92500000D02*
X146050000Y-92500000D01*
%TO.N,Net-(J6-Pin_3)*%
X153500000Y-90960000D02*
X146510000Y-90960000D01*
X146510000Y-90960000D02*
X146050000Y-90500000D01*
%TO.N,Net-(SW2-C)*%
X143120000Y-104000000D02*
X148000000Y-104000000D01*
X139620000Y-107500000D02*
X143120000Y-104000000D01*
X148000000Y-104000000D02*
X149500000Y-102500000D01*
%TO.N,Net-(SW2-A)*%
X152500000Y-96500000D02*
X150500000Y-94500000D01*
X155500000Y-96500000D02*
X152500000Y-96500000D01*
X153460000Y-80500000D02*
X156000000Y-83040000D01*
X150500000Y-94500000D02*
X146050000Y-94500000D01*
X156000000Y-83040000D02*
X156000000Y-96000000D01*
X156000000Y-96000000D02*
X155500000Y-96500000D01*
%TO.N,Net-(J1-Pin_4)*%
X162080000Y-86500000D02*
X164500000Y-88920000D01*
X154380000Y-85000000D02*
X155250000Y-85000000D01*
X153500000Y-85880000D02*
X152880000Y-86500000D01*
X152880000Y-86500000D02*
X146050000Y-86500000D01*
X153500000Y-85880000D02*
X154380000Y-85000000D01*
X157000000Y-86500000D02*
X162080000Y-86500000D01*
%TO.N,Net-(J1-Pin_3)*%
X146130000Y-88420000D02*
X146050000Y-88500000D01*
X162000000Y-85500000D02*
X159250000Y-85500000D01*
X153500000Y-88420000D02*
X146130000Y-88420000D01*
X158500000Y-89000000D02*
X157000000Y-89000000D01*
X162000000Y-85500000D02*
X163620000Y-85500000D01*
X163620000Y-85500000D02*
X164500000Y-86380000D01*
X159000000Y-88500000D02*
X158500000Y-89000000D01*
%TD*%
%TA.AperFunction,Conductor*%
%TO.N,GND*%
G36*
X119570614Y-77520185D02*
G01*
X119616369Y-77572989D01*
X119626313Y-77642147D01*
X119597288Y-77705703D01*
X119541894Y-77742431D01*
X119380776Y-77794781D01*
X119198386Y-77887715D01*
X119032786Y-78008028D01*
X118888028Y-78152786D01*
X118767715Y-78318386D01*
X118674781Y-78500776D01*
X118611522Y-78695465D01*
X118579500Y-78897648D01*
X118579500Y-79102358D01*
X118591171Y-79176048D01*
X118582216Y-79245341D01*
X118571801Y-79264334D01*
X118524915Y-79334504D01*
X118524914Y-79334506D01*
X118468343Y-79471082D01*
X118468340Y-79471092D01*
X118439500Y-79616079D01*
X118439500Y-87374582D01*
X118419815Y-87441621D01*
X118388385Y-87474900D01*
X118342787Y-87508028D01*
X118342782Y-87508032D01*
X118198028Y-87652786D01*
X118077715Y-87818386D01*
X117984781Y-88000776D01*
X117921522Y-88195465D01*
X117889500Y-88397648D01*
X117889500Y-88602351D01*
X117921522Y-88804534D01*
X117984781Y-88999223D01*
X118029100Y-89086202D01*
X118073048Y-89172455D01*
X118077715Y-89181613D01*
X118198028Y-89347213D01*
X118268634Y-89417819D01*
X118302119Y-89479142D01*
X118297135Y-89548834D01*
X118255263Y-89604767D01*
X118189799Y-89629184D01*
X118180953Y-89629500D01*
X117474499Y-89629500D01*
X117407460Y-89609815D01*
X117361705Y-89557011D01*
X117350499Y-89505500D01*
X117350499Y-89482129D01*
X117350498Y-89482123D01*
X117350497Y-89482116D01*
X117344091Y-89422517D01*
X117340287Y-89412319D01*
X117293797Y-89287671D01*
X117293793Y-89287664D01*
X117207547Y-89172455D01*
X117207544Y-89172452D01*
X117092335Y-89086206D01*
X117092328Y-89086202D01*
X116957482Y-89035908D01*
X116957483Y-89035908D01*
X116897883Y-89029501D01*
X116897881Y-89029500D01*
X116897873Y-89029500D01*
X116897864Y-89029500D01*
X115102129Y-89029500D01*
X115102123Y-89029501D01*
X115042516Y-89035908D01*
X114907671Y-89086202D01*
X114907664Y-89086206D01*
X114792455Y-89172452D01*
X114792452Y-89172455D01*
X114706206Y-89287664D01*
X114706202Y-89287671D01*
X114655908Y-89422517D01*
X114652942Y-89450109D01*
X114649501Y-89482123D01*
X114649500Y-89482135D01*
X114649500Y-91277870D01*
X114649501Y-91277876D01*
X114655908Y-91337483D01*
X114706202Y-91472328D01*
X114706206Y-91472335D01*
X114792452Y-91587544D01*
X114792455Y-91587547D01*
X114907664Y-91673793D01*
X114907671Y-91673797D01*
X115039082Y-91722810D01*
X115095016Y-91764681D01*
X115119433Y-91830145D01*
X115104582Y-91898418D01*
X115083431Y-91926673D01*
X114969889Y-92040215D01*
X114844951Y-92212179D01*
X114748444Y-92401585D01*
X114682753Y-92603760D01*
X114649500Y-92813713D01*
X114649500Y-93026286D01*
X114674440Y-93183755D01*
X114682754Y-93236243D01*
X114747505Y-93435526D01*
X114748444Y-93438414D01*
X114844951Y-93627820D01*
X114969890Y-93799786D01*
X115120213Y-93950109D01*
X115292182Y-94075050D01*
X115300946Y-94079516D01*
X115351742Y-94127491D01*
X115368536Y-94195312D01*
X115345998Y-94261447D01*
X115300946Y-94300484D01*
X115292182Y-94304949D01*
X115120213Y-94429890D01*
X114969890Y-94580213D01*
X114844951Y-94752179D01*
X114748444Y-94941585D01*
X114682753Y-95143760D01*
X114655276Y-95317246D01*
X114649500Y-95353713D01*
X114649500Y-95566287D01*
X114682754Y-95776243D01*
X114739902Y-95952127D01*
X114748444Y-95978414D01*
X114844951Y-96167820D01*
X114969890Y-96339786D01*
X115120213Y-96490109D01*
X115292182Y-96615050D01*
X115300946Y-96619516D01*
X115351742Y-96667491D01*
X115368536Y-96735312D01*
X115345998Y-96801447D01*
X115300946Y-96840484D01*
X115292182Y-96844949D01*
X115120213Y-96969890D01*
X114969890Y-97120213D01*
X114844951Y-97292179D01*
X114748444Y-97481585D01*
X114682753Y-97683760D01*
X114653602Y-97867812D01*
X114649500Y-97893713D01*
X114649500Y-98106287D01*
X114682754Y-98316243D01*
X114742063Y-98498778D01*
X114748444Y-98518414D01*
X114844951Y-98707820D01*
X114969890Y-98879786D01*
X115120213Y-99030109D01*
X115292179Y-99155048D01*
X115292181Y-99155049D01*
X115292184Y-99155051D01*
X115481588Y-99251557D01*
X115683757Y-99317246D01*
X115893713Y-99350500D01*
X115893714Y-99350500D01*
X116106286Y-99350500D01*
X116106287Y-99350500D01*
X116316243Y-99317246D01*
X116518412Y-99251557D01*
X116707816Y-99155051D01*
X116773288Y-99107483D01*
X116879786Y-99030109D01*
X116879788Y-99030106D01*
X116879792Y-99030104D01*
X117030104Y-98879792D01*
X117030106Y-98879788D01*
X117030109Y-98879786D01*
X117155048Y-98707820D01*
X117155047Y-98707820D01*
X117155051Y-98707816D01*
X117251557Y-98518412D01*
X117310767Y-98336180D01*
X117350205Y-98278506D01*
X117414563Y-98251308D01*
X117428698Y-98250500D01*
X118573920Y-98250500D01*
X118671462Y-98231096D01*
X118718913Y-98221658D01*
X118855495Y-98165084D01*
X118920291Y-98121789D01*
X118920294Y-98121786D01*
X118920296Y-98121786D01*
X118949547Y-98102240D01*
X118978416Y-98082952D01*
X119274549Y-97786819D01*
X119335872Y-97753334D01*
X119362230Y-97750500D01*
X126646406Y-97750500D01*
X126713445Y-97770185D01*
X126734087Y-97786819D01*
X127925684Y-98978415D01*
X127925685Y-98978416D01*
X127995141Y-99047872D01*
X128030221Y-99082952D01*
X128153134Y-99165080D01*
X128153147Y-99165087D01*
X128269098Y-99213115D01*
X128289723Y-99221658D01*
X128289727Y-99221658D01*
X128289728Y-99221659D01*
X128434715Y-99250500D01*
X128434718Y-99250500D01*
X129100249Y-99250500D01*
X129167288Y-99270185D01*
X129187901Y-99286789D01*
X129194189Y-99293073D01*
X129242454Y-99357546D01*
X129307226Y-99406034D01*
X129313485Y-99412289D01*
X129326167Y-99435497D01*
X129342015Y-99456668D01*
X129342659Y-99465675D01*
X129346990Y-99473601D01*
X129345112Y-99499978D01*
X129346999Y-99526360D01*
X129342670Y-99534287D01*
X129342029Y-99543295D01*
X129326188Y-99564470D01*
X129313513Y-99587683D01*
X129300184Y-99599231D01*
X129300177Y-99599242D01*
X129300169Y-99599244D01*
X129300145Y-99599266D01*
X129242454Y-99642453D01*
X129242451Y-99642457D01*
X129199515Y-99699812D01*
X129143581Y-99741682D01*
X129100249Y-99749500D01*
X125125418Y-99749500D01*
X125058379Y-99729815D01*
X125025100Y-99698385D01*
X124991971Y-99652787D01*
X124991967Y-99652782D01*
X124847213Y-99508028D01*
X124681613Y-99387715D01*
X124681612Y-99387714D01*
X124681610Y-99387713D01*
X124622404Y-99357546D01*
X124499223Y-99294781D01*
X124304534Y-99231522D01*
X124129995Y-99203878D01*
X124102352Y-99199500D01*
X123897648Y-99199500D01*
X123873329Y-99203351D01*
X123695465Y-99231522D01*
X123500776Y-99294781D01*
X123318391Y-99387712D01*
X123318389Y-99387713D01*
X123247676Y-99439088D01*
X123181869Y-99462567D01*
X123113815Y-99446740D01*
X123087111Y-99426450D01*
X123018345Y-99357684D01*
X122869124Y-99265643D01*
X122869119Y-99265641D01*
X122702697Y-99210494D01*
X122702690Y-99210493D01*
X122599986Y-99200000D01*
X122250000Y-99200000D01*
X122250000Y-100184314D01*
X122245606Y-100179920D01*
X122154394Y-100127259D01*
X122052661Y-100100000D01*
X121947339Y-100100000D01*
X121845606Y-100127259D01*
X121754394Y-100179920D01*
X121750000Y-100184314D01*
X121750000Y-99200000D01*
X121400028Y-99200000D01*
X121400012Y-99200001D01*
X121297302Y-99210494D01*
X121130880Y-99265641D01*
X121130875Y-99265643D01*
X120981654Y-99357684D01*
X120857684Y-99481654D01*
X120765643Y-99630875D01*
X120765641Y-99630880D01*
X120710494Y-99797302D01*
X120710493Y-99797309D01*
X120700000Y-99900013D01*
X120700000Y-100250000D01*
X121684314Y-100250000D01*
X121679920Y-100254394D01*
X121627259Y-100345606D01*
X121600000Y-100447339D01*
X121600000Y-100552661D01*
X121627259Y-100654394D01*
X121679920Y-100745606D01*
X121684314Y-100750000D01*
X120700001Y-100750000D01*
X120700001Y-101099986D01*
X120710494Y-101202697D01*
X120765641Y-101369119D01*
X120765643Y-101369124D01*
X120857684Y-101518345D01*
X120981654Y-101642315D01*
X121130875Y-101734356D01*
X121130880Y-101734358D01*
X121297302Y-101789505D01*
X121297309Y-101789506D01*
X121400019Y-101799999D01*
X121749999Y-101799999D01*
X121750000Y-101799998D01*
X121750000Y-100815686D01*
X121754394Y-100820080D01*
X121845606Y-100872741D01*
X121947339Y-100900000D01*
X122052661Y-100900000D01*
X122154394Y-100872741D01*
X122245606Y-100820080D01*
X122250000Y-100815686D01*
X122250000Y-101799999D01*
X122599972Y-101799999D01*
X122599986Y-101799998D01*
X122702697Y-101789505D01*
X122869119Y-101734358D01*
X122869124Y-101734356D01*
X123018345Y-101642315D01*
X123087112Y-101573549D01*
X123148435Y-101540064D01*
X123218127Y-101545048D01*
X123247674Y-101560909D01*
X123318390Y-101612287D01*
X123377323Y-101642315D01*
X123500776Y-101705218D01*
X123500778Y-101705218D01*
X123500781Y-101705220D01*
X123590459Y-101734358D01*
X123695465Y-101768477D01*
X123796557Y-101784488D01*
X123897648Y-101800500D01*
X123897649Y-101800500D01*
X124102351Y-101800500D01*
X124102352Y-101800500D01*
X124304534Y-101768477D01*
X124499219Y-101705220D01*
X124681610Y-101612287D01*
X124781017Y-101540064D01*
X124847213Y-101491971D01*
X124847215Y-101491968D01*
X124847219Y-101491966D01*
X124991966Y-101347219D01*
X124994650Y-101343524D01*
X125025100Y-101301615D01*
X125080429Y-101258949D01*
X125125418Y-101250500D01*
X129100249Y-101250500D01*
X129167288Y-101270185D01*
X129186254Y-101285174D01*
X129193495Y-101292146D01*
X129242454Y-101357546D01*
X129327704Y-101421364D01*
X129333247Y-101426701D01*
X129346909Y-101450633D01*
X129363424Y-101472695D01*
X129363985Y-101480544D01*
X129367887Y-101487379D01*
X129366442Y-101514899D01*
X129368408Y-101542387D01*
X129364636Y-101549293D01*
X129364224Y-101557152D01*
X129348130Y-101579521D01*
X129334923Y-101603708D01*
X126417045Y-104521586D01*
X126380381Y-104576462D01*
X126380379Y-104576465D01*
X126334919Y-104644499D01*
X126334912Y-104644511D01*
X126278343Y-104781082D01*
X126278340Y-104781092D01*
X126249500Y-104926079D01*
X126249500Y-105874582D01*
X126229815Y-105941621D01*
X126198385Y-105974900D01*
X126152787Y-106008028D01*
X126152782Y-106008032D01*
X126008028Y-106152786D01*
X125887715Y-106318386D01*
X125794781Y-106500776D01*
X125731522Y-106695465D01*
X125699500Y-106897648D01*
X125699500Y-107102351D01*
X125731522Y-107304534D01*
X125794781Y-107499223D01*
X125822010Y-107552661D01*
X125887585Y-107681359D01*
X125887715Y-107681613D01*
X126008028Y-107847213D01*
X126152786Y-107991971D01*
X126273226Y-108079474D01*
X126318390Y-108112287D01*
X126434607Y-108171503D01*
X126500776Y-108205218D01*
X126500778Y-108205218D01*
X126500781Y-108205220D01*
X126605137Y-108239127D01*
X126695465Y-108268477D01*
X126796557Y-108284488D01*
X126897648Y-108300500D01*
X126897649Y-108300500D01*
X127102351Y-108300500D01*
X127102352Y-108300500D01*
X127304534Y-108268477D01*
X127499219Y-108205220D01*
X127681610Y-108112287D01*
X127814944Y-108015415D01*
X127847213Y-107991971D01*
X127847215Y-107991968D01*
X127847219Y-107991966D01*
X127991966Y-107847219D01*
X127991968Y-107847215D01*
X127991971Y-107847213D01*
X128051625Y-107765105D01*
X128112287Y-107681610D01*
X128205220Y-107499219D01*
X128268477Y-107304534D01*
X128300500Y-107102352D01*
X128300500Y-106897648D01*
X128280928Y-106774076D01*
X128268477Y-106695465D01*
X128227514Y-106569396D01*
X128205220Y-106500781D01*
X128205218Y-106500778D01*
X128205218Y-106500776D01*
X128161290Y-106414564D01*
X128112287Y-106318390D01*
X128095134Y-106294781D01*
X127991971Y-106152786D01*
X127847217Y-106008032D01*
X127847212Y-106008028D01*
X127801615Y-105974900D01*
X127758949Y-105919571D01*
X127750500Y-105874582D01*
X127750500Y-105362229D01*
X127770185Y-105295190D01*
X127786819Y-105274548D01*
X128537819Y-104523548D01*
X128599142Y-104490063D01*
X128668834Y-104495047D01*
X128724767Y-104536919D01*
X128749184Y-104602383D01*
X128749500Y-104611229D01*
X128749500Y-108073918D01*
X128749500Y-108073920D01*
X128749499Y-108073920D01*
X128778340Y-108218907D01*
X128778343Y-108218917D01*
X128811929Y-108300000D01*
X128834916Y-108355495D01*
X128855052Y-108385631D01*
X128864986Y-108400499D01*
X128917049Y-108478418D01*
X128917052Y-108478421D01*
X130521580Y-110082948D01*
X130521584Y-110082951D01*
X130644498Y-110165080D01*
X130644511Y-110165087D01*
X130781082Y-110221656D01*
X130781087Y-110221658D01*
X130781091Y-110221658D01*
X130781092Y-110221659D01*
X130926079Y-110250500D01*
X130926082Y-110250500D01*
X148573920Y-110250500D01*
X148671462Y-110231096D01*
X148718913Y-110221658D01*
X148855495Y-110165084D01*
X148904729Y-110132186D01*
X148978416Y-110082952D01*
X150234894Y-108826471D01*
X150296215Y-108792988D01*
X150341970Y-108791681D01*
X150397648Y-108800500D01*
X150397649Y-108800500D01*
X150602351Y-108800500D01*
X150602352Y-108800500D01*
X150804534Y-108768477D01*
X150999219Y-108705220D01*
X151181610Y-108612287D01*
X151301501Y-108525182D01*
X151347213Y-108491971D01*
X151347215Y-108491968D01*
X151347219Y-108491966D01*
X151491966Y-108347219D01*
X151491968Y-108347215D01*
X151491971Y-108347213D01*
X151549529Y-108267990D01*
X151612287Y-108181610D01*
X151705220Y-107999219D01*
X151768477Y-107804534D01*
X151800500Y-107602352D01*
X151800500Y-107397682D01*
X152390000Y-107397682D01*
X152390000Y-107602317D01*
X152422009Y-107804417D01*
X152485244Y-107999031D01*
X152578141Y-108181350D01*
X152578147Y-108181359D01*
X152610523Y-108225921D01*
X152610524Y-108225922D01*
X153290000Y-107546446D01*
X153290000Y-107552661D01*
X153317259Y-107654394D01*
X153369920Y-107745606D01*
X153444394Y-107820080D01*
X153535606Y-107872741D01*
X153637339Y-107900000D01*
X153643553Y-107900000D01*
X152964076Y-108579474D01*
X153008650Y-108611859D01*
X153190968Y-108704755D01*
X153385582Y-108767990D01*
X153587683Y-108800000D01*
X153792317Y-108800000D01*
X153994417Y-108767990D01*
X154189031Y-108704755D01*
X154371349Y-108611859D01*
X154415921Y-108579474D01*
X153736447Y-107900000D01*
X153742661Y-107900000D01*
X153844394Y-107872741D01*
X153935606Y-107820080D01*
X154010080Y-107745606D01*
X154062741Y-107654394D01*
X154090000Y-107552661D01*
X154090000Y-107546447D01*
X154769474Y-108225921D01*
X154801859Y-108181349D01*
X154894755Y-107999031D01*
X154957990Y-107804417D01*
X154990000Y-107602317D01*
X154990000Y-107397682D01*
X154957990Y-107195582D01*
X154894755Y-107000968D01*
X154801859Y-106818650D01*
X154769474Y-106774077D01*
X154769474Y-106774076D01*
X154090000Y-107453551D01*
X154090000Y-107447339D01*
X154062741Y-107345606D01*
X154010080Y-107254394D01*
X153935606Y-107179920D01*
X153844394Y-107127259D01*
X153742661Y-107100000D01*
X153736446Y-107100000D01*
X154415922Y-106420524D01*
X154415921Y-106420523D01*
X154371359Y-106388147D01*
X154371350Y-106388141D01*
X154189031Y-106295244D01*
X153994417Y-106232009D01*
X153792317Y-106200000D01*
X153587683Y-106200000D01*
X153385582Y-106232009D01*
X153190968Y-106295244D01*
X153008644Y-106388143D01*
X152964077Y-106420523D01*
X152964077Y-106420524D01*
X153643554Y-107100000D01*
X153637339Y-107100000D01*
X153535606Y-107127259D01*
X153444394Y-107179920D01*
X153369920Y-107254394D01*
X153317259Y-107345606D01*
X153290000Y-107447339D01*
X153290000Y-107453553D01*
X152610524Y-106774077D01*
X152610523Y-106774077D01*
X152578143Y-106818644D01*
X152485244Y-107000968D01*
X152422009Y-107195582D01*
X152390000Y-107397682D01*
X151800500Y-107397682D01*
X151800500Y-107397648D01*
X151791682Y-107341972D01*
X151768477Y-107195465D01*
X151712617Y-107023548D01*
X151705220Y-107000781D01*
X151705218Y-107000778D01*
X151705218Y-107000776D01*
X151626154Y-106845606D01*
X151612287Y-106818390D01*
X151580092Y-106774077D01*
X151491971Y-106652786D01*
X151347213Y-106508028D01*
X151181613Y-106387715D01*
X151181612Y-106387714D01*
X151181610Y-106387713D01*
X151124653Y-106358691D01*
X150999223Y-106294781D01*
X150804534Y-106231522D01*
X150625624Y-106203186D01*
X150602352Y-106199500D01*
X150397648Y-106199500D01*
X150374376Y-106203186D01*
X150195465Y-106231522D01*
X150000776Y-106294781D01*
X149818386Y-106387715D01*
X149652786Y-106508028D01*
X149508028Y-106652786D01*
X149387715Y-106818386D01*
X149294781Y-107000776D01*
X149231522Y-107195465D01*
X149199500Y-107397648D01*
X149199500Y-107602351D01*
X149208318Y-107658026D01*
X149199363Y-107727320D01*
X149173526Y-107765105D01*
X148225451Y-108713181D01*
X148164128Y-108746666D01*
X148137770Y-108749500D01*
X143754387Y-108749500D01*
X143687348Y-108729815D01*
X143641593Y-108677011D01*
X143631649Y-108607853D01*
X143660674Y-108544297D01*
X143681502Y-108525182D01*
X143727213Y-108491971D01*
X143727215Y-108491968D01*
X143727219Y-108491966D01*
X143871966Y-108347219D01*
X143871968Y-108347215D01*
X143871971Y-108347213D01*
X143929529Y-108267990D01*
X143992287Y-108181610D01*
X144085220Y-107999219D01*
X144148477Y-107804534D01*
X144180500Y-107602352D01*
X144180500Y-107397648D01*
X144171682Y-107341972D01*
X144148477Y-107195465D01*
X144092617Y-107023548D01*
X144085220Y-107000781D01*
X144085218Y-107000778D01*
X144085218Y-107000776D01*
X144006154Y-106845606D01*
X143992287Y-106818390D01*
X143960092Y-106774077D01*
X143871971Y-106652786D01*
X143727957Y-106508772D01*
X143694472Y-106447449D01*
X143699456Y-106377757D01*
X143727957Y-106333410D01*
X144274548Y-105786819D01*
X144335871Y-105753334D01*
X144362229Y-105750500D01*
X149573920Y-105750500D01*
X149671462Y-105731096D01*
X149718913Y-105721658D01*
X149855495Y-105665084D01*
X149904729Y-105632186D01*
X149978416Y-105582952D01*
X150978413Y-104582953D01*
X150978416Y-104582952D01*
X151284966Y-104276399D01*
X151325194Y-104249521D01*
X151348848Y-104239725D01*
X151479958Y-104152120D01*
X151591458Y-104040620D01*
X151679063Y-103909510D01*
X151739406Y-103763828D01*
X151770169Y-103609173D01*
X151770169Y-103451489D01*
X151770169Y-103451486D01*
X151770168Y-103451484D01*
X151762442Y-103412642D01*
X151739406Y-103296834D01*
X151718380Y-103246073D01*
X151679066Y-103151158D01*
X151679059Y-103151145D01*
X151591458Y-103020042D01*
X151591455Y-103020038D01*
X151479961Y-102908544D01*
X151479957Y-102908541D01*
X151348854Y-102820940D01*
X151348841Y-102820933D01*
X151203170Y-102760595D01*
X151203158Y-102760592D01*
X151048514Y-102729831D01*
X151048511Y-102729831D01*
X150890827Y-102729831D01*
X150890824Y-102729831D01*
X150736179Y-102760592D01*
X150736167Y-102760595D01*
X150590496Y-102820933D01*
X150590483Y-102820940D01*
X150459380Y-102908541D01*
X150459374Y-102908546D01*
X150452663Y-102915257D01*
X150391339Y-102948739D01*
X150321647Y-102943752D01*
X150265716Y-102901878D01*
X150241302Y-102836412D01*
X150250424Y-102780121D01*
X150269737Y-102733497D01*
X150300500Y-102578842D01*
X150300500Y-102421158D01*
X150300500Y-102421155D01*
X150300499Y-102421153D01*
X150269737Y-102266503D01*
X150253395Y-102227049D01*
X150209397Y-102120827D01*
X150209390Y-102120814D01*
X150121789Y-101989711D01*
X150121786Y-101989707D01*
X150010292Y-101878213D01*
X150010288Y-101878210D01*
X149879185Y-101790609D01*
X149879172Y-101790602D01*
X149733501Y-101730264D01*
X149733489Y-101730261D01*
X149578845Y-101699500D01*
X149578842Y-101699500D01*
X149421158Y-101699500D01*
X149421155Y-101699500D01*
X149266510Y-101730261D01*
X149266498Y-101730264D01*
X149120827Y-101790602D01*
X149120814Y-101790609D01*
X148989711Y-101878210D01*
X148989707Y-101878213D01*
X148878213Y-101989707D01*
X148878207Y-101989715D01*
X148790607Y-102120818D01*
X148790605Y-102120822D01*
X148780805Y-102144480D01*
X148753927Y-102184704D01*
X147725451Y-103213181D01*
X147664128Y-103246666D01*
X147637770Y-103249500D01*
X144532418Y-103249500D01*
X144503000Y-103240861D01*
X144473021Y-103234349D01*
X144469776Y-103231106D01*
X144465379Y-103229815D01*
X144445303Y-103206646D01*
X144423602Y-103184957D01*
X144422625Y-103180475D01*
X144419624Y-103177011D01*
X144415259Y-103146654D01*
X144408732Y-103116688D01*
X144410066Y-103110543D01*
X144409680Y-103107853D01*
X144416224Y-103082198D01*
X144416784Y-103080696D01*
X144458639Y-103024753D01*
X144524097Y-103000318D01*
X144532977Y-103000000D01*
X147500000Y-103000000D01*
X147500000Y-99537554D01*
X147509271Y-99505979D01*
X147517470Y-99474093D01*
X147519198Y-99472172D01*
X147519685Y-99470515D01*
X147539664Y-99446651D01*
X147544455Y-99442205D01*
X147657546Y-99357546D01*
X147707196Y-99291221D01*
X147715415Y-99283597D01*
X147737058Y-99272810D01*
X147756419Y-99258318D01*
X147771653Y-99255569D01*
X147777949Y-99252432D01*
X147784857Y-99253187D01*
X147799751Y-99250500D01*
X156637770Y-99250500D01*
X156704809Y-99270185D01*
X156725451Y-99286819D01*
X160523181Y-103084548D01*
X160556666Y-103145871D01*
X160559500Y-103172229D01*
X160559500Y-106374582D01*
X160539815Y-106441621D01*
X160508385Y-106474900D01*
X160462787Y-106508028D01*
X160462782Y-106508032D01*
X160318028Y-106652786D01*
X160197715Y-106818386D01*
X160104781Y-107000776D01*
X160041522Y-107195465D01*
X160009500Y-107397648D01*
X160009500Y-107602351D01*
X160041522Y-107804534D01*
X160104781Y-107999223D01*
X160162391Y-108112287D01*
X160197585Y-108181359D01*
X160197715Y-108181613D01*
X160318028Y-108347213D01*
X160462786Y-108491971D01*
X160617749Y-108604556D01*
X160628390Y-108612287D01*
X160744607Y-108671503D01*
X160810776Y-108705218D01*
X160810778Y-108705218D01*
X160810781Y-108705220D01*
X160886477Y-108729815D01*
X161005465Y-108768477D01*
X161089564Y-108781797D01*
X161207648Y-108800500D01*
X161207649Y-108800500D01*
X161412351Y-108800500D01*
X161412352Y-108800500D01*
X161614534Y-108768477D01*
X161809219Y-108705220D01*
X161991610Y-108612287D01*
X162157219Y-108491966D01*
X162222134Y-108427050D01*
X162283453Y-108393568D01*
X162353145Y-108398552D01*
X162409079Y-108440423D01*
X162433496Y-108505887D01*
X162433790Y-108512401D01*
X162478369Y-110881726D01*
X162459949Y-110949124D01*
X162408015Y-110995864D01*
X162355941Y-111008049D01*
X123000002Y-111499999D01*
X120514540Y-111997092D01*
X120490222Y-111999500D01*
X119898718Y-111999500D01*
X119831679Y-111979815D01*
X119785924Y-111927011D01*
X119774718Y-111875500D01*
X119774718Y-106897682D01*
X120700000Y-106897682D01*
X120700000Y-107102317D01*
X120732009Y-107304417D01*
X120795244Y-107499031D01*
X120888141Y-107681350D01*
X120888147Y-107681359D01*
X120920523Y-107725921D01*
X120920524Y-107725922D01*
X121600000Y-107046446D01*
X121600000Y-107052661D01*
X121627259Y-107154394D01*
X121679920Y-107245606D01*
X121754394Y-107320080D01*
X121845606Y-107372741D01*
X121947339Y-107400000D01*
X121953553Y-107400000D01*
X121274076Y-108079474D01*
X121318650Y-108111859D01*
X121500968Y-108204755D01*
X121695582Y-108267990D01*
X121897683Y-108300000D01*
X122102317Y-108300000D01*
X122304417Y-108267990D01*
X122499031Y-108204755D01*
X122681349Y-108111859D01*
X122725921Y-108079474D01*
X122046447Y-107400000D01*
X122052661Y-107400000D01*
X122154394Y-107372741D01*
X122245606Y-107320080D01*
X122320080Y-107245606D01*
X122372741Y-107154394D01*
X122400000Y-107052661D01*
X122400000Y-107046447D01*
X123079474Y-107725921D01*
X123111859Y-107681349D01*
X123204755Y-107499031D01*
X123267990Y-107304417D01*
X123300000Y-107102317D01*
X123300000Y-106897682D01*
X123267990Y-106695582D01*
X123204755Y-106500968D01*
X123111859Y-106318650D01*
X123079474Y-106274077D01*
X123079474Y-106274076D01*
X122400000Y-106953551D01*
X122400000Y-106947339D01*
X122372741Y-106845606D01*
X122320080Y-106754394D01*
X122245606Y-106679920D01*
X122154394Y-106627259D01*
X122052661Y-106600000D01*
X122046446Y-106600000D01*
X122725922Y-105920524D01*
X122725921Y-105920523D01*
X122681359Y-105888147D01*
X122681350Y-105888141D01*
X122499031Y-105795244D01*
X122304417Y-105732009D01*
X122102317Y-105700000D01*
X121897683Y-105700000D01*
X121695582Y-105732009D01*
X121500968Y-105795244D01*
X121318644Y-105888143D01*
X121274077Y-105920523D01*
X121274077Y-105920524D01*
X121953554Y-106600000D01*
X121947339Y-106600000D01*
X121845606Y-106627259D01*
X121754394Y-106679920D01*
X121679920Y-106754394D01*
X121627259Y-106845606D01*
X121600000Y-106947339D01*
X121600000Y-106953553D01*
X120920524Y-106274077D01*
X120920523Y-106274077D01*
X120888143Y-106318644D01*
X120795244Y-106500968D01*
X120732009Y-106695582D01*
X120700000Y-106897682D01*
X119774718Y-106897682D01*
X119774718Y-102434110D01*
X119774718Y-102434108D01*
X119740610Y-102306814D01*
X119674718Y-102192686D01*
X119581532Y-102099500D01*
X119524468Y-102066554D01*
X119467405Y-102033608D01*
X119403757Y-102016554D01*
X119340110Y-101999500D01*
X119340109Y-101999500D01*
X113898718Y-101999500D01*
X113831679Y-101979815D01*
X113785924Y-101927011D01*
X113774718Y-101875500D01*
X113774718Y-77624500D01*
X113794403Y-77557461D01*
X113847207Y-77511706D01*
X113898718Y-77500500D01*
X119503575Y-77500500D01*
X119570614Y-77520185D01*
G37*
%TD.AperFunction*%
%TA.AperFunction,Conductor*%
G36*
X166230789Y-77520185D02*
G01*
X166276544Y-77572989D01*
X166287718Y-77621683D01*
X166762196Y-98498778D01*
X166744040Y-98566247D01*
X166692289Y-98613190D01*
X166665127Y-98622642D01*
X162726763Y-99497835D01*
X162714625Y-99500532D01*
X162698922Y-99500828D01*
X162650531Y-99514773D01*
X162646792Y-99515605D01*
X162646772Y-99515611D01*
X162601318Y-99525712D01*
X162601315Y-99525713D01*
X162598412Y-99527226D01*
X162598413Y-99527227D01*
X162587387Y-99532974D01*
X162572292Y-99537325D01*
X162529138Y-99563333D01*
X162525731Y-99565109D01*
X162525728Y-99565109D01*
X162484458Y-99586621D01*
X162482035Y-99588844D01*
X162462242Y-99603653D01*
X162459424Y-99605351D01*
X162427138Y-99638875D01*
X162421645Y-99644235D01*
X162387343Y-99675700D01*
X162387339Y-99675704D01*
X162385573Y-99678480D01*
X162378904Y-99688960D01*
X162368008Y-99700275D01*
X162343650Y-99744357D01*
X162341584Y-99747604D01*
X162341583Y-99747607D01*
X162316588Y-99786886D01*
X162315604Y-99790014D01*
X162315603Y-99790013D01*
X162311869Y-99801873D01*
X162304274Y-99815622D01*
X162292152Y-99864520D01*
X162291000Y-99868181D01*
X162290997Y-99868192D01*
X162277023Y-99912588D01*
X162277023Y-99912593D01*
X162276881Y-99915869D01*
X162276882Y-99915870D01*
X162276346Y-99928287D01*
X162272567Y-99943535D01*
X162273513Y-99993892D01*
X162273348Y-99997733D01*
X162271341Y-100044253D01*
X162271342Y-100044256D01*
X162272054Y-100047461D01*
X162274983Y-100072018D01*
X162394873Y-106444015D01*
X162390205Y-106461094D01*
X162390574Y-106478797D01*
X162381185Y-106494097D01*
X162376453Y-106511413D01*
X162363292Y-106523257D01*
X162354032Y-106538349D01*
X162337861Y-106546145D01*
X162324519Y-106558153D01*
X162307045Y-106561001D01*
X162291095Y-106568692D01*
X162273275Y-106566507D01*
X162255560Y-106569396D01*
X162239256Y-106562337D01*
X162221744Y-106560191D01*
X162199654Y-106545192D01*
X162191662Y-106541732D01*
X162187262Y-106538077D01*
X162157219Y-106508034D01*
X162108367Y-106472541D01*
X162105267Y-106469966D01*
X162087923Y-106444177D01*
X162068949Y-106419571D01*
X162068008Y-106414564D01*
X162066276Y-106411988D01*
X162066120Y-106404508D01*
X162060500Y-106374582D01*
X162060500Y-102736079D01*
X162031659Y-102591092D01*
X162031658Y-102591091D01*
X162031658Y-102591087D01*
X162021222Y-102565892D01*
X161975087Y-102454511D01*
X161975080Y-102454498D01*
X161892952Y-102331585D01*
X161868179Y-102306812D01*
X161788416Y-102227049D01*
X159679700Y-100118333D01*
X159665623Y-100092553D01*
X159649201Y-100068195D01*
X159649069Y-100062238D01*
X159646215Y-100057010D01*
X159648310Y-100027711D01*
X159647664Y-99998342D01*
X159650923Y-99991164D01*
X159651199Y-99987318D01*
X159661617Y-99965923D01*
X159662914Y-99963802D01*
X159739725Y-99848848D01*
X159753243Y-99816209D01*
X159758320Y-99807915D01*
X159765278Y-99801611D01*
X159776400Y-99784966D01*
X164191194Y-95370172D01*
X164252515Y-95336689D01*
X164298265Y-95335382D01*
X164393713Y-95350500D01*
X164393715Y-95350500D01*
X164606286Y-95350500D01*
X164606287Y-95350500D01*
X164816243Y-95317246D01*
X165018412Y-95251557D01*
X165207816Y-95155051D01*
X165273288Y-95107483D01*
X165379786Y-95030109D01*
X165379788Y-95030106D01*
X165379792Y-95030104D01*
X165530104Y-94879792D01*
X165530106Y-94879788D01*
X165530109Y-94879786D01*
X165655048Y-94707820D01*
X165655047Y-94707820D01*
X165655051Y-94707816D01*
X165751557Y-94518412D01*
X165817246Y-94316243D01*
X165850500Y-94106287D01*
X165850500Y-93893713D01*
X165817246Y-93683757D01*
X165751557Y-93481588D01*
X165655051Y-93292184D01*
X165655049Y-93292181D01*
X165655048Y-93292179D01*
X165530109Y-93120213D01*
X165379786Y-92969890D01*
X165207820Y-92844951D01*
X165207115Y-92844591D01*
X165199054Y-92840485D01*
X165148259Y-92792512D01*
X165131463Y-92724692D01*
X165153999Y-92658556D01*
X165199054Y-92619515D01*
X165207816Y-92615051D01*
X165229789Y-92599086D01*
X165379786Y-92490109D01*
X165379788Y-92490106D01*
X165379792Y-92490104D01*
X165530104Y-92339792D01*
X165530106Y-92339788D01*
X165530109Y-92339786D01*
X165655048Y-92167820D01*
X165655047Y-92167820D01*
X165655051Y-92167816D01*
X165751557Y-91978412D01*
X165817246Y-91776243D01*
X165850500Y-91566287D01*
X165850500Y-91353713D01*
X165817246Y-91143757D01*
X165751557Y-90941588D01*
X165655051Y-90752184D01*
X165655049Y-90752181D01*
X165655048Y-90752179D01*
X165530109Y-90580213D01*
X165379786Y-90429890D01*
X165207820Y-90304951D01*
X165207115Y-90304591D01*
X165199054Y-90300485D01*
X165148259Y-90252512D01*
X165131463Y-90184692D01*
X165153999Y-90118556D01*
X165199054Y-90079515D01*
X165207816Y-90075051D01*
X165250572Y-90043987D01*
X165379786Y-89950109D01*
X165379788Y-89950106D01*
X165379792Y-89950104D01*
X165530104Y-89799792D01*
X165530106Y-89799788D01*
X165530109Y-89799786D01*
X165644417Y-89642453D01*
X165655051Y-89627816D01*
X165751557Y-89438412D01*
X165817246Y-89236243D01*
X165850500Y-89026287D01*
X165850500Y-88813713D01*
X165817246Y-88603757D01*
X165751557Y-88401588D01*
X165655051Y-88212184D01*
X165655049Y-88212181D01*
X165655048Y-88212179D01*
X165530109Y-88040213D01*
X165379786Y-87889890D01*
X165207820Y-87764951D01*
X165207115Y-87764591D01*
X165199054Y-87760485D01*
X165148259Y-87712512D01*
X165131463Y-87644692D01*
X165153999Y-87578556D01*
X165199054Y-87539515D01*
X165207816Y-87535051D01*
X165264193Y-87494091D01*
X165379786Y-87410109D01*
X165379788Y-87410106D01*
X165379792Y-87410104D01*
X165530104Y-87259792D01*
X165530106Y-87259788D01*
X165530109Y-87259786D01*
X165655048Y-87087820D01*
X165655047Y-87087820D01*
X165655051Y-87087816D01*
X165751557Y-86898412D01*
X165817246Y-86696243D01*
X165850500Y-86486287D01*
X165850500Y-86273713D01*
X165817246Y-86063757D01*
X165751557Y-85861588D01*
X165655051Y-85672184D01*
X165655049Y-85672181D01*
X165655048Y-85672179D01*
X165530109Y-85500213D01*
X165379786Y-85349890D01*
X165207820Y-85224951D01*
X165207115Y-85224591D01*
X165199054Y-85220485D01*
X165148259Y-85172512D01*
X165131463Y-85104692D01*
X165153999Y-85038556D01*
X165199054Y-84999515D01*
X165207816Y-84995051D01*
X165229789Y-84979086D01*
X165379786Y-84870109D01*
X165379788Y-84870106D01*
X165379792Y-84870104D01*
X165530104Y-84719792D01*
X165530106Y-84719788D01*
X165530109Y-84719786D01*
X165655048Y-84547820D01*
X165655047Y-84547820D01*
X165655051Y-84547816D01*
X165751557Y-84358412D01*
X165817246Y-84156243D01*
X165850500Y-83946287D01*
X165850500Y-83733713D01*
X165817246Y-83523757D01*
X165751557Y-83321588D01*
X165655051Y-83132184D01*
X165655049Y-83132181D01*
X165655048Y-83132179D01*
X165530109Y-82960213D01*
X165416181Y-82846285D01*
X165382696Y-82784962D01*
X165387680Y-82715270D01*
X165429552Y-82659337D01*
X165460529Y-82642422D01*
X165592086Y-82593354D01*
X165592093Y-82593350D01*
X165707187Y-82507190D01*
X165707190Y-82507187D01*
X165793350Y-82392093D01*
X165793354Y-82392086D01*
X165843596Y-82257379D01*
X165843598Y-82257372D01*
X165849999Y-82197844D01*
X165850000Y-82197827D01*
X165850000Y-81550000D01*
X164933012Y-81550000D01*
X164965925Y-81492993D01*
X165000000Y-81365826D01*
X165000000Y-81234174D01*
X164965925Y-81107007D01*
X164933012Y-81050000D01*
X165850000Y-81050000D01*
X165850000Y-80402172D01*
X165849999Y-80402155D01*
X165843598Y-80342627D01*
X165843596Y-80342620D01*
X165793354Y-80207913D01*
X165793350Y-80207906D01*
X165707190Y-80092812D01*
X165707187Y-80092809D01*
X165592093Y-80006649D01*
X165592086Y-80006645D01*
X165457379Y-79956403D01*
X165457372Y-79956401D01*
X165397844Y-79950000D01*
X164750000Y-79950000D01*
X164750000Y-80866988D01*
X164692993Y-80834075D01*
X164565826Y-80800000D01*
X164434174Y-80800000D01*
X164307007Y-80834075D01*
X164250000Y-80866988D01*
X164250000Y-79950000D01*
X163602155Y-79950000D01*
X163542627Y-79956401D01*
X163542620Y-79956403D01*
X163407913Y-80006645D01*
X163407906Y-80006649D01*
X163292812Y-80092809D01*
X163292809Y-80092812D01*
X163206649Y-80207906D01*
X163206645Y-80207913D01*
X163156403Y-80342620D01*
X163156401Y-80342627D01*
X163150000Y-80402155D01*
X163150000Y-81050000D01*
X164066988Y-81050000D01*
X164034075Y-81107007D01*
X164000000Y-81234174D01*
X164000000Y-81365826D01*
X164034075Y-81492993D01*
X164066988Y-81550000D01*
X163150000Y-81550000D01*
X163150000Y-82197844D01*
X163156401Y-82257372D01*
X163156403Y-82257379D01*
X163206645Y-82392086D01*
X163206649Y-82392093D01*
X163292809Y-82507187D01*
X163292812Y-82507190D01*
X163407906Y-82593350D01*
X163407913Y-82593354D01*
X163539470Y-82642422D01*
X163595404Y-82684293D01*
X163619821Y-82749758D01*
X163604969Y-82818031D01*
X163583819Y-82846285D01*
X163469889Y-82960215D01*
X163344951Y-83132179D01*
X163248444Y-83321585D01*
X163182753Y-83523760D01*
X163149500Y-83733713D01*
X163149500Y-83946287D01*
X163182754Y-84156243D01*
X163245872Y-84350500D01*
X163248444Y-84358414D01*
X163344949Y-84547816D01*
X163348435Y-84552614D01*
X163371915Y-84618421D01*
X163356090Y-84686475D01*
X163305984Y-84735170D01*
X163248117Y-84749500D01*
X159554604Y-84749500D01*
X159507155Y-84740062D01*
X159483497Y-84730263D01*
X159483493Y-84730262D01*
X159483488Y-84730260D01*
X159328845Y-84699500D01*
X159328842Y-84699500D01*
X159171158Y-84699500D01*
X159171155Y-84699500D01*
X159016510Y-84730261D01*
X159016498Y-84730264D01*
X158870827Y-84790602D01*
X158870814Y-84790609D01*
X158739711Y-84878210D01*
X158739707Y-84878213D01*
X158628213Y-84989707D01*
X158628210Y-84989711D01*
X158540609Y-85120814D01*
X158540602Y-85120827D01*
X158480264Y-85266498D01*
X158480261Y-85266510D01*
X158449500Y-85421153D01*
X158449500Y-85578841D01*
X158453969Y-85601310D01*
X158447740Y-85670901D01*
X158404877Y-85726078D01*
X158338987Y-85749322D01*
X158332351Y-85749500D01*
X157304604Y-85749500D01*
X157257155Y-85740062D01*
X157233497Y-85730263D01*
X157233493Y-85730262D01*
X157233488Y-85730260D01*
X157078845Y-85699500D01*
X157078842Y-85699500D01*
X156921158Y-85699500D01*
X156898690Y-85703969D01*
X156829099Y-85697740D01*
X156773922Y-85654877D01*
X156750678Y-85588987D01*
X156750500Y-85582351D01*
X156750500Y-82966079D01*
X156721659Y-82821092D01*
X156721658Y-82821091D01*
X156721658Y-82821087D01*
X156720392Y-82818031D01*
X156665087Y-82684511D01*
X156665080Y-82684498D01*
X156582952Y-82561585D01*
X156544121Y-82522754D01*
X156478416Y-82457049D01*
X156032300Y-82010933D01*
X155998815Y-81949610D01*
X156003799Y-81879918D01*
X156045671Y-81823985D01*
X156100584Y-81800779D01*
X156102346Y-81800500D01*
X156102352Y-81800500D01*
X156304534Y-81768477D01*
X156499219Y-81705220D01*
X156681610Y-81612287D01*
X156774590Y-81544732D01*
X156847213Y-81491971D01*
X156847215Y-81491968D01*
X156847219Y-81491966D01*
X156991966Y-81347219D01*
X156991968Y-81347215D01*
X156991971Y-81347213D01*
X157074097Y-81234174D01*
X157112287Y-81181610D01*
X157205220Y-80999219D01*
X157268477Y-80804534D01*
X157300500Y-80602352D01*
X157300500Y-80397648D01*
X157291784Y-80342620D01*
X157268477Y-80195465D01*
X157231098Y-80080425D01*
X157205220Y-80000781D01*
X157205218Y-80000778D01*
X157205218Y-80000776D01*
X157171503Y-79934607D01*
X157112287Y-79818390D01*
X157080092Y-79774077D01*
X156991971Y-79652786D01*
X156847213Y-79508028D01*
X156681613Y-79387715D01*
X156681612Y-79387714D01*
X156681610Y-79387713D01*
X156577182Y-79334504D01*
X156499223Y-79294781D01*
X156304534Y-79231522D01*
X156129995Y-79203878D01*
X156102352Y-79199500D01*
X155897648Y-79199500D01*
X155873329Y-79203351D01*
X155695465Y-79231522D01*
X155500776Y-79294781D01*
X155318386Y-79387715D01*
X155152786Y-79508028D01*
X155008032Y-79652782D01*
X155008028Y-79652787D01*
X154933430Y-79755463D01*
X154878100Y-79798129D01*
X154808487Y-79804108D01*
X154746692Y-79771502D01*
X154712334Y-79710664D01*
X154709822Y-79695831D01*
X154709438Y-79692263D01*
X154705195Y-79652786D01*
X154704091Y-79642516D01*
X154653797Y-79507671D01*
X154653793Y-79507664D01*
X154567547Y-79392455D01*
X154567544Y-79392452D01*
X154452335Y-79306206D01*
X154452328Y-79306202D01*
X154317482Y-79255908D01*
X154317483Y-79255908D01*
X154257883Y-79249501D01*
X154257881Y-79249500D01*
X154257873Y-79249500D01*
X154257864Y-79249500D01*
X152662129Y-79249500D01*
X152662123Y-79249501D01*
X152602516Y-79255908D01*
X152467671Y-79306202D01*
X152467664Y-79306206D01*
X152352455Y-79392452D01*
X152352452Y-79392455D01*
X152266206Y-79507664D01*
X152266202Y-79507671D01*
X152215908Y-79642516D01*
X152210096Y-79696576D01*
X152183357Y-79761127D01*
X152125964Y-79800974D01*
X152056139Y-79803467D01*
X152007698Y-79774724D01*
X151999474Y-79774076D01*
X151320000Y-80453551D01*
X151320000Y-80447339D01*
X151292741Y-80345606D01*
X151240080Y-80254394D01*
X151165606Y-80179920D01*
X151074394Y-80127259D01*
X150972661Y-80100000D01*
X150966446Y-80100000D01*
X151645922Y-79420524D01*
X151645921Y-79420523D01*
X151601359Y-79388147D01*
X151601350Y-79388141D01*
X151419031Y-79295244D01*
X151224417Y-79232009D01*
X151022317Y-79200000D01*
X150817683Y-79200000D01*
X150615582Y-79232009D01*
X150420968Y-79295244D01*
X150238644Y-79388143D01*
X150194077Y-79420523D01*
X150194077Y-79420524D01*
X150873554Y-80100000D01*
X150867339Y-80100000D01*
X150765606Y-80127259D01*
X150674394Y-80179920D01*
X150599920Y-80254394D01*
X150547259Y-80345606D01*
X150520000Y-80447339D01*
X150520000Y-80453553D01*
X149840524Y-79774077D01*
X149840523Y-79774077D01*
X149808143Y-79818644D01*
X149715244Y-80000968D01*
X149652009Y-80195582D01*
X149620000Y-80397682D01*
X149620000Y-80602317D01*
X149652009Y-80804417D01*
X149715244Y-80999031D01*
X149808141Y-81181350D01*
X149808147Y-81181359D01*
X149840523Y-81225921D01*
X149840524Y-81225922D01*
X150520000Y-80546446D01*
X150520000Y-80552661D01*
X150547259Y-80654394D01*
X150599920Y-80745606D01*
X150674394Y-80820080D01*
X150765606Y-80872741D01*
X150867339Y-80900000D01*
X150873553Y-80900000D01*
X150194076Y-81579474D01*
X150238650Y-81611859D01*
X150420968Y-81704755D01*
X150615582Y-81767990D01*
X150817683Y-81800000D01*
X151022317Y-81800000D01*
X151224417Y-81767990D01*
X151419031Y-81704755D01*
X151601349Y-81611859D01*
X151645921Y-81579474D01*
X150966447Y-80900000D01*
X150972661Y-80900000D01*
X151074394Y-80872741D01*
X151165606Y-80820080D01*
X151240080Y-80745606D01*
X151292741Y-80654394D01*
X151320000Y-80552661D01*
X151320000Y-80546447D01*
X151999474Y-81225921D01*
X152010823Y-81225028D01*
X152041818Y-81201128D01*
X152111431Y-81195149D01*
X152173226Y-81227754D01*
X152207584Y-81288592D01*
X152210097Y-81303424D01*
X152215909Y-81357483D01*
X152266202Y-81492328D01*
X152266206Y-81492335D01*
X152352452Y-81607544D01*
X152352455Y-81607547D01*
X152467664Y-81693793D01*
X152467671Y-81693797D01*
X152602517Y-81744091D01*
X152602516Y-81744091D01*
X152609444Y-81744835D01*
X152662127Y-81750500D01*
X153597769Y-81750499D01*
X153664808Y-81770183D01*
X153685450Y-81786818D01*
X155213181Y-83314548D01*
X155246666Y-83375871D01*
X155249500Y-83402229D01*
X155249500Y-84082152D01*
X155241225Y-84110331D01*
X155235613Y-84139171D01*
X155231493Y-84143476D01*
X155229815Y-84149191D01*
X155207620Y-84168422D01*
X155187306Y-84189651D01*
X155179924Y-84192421D01*
X155177011Y-84194946D01*
X155154516Y-84202709D01*
X155152090Y-84203292D01*
X155016503Y-84230263D01*
X154983865Y-84243781D01*
X154974412Y-84246057D01*
X154965036Y-84245593D01*
X154945396Y-84249500D01*
X154306080Y-84249500D01*
X154161092Y-84278340D01*
X154161082Y-84278343D01*
X154024511Y-84334912D01*
X154024504Y-84334916D01*
X154010774Y-84344091D01*
X154001183Y-84350499D01*
X154001182Y-84350499D01*
X153901589Y-84417044D01*
X153901580Y-84417051D01*
X153825448Y-84493182D01*
X153764125Y-84526667D01*
X153737768Y-84529500D01*
X152602129Y-84529500D01*
X152602123Y-84529501D01*
X152542516Y-84535908D01*
X152407671Y-84586202D01*
X152407664Y-84586206D01*
X152292455Y-84672452D01*
X152292452Y-84672455D01*
X152206206Y-84787664D01*
X152206202Y-84787671D01*
X152155908Y-84922517D01*
X152149501Y-84982116D01*
X152149500Y-84982135D01*
X152149500Y-85625500D01*
X152129815Y-85692539D01*
X152077011Y-85738294D01*
X152025500Y-85749500D01*
X148112902Y-85749500D01*
X148045863Y-85729815D01*
X148000108Y-85677011D01*
X147990164Y-85607853D01*
X147993127Y-85593407D01*
X148000500Y-85565892D01*
X148000500Y-77624500D01*
X148020185Y-77557461D01*
X148072989Y-77511706D01*
X148124500Y-77500500D01*
X166163750Y-77500500D01*
X166230789Y-77520185D01*
G37*
%TD.AperFunction*%
%TA.AperFunction,Conductor*%
G36*
X161784809Y-87270185D02*
G01*
X161805451Y-87286819D01*
X163129824Y-88611192D01*
X163163309Y-88672515D01*
X163164616Y-88718271D01*
X163149500Y-88813707D01*
X163149500Y-88813713D01*
X163149500Y-89026287D01*
X163152919Y-89047872D01*
X163178501Y-89209394D01*
X163182754Y-89236243D01*
X163243278Y-89422517D01*
X163248444Y-89438414D01*
X163344951Y-89627820D01*
X163469890Y-89799786D01*
X163620213Y-89950109D01*
X163792182Y-90075050D01*
X163800946Y-90079516D01*
X163851742Y-90127491D01*
X163868536Y-90195312D01*
X163845998Y-90261447D01*
X163800946Y-90300484D01*
X163792182Y-90304949D01*
X163620213Y-90429890D01*
X163469890Y-90580213D01*
X163344951Y-90752179D01*
X163248444Y-90941585D01*
X163182753Y-91143760D01*
X163149500Y-91353713D01*
X163149500Y-91566286D01*
X163180922Y-91764681D01*
X163182754Y-91776243D01*
X163239902Y-91952127D01*
X163248444Y-91978414D01*
X163344951Y-92167820D01*
X163469890Y-92339786D01*
X163620213Y-92490109D01*
X163792182Y-92615050D01*
X163800946Y-92619516D01*
X163851742Y-92667491D01*
X163868536Y-92735312D01*
X163845998Y-92801447D01*
X163800946Y-92840484D01*
X163792182Y-92844949D01*
X163620213Y-92969890D01*
X163469890Y-93120213D01*
X163344951Y-93292179D01*
X163248444Y-93481585D01*
X163182753Y-93683760D01*
X163149500Y-93893713D01*
X163149500Y-94106291D01*
X163164616Y-94201726D01*
X163155662Y-94271020D01*
X163129824Y-94308806D01*
X158715034Y-98723596D01*
X158692083Y-98741679D01*
X158683784Y-98746757D01*
X158651152Y-98760275D01*
X158536204Y-98837080D01*
X158534078Y-98838382D01*
X158502636Y-98846867D01*
X158471560Y-98856598D01*
X158469092Y-98855921D01*
X158466622Y-98856588D01*
X158435581Y-98846727D01*
X158404180Y-98838113D01*
X158401307Y-98835840D01*
X158400032Y-98835435D01*
X158398577Y-98833679D01*
X158381667Y-98820299D01*
X157478421Y-97917052D01*
X157478414Y-97917046D01*
X157404729Y-97867812D01*
X157404729Y-97867813D01*
X157355491Y-97834913D01*
X157218917Y-97778343D01*
X157218907Y-97778340D01*
X157073920Y-97749500D01*
X157073918Y-97749500D01*
X152917649Y-97749500D01*
X152850610Y-97729815D01*
X152804855Y-97677011D01*
X152794911Y-97607853D01*
X152796031Y-97601310D01*
X152800500Y-97578841D01*
X152800500Y-97421158D01*
X152796031Y-97398690D01*
X152802260Y-97329099D01*
X152845123Y-97273922D01*
X152911013Y-97250678D01*
X152917649Y-97250500D01*
X155573920Y-97250500D01*
X155671462Y-97231096D01*
X155718913Y-97221658D01*
X155855495Y-97165084D01*
X155904729Y-97132186D01*
X155978416Y-97082952D01*
X156582952Y-96478416D01*
X156632186Y-96404729D01*
X156665084Y-96355495D01*
X156721658Y-96218913D01*
X156750500Y-96073918D01*
X156750500Y-89917648D01*
X156770185Y-89850609D01*
X156822989Y-89804854D01*
X156892147Y-89794910D01*
X156898672Y-89796027D01*
X156921158Y-89800500D01*
X157078844Y-89800500D01*
X157078845Y-89800499D01*
X157172868Y-89781797D01*
X157233488Y-89769739D01*
X157233489Y-89769738D01*
X157233497Y-89769737D01*
X157257155Y-89759937D01*
X157304604Y-89750500D01*
X158573920Y-89750500D01*
X158671462Y-89731096D01*
X158718913Y-89721658D01*
X158855495Y-89665084D01*
X158920291Y-89621789D01*
X158920294Y-89621786D01*
X158920296Y-89621786D01*
X158953998Y-89599267D01*
X158978416Y-89582952D01*
X159315299Y-89246067D01*
X159355524Y-89219191D01*
X159379179Y-89209394D01*
X159510289Y-89121789D01*
X159621789Y-89010289D01*
X159709394Y-88879179D01*
X159769737Y-88733497D01*
X159800500Y-88578842D01*
X159800500Y-88421158D01*
X159800500Y-88421155D01*
X159800499Y-88421153D01*
X159796607Y-88401585D01*
X159769737Y-88266503D01*
X159758785Y-88240062D01*
X159709397Y-88120827D01*
X159709390Y-88120814D01*
X159621789Y-87989711D01*
X159621786Y-87989707D01*
X159510292Y-87878213D01*
X159510288Y-87878210D01*
X159379185Y-87790609D01*
X159379172Y-87790602D01*
X159233501Y-87730264D01*
X159233489Y-87730261D01*
X159078845Y-87699500D01*
X159078842Y-87699500D01*
X158921158Y-87699500D01*
X158921155Y-87699500D01*
X158766510Y-87730261D01*
X158766498Y-87730264D01*
X158620827Y-87790602D01*
X158620814Y-87790609D01*
X158489711Y-87878210D01*
X158489707Y-87878213D01*
X158378213Y-87989707D01*
X158378207Y-87989715D01*
X158290607Y-88120818D01*
X158290604Y-88120823D01*
X158280806Y-88144477D01*
X158276176Y-88151405D01*
X158275081Y-88156443D01*
X158253931Y-88184698D01*
X158225453Y-88213178D01*
X158164131Y-88246665D01*
X158137769Y-88249500D01*
X157304604Y-88249500D01*
X157257155Y-88240062D01*
X157233497Y-88230263D01*
X157233493Y-88230262D01*
X157233488Y-88230260D01*
X157078845Y-88199500D01*
X157078842Y-88199500D01*
X156921158Y-88199500D01*
X156898690Y-88203969D01*
X156829099Y-88197740D01*
X156773922Y-88154877D01*
X156750678Y-88088987D01*
X156750500Y-88082351D01*
X156750500Y-87417648D01*
X156770185Y-87350609D01*
X156822989Y-87304854D01*
X156892147Y-87294910D01*
X156898672Y-87296027D01*
X156921158Y-87300500D01*
X157078844Y-87300500D01*
X157078845Y-87300499D01*
X157155152Y-87285320D01*
X157233488Y-87269739D01*
X157233489Y-87269738D01*
X157233497Y-87269737D01*
X157257155Y-87259937D01*
X157304604Y-87250500D01*
X161717770Y-87250500D01*
X161784809Y-87270185D01*
G37*
%TD.AperFunction*%
%TD*%
M02*
