%TF.GenerationSoftware,KiCad,Pcbnew,9.0.7*%
%TF.CreationDate,2026-02-17T02:34:39-06:00*%
%TF.ProjectId,Esp12-F,45737031-322d-4462-9e6b-696361645f70,rev?*%
%TF.SameCoordinates,Original*%
%TF.FileFunction,Soldermask,Top*%
%TF.FilePolarity,Negative*%
%FSLAX46Y46*%
G04 Gerber Fmt 4.6, Leading zero omitted, Abs format (unit mm)*
G04 Created by KiCad (PCBNEW 9.0.7) date 2026-02-17 02:34:39*
%MOMM*%
%LPD*%
G01*
G04 APERTURE LIST*
G04 Aperture macros list*
%AMRoundRect*
0 Rectangle with rounded corners*
0 $1 Rounding radius*
0 $2 $3 $4 $5 $6 $7 $8 $9 X,Y pos of 4 corners*
0 Add a 4 corners polygon primitive as box body*
4,1,4,$2,$3,$4,$5,$6,$7,$8,$9,$2,$3,0*
0 Add four circle primitives for the rounded corners*
1,1,$1+$1,$2,$3*
1,1,$1+$1,$4,$5*
1,1,$1+$1,$6,$7*
1,1,$1+$1,$8,$9*
0 Add four rect primitives between the rounded corners*
20,1,$1+$1,$2,$3,$4,$5,0*
20,1,$1+$1,$4,$5,$6,$7,0*
20,1,$1+$1,$6,$7,$8,$9,0*
20,1,$1+$1,$8,$9,$2,$3,0*%
G04 Aperture macros list end*
%ADD10R,1.700000X1.700000*%
%ADD11C,1.600000*%
%ADD12RoundRect,0.250000X-0.550000X-0.550000X0.550000X-0.550000X0.550000X0.550000X-0.550000X0.550000X0*%
%ADD13C,1.700000*%
%ADD14R,2.500000X1.000000*%
%ADD15R,1.000000X1.800000*%
%ADD16R,1.500000X1.500000*%
G04 APERTURE END LIST*
D10*
%TO.C,RST*%
X125500000Y-84500000D03*
%TD*%
D11*
%TO.C,C2*%
X135500000Y-109500000D03*
X135500000Y-104500000D03*
%TD*%
%TO.C,R3*%
X150190000Y-100500000D03*
X157810000Y-100500000D03*
%TD*%
D12*
%TO.C,C1*%
X140044888Y-106500000D03*
D11*
X142044888Y-106500000D03*
%TD*%
D10*
%TO.C,J3*%
X127000000Y-92380000D03*
D13*
X127000000Y-94920000D03*
X127000000Y-97460000D03*
X127000000Y-100000000D03*
%TD*%
D10*
%TO.C,J1*%
X158500000Y-83960000D03*
D13*
X158500000Y-86500000D03*
X158500000Y-89040000D03*
X158500000Y-91580000D03*
X158500000Y-94120000D03*
X158500000Y-96660000D03*
%TD*%
D10*
%TO.C,J6*%
X150000000Y-84690000D03*
D13*
X150000000Y-87230000D03*
X150000000Y-89770000D03*
X150000000Y-92310000D03*
%TD*%
D14*
%TO.C,U1*%
X130850000Y-86500000D03*
X130850000Y-88500000D03*
X130850000Y-90500000D03*
X130850000Y-92500000D03*
X130850000Y-94500000D03*
X130850000Y-96500000D03*
X130850000Y-98500000D03*
X130850000Y-100500000D03*
D15*
X133450000Y-102000000D03*
X135450000Y-102000000D03*
X137450000Y-102000000D03*
X139450000Y-102000000D03*
X141450000Y-102000000D03*
X143450000Y-102000000D03*
D14*
X146050000Y-100500000D03*
X146050000Y-98500000D03*
X146050000Y-96500000D03*
X146050000Y-94500000D03*
X146050000Y-92500000D03*
X146050000Y-90500000D03*
X146050000Y-88500000D03*
X146050000Y-86500000D03*
%TD*%
D16*
%TO.C,SW2*%
X153460000Y-80500000D03*
D11*
X150920000Y-80500000D03*
X156000000Y-80500000D03*
%TD*%
%TO.C,R2*%
X119690000Y-80500000D03*
X127310000Y-80500000D03*
%TD*%
%TO.C,R4*%
X157620000Y-103500000D03*
X150000000Y-103500000D03*
%TD*%
%TO.C,R1*%
X119190000Y-88500000D03*
X126810000Y-88500000D03*
%TD*%
%TO.C,R5*%
X150000000Y-106500000D03*
X157620000Y-106500000D03*
%TD*%
M02*
