%TF.GenerationSoftware,KiCad,Pcbnew,9.0.7*%
%TF.CreationDate,2026-02-17T01:21:17-06:00*%
%TF.ProjectId,Esp12-F,45737031-322d-4462-9e6b-696361645f70,rev?*%
%TF.SameCoordinates,Original*%
%TF.FileFunction,Legend,Top*%
%TF.FilePolarity,Positive*%
%FSLAX46Y46*%
G04 Gerber Fmt 4.6, Leading zero omitted, Abs format (unit mm)*
G04 Created by KiCad (PCBNEW 9.0.7) date 2026-02-17 01:21:17*
%MOMM*%
%LPD*%
G01*
G04 APERTURE LIST*
%ADD10C,0.150000*%
%ADD11C,0.120000*%
G04 APERTURE END LIST*
D10*
X124333333Y-104859580D02*
X124285714Y-104907200D01*
X124285714Y-104907200D02*
X124142857Y-104954819D01*
X124142857Y-104954819D02*
X124047619Y-104954819D01*
X124047619Y-104954819D02*
X123904762Y-104907200D01*
X123904762Y-104907200D02*
X123809524Y-104811961D01*
X123809524Y-104811961D02*
X123761905Y-104716723D01*
X123761905Y-104716723D02*
X123714286Y-104526247D01*
X123714286Y-104526247D02*
X123714286Y-104383390D01*
X123714286Y-104383390D02*
X123761905Y-104192914D01*
X123761905Y-104192914D02*
X123809524Y-104097676D01*
X123809524Y-104097676D02*
X123904762Y-104002438D01*
X123904762Y-104002438D02*
X124047619Y-103954819D01*
X124047619Y-103954819D02*
X124142857Y-103954819D01*
X124142857Y-103954819D02*
X124285714Y-104002438D01*
X124285714Y-104002438D02*
X124333333Y-104050057D01*
X124714286Y-104050057D02*
X124761905Y-104002438D01*
X124761905Y-104002438D02*
X124857143Y-103954819D01*
X124857143Y-103954819D02*
X125095238Y-103954819D01*
X125095238Y-103954819D02*
X125190476Y-104002438D01*
X125190476Y-104002438D02*
X125238095Y-104050057D01*
X125238095Y-104050057D02*
X125285714Y-104145295D01*
X125285714Y-104145295D02*
X125285714Y-104240533D01*
X125285714Y-104240533D02*
X125238095Y-104383390D01*
X125238095Y-104383390D02*
X124666667Y-104954819D01*
X124666667Y-104954819D02*
X125285714Y-104954819D01*
X157333333Y-105584819D02*
X157000000Y-105108628D01*
X156761905Y-105584819D02*
X156761905Y-104584819D01*
X156761905Y-104584819D02*
X157142857Y-104584819D01*
X157142857Y-104584819D02*
X157238095Y-104632438D01*
X157238095Y-104632438D02*
X157285714Y-104680057D01*
X157285714Y-104680057D02*
X157333333Y-104775295D01*
X157333333Y-104775295D02*
X157333333Y-104918152D01*
X157333333Y-104918152D02*
X157285714Y-105013390D01*
X157285714Y-105013390D02*
X157238095Y-105061009D01*
X157238095Y-105061009D02*
X157142857Y-105108628D01*
X157142857Y-105108628D02*
X156761905Y-105108628D01*
X157666667Y-104584819D02*
X158285714Y-104584819D01*
X158285714Y-104584819D02*
X157952381Y-104965771D01*
X157952381Y-104965771D02*
X158095238Y-104965771D01*
X158095238Y-104965771D02*
X158190476Y-105013390D01*
X158190476Y-105013390D02*
X158238095Y-105061009D01*
X158238095Y-105061009D02*
X158285714Y-105156247D01*
X158285714Y-105156247D02*
X158285714Y-105394342D01*
X158285714Y-105394342D02*
X158238095Y-105489580D01*
X158238095Y-105489580D02*
X158190476Y-105537200D01*
X158190476Y-105537200D02*
X158095238Y-105584819D01*
X158095238Y-105584819D02*
X157809524Y-105584819D01*
X157809524Y-105584819D02*
X157714286Y-105537200D01*
X157714286Y-105537200D02*
X157666667Y-105489580D01*
X126333333Y-99359580D02*
X126285714Y-99407200D01*
X126285714Y-99407200D02*
X126142857Y-99454819D01*
X126142857Y-99454819D02*
X126047619Y-99454819D01*
X126047619Y-99454819D02*
X125904762Y-99407200D01*
X125904762Y-99407200D02*
X125809524Y-99311961D01*
X125809524Y-99311961D02*
X125761905Y-99216723D01*
X125761905Y-99216723D02*
X125714286Y-99026247D01*
X125714286Y-99026247D02*
X125714286Y-98883390D01*
X125714286Y-98883390D02*
X125761905Y-98692914D01*
X125761905Y-98692914D02*
X125809524Y-98597676D01*
X125809524Y-98597676D02*
X125904762Y-98502438D01*
X125904762Y-98502438D02*
X126047619Y-98454819D01*
X126047619Y-98454819D02*
X126142857Y-98454819D01*
X126142857Y-98454819D02*
X126285714Y-98502438D01*
X126285714Y-98502438D02*
X126333333Y-98550057D01*
X127285714Y-99454819D02*
X126714286Y-99454819D01*
X127000000Y-99454819D02*
X127000000Y-98454819D01*
X127000000Y-98454819D02*
X126904762Y-98597676D01*
X126904762Y-98597676D02*
X126809524Y-98692914D01*
X126809524Y-98692914D02*
X126714286Y-98740533D01*
X161166666Y-78954819D02*
X161166666Y-79669104D01*
X161166666Y-79669104D02*
X161119047Y-79811961D01*
X161119047Y-79811961D02*
X161023809Y-79907200D01*
X161023809Y-79907200D02*
X160880952Y-79954819D01*
X160880952Y-79954819D02*
X160785714Y-79954819D01*
X162166666Y-79954819D02*
X161595238Y-79954819D01*
X161880952Y-79954819D02*
X161880952Y-78954819D01*
X161880952Y-78954819D02*
X161785714Y-79097676D01*
X161785714Y-79097676D02*
X161690476Y-79192914D01*
X161690476Y-79192914D02*
X161595238Y-79240533D01*
X150666666Y-83954819D02*
X150666666Y-84669104D01*
X150666666Y-84669104D02*
X150619047Y-84811961D01*
X150619047Y-84811961D02*
X150523809Y-84907200D01*
X150523809Y-84907200D02*
X150380952Y-84954819D01*
X150380952Y-84954819D02*
X150285714Y-84954819D01*
X151571428Y-83954819D02*
X151380952Y-83954819D01*
X151380952Y-83954819D02*
X151285714Y-84002438D01*
X151285714Y-84002438D02*
X151238095Y-84050057D01*
X151238095Y-84050057D02*
X151142857Y-84192914D01*
X151142857Y-84192914D02*
X151095238Y-84383390D01*
X151095238Y-84383390D02*
X151095238Y-84764342D01*
X151095238Y-84764342D02*
X151142857Y-84859580D01*
X151142857Y-84859580D02*
X151190476Y-84907200D01*
X151190476Y-84907200D02*
X151285714Y-84954819D01*
X151285714Y-84954819D02*
X151476190Y-84954819D01*
X151476190Y-84954819D02*
X151571428Y-84907200D01*
X151571428Y-84907200D02*
X151619047Y-84859580D01*
X151619047Y-84859580D02*
X151666666Y-84764342D01*
X151666666Y-84764342D02*
X151666666Y-84526247D01*
X151666666Y-84526247D02*
X151619047Y-84431009D01*
X151619047Y-84431009D02*
X151571428Y-84383390D01*
X151571428Y-84383390D02*
X151476190Y-84335771D01*
X151476190Y-84335771D02*
X151285714Y-84335771D01*
X151285714Y-84335771D02*
X151190476Y-84383390D01*
X151190476Y-84383390D02*
X151142857Y-84431009D01*
X151142857Y-84431009D02*
X151095238Y-84526247D01*
X151166667Y-78907200D02*
X151309524Y-78954819D01*
X151309524Y-78954819D02*
X151547619Y-78954819D01*
X151547619Y-78954819D02*
X151642857Y-78907200D01*
X151642857Y-78907200D02*
X151690476Y-78859580D01*
X151690476Y-78859580D02*
X151738095Y-78764342D01*
X151738095Y-78764342D02*
X151738095Y-78669104D01*
X151738095Y-78669104D02*
X151690476Y-78573866D01*
X151690476Y-78573866D02*
X151642857Y-78526247D01*
X151642857Y-78526247D02*
X151547619Y-78478628D01*
X151547619Y-78478628D02*
X151357143Y-78431009D01*
X151357143Y-78431009D02*
X151261905Y-78383390D01*
X151261905Y-78383390D02*
X151214286Y-78335771D01*
X151214286Y-78335771D02*
X151166667Y-78240533D01*
X151166667Y-78240533D02*
X151166667Y-78145295D01*
X151166667Y-78145295D02*
X151214286Y-78050057D01*
X151214286Y-78050057D02*
X151261905Y-78002438D01*
X151261905Y-78002438D02*
X151357143Y-77954819D01*
X151357143Y-77954819D02*
X151595238Y-77954819D01*
X151595238Y-77954819D02*
X151738095Y-78002438D01*
X152071429Y-77954819D02*
X152309524Y-78954819D01*
X152309524Y-78954819D02*
X152500000Y-78240533D01*
X152500000Y-78240533D02*
X152690476Y-78954819D01*
X152690476Y-78954819D02*
X152928572Y-77954819D01*
X153261905Y-78050057D02*
X153309524Y-78002438D01*
X153309524Y-78002438D02*
X153404762Y-77954819D01*
X153404762Y-77954819D02*
X153642857Y-77954819D01*
X153642857Y-77954819D02*
X153738095Y-78002438D01*
X153738095Y-78002438D02*
X153785714Y-78050057D01*
X153785714Y-78050057D02*
X153833333Y-78145295D01*
X153833333Y-78145295D02*
X153833333Y-78240533D01*
X153833333Y-78240533D02*
X153785714Y-78383390D01*
X153785714Y-78383390D02*
X153214286Y-78954819D01*
X153214286Y-78954819D02*
X153833333Y-78954819D01*
X125833333Y-81954819D02*
X125500000Y-81478628D01*
X125261905Y-81954819D02*
X125261905Y-80954819D01*
X125261905Y-80954819D02*
X125642857Y-80954819D01*
X125642857Y-80954819D02*
X125738095Y-81002438D01*
X125738095Y-81002438D02*
X125785714Y-81050057D01*
X125785714Y-81050057D02*
X125833333Y-81145295D01*
X125833333Y-81145295D02*
X125833333Y-81288152D01*
X125833333Y-81288152D02*
X125785714Y-81383390D01*
X125785714Y-81383390D02*
X125738095Y-81431009D01*
X125738095Y-81431009D02*
X125642857Y-81478628D01*
X125642857Y-81478628D02*
X125261905Y-81478628D01*
X126214286Y-81050057D02*
X126261905Y-81002438D01*
X126261905Y-81002438D02*
X126357143Y-80954819D01*
X126357143Y-80954819D02*
X126595238Y-80954819D01*
X126595238Y-80954819D02*
X126690476Y-81002438D01*
X126690476Y-81002438D02*
X126738095Y-81050057D01*
X126738095Y-81050057D02*
X126785714Y-81145295D01*
X126785714Y-81145295D02*
X126785714Y-81240533D01*
X126785714Y-81240533D02*
X126738095Y-81383390D01*
X126738095Y-81383390D02*
X126166667Y-81954819D01*
X126166667Y-81954819D02*
X126785714Y-81954819D01*
X146523333Y-105454819D02*
X146190000Y-104978628D01*
X145951905Y-105454819D02*
X145951905Y-104454819D01*
X145951905Y-104454819D02*
X146332857Y-104454819D01*
X146332857Y-104454819D02*
X146428095Y-104502438D01*
X146428095Y-104502438D02*
X146475714Y-104550057D01*
X146475714Y-104550057D02*
X146523333Y-104645295D01*
X146523333Y-104645295D02*
X146523333Y-104788152D01*
X146523333Y-104788152D02*
X146475714Y-104883390D01*
X146475714Y-104883390D02*
X146428095Y-104931009D01*
X146428095Y-104931009D02*
X146332857Y-104978628D01*
X146332857Y-104978628D02*
X145951905Y-104978628D01*
X147380476Y-104788152D02*
X147380476Y-105454819D01*
X147142381Y-104407200D02*
X146904286Y-105121485D01*
X146904286Y-105121485D02*
X147523333Y-105121485D01*
X125333333Y-91454819D02*
X125000000Y-90978628D01*
X124761905Y-91454819D02*
X124761905Y-90454819D01*
X124761905Y-90454819D02*
X125142857Y-90454819D01*
X125142857Y-90454819D02*
X125238095Y-90502438D01*
X125238095Y-90502438D02*
X125285714Y-90550057D01*
X125285714Y-90550057D02*
X125333333Y-90645295D01*
X125333333Y-90645295D02*
X125333333Y-90788152D01*
X125333333Y-90788152D02*
X125285714Y-90883390D01*
X125285714Y-90883390D02*
X125238095Y-90931009D01*
X125238095Y-90931009D02*
X125142857Y-90978628D01*
X125142857Y-90978628D02*
X124761905Y-90978628D01*
X126285714Y-91454819D02*
X125714286Y-91454819D01*
X126000000Y-91454819D02*
X126000000Y-90454819D01*
X126000000Y-90454819D02*
X125904762Y-90597676D01*
X125904762Y-90597676D02*
X125809524Y-90692914D01*
X125809524Y-90692914D02*
X125714286Y-90740533D01*
X135643333Y-105584819D02*
X135310000Y-105108628D01*
X135071905Y-105584819D02*
X135071905Y-104584819D01*
X135071905Y-104584819D02*
X135452857Y-104584819D01*
X135452857Y-104584819D02*
X135548095Y-104632438D01*
X135548095Y-104632438D02*
X135595714Y-104680057D01*
X135595714Y-104680057D02*
X135643333Y-104775295D01*
X135643333Y-104775295D02*
X135643333Y-104918152D01*
X135643333Y-104918152D02*
X135595714Y-105013390D01*
X135595714Y-105013390D02*
X135548095Y-105061009D01*
X135548095Y-105061009D02*
X135452857Y-105108628D01*
X135452857Y-105108628D02*
X135071905Y-105108628D01*
X136548095Y-104584819D02*
X136071905Y-104584819D01*
X136071905Y-104584819D02*
X136024286Y-105061009D01*
X136024286Y-105061009D02*
X136071905Y-105013390D01*
X136071905Y-105013390D02*
X136167143Y-104965771D01*
X136167143Y-104965771D02*
X136405238Y-104965771D01*
X136405238Y-104965771D02*
X136500476Y-105013390D01*
X136500476Y-105013390D02*
X136548095Y-105061009D01*
X136548095Y-105061009D02*
X136595714Y-105156247D01*
X136595714Y-105156247D02*
X136595714Y-105394342D01*
X136595714Y-105394342D02*
X136548095Y-105489580D01*
X136548095Y-105489580D02*
X136500476Y-105537200D01*
X136500476Y-105537200D02*
X136405238Y-105584819D01*
X136405238Y-105584819D02*
X136167143Y-105584819D01*
X136167143Y-105584819D02*
X136071905Y-105537200D01*
X136071905Y-105537200D02*
X136024286Y-105489580D01*
D11*
%TO.C,C2*%
X121880000Y-105630000D02*
X127120000Y-105630000D01*
X121880000Y-105967000D02*
X121880000Y-105630000D01*
X121880000Y-108370000D02*
X121880000Y-108033000D01*
X127120000Y-105630000D02*
X127120000Y-105967000D01*
X127120000Y-108033000D02*
X127120000Y-108370000D01*
X127120000Y-108370000D02*
X121880000Y-108370000D01*
%TO.C,R3*%
X154230000Y-106130000D02*
X160770000Y-106130000D01*
X154230000Y-106460000D02*
X154230000Y-106130000D01*
X154230000Y-108540000D02*
X154230000Y-108870000D01*
X154230000Y-108870000D02*
X160770000Y-108870000D01*
X160770000Y-106130000D02*
X160770000Y-106460000D01*
X160770000Y-108870000D02*
X160770000Y-108540000D01*
%TO.C,C1*%
X120195225Y-99025000D02*
X120695225Y-99025000D01*
X120445225Y-98775000D02*
X120445225Y-99275000D01*
X123000000Y-97920000D02*
X123000000Y-99460000D01*
X123000000Y-101540000D02*
X123000000Y-103080000D01*
X123040000Y-97920000D02*
X123040000Y-99460000D01*
X123040000Y-101540000D02*
X123040000Y-103080000D01*
X123080000Y-97921000D02*
X123080000Y-99460000D01*
X123080000Y-101540000D02*
X123080000Y-103079000D01*
X123120000Y-97923000D02*
X123120000Y-99460000D01*
X123120000Y-101540000D02*
X123120000Y-103077000D01*
X123160000Y-97925000D02*
X123160000Y-99460000D01*
X123160000Y-101540000D02*
X123160000Y-103075000D01*
X123200000Y-97928000D02*
X123200000Y-99460000D01*
X123200000Y-101540000D02*
X123200000Y-103072000D01*
X123240000Y-97931000D02*
X123240000Y-99460000D01*
X123240000Y-101540000D02*
X123240000Y-103069000D01*
X123280000Y-97935000D02*
X123280000Y-99460000D01*
X123280000Y-101540000D02*
X123280000Y-103065000D01*
X123320000Y-97940000D02*
X123320000Y-99460000D01*
X123320000Y-101540000D02*
X123320000Y-103060000D01*
X123360000Y-97945000D02*
X123360000Y-99460000D01*
X123360000Y-101540000D02*
X123360000Y-103055000D01*
X123400000Y-97951000D02*
X123400000Y-99460000D01*
X123400000Y-101540000D02*
X123400000Y-103049000D01*
X123440000Y-97957000D02*
X123440000Y-99460000D01*
X123440000Y-101540000D02*
X123440000Y-103043000D01*
X123480000Y-97964000D02*
X123480000Y-99460000D01*
X123480000Y-101540000D02*
X123480000Y-103036000D01*
X123520000Y-97972000D02*
X123520000Y-99460000D01*
X123520000Y-101540000D02*
X123520000Y-103028000D01*
X123560000Y-97981000D02*
X123560000Y-99460000D01*
X123560000Y-101540000D02*
X123560000Y-103019000D01*
X123600000Y-97990000D02*
X123600000Y-99460000D01*
X123600000Y-101540000D02*
X123600000Y-103010000D01*
X123640000Y-97999000D02*
X123640000Y-99460000D01*
X123640000Y-101540000D02*
X123640000Y-103001000D01*
X123680000Y-98010000D02*
X123680000Y-99460000D01*
X123680000Y-101540000D02*
X123680000Y-102990000D01*
X123720000Y-98021000D02*
X123720000Y-99460000D01*
X123720000Y-101540000D02*
X123720000Y-102979000D01*
X123760000Y-98033000D02*
X123760000Y-99460000D01*
X123760000Y-101540000D02*
X123760000Y-102967000D01*
X123800000Y-98045000D02*
X123800000Y-99460000D01*
X123800000Y-101540000D02*
X123800000Y-102955000D01*
X123840000Y-98058000D02*
X123840000Y-99460000D01*
X123840000Y-101540000D02*
X123840000Y-102942000D01*
X123880000Y-98072000D02*
X123880000Y-99460000D01*
X123880000Y-101540000D02*
X123880000Y-102928000D01*
X123920000Y-98087000D02*
X123920000Y-99460000D01*
X123920000Y-101540000D02*
X123920000Y-102913000D01*
X123960000Y-98102000D02*
X123960000Y-99460000D01*
X123960000Y-101540000D02*
X123960000Y-102898000D01*
X124000000Y-98118000D02*
X124000000Y-99460000D01*
X124000000Y-101540000D02*
X124000000Y-102882000D01*
X124040000Y-98135000D02*
X124040000Y-99460000D01*
X124040000Y-101540000D02*
X124040000Y-102865000D01*
X124080000Y-98153000D02*
X124080000Y-99460000D01*
X124080000Y-101540000D02*
X124080000Y-102847000D01*
X124120000Y-98171000D02*
X124120000Y-99460000D01*
X124120000Y-101540000D02*
X124120000Y-102829000D01*
X124160000Y-98191000D02*
X124160000Y-99460000D01*
X124160000Y-101540000D02*
X124160000Y-102809000D01*
X124200000Y-98211000D02*
X124200000Y-99460000D01*
X124200000Y-101540000D02*
X124200000Y-102789000D01*
X124240000Y-98232000D02*
X124240000Y-99460000D01*
X124240000Y-101540000D02*
X124240000Y-102768000D01*
X124280000Y-98254000D02*
X124280000Y-99460000D01*
X124280000Y-101540000D02*
X124280000Y-102746000D01*
X124320000Y-98277000D02*
X124320000Y-99460000D01*
X124320000Y-101540000D02*
X124320000Y-102723000D01*
X124360000Y-98301000D02*
X124360000Y-99460000D01*
X124360000Y-101540000D02*
X124360000Y-102699000D01*
X124400000Y-98325000D02*
X124400000Y-99460000D01*
X124400000Y-101540000D02*
X124400000Y-102675000D01*
X124440000Y-98351000D02*
X124440000Y-99460000D01*
X124440000Y-101540000D02*
X124440000Y-102649000D01*
X124480000Y-98378000D02*
X124480000Y-99460000D01*
X124480000Y-101540000D02*
X124480000Y-102622000D01*
X124520000Y-98406000D02*
X124520000Y-99460000D01*
X124520000Y-101540000D02*
X124520000Y-102594000D01*
X124560000Y-98435000D02*
X124560000Y-99460000D01*
X124560000Y-101540000D02*
X124560000Y-102565000D01*
X124600000Y-98465000D02*
X124600000Y-99460000D01*
X124600000Y-101540000D02*
X124600000Y-102535000D01*
X124640000Y-98497000D02*
X124640000Y-99460000D01*
X124640000Y-101540000D02*
X124640000Y-102503000D01*
X124680000Y-98530000D02*
X124680000Y-99460000D01*
X124680000Y-101540000D02*
X124680000Y-102470000D01*
X124720000Y-98564000D02*
X124720000Y-99460000D01*
X124720000Y-101540000D02*
X124720000Y-102436000D01*
X124760000Y-98599000D02*
X124760000Y-99460000D01*
X124760000Y-101540000D02*
X124760000Y-102401000D01*
X124800000Y-98636000D02*
X124800000Y-99460000D01*
X124800000Y-101540000D02*
X124800000Y-102364000D01*
X124840000Y-98675000D02*
X124840000Y-99460000D01*
X124840000Y-101540000D02*
X124840000Y-102325000D01*
X124880000Y-98715000D02*
X124880000Y-99460000D01*
X124880000Y-101540000D02*
X124880000Y-102285000D01*
X124920000Y-98757000D02*
X124920000Y-99460000D01*
X124920000Y-101540000D02*
X124920000Y-102243000D01*
X124960000Y-98801000D02*
X124960000Y-99460000D01*
X124960000Y-101540000D02*
X124960000Y-102199000D01*
X125000000Y-98848000D02*
X125000000Y-99460000D01*
X125000000Y-101540000D02*
X125000000Y-102152000D01*
X125040000Y-98896000D02*
X125040000Y-102104000D01*
X125080000Y-98947000D02*
X125080000Y-102053000D01*
X125120000Y-99001000D02*
X125120000Y-101999000D01*
X125160000Y-99057000D02*
X125160000Y-101943000D01*
X125200000Y-99117000D02*
X125200000Y-101883000D01*
X125240000Y-99181000D02*
X125240000Y-101819000D01*
X125280000Y-99249000D02*
X125280000Y-101751000D01*
X125320000Y-99323000D02*
X125320000Y-101677000D01*
X125360000Y-99402000D02*
X125360000Y-101598000D01*
X125400000Y-99489000D02*
X125400000Y-101511000D01*
X125440000Y-99586000D02*
X125440000Y-101414000D01*
X125480000Y-99695000D02*
X125480000Y-101305000D01*
X125520000Y-99823000D02*
X125520000Y-101177000D01*
X125560000Y-99983000D02*
X125560000Y-101017000D01*
X125600000Y-100217000D02*
X125600000Y-100783000D01*
X125620000Y-100500000D02*
G75*
G02*
X120380000Y-100500000I-2620000J0D01*
G01*
X120380000Y-100500000D02*
G75*
G02*
X125620000Y-100500000I2620000J0D01*
G01*
%TO.C,J3*%
X114620000Y-89000000D02*
X116000000Y-89000000D01*
X114620000Y-90380000D02*
X114620000Y-89000000D01*
X114620000Y-91650000D02*
X114620000Y-99380000D01*
X114620000Y-91650000D02*
X117380000Y-91650000D01*
X114620000Y-99380000D02*
X117380000Y-99380000D01*
X117380000Y-91650000D02*
X117380000Y-99380000D01*
%TO.C,J1*%
X163120000Y-79920000D02*
X164500000Y-79920000D01*
X163120000Y-81300000D02*
X163120000Y-79920000D01*
X163120000Y-82570000D02*
X163120000Y-95380000D01*
X163120000Y-82570000D02*
X165880000Y-82570000D01*
X163120000Y-95380000D02*
X165880000Y-95380000D01*
X165880000Y-82570000D02*
X165880000Y-95380000D01*
%TO.C,J6*%
X152120000Y-84500000D02*
X153500000Y-84500000D01*
X152120000Y-85880000D02*
X152120000Y-84500000D01*
X152120000Y-87150000D02*
X152120000Y-94880000D01*
X152120000Y-87150000D02*
X154880000Y-87150000D01*
X152120000Y-94880000D02*
X154880000Y-94880000D01*
X154880000Y-87150000D02*
X154880000Y-94880000D01*
%TO.C,U1*%
X130330000Y-77880000D02*
X146570000Y-77880000D01*
X130330000Y-85164000D02*
X130330000Y-77880000D01*
X130330000Y-102120000D02*
X130330000Y-101500000D01*
X132450000Y-102120000D02*
X130330000Y-102120000D01*
X146570000Y-77880000D02*
X146570000Y-85000000D01*
X146570000Y-101500000D02*
X146570000Y-102120000D01*
X146570000Y-102120000D02*
X144450000Y-102120000D01*
X129900000Y-85000000D02*
X129660000Y-84664000D01*
X130140000Y-84664000D01*
X129900000Y-85000000D01*
G36*
X129900000Y-85000000D02*
G01*
X129660000Y-84664000D01*
X130140000Y-84664000D01*
X129900000Y-85000000D01*
G37*
%TO.C,SW2*%
X148350000Y-79140000D02*
X158570000Y-79140000D01*
X158570000Y-81860000D01*
X148350000Y-81860000D01*
X148350000Y-79140000D01*
%TO.C,R2*%
X120420000Y-77630000D02*
X126960000Y-77630000D01*
X120420000Y-77960000D02*
X120420000Y-77630000D01*
X120420000Y-80040000D02*
X120420000Y-80370000D01*
X120420000Y-80370000D02*
X126960000Y-80370000D01*
X126960000Y-77630000D02*
X126960000Y-77960000D01*
X126960000Y-80370000D02*
X126960000Y-80040000D01*
%TO.C,R4*%
X143420000Y-106130000D02*
X143420000Y-106460000D01*
X143420000Y-108870000D02*
X143420000Y-108540000D01*
X149960000Y-106130000D02*
X143420000Y-106130000D01*
X149960000Y-106460000D02*
X149960000Y-106130000D01*
X149960000Y-108540000D02*
X149960000Y-108870000D01*
X149960000Y-108870000D02*
X143420000Y-108870000D01*
%TO.C,R1*%
X119730000Y-87130000D02*
X126270000Y-87130000D01*
X119730000Y-87460000D02*
X119730000Y-87130000D01*
X119730000Y-89540000D02*
X119730000Y-89870000D01*
X119730000Y-89870000D02*
X126270000Y-89870000D01*
X126270000Y-87130000D02*
X126270000Y-87460000D01*
X126270000Y-89870000D02*
X126270000Y-89540000D01*
%TO.C,RST*%
X120620000Y-81620000D02*
X122000000Y-81620000D01*
X120620000Y-83000000D02*
X120620000Y-81620000D01*
X120620000Y-84270000D02*
X120620000Y-84380000D01*
X120620000Y-84270000D02*
X123380000Y-84270000D01*
X120620000Y-84380000D02*
X123380000Y-84380000D01*
X123380000Y-84270000D02*
X123380000Y-84380000D01*
%TO.C,R5*%
X132540000Y-106130000D02*
X139080000Y-106130000D01*
X132540000Y-106460000D02*
X132540000Y-106130000D01*
X132540000Y-108540000D02*
X132540000Y-108870000D01*
X132540000Y-108870000D02*
X139080000Y-108870000D01*
X139080000Y-106130000D02*
X139080000Y-106460000D01*
X139080000Y-108870000D02*
X139080000Y-108540000D01*
%TD*%
M02*
