%TF.GenerationSoftware,KiCad,Pcbnew,9.0.7*%
%TF.CreationDate,2026-02-17T02:08:45-06:00*%
%TF.ProjectId,Esp12-F,45737031-322d-4462-9e6b-696361645f70,rev?*%
%TF.SameCoordinates,Original*%
%TF.FileFunction,Copper,L2,Bot*%
%TF.FilePolarity,Positive*%
%FSLAX46Y46*%
G04 Gerber Fmt 4.6, Leading zero omitted, Abs format (unit mm)*
G04 Created by KiCad (PCBNEW 9.0.7) date 2026-02-17 02:08:45*
%MOMM*%
%LPD*%
G01*
G04 APERTURE LIST*
G04 Aperture macros list*
%AMRoundRect*
0 Rectangle with rounded corners*
0 $1 Rounding radius*
0 $2 $3 $4 $5 $6 $7 $8 $9 X,Y pos of 4 corners*
0 Add a 4 corners polygon primitive as box body*
4,1,4,$2,$3,$4,$5,$6,$7,$8,$9,$2,$3,0*
0 Add four circle primitives for the rounded corners*
1,1,$1+$1,$2,$3*
1,1,$1+$1,$4,$5*
1,1,$1+$1,$6,$7*
1,1,$1+$1,$8,$9*
0 Add four rect primitives between the rounded corners*
20,1,$1+$1,$2,$3,$4,$5,0*
20,1,$1+$1,$4,$5,$6,$7,0*
20,1,$1+$1,$6,$7,$8,$9,0*
20,1,$1+$1,$8,$9,$2,$3,0*%
G04 Aperture macros list end*
%TA.AperFunction,ComponentPad*%
%ADD10C,1.600000*%
%TD*%
%TA.AperFunction,ComponentPad*%
%ADD11RoundRect,0.250000X-0.550000X-0.550000X0.550000X-0.550000X0.550000X0.550000X-0.550000X0.550000X0*%
%TD*%
%TA.AperFunction,ComponentPad*%
%ADD12R,1.700000X1.700000*%
%TD*%
%TA.AperFunction,ComponentPad*%
%ADD13C,1.700000*%
%TD*%
%TA.AperFunction,ComponentPad*%
%ADD14R,1.500000X1.500000*%
%TD*%
%TA.AperFunction,ViaPad*%
%ADD15C,0.600000*%
%TD*%
%TA.AperFunction,Conductor*%
%ADD16C,0.500000*%
%TD*%
G04 APERTURE END LIST*
D10*
%TO.P,C2,1*%
%TO.N,GND*%
X135500000Y-109500000D03*
%TO.P,C2,2*%
%TO.N,3.3V*%
X135500000Y-104500000D03*
%TD*%
%TO.P,R3,1*%
%TO.N,GND*%
X150190000Y-100500000D03*
%TO.P,R3,2*%
%TO.N,Net-(U1-GPIO15)*%
X157810000Y-100500000D03*
%TD*%
D11*
%TO.P,C1,1*%
%TO.N,GND*%
X140044888Y-106500000D03*
D10*
%TO.P,C1,2*%
%TO.N,3.3V*%
X142044888Y-106500000D03*
%TD*%
D12*
%TO.P,J3,1,Pin_1*%
%TO.N,Net-(J3-Pin_1)*%
X125000000Y-92690000D03*
D13*
%TO.P,J3,2,Pin_2*%
%TO.N,Net-(J3-Pin_2)*%
X125000000Y-95230000D03*
%TO.P,J3,3,Pin_3*%
%TO.N,Net-(J3-Pin_3)*%
X125000000Y-97770000D03*
%TO.P,J3,4,Pin_4*%
%TO.N,Net-(J3-Pin_4)*%
X125000000Y-100310000D03*
%TD*%
D12*
%TO.P,J1,1,Pin_1*%
%TO.N,GND*%
X161500000Y-83460000D03*
D13*
%TO.P,J1,2,Pin_2*%
%TO.N,unconnected-(J1-Pin_2-Pad2)*%
X161500000Y-86000000D03*
%TO.P,J1,3,Pin_3*%
%TO.N,Net-(J1-Pin_3)*%
X161500000Y-88540000D03*
%TO.P,J1,4,Pin_4*%
%TO.N,Net-(J1-Pin_4)*%
X161500000Y-91080000D03*
%TO.P,J1,5,Pin_5*%
%TO.N,unconnected-(J1-Pin_5-Pad5)*%
X161500000Y-93620000D03*
%TO.P,J1,6,Pin_6*%
%TO.N,3.3V*%
X161500000Y-96160000D03*
%TD*%
D12*
%TO.P,J6,1,Pin_1*%
%TO.N,Net-(J1-Pin_4)*%
X153500000Y-85880000D03*
D13*
%TO.P,J6,2,Pin_2*%
%TO.N,Net-(J1-Pin_3)*%
X153500000Y-88420000D03*
%TO.P,J6,3,Pin_3*%
%TO.N,Net-(J6-Pin_3)*%
X153500000Y-90960000D03*
%TO.P,J6,4,Pin_4*%
%TO.N,Net-(J6-Pin_4)*%
X153500000Y-93500000D03*
%TD*%
D14*
%TO.P,SW2,1,A*%
%TO.N,Net-(SW2-A)*%
X153460000Y-80500000D03*
D10*
%TO.P,SW2,2,B*%
%TO.N,GND*%
X150920000Y-80500000D03*
%TO.P,SW2,3,C*%
%TO.N,Net-(SW2-C)*%
X156000000Y-80500000D03*
%TD*%
%TO.P,R2,1*%
%TO.N,3.3V*%
X119690000Y-80500000D03*
%TO.P,R2,2*%
%TO.N,Net-(U1-~{RST})*%
X127310000Y-80500000D03*
%TD*%
%TO.P,R4,1*%
%TO.N,3.3V*%
X157620000Y-103500000D03*
%TO.P,R4,2*%
%TO.N,Net-(U1-GPIO2)*%
X150000000Y-103500000D03*
%TD*%
%TO.P,R1,1*%
%TO.N,3.3V*%
X119190000Y-88500000D03*
%TO.P,R1,2*%
%TO.N,Net-(U1-EN)*%
X126810000Y-88500000D03*
%TD*%
D12*
%TO.P,RST,1,Pin_1*%
%TO.N,Net-(J9-Pin_1)*%
X125500000Y-84500000D03*
%TD*%
D10*
%TO.P,R5,1*%
%TO.N,3.3V*%
X150000000Y-106500000D03*
%TO.P,R5,2*%
%TO.N,Net-(SW2-C)*%
X157620000Y-106500000D03*
%TD*%
D15*
%TO.N,GND*%
X151000000Y-85500000D03*
%TO.N,Net-(SW2-C)*%
X156000000Y-82710000D03*
%TO.N,Net-(SW2-A)*%
X149500000Y-93500000D03*
%TO.N,Net-(U1-GPIO2)*%
X148500000Y-97000000D03*
X149000000Y-101500000D03*
%TO.N,Net-(J1-Pin_4)*%
X156500000Y-87500000D03*
%TD*%
D16*
%TO.N,Net-(SW2-A)*%
X149500000Y-84460000D02*
X153460000Y-80500000D01*
X149500000Y-93500000D02*
X149500000Y-84460000D01*
%TO.N,GND*%
X151000000Y-99690000D02*
X150190000Y-100500000D01*
X151000000Y-85500000D02*
X151000000Y-99690000D01*
%TO.N,3.3V*%
X150000000Y-106500000D02*
X142044888Y-106500000D01*
%TO.N,Net-(SW2-C)*%
X159500000Y-100000000D02*
X159500000Y-104620000D01*
X155749000Y-96249000D02*
X159500000Y-100000000D01*
X155749000Y-83961000D02*
X155749000Y-96249000D01*
X156000000Y-82710000D02*
X156000000Y-83710000D01*
X156000000Y-83710000D02*
X155749000Y-83961000D01*
X159500000Y-104620000D02*
X157620000Y-106500000D01*
%TO.N,Net-(U1-GPIO2)*%
X148939000Y-99061000D02*
X149500000Y-98500000D01*
X149500000Y-98000000D02*
X148500000Y-97000000D01*
X148939000Y-101018182D02*
X148939000Y-99061000D01*
X149000000Y-101079182D02*
X148939000Y-101018182D01*
X149500000Y-98500000D02*
X149500000Y-98000000D01*
X149000000Y-101500000D02*
X149000000Y-101079182D01*
%TO.N,Net-(J1-Pin_4)*%
X157000000Y-88000000D02*
X158420000Y-88000000D01*
X158420000Y-88000000D02*
X161500000Y-91080000D01*
X156500000Y-87500000D02*
X157000000Y-88000000D01*
%TD*%
%TA.AperFunction,Conductor*%
%TO.N,GND*%
G36*
X127000614Y-79020185D02*
G01*
X127046369Y-79072989D01*
X127056313Y-79142147D01*
X127027288Y-79205703D01*
X126971894Y-79242431D01*
X126810776Y-79294781D01*
X126628386Y-79387715D01*
X126462786Y-79508028D01*
X126318028Y-79652786D01*
X126197715Y-79818386D01*
X126104781Y-80000776D01*
X126041522Y-80195465D01*
X126009500Y-80397648D01*
X126009500Y-80602351D01*
X126041522Y-80804534D01*
X126104781Y-80999223D01*
X126163793Y-81115039D01*
X126197585Y-81181359D01*
X126197715Y-81181613D01*
X126318028Y-81347213D01*
X126462786Y-81491971D01*
X126583226Y-81579474D01*
X126628390Y-81612287D01*
X126744607Y-81671503D01*
X126810776Y-81705218D01*
X126810778Y-81705218D01*
X126810781Y-81705220D01*
X126915137Y-81739127D01*
X127005465Y-81768477D01*
X127106557Y-81784488D01*
X127207648Y-81800500D01*
X127207649Y-81800500D01*
X127412351Y-81800500D01*
X127412352Y-81800500D01*
X127614534Y-81768477D01*
X127809219Y-81705220D01*
X127991610Y-81612287D01*
X128118379Y-81520185D01*
X128157213Y-81491971D01*
X128157215Y-81491968D01*
X128157219Y-81491966D01*
X128301966Y-81347219D01*
X128366860Y-81257898D01*
X128422190Y-81215233D01*
X128491804Y-81209254D01*
X128553599Y-81241859D01*
X128578088Y-81275329D01*
X128986409Y-82091970D01*
X128999500Y-82147425D01*
X128999500Y-85434108D01*
X128999500Y-85565892D01*
X129006584Y-85592331D01*
X129033608Y-85693187D01*
X129041899Y-85707547D01*
X129099500Y-85807314D01*
X129192686Y-85900500D01*
X129306814Y-85966392D01*
X129434108Y-86000500D01*
X129434110Y-86000500D01*
X147565890Y-86000500D01*
X147565892Y-86000500D01*
X147693186Y-85966392D01*
X147807314Y-85900500D01*
X147900500Y-85807314D01*
X147966392Y-85693186D01*
X148000500Y-85565892D01*
X148000500Y-79124500D01*
X148020185Y-79057461D01*
X148072989Y-79011706D01*
X148124500Y-79000500D01*
X150545191Y-79000500D01*
X150612230Y-79020185D01*
X150657985Y-79072989D01*
X150667929Y-79142147D01*
X150638904Y-79205703D01*
X150583510Y-79242431D01*
X150420968Y-79295244D01*
X150238644Y-79388143D01*
X150194077Y-79420523D01*
X150194077Y-79420524D01*
X150873554Y-80100000D01*
X150867339Y-80100000D01*
X150765606Y-80127259D01*
X150674394Y-80179920D01*
X150599920Y-80254394D01*
X150547259Y-80345606D01*
X150520000Y-80447339D01*
X150520000Y-80453553D01*
X149840524Y-79774077D01*
X149840523Y-79774077D01*
X149808143Y-79818644D01*
X149715244Y-80000968D01*
X149652009Y-80195582D01*
X149620000Y-80397682D01*
X149620000Y-80602317D01*
X149652009Y-80804417D01*
X149715244Y-80999031D01*
X149808141Y-81181350D01*
X149808147Y-81181359D01*
X149840523Y-81225921D01*
X149840524Y-81225922D01*
X150520000Y-80546446D01*
X150520000Y-80552661D01*
X150547259Y-80654394D01*
X150599920Y-80745606D01*
X150674394Y-80820080D01*
X150765606Y-80872741D01*
X150867339Y-80900000D01*
X150873553Y-80900000D01*
X150194076Y-81579474D01*
X150238650Y-81611859D01*
X150420968Y-81704755D01*
X150615582Y-81767990D01*
X150819849Y-81800343D01*
X150882984Y-81830272D01*
X150919915Y-81889584D01*
X150918917Y-81959446D01*
X150888132Y-82010497D01*
X148917047Y-83981584D01*
X148917047Y-83981585D01*
X148881413Y-84034917D01*
X148860984Y-84065491D01*
X148834914Y-84104507D01*
X148778343Y-84241082D01*
X148778340Y-84241092D01*
X148749500Y-84386079D01*
X148749500Y-93195396D01*
X148740062Y-93242844D01*
X148730263Y-93266503D01*
X148730262Y-93266506D01*
X148730260Y-93266511D01*
X148699500Y-93421153D01*
X148699500Y-93578846D01*
X148730261Y-93733489D01*
X148730264Y-93733501D01*
X148790602Y-93879172D01*
X148790609Y-93879185D01*
X148878210Y-94010288D01*
X148878213Y-94010292D01*
X148989707Y-94121786D01*
X148989711Y-94121789D01*
X149120814Y-94209390D01*
X149120827Y-94209397D01*
X149266498Y-94269735D01*
X149266503Y-94269737D01*
X149386681Y-94293642D01*
X149421153Y-94300499D01*
X149421156Y-94300500D01*
X149421158Y-94300500D01*
X149578844Y-94300500D01*
X149578845Y-94300499D01*
X149733497Y-94269737D01*
X149879179Y-94209394D01*
X150010289Y-94121789D01*
X150121789Y-94010289D01*
X150209394Y-93879179D01*
X150269737Y-93733497D01*
X150300500Y-93578842D01*
X150300500Y-93421158D01*
X150300500Y-93421155D01*
X150300499Y-93421153D01*
X150269739Y-93266511D01*
X150269738Y-93266508D01*
X150269737Y-93266503D01*
X150259937Y-93242844D01*
X150250500Y-93195396D01*
X150250500Y-84822229D01*
X150270185Y-84755190D01*
X150286814Y-84734553D01*
X153234549Y-81786817D01*
X153295872Y-81753333D01*
X153322230Y-81750499D01*
X154257871Y-81750499D01*
X154257872Y-81750499D01*
X154317483Y-81744091D01*
X154452331Y-81693796D01*
X154567546Y-81607546D01*
X154653796Y-81492331D01*
X154704091Y-81357483D01*
X154709823Y-81304162D01*
X154736560Y-81239615D01*
X154793952Y-81199767D01*
X154863777Y-81197273D01*
X154923866Y-81232925D01*
X154933430Y-81244536D01*
X155008028Y-81347212D01*
X155008032Y-81347217D01*
X155152786Y-81491971D01*
X155273226Y-81579474D01*
X155318390Y-81612287D01*
X155500781Y-81705220D01*
X155620414Y-81744091D01*
X155648023Y-81753062D01*
X155705699Y-81792500D01*
X155732897Y-81856858D01*
X155720982Y-81925705D01*
X155673738Y-81977180D01*
X155657159Y-81985554D01*
X155620821Y-82000606D01*
X155620814Y-82000609D01*
X155489711Y-82088210D01*
X155489707Y-82088213D01*
X155378213Y-82199707D01*
X155378210Y-82199711D01*
X155290609Y-82330814D01*
X155290602Y-82330827D01*
X155230264Y-82476498D01*
X155230261Y-82476510D01*
X155199500Y-82631153D01*
X155199500Y-82788846D01*
X155230261Y-82943489D01*
X155230263Y-82943497D01*
X155240061Y-82967151D01*
X155249500Y-83014604D01*
X155249500Y-83347770D01*
X155242066Y-83373086D01*
X155238328Y-83399208D01*
X155231511Y-83409032D01*
X155229815Y-83414809D01*
X155219266Y-83428912D01*
X155216347Y-83432284D01*
X155166048Y-83482584D01*
X155147396Y-83510500D01*
X155143109Y-83516915D01*
X155143102Y-83516924D01*
X155083916Y-83605503D01*
X155083914Y-83605506D01*
X155027343Y-83742082D01*
X155027340Y-83742092D01*
X154998500Y-83887079D01*
X154998500Y-84688561D01*
X154978815Y-84755600D01*
X154926011Y-84801355D01*
X154856853Y-84811299D01*
X154793297Y-84782274D01*
X154775234Y-84762873D01*
X154750120Y-84729325D01*
X154707546Y-84672454D01*
X154707544Y-84672453D01*
X154707544Y-84672452D01*
X154592335Y-84586206D01*
X154592328Y-84586202D01*
X154457482Y-84535908D01*
X154457483Y-84535908D01*
X154397883Y-84529501D01*
X154397881Y-84529500D01*
X154397873Y-84529500D01*
X154397864Y-84529500D01*
X152602129Y-84529500D01*
X152602123Y-84529501D01*
X152542516Y-84535908D01*
X152407671Y-84586202D01*
X152407664Y-84586206D01*
X152292455Y-84672452D01*
X152292452Y-84672455D01*
X152206206Y-84787664D01*
X152206202Y-84787671D01*
X152155908Y-84922517D01*
X152149501Y-84982116D01*
X152149500Y-84982135D01*
X152149500Y-86777870D01*
X152149501Y-86777876D01*
X152155908Y-86837483D01*
X152206202Y-86972328D01*
X152206206Y-86972335D01*
X152292452Y-87087544D01*
X152292455Y-87087547D01*
X152407664Y-87173793D01*
X152407671Y-87173797D01*
X152539082Y-87222810D01*
X152595016Y-87264681D01*
X152619433Y-87330145D01*
X152604582Y-87398418D01*
X152583431Y-87426673D01*
X152469889Y-87540215D01*
X152344951Y-87712179D01*
X152248444Y-87901585D01*
X152182753Y-88103760D01*
X152149500Y-88313713D01*
X152149500Y-88526286D01*
X152180443Y-88721657D01*
X152182754Y-88736243D01*
X152219724Y-88850025D01*
X152248444Y-88938414D01*
X152344951Y-89127820D01*
X152469890Y-89299786D01*
X152620213Y-89450109D01*
X152792182Y-89575050D01*
X152800946Y-89579516D01*
X152851742Y-89627491D01*
X152868536Y-89695312D01*
X152845998Y-89761447D01*
X152800946Y-89800484D01*
X152792182Y-89804949D01*
X152620213Y-89929890D01*
X152469890Y-90080213D01*
X152344951Y-90252179D01*
X152248444Y-90441585D01*
X152182753Y-90643760D01*
X152149500Y-90853713D01*
X152149500Y-91066286D01*
X152179469Y-91255506D01*
X152182754Y-91276243D01*
X152221743Y-91396239D01*
X152248444Y-91478414D01*
X152344951Y-91667820D01*
X152469890Y-91839786D01*
X152620213Y-91990109D01*
X152792182Y-92115050D01*
X152800946Y-92119516D01*
X152851742Y-92167491D01*
X152868536Y-92235312D01*
X152845998Y-92301447D01*
X152800946Y-92340484D01*
X152792182Y-92344949D01*
X152620213Y-92469890D01*
X152469890Y-92620213D01*
X152344951Y-92792179D01*
X152248444Y-92981585D01*
X152182753Y-93183760D01*
X152169647Y-93266511D01*
X152149500Y-93393713D01*
X152149500Y-93606287D01*
X152182754Y-93816243D01*
X152245803Y-94010288D01*
X152248444Y-94018414D01*
X152344951Y-94207820D01*
X152469890Y-94379786D01*
X152620213Y-94530109D01*
X152792179Y-94655048D01*
X152792181Y-94655049D01*
X152792184Y-94655051D01*
X152981588Y-94751557D01*
X153183757Y-94817246D01*
X153393713Y-94850500D01*
X153393714Y-94850500D01*
X153606286Y-94850500D01*
X153606287Y-94850500D01*
X153816243Y-94817246D01*
X154018412Y-94751557D01*
X154207816Y-94655051D01*
X154229789Y-94639086D01*
X154379786Y-94530109D01*
X154379788Y-94530106D01*
X154379792Y-94530104D01*
X154530104Y-94379792D01*
X154530106Y-94379788D01*
X154530109Y-94379786D01*
X154653902Y-94209397D01*
X154655051Y-94207816D01*
X154751557Y-94018412D01*
X154756569Y-94002985D01*
X154796006Y-93945310D01*
X154860364Y-93918111D01*
X154929210Y-93930025D01*
X154980687Y-93977269D01*
X154998500Y-94041303D01*
X154998500Y-96322918D01*
X154998500Y-96322920D01*
X154998499Y-96322920D01*
X155027340Y-96467907D01*
X155027343Y-96467917D01*
X155083914Y-96604492D01*
X155083915Y-96604494D01*
X155083916Y-96604495D01*
X155110628Y-96644473D01*
X155116812Y-96653727D01*
X155116813Y-96653730D01*
X155166046Y-96727414D01*
X155166052Y-96727421D01*
X157486684Y-99048052D01*
X157520169Y-99109375D01*
X157515185Y-99179067D01*
X157473313Y-99235000D01*
X157437322Y-99253664D01*
X157310776Y-99294781D01*
X157128386Y-99387715D01*
X156962786Y-99508028D01*
X156818028Y-99652786D01*
X156697715Y-99818386D01*
X156604781Y-100000776D01*
X156541522Y-100195465D01*
X156509500Y-100397648D01*
X156509500Y-100602351D01*
X156541522Y-100804534D01*
X156604781Y-100999223D01*
X156697715Y-101181613D01*
X156818028Y-101347213D01*
X156962786Y-101491971D01*
X157082362Y-101578846D01*
X157128390Y-101612287D01*
X157238288Y-101668283D01*
X157310776Y-101705218D01*
X157310778Y-101705218D01*
X157310781Y-101705220D01*
X157397784Y-101733489D01*
X157505465Y-101768477D01*
X157592228Y-101782219D01*
X157707648Y-101800500D01*
X157707649Y-101800500D01*
X157912351Y-101800500D01*
X157912352Y-101800500D01*
X158114534Y-101768477D01*
X158309219Y-101705220D01*
X158491610Y-101612287D01*
X158537638Y-101578846D01*
X158552615Y-101567965D01*
X158618421Y-101544485D01*
X158686475Y-101560311D01*
X158735170Y-101610416D01*
X158749500Y-101668283D01*
X158749500Y-102490953D01*
X158729815Y-102557992D01*
X158677011Y-102603747D01*
X158607853Y-102613691D01*
X158544297Y-102584666D01*
X158537819Y-102578634D01*
X158467213Y-102508028D01*
X158301613Y-102387715D01*
X158301612Y-102387714D01*
X158301610Y-102387713D01*
X158244653Y-102358691D01*
X158119223Y-102294781D01*
X157924534Y-102231522D01*
X157749995Y-102203878D01*
X157722352Y-102199500D01*
X157517648Y-102199500D01*
X157493329Y-102203351D01*
X157315465Y-102231522D01*
X157120776Y-102294781D01*
X156938386Y-102387715D01*
X156772786Y-102508028D01*
X156628028Y-102652786D01*
X156507715Y-102818386D01*
X156414781Y-103000776D01*
X156351522Y-103195465D01*
X156319500Y-103397648D01*
X156319500Y-103602351D01*
X156351522Y-103804534D01*
X156414781Y-103999223D01*
X156507715Y-104181613D01*
X156628028Y-104347213D01*
X156772786Y-104491971D01*
X156927749Y-104604556D01*
X156938390Y-104612287D01*
X157054607Y-104671503D01*
X157120776Y-104705218D01*
X157120778Y-104705218D01*
X157120781Y-104705220D01*
X157225137Y-104739127D01*
X157315465Y-104768477D01*
X157416557Y-104784488D01*
X157517648Y-104800500D01*
X157517649Y-104800500D01*
X157722351Y-104800500D01*
X157722352Y-104800500D01*
X157924534Y-104768477D01*
X157924539Y-104768475D01*
X157924541Y-104768475D01*
X157974910Y-104752109D01*
X158044751Y-104750112D01*
X158104585Y-104786192D01*
X158135414Y-104848893D01*
X158127450Y-104918307D01*
X158100911Y-104957720D01*
X157885105Y-105173526D01*
X157823782Y-105207011D01*
X157778026Y-105208318D01*
X157722352Y-105199500D01*
X157517648Y-105199500D01*
X157493329Y-105203351D01*
X157315465Y-105231522D01*
X157120776Y-105294781D01*
X156938386Y-105387715D01*
X156772786Y-105508028D01*
X156628028Y-105652786D01*
X156507715Y-105818386D01*
X156414781Y-106000776D01*
X156351522Y-106195465D01*
X156319500Y-106397648D01*
X156319500Y-106602351D01*
X156351522Y-106804534D01*
X156414781Y-106999223D01*
X156507715Y-107181613D01*
X156628028Y-107347213D01*
X156772786Y-107491971D01*
X156885071Y-107573549D01*
X156938390Y-107612287D01*
X157054607Y-107671503D01*
X157120776Y-107705218D01*
X157120778Y-107705218D01*
X157120781Y-107705220D01*
X157210459Y-107734358D01*
X157315465Y-107768477D01*
X157416557Y-107784488D01*
X157517648Y-107800500D01*
X157517649Y-107800500D01*
X157722351Y-107800500D01*
X157722352Y-107800500D01*
X157924534Y-107768477D01*
X158119219Y-107705220D01*
X158301610Y-107612287D01*
X158401017Y-107540064D01*
X158467213Y-107491971D01*
X158467215Y-107491968D01*
X158467219Y-107491966D01*
X158611966Y-107347219D01*
X158611968Y-107347215D01*
X158611971Y-107347213D01*
X158682236Y-107250500D01*
X158732287Y-107181610D01*
X158825220Y-106999219D01*
X158888477Y-106804534D01*
X158920500Y-106602352D01*
X158920500Y-106397648D01*
X158911681Y-106341971D01*
X158920635Y-106272679D01*
X158946470Y-106234895D01*
X160082951Y-105098416D01*
X160165084Y-104975495D01*
X160221658Y-104838913D01*
X160248252Y-104705220D01*
X160250500Y-104693920D01*
X160250500Y-99926079D01*
X160221659Y-99781092D01*
X160221658Y-99781091D01*
X160221658Y-99781087D01*
X160186754Y-99696820D01*
X160165086Y-99644509D01*
X160165085Y-99644507D01*
X160132186Y-99595270D01*
X160132185Y-99595268D01*
X160082956Y-99521589D01*
X160082952Y-99521584D01*
X156535819Y-95974451D01*
X156502334Y-95913128D01*
X156499500Y-95886770D01*
X156499500Y-88790600D01*
X156519185Y-88723561D01*
X156571989Y-88677806D01*
X156641147Y-88667862D01*
X156670952Y-88676038D01*
X156781087Y-88721658D01*
X156781091Y-88721658D01*
X156781092Y-88721659D01*
X156926079Y-88750500D01*
X156926082Y-88750500D01*
X156926083Y-88750500D01*
X157073918Y-88750500D01*
X158057770Y-88750500D01*
X158124809Y-88770185D01*
X158145451Y-88786819D01*
X160129824Y-90771192D01*
X160163309Y-90832515D01*
X160164616Y-90878271D01*
X160149500Y-90973707D01*
X160149500Y-91186286D01*
X160182747Y-91396204D01*
X160182754Y-91396243D01*
X160248202Y-91597671D01*
X160248444Y-91598414D01*
X160344951Y-91787820D01*
X160469890Y-91959786D01*
X160620213Y-92110109D01*
X160792182Y-92235050D01*
X160800946Y-92239516D01*
X160851742Y-92287491D01*
X160868536Y-92355312D01*
X160845998Y-92421447D01*
X160800946Y-92460484D01*
X160792182Y-92464949D01*
X160620213Y-92589890D01*
X160469890Y-92740213D01*
X160344951Y-92912179D01*
X160248444Y-93101585D01*
X160182753Y-93303760D01*
X160149500Y-93513713D01*
X160149500Y-93726286D01*
X160176624Y-93897544D01*
X160182754Y-93936243D01*
X160234075Y-94094193D01*
X160248444Y-94138414D01*
X160344951Y-94327820D01*
X160469890Y-94499786D01*
X160620213Y-94650109D01*
X160792182Y-94775050D01*
X160800946Y-94779516D01*
X160851742Y-94827491D01*
X160868536Y-94895312D01*
X160845998Y-94961447D01*
X160800946Y-95000484D01*
X160792182Y-95004949D01*
X160620213Y-95129890D01*
X160469890Y-95280213D01*
X160344951Y-95452179D01*
X160248444Y-95641585D01*
X160182753Y-95843760D01*
X160149500Y-96053713D01*
X160149500Y-96266286D01*
X160181434Y-96467913D01*
X160182754Y-96476243D01*
X160240423Y-96653730D01*
X160248444Y-96678414D01*
X160344951Y-96867820D01*
X160469890Y-97039786D01*
X160620213Y-97190109D01*
X160792179Y-97315048D01*
X160792181Y-97315049D01*
X160792184Y-97315051D01*
X160981588Y-97411557D01*
X161183757Y-97477246D01*
X161393713Y-97510500D01*
X161393714Y-97510500D01*
X161606286Y-97510500D01*
X161606287Y-97510500D01*
X161816243Y-97477246D01*
X162018412Y-97411557D01*
X162207816Y-97315051D01*
X162320061Y-97233501D01*
X162379786Y-97190109D01*
X162379788Y-97190106D01*
X162379792Y-97190104D01*
X162530104Y-97039792D01*
X162530106Y-97039788D01*
X162530109Y-97039786D01*
X162655048Y-96867820D01*
X162655047Y-96867820D01*
X162655051Y-96867816D01*
X162751557Y-96678412D01*
X162757569Y-96659907D01*
X162797006Y-96602232D01*
X162861365Y-96575034D01*
X162930211Y-96586949D01*
X162981687Y-96634193D01*
X162999500Y-96698226D01*
X162999500Y-97875500D01*
X162979815Y-97942539D01*
X162927011Y-97988294D01*
X162875500Y-97999500D01*
X161434108Y-97999500D01*
X161306812Y-98033608D01*
X161192686Y-98099500D01*
X161192683Y-98099502D01*
X161099502Y-98192683D01*
X161099500Y-98192686D01*
X161033608Y-98306812D01*
X160999500Y-98434108D01*
X160999500Y-102938162D01*
X160997092Y-102962480D01*
X160525621Y-105319833D01*
X160514938Y-105350970D01*
X160077349Y-106226145D01*
X160072382Y-106236078D01*
X160059769Y-106252940D01*
X160043032Y-106294779D01*
X160040725Y-106299394D01*
X160040725Y-106299395D01*
X160022870Y-106335106D01*
X160020871Y-106344873D01*
X160014522Y-106366054D01*
X159192324Y-108421552D01*
X159149150Y-108476486D01*
X159083129Y-108499358D01*
X159077193Y-108499500D01*
X154565892Y-108499500D01*
X144026401Y-108499500D01*
X143987116Y-108495345D01*
X143960772Y-108499500D01*
X143934108Y-108499500D01*
X143934106Y-108499500D01*
X143934100Y-108499501D01*
X143902276Y-108508028D01*
X143889506Y-108510738D01*
X143856943Y-108515874D01*
X143856942Y-108515874D01*
X143841452Y-108522757D01*
X143841453Y-108522758D01*
X143832568Y-108526706D01*
X143806814Y-108533608D01*
X143772618Y-108553349D01*
X143766637Y-108556008D01*
X143766631Y-108556012D01*
X140742662Y-109900000D01*
X139535597Y-110436474D01*
X139417834Y-110488813D01*
X139367473Y-110499500D01*
X136624073Y-110499500D01*
X136557034Y-110479815D01*
X136511279Y-110427011D01*
X136501335Y-110357853D01*
X136523755Y-110302614D01*
X136611859Y-110181349D01*
X136704755Y-109999031D01*
X136767990Y-109804417D01*
X136800000Y-109602317D01*
X136800000Y-109397682D01*
X136767990Y-109195582D01*
X136704755Y-109000968D01*
X136611859Y-108818650D01*
X136579474Y-108774077D01*
X136579474Y-108774076D01*
X135900000Y-109453551D01*
X135900000Y-109447339D01*
X135872741Y-109345606D01*
X135820080Y-109254394D01*
X135745606Y-109179920D01*
X135654394Y-109127259D01*
X135552661Y-109100000D01*
X135546446Y-109100000D01*
X136225922Y-108420524D01*
X136225921Y-108420523D01*
X136181359Y-108388147D01*
X136181350Y-108388141D01*
X135999031Y-108295244D01*
X135804417Y-108232009D01*
X135602317Y-108200000D01*
X135397683Y-108200000D01*
X135195582Y-108232009D01*
X135000968Y-108295244D01*
X134818644Y-108388143D01*
X134774077Y-108420523D01*
X134774077Y-108420524D01*
X135453554Y-109100000D01*
X135447339Y-109100000D01*
X135345606Y-109127259D01*
X135254394Y-109179920D01*
X135179920Y-109254394D01*
X135127259Y-109345606D01*
X135100000Y-109447339D01*
X135100000Y-109453553D01*
X134420524Y-108774077D01*
X134420523Y-108774077D01*
X134388143Y-108818644D01*
X134295244Y-109000968D01*
X134232009Y-109195582D01*
X134200000Y-109397682D01*
X134200000Y-109602317D01*
X134232009Y-109804417D01*
X134295244Y-109999031D01*
X134388140Y-110181349D01*
X134476245Y-110302614D01*
X134499725Y-110368420D01*
X134483900Y-110436474D01*
X134433794Y-110485169D01*
X134375927Y-110499500D01*
X133004856Y-110499500D01*
X132937817Y-110479815D01*
X132892062Y-110427011D01*
X132883608Y-110401482D01*
X132770306Y-109872741D01*
X132614672Y-109146446D01*
X132474812Y-108493765D01*
X132474812Y-108493761D01*
X132095711Y-106724628D01*
X132095709Y-106724620D01*
X132091550Y-106705212D01*
X131919008Y-105900013D01*
X138744888Y-105900013D01*
X138744888Y-106250000D01*
X139729202Y-106250000D01*
X139724808Y-106254394D01*
X139672147Y-106345606D01*
X139644888Y-106447339D01*
X139644888Y-106552661D01*
X139672147Y-106654394D01*
X139724808Y-106745606D01*
X139729202Y-106750000D01*
X138744889Y-106750000D01*
X138744889Y-107099986D01*
X138755382Y-107202697D01*
X138810529Y-107369119D01*
X138810531Y-107369124D01*
X138902572Y-107518345D01*
X139026542Y-107642315D01*
X139175763Y-107734356D01*
X139175768Y-107734358D01*
X139342190Y-107789505D01*
X139342197Y-107789506D01*
X139444907Y-107799999D01*
X139794887Y-107799999D01*
X139794888Y-107799998D01*
X139794888Y-106815686D01*
X139799282Y-106820080D01*
X139890494Y-106872741D01*
X139992227Y-106900000D01*
X140097549Y-106900000D01*
X140199282Y-106872741D01*
X140290494Y-106820080D01*
X140294888Y-106815686D01*
X140294888Y-107799999D01*
X140644860Y-107799999D01*
X140644874Y-107799998D01*
X140747585Y-107789505D01*
X140914007Y-107734358D01*
X140914012Y-107734356D01*
X141063233Y-107642315D01*
X141132000Y-107573549D01*
X141193323Y-107540064D01*
X141263015Y-107545048D01*
X141292562Y-107560909D01*
X141363278Y-107612287D01*
X141422211Y-107642315D01*
X141545664Y-107705218D01*
X141545666Y-107705218D01*
X141545669Y-107705220D01*
X141635347Y-107734358D01*
X141740353Y-107768477D01*
X141841445Y-107784488D01*
X141942536Y-107800500D01*
X141942537Y-107800500D01*
X142147239Y-107800500D01*
X142147240Y-107800500D01*
X142349422Y-107768477D01*
X142544107Y-107705220D01*
X142726498Y-107612287D01*
X142825905Y-107540064D01*
X142892101Y-107491971D01*
X142892103Y-107491968D01*
X142892107Y-107491966D01*
X143036854Y-107347219D01*
X143039538Y-107343524D01*
X143069988Y-107301615D01*
X143125317Y-107258949D01*
X143170306Y-107250500D01*
X148874582Y-107250500D01*
X148941621Y-107270185D01*
X148974900Y-107301615D01*
X149008028Y-107347212D01*
X149008032Y-107347217D01*
X149152786Y-107491971D01*
X149265071Y-107573549D01*
X149318390Y-107612287D01*
X149434607Y-107671503D01*
X149500776Y-107705218D01*
X149500778Y-107705218D01*
X149500781Y-107705220D01*
X149590459Y-107734358D01*
X149695465Y-107768477D01*
X149796557Y-107784488D01*
X149897648Y-107800500D01*
X149897649Y-107800500D01*
X150102351Y-107800500D01*
X150102352Y-107800500D01*
X150304534Y-107768477D01*
X150499219Y-107705220D01*
X150681610Y-107612287D01*
X150781017Y-107540064D01*
X150847213Y-107491971D01*
X150847215Y-107491968D01*
X150847219Y-107491966D01*
X150991966Y-107347219D01*
X150991968Y-107347215D01*
X150991971Y-107347213D01*
X151062236Y-107250500D01*
X151112287Y-107181610D01*
X151205220Y-106999219D01*
X151268477Y-106804534D01*
X151300500Y-106602352D01*
X151300500Y-106397648D01*
X151280707Y-106272679D01*
X151268477Y-106195465D01*
X151205218Y-106000776D01*
X151153876Y-105900013D01*
X151112287Y-105818390D01*
X151096966Y-105797302D01*
X150991971Y-105652786D01*
X150847213Y-105508028D01*
X150681613Y-105387715D01*
X150681612Y-105387714D01*
X150681610Y-105387713D01*
X150609498Y-105350970D01*
X150499223Y-105294781D01*
X150304534Y-105231522D01*
X150129995Y-105203878D01*
X150102352Y-105199500D01*
X149897648Y-105199500D01*
X149873329Y-105203351D01*
X149695465Y-105231522D01*
X149500776Y-105294781D01*
X149318386Y-105387715D01*
X149152786Y-105508028D01*
X149008032Y-105652782D01*
X149008028Y-105652787D01*
X148974900Y-105698385D01*
X148919571Y-105741051D01*
X148874582Y-105749500D01*
X143170306Y-105749500D01*
X143103267Y-105729815D01*
X143069988Y-105698385D01*
X143036859Y-105652787D01*
X143036855Y-105652782D01*
X142892101Y-105508028D01*
X142726501Y-105387715D01*
X142726500Y-105387714D01*
X142726498Y-105387713D01*
X142654386Y-105350970D01*
X142544111Y-105294781D01*
X142349422Y-105231522D01*
X142174883Y-105203878D01*
X142147240Y-105199500D01*
X141942536Y-105199500D01*
X141918217Y-105203351D01*
X141740353Y-105231522D01*
X141545664Y-105294781D01*
X141363279Y-105387712D01*
X141363277Y-105387713D01*
X141292564Y-105439088D01*
X141226757Y-105462567D01*
X141158703Y-105446740D01*
X141131999Y-105426450D01*
X141063233Y-105357684D01*
X140914012Y-105265643D01*
X140914007Y-105265641D01*
X140747585Y-105210494D01*
X140747578Y-105210493D01*
X140644874Y-105200000D01*
X140294888Y-105200000D01*
X140294888Y-106184314D01*
X140290494Y-106179920D01*
X140199282Y-106127259D01*
X140097549Y-106100000D01*
X139992227Y-106100000D01*
X139890494Y-106127259D01*
X139799282Y-106179920D01*
X139794888Y-106184314D01*
X139794888Y-105200000D01*
X139444916Y-105200000D01*
X139444900Y-105200001D01*
X139342190Y-105210494D01*
X139175768Y-105265641D01*
X139175763Y-105265643D01*
X139026542Y-105357684D01*
X138902572Y-105481654D01*
X138810531Y-105630875D01*
X138810529Y-105630880D01*
X138755382Y-105797302D01*
X138755381Y-105797309D01*
X138744888Y-105900013D01*
X131919008Y-105900013D01*
X131597073Y-104397648D01*
X134199500Y-104397648D01*
X134199500Y-104602351D01*
X134231522Y-104804534D01*
X134294781Y-104999223D01*
X134387715Y-105181613D01*
X134508028Y-105347213D01*
X134652786Y-105491971D01*
X134800552Y-105599327D01*
X134818390Y-105612287D01*
X134921639Y-105664895D01*
X135000776Y-105705218D01*
X135000778Y-105705218D01*
X135000781Y-105705220D01*
X135054893Y-105722802D01*
X135195465Y-105768477D01*
X135273907Y-105780901D01*
X135397648Y-105800500D01*
X135397649Y-105800500D01*
X135602351Y-105800500D01*
X135602352Y-105800500D01*
X135720727Y-105781751D01*
X135767196Y-105774391D01*
X135804534Y-105768477D01*
X135862939Y-105749500D01*
X135999219Y-105705220D01*
X136181610Y-105612287D01*
X136274590Y-105544732D01*
X136347213Y-105491971D01*
X136347215Y-105491968D01*
X136347219Y-105491966D01*
X136491966Y-105347219D01*
X136491968Y-105347215D01*
X136491971Y-105347213D01*
X136576024Y-105231522D01*
X136612287Y-105181610D01*
X136705220Y-104999219D01*
X136768477Y-104804534D01*
X136800500Y-104602352D01*
X136800500Y-104397648D01*
X136768477Y-104195466D01*
X136705220Y-104000781D01*
X136705218Y-104000778D01*
X136705218Y-104000776D01*
X136645066Y-103882723D01*
X136612287Y-103818390D01*
X136572378Y-103763459D01*
X136491971Y-103652786D01*
X136347213Y-103508028D01*
X136181613Y-103387715D01*
X136181612Y-103387714D01*
X136181610Y-103387713D01*
X136115356Y-103353955D01*
X135999223Y-103294781D01*
X135804534Y-103231522D01*
X135629995Y-103203878D01*
X135602352Y-103199500D01*
X135397648Y-103199500D01*
X135373329Y-103203351D01*
X135195465Y-103231522D01*
X135000776Y-103294781D01*
X134818386Y-103387715D01*
X134652786Y-103508028D01*
X134508028Y-103652786D01*
X134387715Y-103818386D01*
X134294781Y-104000776D01*
X134231522Y-104195465D01*
X134199500Y-104397648D01*
X131597073Y-104397648D01*
X131503252Y-103959816D01*
X131503252Y-103959815D01*
X131500500Y-103946973D01*
X131500500Y-103934108D01*
X131486731Y-103882723D01*
X131475584Y-103830701D01*
X131475581Y-103830696D01*
X131475209Y-103829648D01*
X131466836Y-103807885D01*
X131466391Y-103806812D01*
X131441361Y-103763459D01*
X131441359Y-103763456D01*
X131439790Y-103760738D01*
X131415561Y-103713380D01*
X131406939Y-103703836D01*
X131400505Y-103692692D01*
X131400501Y-103692687D01*
X131365112Y-103657298D01*
X131360779Y-103652740D01*
X131327219Y-103615591D01*
X131316412Y-103608598D01*
X131307314Y-103599500D01*
X131261241Y-103572899D01*
X131258614Y-103571199D01*
X131258612Y-103571197D01*
X131216578Y-103543999D01*
X131215591Y-103543531D01*
X131194174Y-103534017D01*
X131193186Y-103533608D01*
X131144817Y-103520647D01*
X131144817Y-103520646D01*
X131141770Y-103519829D01*
X131091175Y-103503483D01*
X131078322Y-103502830D01*
X131075326Y-103502027D01*
X131065893Y-103499500D01*
X131065892Y-103499500D01*
X131015838Y-103499500D01*
X131009554Y-103499341D01*
X131007677Y-103499245D01*
X130959560Y-103496803D01*
X130958417Y-103496895D01*
X130933840Y-103499500D01*
X126087466Y-103499500D01*
X126053401Y-103494729D01*
X122971093Y-102614069D01*
X122912040Y-102576725D01*
X122885930Y-102528907D01*
X122075724Y-99693186D01*
X122005271Y-99446599D01*
X122000500Y-99412534D01*
X122000500Y-94550686D01*
X122003549Y-94535787D01*
X122000500Y-94484990D01*
X122000500Y-94434108D01*
X121996564Y-94419419D01*
X121995653Y-94404239D01*
X121979562Y-94355967D01*
X121966392Y-94306814D01*
X121965066Y-94304517D01*
X121954815Y-94281727D01*
X121950819Y-94269737D01*
X121124951Y-91792135D01*
X123649500Y-91792135D01*
X123649500Y-93587870D01*
X123649501Y-93587876D01*
X123655908Y-93647483D01*
X123706202Y-93782328D01*
X123706206Y-93782335D01*
X123792452Y-93897544D01*
X123792455Y-93897547D01*
X123907664Y-93983793D01*
X123907671Y-93983797D01*
X124039082Y-94032810D01*
X124095016Y-94074681D01*
X124119433Y-94140145D01*
X124104582Y-94208418D01*
X124083431Y-94236673D01*
X123969889Y-94350215D01*
X123844951Y-94522179D01*
X123748444Y-94711585D01*
X123748443Y-94711587D01*
X123748443Y-94711588D01*
X123727823Y-94775050D01*
X123682753Y-94913760D01*
X123649500Y-95123713D01*
X123649500Y-95336286D01*
X123667855Y-95452179D01*
X123682754Y-95546243D01*
X123747175Y-95744511D01*
X123748444Y-95748414D01*
X123844951Y-95937820D01*
X123969890Y-96109786D01*
X124120213Y-96260109D01*
X124292182Y-96385050D01*
X124300946Y-96389516D01*
X124351742Y-96437491D01*
X124368536Y-96505312D01*
X124345998Y-96571447D01*
X124300946Y-96610484D01*
X124292182Y-96614949D01*
X124120213Y-96739890D01*
X123969890Y-96890213D01*
X123844951Y-97062179D01*
X123748444Y-97251585D01*
X123748443Y-97251587D01*
X123748443Y-97251588D01*
X123727823Y-97315051D01*
X123682753Y-97453760D01*
X123656140Y-97621789D01*
X123649500Y-97663713D01*
X123649500Y-97876287D01*
X123682754Y-98086243D01*
X123707472Y-98162318D01*
X123748444Y-98288414D01*
X123844951Y-98477820D01*
X123969890Y-98649786D01*
X124120213Y-98800109D01*
X124292182Y-98925050D01*
X124300946Y-98929516D01*
X124351742Y-98977491D01*
X124368536Y-99045312D01*
X124345998Y-99111447D01*
X124300946Y-99150484D01*
X124292182Y-99154949D01*
X124120213Y-99279890D01*
X123969890Y-99430213D01*
X123844951Y-99602179D01*
X123748444Y-99791585D01*
X123682753Y-99993760D01*
X123649500Y-100203713D01*
X123649500Y-100416286D01*
X123671099Y-100552661D01*
X123682754Y-100626243D01*
X123685093Y-100633443D01*
X123748444Y-100828414D01*
X123844951Y-101017820D01*
X123969890Y-101189786D01*
X124120213Y-101340109D01*
X124292179Y-101465048D01*
X124292181Y-101465049D01*
X124292184Y-101465051D01*
X124481588Y-101561557D01*
X124683757Y-101627246D01*
X124893713Y-101660500D01*
X124893714Y-101660500D01*
X125106286Y-101660500D01*
X125106287Y-101660500D01*
X125316243Y-101627246D01*
X125518412Y-101561557D01*
X125707816Y-101465051D01*
X125768230Y-101421158D01*
X125879786Y-101340109D01*
X125879788Y-101340106D01*
X125879792Y-101340104D01*
X126030104Y-101189792D01*
X126030106Y-101189788D01*
X126030109Y-101189786D01*
X126155048Y-101017820D01*
X126155047Y-101017820D01*
X126155051Y-101017816D01*
X126251557Y-100828412D01*
X126317246Y-100626243D01*
X126350500Y-100416287D01*
X126350500Y-100203713D01*
X126317246Y-99993757D01*
X126251557Y-99791588D01*
X126155051Y-99602184D01*
X126155049Y-99602181D01*
X126155048Y-99602179D01*
X126030109Y-99430213D01*
X125879786Y-99279890D01*
X125707820Y-99154951D01*
X125707115Y-99154591D01*
X125699054Y-99150485D01*
X125648259Y-99102512D01*
X125631463Y-99034692D01*
X125653999Y-98968556D01*
X125699054Y-98929515D01*
X125707816Y-98925051D01*
X125741609Y-98900499D01*
X125879786Y-98800109D01*
X125879788Y-98800106D01*
X125879792Y-98800104D01*
X126030104Y-98649792D01*
X126030106Y-98649788D01*
X126030109Y-98649786D01*
X126155048Y-98477820D01*
X126155047Y-98477820D01*
X126155051Y-98477816D01*
X126251557Y-98288412D01*
X126317246Y-98086243D01*
X126350500Y-97876287D01*
X126350500Y-97663713D01*
X126317246Y-97453757D01*
X126251557Y-97251588D01*
X126155051Y-97062184D01*
X126101118Y-96987951D01*
X126101117Y-96987948D01*
X126052588Y-96921153D01*
X147699500Y-96921153D01*
X147699500Y-97078846D01*
X147730261Y-97233489D01*
X147730264Y-97233501D01*
X147790602Y-97379172D01*
X147790609Y-97379185D01*
X147878210Y-97510288D01*
X147878213Y-97510292D01*
X147989710Y-97621789D01*
X148108378Y-97701080D01*
X148120821Y-97709394D01*
X148144475Y-97719191D01*
X148184703Y-97746071D01*
X148426926Y-97988294D01*
X148600951Y-98162318D01*
X148634436Y-98223641D01*
X148629452Y-98293332D01*
X148600951Y-98337680D01*
X148356050Y-98582581D01*
X148356044Y-98582589D01*
X148311141Y-98649791D01*
X148311142Y-98649792D01*
X148273913Y-98705508D01*
X148217343Y-98842082D01*
X148217340Y-98842092D01*
X148188500Y-98987079D01*
X148188500Y-98987082D01*
X148188500Y-101092100D01*
X148188500Y-101092102D01*
X148188499Y-101092102D01*
X148217341Y-101237093D01*
X148219110Y-101242924D01*
X148216777Y-101243631D01*
X148223094Y-101302437D01*
X148222684Y-101304598D01*
X148199500Y-101421159D01*
X148199500Y-101578846D01*
X148230261Y-101733489D01*
X148230264Y-101733501D01*
X148290602Y-101879172D01*
X148290609Y-101879185D01*
X148378210Y-102010288D01*
X148378213Y-102010292D01*
X148489707Y-102121786D01*
X148489711Y-102121789D01*
X148620814Y-102209390D01*
X148620827Y-102209397D01*
X148766498Y-102269735D01*
X148766503Y-102269737D01*
X148892402Y-102294780D01*
X148921153Y-102300499D01*
X148921156Y-102300500D01*
X149060953Y-102300500D01*
X149127992Y-102320185D01*
X149173747Y-102372989D01*
X149183691Y-102442147D01*
X149154666Y-102505703D01*
X149148634Y-102512181D01*
X149008032Y-102652782D01*
X149008028Y-102652786D01*
X148887715Y-102818386D01*
X148794781Y-103000776D01*
X148731522Y-103195465D01*
X148699500Y-103397648D01*
X148699500Y-103602351D01*
X148731522Y-103804534D01*
X148794781Y-103999223D01*
X148887715Y-104181613D01*
X149008028Y-104347213D01*
X149152786Y-104491971D01*
X149307749Y-104604556D01*
X149318390Y-104612287D01*
X149434607Y-104671503D01*
X149500776Y-104705218D01*
X149500778Y-104705218D01*
X149500781Y-104705220D01*
X149605137Y-104739127D01*
X149695465Y-104768477D01*
X149796557Y-104784488D01*
X149897648Y-104800500D01*
X149897649Y-104800500D01*
X150102351Y-104800500D01*
X150102352Y-104800500D01*
X150304534Y-104768477D01*
X150499219Y-104705220D01*
X150681610Y-104612287D01*
X150774590Y-104544732D01*
X150847213Y-104491971D01*
X150847215Y-104491968D01*
X150847219Y-104491966D01*
X150991966Y-104347219D01*
X150991968Y-104347215D01*
X150991971Y-104347213D01*
X151044732Y-104274590D01*
X151112287Y-104181610D01*
X151205220Y-103999219D01*
X151268477Y-103804534D01*
X151300500Y-103602352D01*
X151300500Y-103397648D01*
X151287232Y-103313881D01*
X151268477Y-103195465D01*
X151226376Y-103065892D01*
X151205220Y-103000781D01*
X151205218Y-103000778D01*
X151205218Y-103000776D01*
X151171503Y-102934607D01*
X151112287Y-102818390D01*
X151104556Y-102807749D01*
X150991971Y-102652786D01*
X150847213Y-102508028D01*
X150681613Y-102387715D01*
X150681612Y-102387714D01*
X150681610Y-102387713D01*
X150624653Y-102358691D01*
X150499223Y-102294781D01*
X150304534Y-102231522D01*
X150129995Y-102203878D01*
X150102352Y-102199500D01*
X149897648Y-102199500D01*
X149721989Y-102227321D01*
X149652696Y-102218366D01*
X149599244Y-102173370D01*
X149578605Y-102106618D01*
X149597330Y-102039305D01*
X149614915Y-102017163D01*
X149621789Y-102010289D01*
X149709394Y-101879179D01*
X149727021Y-101836622D01*
X149770860Y-101782219D01*
X149837153Y-101760153D01*
X149879901Y-101766143D01*
X149885588Y-101767991D01*
X150087683Y-101800000D01*
X150292317Y-101800000D01*
X150494417Y-101767990D01*
X150689031Y-101704755D01*
X150871349Y-101611859D01*
X150915921Y-101579474D01*
X150236447Y-100900000D01*
X150242661Y-100900000D01*
X150344394Y-100872741D01*
X150435606Y-100820080D01*
X150510080Y-100745606D01*
X150562741Y-100654394D01*
X150590000Y-100552661D01*
X150590000Y-100546447D01*
X151269474Y-101225921D01*
X151301859Y-101181349D01*
X151394755Y-100999031D01*
X151457990Y-100804417D01*
X151490000Y-100602317D01*
X151490000Y-100397682D01*
X151457990Y-100195582D01*
X151394755Y-100000968D01*
X151301859Y-99818650D01*
X151269474Y-99774077D01*
X151269474Y-99774076D01*
X150590000Y-100453551D01*
X150590000Y-100447339D01*
X150562741Y-100345606D01*
X150510080Y-100254394D01*
X150435606Y-100179920D01*
X150344394Y-100127259D01*
X150242661Y-100100000D01*
X150236446Y-100100000D01*
X150915922Y-99420524D01*
X150915921Y-99420523D01*
X150871359Y-99388147D01*
X150871350Y-99388141D01*
X150689031Y-99295244D01*
X150494417Y-99232009D01*
X150292317Y-99200000D01*
X150160731Y-99200000D01*
X150093692Y-99180315D01*
X150047937Y-99127511D01*
X150037993Y-99058353D01*
X150067018Y-98994797D01*
X150073050Y-98988319D01*
X150082947Y-98978421D01*
X150082950Y-98978418D01*
X150082952Y-98978416D01*
X150135013Y-98900500D01*
X150165084Y-98855495D01*
X150221658Y-98718913D01*
X150235409Y-98649786D01*
X150250500Y-98573920D01*
X150250500Y-97926079D01*
X150238680Y-97866664D01*
X150225520Y-97800500D01*
X150221659Y-97781088D01*
X150188518Y-97701080D01*
X150173040Y-97663713D01*
X150165085Y-97644506D01*
X150165083Y-97644503D01*
X150082954Y-97521588D01*
X150082953Y-97521587D01*
X150082951Y-97521584D01*
X149978416Y-97417049D01*
X149246071Y-96684703D01*
X149219191Y-96644475D01*
X149209394Y-96620821D01*
X149196973Y-96602232D01*
X149121789Y-96489710D01*
X149010292Y-96378213D01*
X149010288Y-96378210D01*
X148879185Y-96290609D01*
X148879172Y-96290602D01*
X148733501Y-96230264D01*
X148733489Y-96230261D01*
X148578845Y-96199500D01*
X148578842Y-96199500D01*
X148421158Y-96199500D01*
X148421155Y-96199500D01*
X148266510Y-96230261D01*
X148266498Y-96230264D01*
X148120827Y-96290602D01*
X148120814Y-96290609D01*
X147989711Y-96378210D01*
X147989707Y-96378213D01*
X147878213Y-96489707D01*
X147878210Y-96489711D01*
X147790609Y-96620814D01*
X147790602Y-96620827D01*
X147730264Y-96766498D01*
X147730261Y-96766510D01*
X147699500Y-96921153D01*
X126052588Y-96921153D01*
X126030109Y-96890214D01*
X126030105Y-96890209D01*
X125879786Y-96739890D01*
X125707820Y-96614951D01*
X125707115Y-96614591D01*
X125699054Y-96610485D01*
X125648259Y-96562512D01*
X125631463Y-96494692D01*
X125653999Y-96428556D01*
X125699054Y-96389515D01*
X125707816Y-96385051D01*
X125793333Y-96322920D01*
X125879786Y-96260109D01*
X125879788Y-96260106D01*
X125879792Y-96260104D01*
X126030104Y-96109792D01*
X126030106Y-96109788D01*
X126030109Y-96109786D01*
X126155048Y-95937820D01*
X126155047Y-95937820D01*
X126155051Y-95937816D01*
X126251557Y-95748412D01*
X126317246Y-95546243D01*
X126350500Y-95336287D01*
X126350500Y-95123713D01*
X126317246Y-94913757D01*
X126251557Y-94711588D01*
X126155051Y-94522184D01*
X126155049Y-94522181D01*
X126155048Y-94522179D01*
X126030109Y-94350213D01*
X125916569Y-94236673D01*
X125883084Y-94175350D01*
X125888068Y-94105658D01*
X125929940Y-94049725D01*
X125960915Y-94032810D01*
X126092331Y-93983796D01*
X126207546Y-93897546D01*
X126293796Y-93782331D01*
X126344091Y-93647483D01*
X126350500Y-93587873D01*
X126350499Y-91792128D01*
X126344091Y-91732517D01*
X126301463Y-91618226D01*
X126293797Y-91597671D01*
X126293793Y-91597664D01*
X126207547Y-91482455D01*
X126207544Y-91482452D01*
X126092335Y-91396206D01*
X126092328Y-91396202D01*
X125957482Y-91345908D01*
X125957483Y-91345908D01*
X125897883Y-91339501D01*
X125897881Y-91339500D01*
X125897873Y-91339500D01*
X125897864Y-91339500D01*
X124102129Y-91339500D01*
X124102123Y-91339501D01*
X124042516Y-91345908D01*
X123907671Y-91396202D01*
X123907664Y-91396206D01*
X123792455Y-91482452D01*
X123792452Y-91482455D01*
X123706206Y-91597664D01*
X123706202Y-91597671D01*
X123655908Y-91732517D01*
X123649963Y-91787816D01*
X123649501Y-91792123D01*
X123649500Y-91792135D01*
X121124951Y-91792135D01*
X120984316Y-91370229D01*
X120977129Y-91335106D01*
X120963568Y-91307984D01*
X120953979Y-91279217D01*
X120934225Y-91249298D01*
X120918193Y-91217234D01*
X120898078Y-91194550D01*
X120893228Y-91187203D01*
X120893221Y-91187194D01*
X120892621Y-91186286D01*
X120881368Y-91169242D01*
X120854544Y-91145456D01*
X120830759Y-91118633D01*
X120805453Y-91101924D01*
X120798862Y-91096080D01*
X120798862Y-91096079D01*
X120782765Y-91081806D01*
X120757357Y-91069102D01*
X120744497Y-91061677D01*
X120720783Y-91046021D01*
X120720780Y-91046019D01*
X120700373Y-91039217D01*
X120692012Y-91036430D01*
X120664894Y-91022871D01*
X120629772Y-91015683D01*
X118085288Y-90167522D01*
X118027913Y-90127648D01*
X118001205Y-90063084D01*
X118000500Y-90049885D01*
X118000500Y-89449047D01*
X118020185Y-89382008D01*
X118072989Y-89336253D01*
X118142147Y-89326309D01*
X118205703Y-89355334D01*
X118212181Y-89361366D01*
X118342786Y-89491971D01*
X118463281Y-89579514D01*
X118508390Y-89612287D01*
X118624607Y-89671503D01*
X118690776Y-89705218D01*
X118690778Y-89705218D01*
X118690781Y-89705220D01*
X118793379Y-89738556D01*
X118885465Y-89768477D01*
X118986557Y-89784488D01*
X119087648Y-89800500D01*
X119087649Y-89800500D01*
X119292351Y-89800500D01*
X119292352Y-89800500D01*
X119494534Y-89768477D01*
X119689219Y-89705220D01*
X119871610Y-89612287D01*
X119964590Y-89544732D01*
X120037213Y-89491971D01*
X120037215Y-89491968D01*
X120037219Y-89491966D01*
X120181966Y-89347219D01*
X120181968Y-89347215D01*
X120181971Y-89347213D01*
X120254186Y-89247816D01*
X120302287Y-89181610D01*
X120395220Y-88999219D01*
X120458477Y-88804534D01*
X120490500Y-88602352D01*
X120490500Y-88397648D01*
X125509500Y-88397648D01*
X125509500Y-88602351D01*
X125541522Y-88804534D01*
X125604781Y-88999223D01*
X125697715Y-89181613D01*
X125818028Y-89347213D01*
X125962786Y-89491971D01*
X126083281Y-89579514D01*
X126128390Y-89612287D01*
X126244607Y-89671503D01*
X126310776Y-89705218D01*
X126310778Y-89705218D01*
X126310781Y-89705220D01*
X126413379Y-89738556D01*
X126505465Y-89768477D01*
X126606557Y-89784488D01*
X126707648Y-89800500D01*
X126707649Y-89800500D01*
X126912351Y-89800500D01*
X126912352Y-89800500D01*
X127114534Y-89768477D01*
X127309219Y-89705220D01*
X127491610Y-89612287D01*
X127584590Y-89544732D01*
X127657213Y-89491971D01*
X127657215Y-89491968D01*
X127657219Y-89491966D01*
X127801966Y-89347219D01*
X127801968Y-89347215D01*
X127801971Y-89347213D01*
X127874186Y-89247816D01*
X127922287Y-89181610D01*
X128015220Y-88999219D01*
X128078477Y-88804534D01*
X128110500Y-88602352D01*
X128110500Y-88397648D01*
X128097206Y-88313713D01*
X128078477Y-88195465D01*
X128048679Y-88103757D01*
X128015220Y-88000781D01*
X128015218Y-88000778D01*
X128015218Y-88000776D01*
X127972539Y-87917015D01*
X127922287Y-87818390D01*
X127914556Y-87807749D01*
X127801971Y-87652786D01*
X127657213Y-87508028D01*
X127491613Y-87387715D01*
X127491612Y-87387714D01*
X127491610Y-87387713D01*
X127434653Y-87358691D01*
X127309223Y-87294781D01*
X127114534Y-87231522D01*
X126939995Y-87203878D01*
X126912352Y-87199500D01*
X126707648Y-87199500D01*
X126683329Y-87203351D01*
X126505465Y-87231522D01*
X126310776Y-87294781D01*
X126128386Y-87387715D01*
X125962786Y-87508028D01*
X125818028Y-87652786D01*
X125697715Y-87818386D01*
X125604781Y-88000776D01*
X125541522Y-88195465D01*
X125509500Y-88397648D01*
X120490500Y-88397648D01*
X120477206Y-88313713D01*
X120458477Y-88195465D01*
X120428679Y-88103757D01*
X120395220Y-88000781D01*
X120395218Y-88000778D01*
X120395218Y-88000776D01*
X120352539Y-87917015D01*
X120302287Y-87818390D01*
X120294556Y-87807749D01*
X120181971Y-87652786D01*
X120037213Y-87508028D01*
X119871613Y-87387715D01*
X119871612Y-87387714D01*
X119871610Y-87387713D01*
X119814653Y-87358691D01*
X119689223Y-87294781D01*
X119494534Y-87231522D01*
X119319995Y-87203878D01*
X119292352Y-87199500D01*
X119087648Y-87199500D01*
X119063329Y-87203351D01*
X118885465Y-87231522D01*
X118690776Y-87294781D01*
X118508386Y-87387715D01*
X118342786Y-87508028D01*
X118342782Y-87508032D01*
X118212181Y-87638634D01*
X118150858Y-87672119D01*
X118081166Y-87667135D01*
X118025233Y-87625263D01*
X118000816Y-87559799D01*
X118000500Y-87550953D01*
X118000500Y-86624500D01*
X118020185Y-86557461D01*
X118072989Y-86511706D01*
X118124500Y-86500500D01*
X120458576Y-86500500D01*
X120482714Y-86504523D01*
X120524209Y-86500500D01*
X120565892Y-86500500D01*
X120579614Y-86496822D01*
X120599731Y-86493177D01*
X120613883Y-86491806D01*
X120647306Y-86479284D01*
X120652922Y-86477179D01*
X120693186Y-86466392D01*
X120714376Y-86454157D01*
X120737291Y-86445573D01*
X120766350Y-86424815D01*
X120776390Y-86418353D01*
X120807314Y-86400500D01*
X120824617Y-86383196D01*
X120844529Y-86368974D01*
X120871024Y-86336789D01*
X120900500Y-86307314D01*
X120907602Y-86295011D01*
X120919250Y-86278208D01*
X120928287Y-86267232D01*
X120945550Y-86229284D01*
X120966392Y-86193186D01*
X120972724Y-86169550D01*
X120982858Y-86147277D01*
X120989711Y-86106154D01*
X121000500Y-86065892D01*
X121000500Y-86041424D01*
X121407048Y-83602135D01*
X124149500Y-83602135D01*
X124149500Y-85397870D01*
X124149501Y-85397876D01*
X124155908Y-85457483D01*
X124206202Y-85592328D01*
X124206206Y-85592335D01*
X124292452Y-85707544D01*
X124292455Y-85707547D01*
X124407664Y-85793793D01*
X124407671Y-85793797D01*
X124542517Y-85844091D01*
X124542516Y-85844091D01*
X124549444Y-85844835D01*
X124602127Y-85850500D01*
X126397872Y-85850499D01*
X126457483Y-85844091D01*
X126592331Y-85793796D01*
X126707546Y-85707546D01*
X126793796Y-85592331D01*
X126844091Y-85457483D01*
X126850500Y-85397873D01*
X126850499Y-83602128D01*
X126844091Y-83542517D01*
X126834545Y-83516924D01*
X126793797Y-83407671D01*
X126793793Y-83407664D01*
X126707547Y-83292455D01*
X126707544Y-83292452D01*
X126592335Y-83206206D01*
X126592328Y-83206202D01*
X126457482Y-83155908D01*
X126457483Y-83155908D01*
X126397883Y-83149501D01*
X126397881Y-83149500D01*
X126397873Y-83149500D01*
X126397864Y-83149500D01*
X124602129Y-83149500D01*
X124602123Y-83149501D01*
X124542516Y-83155908D01*
X124407671Y-83206202D01*
X124407664Y-83206206D01*
X124292455Y-83292452D01*
X124292452Y-83292455D01*
X124206206Y-83407664D01*
X124206202Y-83407671D01*
X124155908Y-83542517D01*
X124149501Y-83602116D01*
X124149501Y-83602123D01*
X124149500Y-83602135D01*
X121407048Y-83602135D01*
X121489711Y-83106156D01*
X121500500Y-83065892D01*
X121500500Y-83041424D01*
X121504523Y-83017286D01*
X121500500Y-82975790D01*
X121500500Y-82934108D01*
X121494167Y-82910474D01*
X121491806Y-82886117D01*
X121477180Y-82847077D01*
X121466392Y-82806814D01*
X121454157Y-82785623D01*
X121445573Y-82762709D01*
X121424826Y-82733664D01*
X121418346Y-82723597D01*
X121400500Y-82692686D01*
X121383194Y-82675380D01*
X121368974Y-82655472D01*
X121336794Y-82628980D01*
X121307314Y-82599500D01*
X121307312Y-82599499D01*
X121307310Y-82599497D01*
X121295005Y-82592393D01*
X121295005Y-82592392D01*
X121286115Y-82587259D01*
X121267232Y-82571714D01*
X121229309Y-82554461D01*
X121224111Y-82551460D01*
X121224100Y-82551455D01*
X121193188Y-82533609D01*
X121193183Y-82533607D01*
X121179454Y-82529928D01*
X121179454Y-82529927D01*
X121169539Y-82527270D01*
X121147277Y-82517143D01*
X121106179Y-82510293D01*
X121100382Y-82508740D01*
X121100373Y-82508739D01*
X121098156Y-82508145D01*
X121065892Y-82499500D01*
X121065889Y-82499500D01*
X121041418Y-82499500D01*
X121017286Y-82495478D01*
X120975798Y-82499500D01*
X118624500Y-82499500D01*
X118557461Y-82479815D01*
X118511706Y-82427011D01*
X118500500Y-82375500D01*
X118500500Y-81449047D01*
X118520185Y-81382008D01*
X118572989Y-81336253D01*
X118642147Y-81326309D01*
X118705703Y-81355334D01*
X118712181Y-81361366D01*
X118842786Y-81491971D01*
X118963226Y-81579474D01*
X119008390Y-81612287D01*
X119124607Y-81671503D01*
X119190776Y-81705218D01*
X119190778Y-81705218D01*
X119190781Y-81705220D01*
X119295137Y-81739127D01*
X119385465Y-81768477D01*
X119486557Y-81784488D01*
X119587648Y-81800500D01*
X119587649Y-81800500D01*
X119792351Y-81800500D01*
X119792352Y-81800500D01*
X119994534Y-81768477D01*
X120189219Y-81705220D01*
X120371610Y-81612287D01*
X120498379Y-81520185D01*
X120537213Y-81491971D01*
X120537215Y-81491968D01*
X120537219Y-81491966D01*
X120681966Y-81347219D01*
X120681968Y-81347215D01*
X120681971Y-81347213D01*
X120760144Y-81239615D01*
X120802287Y-81181610D01*
X120895220Y-80999219D01*
X120958477Y-80804534D01*
X120990500Y-80602352D01*
X120990500Y-80397648D01*
X120982257Y-80345606D01*
X120958477Y-80195465D01*
X120927458Y-80100000D01*
X120895220Y-80000781D01*
X120895218Y-80000778D01*
X120895218Y-80000776D01*
X120861503Y-79934607D01*
X120802287Y-79818390D01*
X120770092Y-79774077D01*
X120681971Y-79652786D01*
X120537213Y-79508028D01*
X120371613Y-79387715D01*
X120371612Y-79387714D01*
X120371610Y-79387713D01*
X120314653Y-79358691D01*
X120189223Y-79294781D01*
X120028106Y-79242431D01*
X119970431Y-79202993D01*
X119943233Y-79138634D01*
X119955148Y-79069788D01*
X120002392Y-79018312D01*
X120066425Y-79000500D01*
X126933575Y-79000500D01*
X127000614Y-79020185D01*
G37*
%TD.AperFunction*%
%TA.AperFunction,Conductor*%
G36*
X158442539Y-79020185D02*
G01*
X158488294Y-79072989D01*
X158499500Y-79124500D01*
X158499500Y-81065891D01*
X158533608Y-81193187D01*
X158552508Y-81225922D01*
X158599500Y-81307314D01*
X158692686Y-81400500D01*
X158806814Y-81466392D01*
X158934108Y-81500500D01*
X162875500Y-81500500D01*
X162942539Y-81520185D01*
X162988294Y-81572989D01*
X162999500Y-81624500D01*
X162999500Y-82270730D01*
X162979815Y-82337769D01*
X162927011Y-82383524D01*
X162857853Y-82393468D01*
X162794297Y-82364443D01*
X162776234Y-82345042D01*
X162707187Y-82252809D01*
X162592093Y-82166649D01*
X162592086Y-82166645D01*
X162457379Y-82116403D01*
X162457372Y-82116401D01*
X162397844Y-82110000D01*
X161750000Y-82110000D01*
X161750000Y-83026988D01*
X161692993Y-82994075D01*
X161565826Y-82960000D01*
X161434174Y-82960000D01*
X161307007Y-82994075D01*
X161250000Y-83026988D01*
X161250000Y-82110000D01*
X160602155Y-82110000D01*
X160542627Y-82116401D01*
X160542620Y-82116403D01*
X160407913Y-82166645D01*
X160407906Y-82166649D01*
X160292812Y-82252809D01*
X160292809Y-82252812D01*
X160206649Y-82367906D01*
X160206645Y-82367913D01*
X160156403Y-82502620D01*
X160156401Y-82502627D01*
X160150000Y-82562155D01*
X160150000Y-83210000D01*
X161066988Y-83210000D01*
X161034075Y-83267007D01*
X161000000Y-83394174D01*
X161000000Y-83525826D01*
X161034075Y-83652993D01*
X161066988Y-83710000D01*
X160150000Y-83710000D01*
X160150000Y-84357844D01*
X160156401Y-84417372D01*
X160156403Y-84417379D01*
X160206645Y-84552086D01*
X160206649Y-84552093D01*
X160292809Y-84667187D01*
X160292812Y-84667190D01*
X160407906Y-84753350D01*
X160407913Y-84753354D01*
X160539470Y-84802422D01*
X160595404Y-84844293D01*
X160619821Y-84909758D01*
X160604969Y-84978031D01*
X160583819Y-85006285D01*
X160469889Y-85120215D01*
X160344951Y-85292179D01*
X160248444Y-85481585D01*
X160182753Y-85683760D01*
X160163184Y-85807314D01*
X160149500Y-85893713D01*
X160149500Y-86106287D01*
X160150417Y-86112075D01*
X160181339Y-86307314D01*
X160182754Y-86316243D01*
X160243930Y-86504523D01*
X160248444Y-86518414D01*
X160344951Y-86707820D01*
X160469890Y-86879786D01*
X160620213Y-87030109D01*
X160792182Y-87155050D01*
X160800946Y-87159516D01*
X160851742Y-87207491D01*
X160868536Y-87275312D01*
X160845998Y-87341447D01*
X160800946Y-87380484D01*
X160792182Y-87384949D01*
X160620213Y-87509890D01*
X160469890Y-87660213D01*
X160344951Y-87832179D01*
X160248444Y-88021585D01*
X160182753Y-88223760D01*
X160155518Y-88395713D01*
X160125589Y-88458848D01*
X160066277Y-88495779D01*
X159996414Y-88494781D01*
X159945364Y-88463996D01*
X158898421Y-87417052D01*
X158898414Y-87417046D01*
X158798818Y-87350499D01*
X158798817Y-87350499D01*
X158775495Y-87334916D01*
X158775488Y-87334912D01*
X158638917Y-87278343D01*
X158638907Y-87278340D01*
X158493920Y-87249500D01*
X158493918Y-87249500D01*
X157362230Y-87249500D01*
X157332789Y-87240855D01*
X157302803Y-87234332D01*
X157297787Y-87230577D01*
X157295191Y-87229815D01*
X157274549Y-87213181D01*
X157246071Y-87184703D01*
X157219191Y-87144475D01*
X157209394Y-87120821D01*
X157187161Y-87087547D01*
X157121789Y-86989710D01*
X157010292Y-86878213D01*
X157010288Y-86878210D01*
X156879185Y-86790609D01*
X156879172Y-86790602D01*
X156733501Y-86730264D01*
X156733491Y-86730261D01*
X156599308Y-86703570D01*
X156537397Y-86671185D01*
X156502823Y-86610469D01*
X156499500Y-86581953D01*
X156499500Y-84323229D01*
X156506701Y-84298702D01*
X156509975Y-84273349D01*
X156517286Y-84262654D01*
X156519185Y-84256190D01*
X156528626Y-84243386D01*
X156532052Y-84239314D01*
X156582952Y-84188415D01*
X156610205Y-84147627D01*
X156665084Y-84065495D01*
X156699841Y-83981584D01*
X156721659Y-83928912D01*
X156750500Y-83783917D01*
X156750500Y-83636082D01*
X156750500Y-83014604D01*
X156759939Y-82967151D01*
X156762901Y-82960000D01*
X156769737Y-82943497D01*
X156800500Y-82788842D01*
X156800500Y-82631158D01*
X156800500Y-82631155D01*
X156800499Y-82631153D01*
X156790930Y-82583042D01*
X156769738Y-82476508D01*
X156769737Y-82476507D01*
X156769737Y-82476503D01*
X156723321Y-82364443D01*
X156709397Y-82330827D01*
X156709390Y-82330814D01*
X156621789Y-82199711D01*
X156621786Y-82199707D01*
X156510292Y-82088213D01*
X156510288Y-82088210D01*
X156379185Y-82000609D01*
X156379175Y-82000604D01*
X156342841Y-81985554D01*
X156288438Y-81941713D01*
X156266373Y-81875419D01*
X156283652Y-81807719D01*
X156334790Y-81760109D01*
X156351976Y-81753062D01*
X156499219Y-81705220D01*
X156681610Y-81612287D01*
X156808379Y-81520185D01*
X156847213Y-81491971D01*
X156847215Y-81491968D01*
X156847219Y-81491966D01*
X156991966Y-81347219D01*
X156991968Y-81347215D01*
X156991971Y-81347213D01*
X157070144Y-81239615D01*
X157112287Y-81181610D01*
X157205220Y-80999219D01*
X157268477Y-80804534D01*
X157300500Y-80602352D01*
X157300500Y-80397648D01*
X157292257Y-80345606D01*
X157268477Y-80195465D01*
X157237458Y-80100000D01*
X157205220Y-80000781D01*
X157205218Y-80000778D01*
X157205218Y-80000776D01*
X157171503Y-79934607D01*
X157112287Y-79818390D01*
X157080092Y-79774077D01*
X156991971Y-79652786D01*
X156847213Y-79508028D01*
X156681613Y-79387715D01*
X156681612Y-79387714D01*
X156681610Y-79387713D01*
X156624653Y-79358691D01*
X156499223Y-79294781D01*
X156338106Y-79242431D01*
X156280431Y-79202993D01*
X156253233Y-79138634D01*
X156265148Y-79069788D01*
X156312392Y-79018312D01*
X156376425Y-79000500D01*
X158375500Y-79000500D01*
X158442539Y-79020185D01*
G37*
%TD.AperFunction*%
%TA.AperFunction,Conductor*%
G36*
X155690614Y-79020185D02*
G01*
X155736369Y-79072989D01*
X155746313Y-79142147D01*
X155717288Y-79205703D01*
X155661894Y-79242431D01*
X155500776Y-79294781D01*
X155318386Y-79387715D01*
X155152786Y-79508028D01*
X155008032Y-79652782D01*
X155008028Y-79652787D01*
X154933430Y-79755463D01*
X154878100Y-79798129D01*
X154808487Y-79804108D01*
X154746692Y-79771502D01*
X154712334Y-79710664D01*
X154709822Y-79695831D01*
X154704091Y-79642516D01*
X154653797Y-79507671D01*
X154653793Y-79507664D01*
X154567547Y-79392455D01*
X154567544Y-79392452D01*
X154452335Y-79306206D01*
X154452328Y-79306202D01*
X154317482Y-79255908D01*
X154317483Y-79255908D01*
X154257883Y-79249501D01*
X154257881Y-79249500D01*
X154257873Y-79249500D01*
X154257864Y-79249500D01*
X152662129Y-79249500D01*
X152662123Y-79249501D01*
X152602516Y-79255908D01*
X152467671Y-79306202D01*
X152467664Y-79306206D01*
X152352455Y-79392452D01*
X152352452Y-79392455D01*
X152266206Y-79507664D01*
X152266202Y-79507671D01*
X152215908Y-79642516D01*
X152210096Y-79696576D01*
X152183357Y-79761127D01*
X152125964Y-79800974D01*
X152056139Y-79803467D01*
X152007698Y-79774724D01*
X151999474Y-79774076D01*
X151320000Y-80453553D01*
X151320000Y-80447339D01*
X151292741Y-80345606D01*
X151240080Y-80254394D01*
X151165606Y-80179920D01*
X151074394Y-80127259D01*
X150972661Y-80100000D01*
X150966446Y-80100000D01*
X151645922Y-79420524D01*
X151645921Y-79420523D01*
X151601359Y-79388147D01*
X151601350Y-79388141D01*
X151419031Y-79295244D01*
X151256490Y-79242431D01*
X151198815Y-79202993D01*
X151171617Y-79138634D01*
X151183532Y-79069788D01*
X151230776Y-79018312D01*
X151294809Y-79000500D01*
X155623575Y-79000500D01*
X155690614Y-79020185D01*
G37*
%TD.AperFunction*%
%TD*%
M02*
