%TF.GenerationSoftware,KiCad,Pcbnew,9.0.7*%
%TF.CreationDate,2026-02-17T02:34:39-06:00*%
%TF.ProjectId,Esp12-F,45737031-322d-4462-9e6b-696361645f70,rev?*%
%TF.SameCoordinates,Original*%
%TF.FileFunction,Copper,L2,Bot*%
%TF.FilePolarity,Positive*%
%FSLAX46Y46*%
G04 Gerber Fmt 4.6, Leading zero omitted, Abs format (unit mm)*
G04 Created by KiCad (PCBNEW 9.0.7) date 2026-02-17 02:34:39*
%MOMM*%
%LPD*%
G01*
G04 APERTURE LIST*
G04 Aperture macros list*
%AMRoundRect*
0 Rectangle with rounded corners*
0 $1 Rounding radius*
0 $2 $3 $4 $5 $6 $7 $8 $9 X,Y pos of 4 corners*
0 Add a 4 corners polygon primitive as box body*
4,1,4,$2,$3,$4,$5,$6,$7,$8,$9,$2,$3,0*
0 Add four circle primitives for the rounded corners*
1,1,$1+$1,$2,$3*
1,1,$1+$1,$4,$5*
1,1,$1+$1,$6,$7*
1,1,$1+$1,$8,$9*
0 Add four rect primitives between the rounded corners*
20,1,$1+$1,$2,$3,$4,$5,0*
20,1,$1+$1,$4,$5,$6,$7,0*
20,1,$1+$1,$6,$7,$8,$9,0*
20,1,$1+$1,$8,$9,$2,$3,0*%
G04 Aperture macros list end*
%TA.AperFunction,ComponentPad*%
%ADD10R,1.700000X1.700000*%
%TD*%
%TA.AperFunction,ComponentPad*%
%ADD11C,1.600000*%
%TD*%
%TA.AperFunction,ComponentPad*%
%ADD12RoundRect,0.250000X-0.550000X-0.550000X0.550000X-0.550000X0.550000X0.550000X-0.550000X0.550000X0*%
%TD*%
%TA.AperFunction,ComponentPad*%
%ADD13C,1.700000*%
%TD*%
%TA.AperFunction,ComponentPad*%
%ADD14R,1.500000X1.500000*%
%TD*%
%TA.AperFunction,ViaPad*%
%ADD15C,0.600000*%
%TD*%
%TA.AperFunction,Conductor*%
%ADD16C,0.500000*%
%TD*%
G04 APERTURE END LIST*
D10*
%TO.P,RST,1,Pin_1*%
%TO.N,Net-(J9-Pin_1)*%
X125500000Y-84500000D03*
%TD*%
D11*
%TO.P,C2,1*%
%TO.N,GND*%
X135500000Y-109500000D03*
%TO.P,C2,2*%
%TO.N,3.3V*%
X135500000Y-104500000D03*
%TD*%
%TO.P,R3,1*%
%TO.N,GND*%
X150190000Y-100500000D03*
%TO.P,R3,2*%
%TO.N,Net-(U1-GPIO15)*%
X157810000Y-100500000D03*
%TD*%
D12*
%TO.P,C1,1*%
%TO.N,GND*%
X140044888Y-106500000D03*
D11*
%TO.P,C1,2*%
%TO.N,3.3V*%
X142044888Y-106500000D03*
%TD*%
D10*
%TO.P,J3,1,Pin_1*%
%TO.N,Net-(J3-Pin_1)*%
X127000000Y-92380000D03*
D13*
%TO.P,J3,2,Pin_2*%
%TO.N,Net-(J3-Pin_2)*%
X127000000Y-94920000D03*
%TO.P,J3,3,Pin_3*%
%TO.N,Net-(J3-Pin_3)*%
X127000000Y-97460000D03*
%TO.P,J3,4,Pin_4*%
%TO.N,Net-(J3-Pin_4)*%
X127000000Y-100000000D03*
%TD*%
D10*
%TO.P,J1,1,Pin_1*%
%TO.N,GND*%
X158500000Y-83960000D03*
D13*
%TO.P,J1,2,Pin_2*%
%TO.N,unconnected-(J1-Pin_2-Pad2)*%
X158500000Y-86500000D03*
%TO.P,J1,3,Pin_3*%
%TO.N,Net-(J1-Pin_3)*%
X158500000Y-89040000D03*
%TO.P,J1,4,Pin_4*%
%TO.N,Net-(J1-Pin_4)*%
X158500000Y-91580000D03*
%TO.P,J1,5,Pin_5*%
%TO.N,unconnected-(J1-Pin_5-Pad5)*%
X158500000Y-94120000D03*
%TO.P,J1,6,Pin_6*%
%TO.N,3.3V*%
X158500000Y-96660000D03*
%TD*%
D10*
%TO.P,J6,1,Pin_1*%
%TO.N,Net-(J1-Pin_4)*%
X150000000Y-84690000D03*
D13*
%TO.P,J6,2,Pin_2*%
%TO.N,Net-(J1-Pin_3)*%
X150000000Y-87230000D03*
%TO.P,J6,3,Pin_3*%
%TO.N,Net-(J6-Pin_3)*%
X150000000Y-89770000D03*
%TO.P,J6,4,Pin_4*%
%TO.N,Net-(J6-Pin_4)*%
X150000000Y-92310000D03*
%TD*%
D14*
%TO.P,SW2,1,A*%
%TO.N,Net-(SW2-A)*%
X153460000Y-80500000D03*
D11*
%TO.P,SW2,2,B*%
%TO.N,GND*%
X150920000Y-80500000D03*
%TO.P,SW2,3,C*%
%TO.N,Net-(SW2-C)*%
X156000000Y-80500000D03*
%TD*%
%TO.P,R2,1*%
%TO.N,3.3V*%
X119690000Y-80500000D03*
%TO.P,R2,2*%
%TO.N,Net-(U1-~{RST})*%
X127310000Y-80500000D03*
%TD*%
%TO.P,R4,1*%
%TO.N,3.3V*%
X157620000Y-103500000D03*
%TO.P,R4,2*%
%TO.N,Net-(U1-GPIO2)*%
X150000000Y-103500000D03*
%TD*%
%TO.P,R1,1*%
%TO.N,3.3V*%
X119190000Y-88500000D03*
%TO.P,R1,2*%
%TO.N,Net-(U1-EN)*%
X126810000Y-88500000D03*
%TD*%
%TO.P,R5,1*%
%TO.N,3.3V*%
X150000000Y-106500000D03*
%TO.P,R5,2*%
%TO.N,Net-(SW2-C)*%
X157620000Y-106500000D03*
%TD*%
D15*
%TO.N,Net-(J1-Pin_4)*%
X156000000Y-87500000D03*
%TO.N,GND*%
X152770709Y-86055030D03*
%TO.N,Net-(SW2-C)*%
X154500000Y-82710000D03*
%TO.N,Net-(SW2-A)*%
X150500000Y-95000000D03*
%TO.N,Net-(U1-GPIO2)*%
X148500000Y-97000000D03*
X149000000Y-101500000D03*
%TD*%
D16*
%TO.N,Net-(J1-Pin_4)*%
X156500000Y-89580000D02*
X158500000Y-91580000D01*
X156500000Y-88000000D02*
X156500000Y-89580000D01*
X156000000Y-87500000D02*
X156500000Y-88000000D01*
%TO.N,Net-(SW2-C)*%
X159500000Y-104620000D02*
X157620000Y-106500000D01*
X159500000Y-100000000D02*
X159500000Y-104620000D01*
X154500000Y-85210000D02*
X154000000Y-85710000D01*
X154000000Y-85710000D02*
X154000000Y-94500000D01*
X154500000Y-82710000D02*
X154500000Y-85210000D01*
X154000000Y-94500000D02*
X159500000Y-100000000D01*
%TO.N,GND*%
X150500000Y-100190000D02*
X150190000Y-100500000D01*
X151500000Y-98000000D02*
X150500000Y-99000000D01*
X151500000Y-96500000D02*
X151500000Y-98000000D01*
X153000000Y-95000000D02*
X151500000Y-96500000D01*
X152770709Y-86055030D02*
X153000000Y-86284321D01*
X153000000Y-86284321D02*
X153000000Y-95000000D01*
X150500000Y-99000000D02*
X150500000Y-100190000D01*
%TO.N,Net-(SW2-A)*%
X152000000Y-94500000D02*
X152000000Y-81960000D01*
X152000000Y-81960000D02*
X153460000Y-80500000D01*
X151500000Y-95000000D02*
X152000000Y-94500000D01*
X150500000Y-95000000D02*
X151500000Y-95000000D01*
%TO.N,3.3V*%
X150000000Y-106500000D02*
X142044888Y-106500000D01*
%TO.N,Net-(U1-GPIO2)*%
X148939000Y-99061000D02*
X149500000Y-98500000D01*
X149500000Y-98000000D02*
X148500000Y-97000000D01*
X148939000Y-101018182D02*
X148939000Y-99061000D01*
X149000000Y-101079182D02*
X148939000Y-101018182D01*
X149500000Y-98500000D02*
X149500000Y-98000000D01*
X149000000Y-101500000D02*
X149000000Y-101079182D01*
%TD*%
%TA.AperFunction,Conductor*%
%TO.N,GND*%
G36*
X127000614Y-79020185D02*
G01*
X127046369Y-79072989D01*
X127056313Y-79142147D01*
X127027288Y-79205703D01*
X126971894Y-79242431D01*
X126810776Y-79294781D01*
X126628386Y-79387715D01*
X126462786Y-79508028D01*
X126318028Y-79652786D01*
X126197715Y-79818386D01*
X126104781Y-80000776D01*
X126041522Y-80195465D01*
X126009500Y-80397648D01*
X126009500Y-80602351D01*
X126041522Y-80804534D01*
X126104781Y-80999223D01*
X126142008Y-81072283D01*
X126197585Y-81181359D01*
X126197715Y-81181613D01*
X126318028Y-81347213D01*
X126462786Y-81491971D01*
X126558645Y-81561615D01*
X126628390Y-81612287D01*
X126744607Y-81671503D01*
X126810776Y-81705218D01*
X126810778Y-81705218D01*
X126810781Y-81705220D01*
X126915137Y-81739127D01*
X127005465Y-81768477D01*
X127016243Y-81770184D01*
X127207648Y-81800500D01*
X127207649Y-81800500D01*
X127412351Y-81800500D01*
X127412352Y-81800500D01*
X127614534Y-81768477D01*
X127809219Y-81705220D01*
X127811031Y-81704297D01*
X127846481Y-81686234D01*
X127991610Y-81612287D01*
X128099903Y-81533608D01*
X128157213Y-81491971D01*
X128157215Y-81491968D01*
X128157219Y-81491966D01*
X128287819Y-81361366D01*
X128349142Y-81327881D01*
X128418834Y-81332865D01*
X128474767Y-81374737D01*
X128499184Y-81440201D01*
X128499500Y-81449047D01*
X128499500Y-82065891D01*
X128533608Y-82193187D01*
X128537375Y-82199711D01*
X128599500Y-82307314D01*
X128692686Y-82400500D01*
X128806814Y-82466392D01*
X128907594Y-82493395D01*
X128967254Y-82529760D01*
X128997783Y-82592607D01*
X128999500Y-82613170D01*
X128999500Y-85434108D01*
X128999500Y-85565892D01*
X129006584Y-85592331D01*
X129033608Y-85693187D01*
X129047492Y-85717234D01*
X129099500Y-85807314D01*
X129192686Y-85900500D01*
X129250897Y-85934108D01*
X129303041Y-85964214D01*
X129306814Y-85966392D01*
X129434108Y-86000500D01*
X146982147Y-86000500D01*
X147030065Y-86003923D01*
X147047817Y-86000500D01*
X147065892Y-86000500D01*
X147108029Y-85989208D01*
X147116607Y-85987234D01*
X147159466Y-85978971D01*
X147175726Y-85971070D01*
X147193186Y-85966392D01*
X147234790Y-85942371D01*
X147277999Y-85921377D01*
X147282703Y-85917299D01*
X147301921Y-85903612D01*
X147307314Y-85900500D01*
X147341285Y-85866528D01*
X147377587Y-85835067D01*
X147387717Y-85820096D01*
X147400500Y-85807314D01*
X147424519Y-85765710D01*
X147451443Y-85725924D01*
X147457353Y-85708840D01*
X147466392Y-85693186D01*
X147478826Y-85646779D01*
X147494533Y-85601384D01*
X147495820Y-85583355D01*
X147500500Y-85565892D01*
X147500500Y-85522271D01*
X147500815Y-85513436D01*
X147867205Y-80383981D01*
X147957799Y-79115665D01*
X147982210Y-79050199D01*
X148038140Y-79008322D01*
X148081484Y-79000500D01*
X150545191Y-79000500D01*
X150612230Y-79020185D01*
X150657985Y-79072989D01*
X150667929Y-79142147D01*
X150638904Y-79205703D01*
X150583510Y-79242431D01*
X150420968Y-79295244D01*
X150238644Y-79388143D01*
X150194077Y-79420523D01*
X150194077Y-79420524D01*
X150873554Y-80100000D01*
X150867339Y-80100000D01*
X150765606Y-80127259D01*
X150674394Y-80179920D01*
X150599920Y-80254394D01*
X150547259Y-80345606D01*
X150520000Y-80447339D01*
X150520000Y-80453553D01*
X149840524Y-79774077D01*
X149840523Y-79774077D01*
X149808143Y-79818644D01*
X149715244Y-80000968D01*
X149652009Y-80195582D01*
X149620000Y-80397682D01*
X149620000Y-80602317D01*
X149652009Y-80804417D01*
X149715244Y-80999031D01*
X149808141Y-81181350D01*
X149808147Y-81181359D01*
X149840523Y-81225921D01*
X149840524Y-81225922D01*
X150520000Y-80546446D01*
X150520000Y-80552661D01*
X150547259Y-80654394D01*
X150599920Y-80745606D01*
X150674394Y-80820080D01*
X150765606Y-80872741D01*
X150867339Y-80900000D01*
X150873553Y-80900000D01*
X150194076Y-81579474D01*
X150238650Y-81611859D01*
X150420968Y-81704755D01*
X150615582Y-81767990D01*
X150817683Y-81800000D01*
X151022316Y-81800000D01*
X151106101Y-81786729D01*
X151175395Y-81795683D01*
X151228847Y-81840679D01*
X151249487Y-81907430D01*
X151249500Y-81909202D01*
X151249500Y-83276230D01*
X151229815Y-83343269D01*
X151177011Y-83389024D01*
X151107853Y-83398968D01*
X151082168Y-83392412D01*
X150957485Y-83345909D01*
X150957483Y-83345908D01*
X150897883Y-83339501D01*
X150897881Y-83339500D01*
X150897873Y-83339500D01*
X150897864Y-83339500D01*
X149102129Y-83339500D01*
X149102123Y-83339501D01*
X149042516Y-83345908D01*
X148907671Y-83396202D01*
X148907664Y-83396206D01*
X148792455Y-83482452D01*
X148792452Y-83482455D01*
X148706206Y-83597664D01*
X148706202Y-83597671D01*
X148655908Y-83732517D01*
X148649501Y-83792116D01*
X148649500Y-83792135D01*
X148649500Y-85587870D01*
X148649501Y-85587876D01*
X148655908Y-85647483D01*
X148706202Y-85782328D01*
X148706206Y-85782335D01*
X148792452Y-85897544D01*
X148792455Y-85897547D01*
X148907664Y-85983793D01*
X148907671Y-85983797D01*
X149039082Y-86032810D01*
X149095016Y-86074681D01*
X149119433Y-86140145D01*
X149104582Y-86208418D01*
X149083431Y-86236673D01*
X148969889Y-86350215D01*
X148844951Y-86522179D01*
X148748444Y-86711585D01*
X148682753Y-86913760D01*
X148649500Y-87123713D01*
X148649500Y-87336286D01*
X148680198Y-87530109D01*
X148682754Y-87546243D01*
X148743594Y-87733489D01*
X148748444Y-87748414D01*
X148844951Y-87937820D01*
X148969890Y-88109786D01*
X149120213Y-88260109D01*
X149292182Y-88385050D01*
X149300946Y-88389516D01*
X149351742Y-88437491D01*
X149368536Y-88505312D01*
X149345998Y-88571447D01*
X149300946Y-88610484D01*
X149292182Y-88614949D01*
X149120213Y-88739890D01*
X148969890Y-88890213D01*
X148844951Y-89062179D01*
X148748444Y-89251585D01*
X148682753Y-89453760D01*
X148649500Y-89663713D01*
X148649500Y-89876286D01*
X148680198Y-90070109D01*
X148682754Y-90086243D01*
X148709163Y-90167522D01*
X148748444Y-90288414D01*
X148844951Y-90477820D01*
X148969890Y-90649786D01*
X149120213Y-90800109D01*
X149292182Y-90925050D01*
X149300946Y-90929516D01*
X149351742Y-90977491D01*
X149368536Y-91045312D01*
X149345998Y-91111447D01*
X149300946Y-91150484D01*
X149292182Y-91154949D01*
X149120213Y-91279890D01*
X148969890Y-91430213D01*
X148844951Y-91602179D01*
X148748444Y-91791585D01*
X148682753Y-91993760D01*
X148649500Y-92203713D01*
X148649500Y-92416286D01*
X148682753Y-92626239D01*
X148748444Y-92828414D01*
X148844951Y-93017820D01*
X148969890Y-93189786D01*
X149120213Y-93340109D01*
X149292179Y-93465048D01*
X149292181Y-93465049D01*
X149292184Y-93465051D01*
X149481588Y-93561557D01*
X149683757Y-93627246D01*
X149893713Y-93660500D01*
X149893714Y-93660500D01*
X150106286Y-93660500D01*
X150106287Y-93660500D01*
X150316243Y-93627246D01*
X150518412Y-93561557D01*
X150707816Y-93465051D01*
X150729789Y-93449086D01*
X150879786Y-93340109D01*
X150879788Y-93340106D01*
X150879792Y-93340104D01*
X151030104Y-93189792D01*
X151030107Y-93189787D01*
X151031214Y-93188493D01*
X151031758Y-93188137D01*
X151033549Y-93186347D01*
X151033925Y-93186723D01*
X151089723Y-93150302D01*
X151159591Y-93149807D01*
X151218635Y-93187164D01*
X151248110Y-93250512D01*
X151249500Y-93269029D01*
X151249500Y-94125500D01*
X151229815Y-94192539D01*
X151177011Y-94238294D01*
X151125500Y-94249500D01*
X150804604Y-94249500D01*
X150757155Y-94240062D01*
X150733497Y-94230263D01*
X150733493Y-94230262D01*
X150733488Y-94230260D01*
X150578845Y-94199500D01*
X150578842Y-94199500D01*
X150421158Y-94199500D01*
X150421155Y-94199500D01*
X150266510Y-94230261D01*
X150266498Y-94230264D01*
X150120827Y-94290602D01*
X150120814Y-94290609D01*
X149989711Y-94378210D01*
X149989707Y-94378213D01*
X149878213Y-94489707D01*
X149878210Y-94489711D01*
X149790609Y-94620814D01*
X149790602Y-94620827D01*
X149730264Y-94766498D01*
X149730261Y-94766510D01*
X149699500Y-94921153D01*
X149699500Y-95078846D01*
X149730261Y-95233489D01*
X149730264Y-95233501D01*
X149790602Y-95379172D01*
X149790609Y-95379185D01*
X149878210Y-95510288D01*
X149878213Y-95510292D01*
X149989707Y-95621786D01*
X149989711Y-95621789D01*
X150120814Y-95709390D01*
X150120827Y-95709397D01*
X150220060Y-95750500D01*
X150266503Y-95769737D01*
X150417569Y-95799786D01*
X150421153Y-95800499D01*
X150421156Y-95800500D01*
X150421158Y-95800500D01*
X150578844Y-95800500D01*
X150578845Y-95800499D01*
X150680856Y-95780208D01*
X150733488Y-95769739D01*
X150733489Y-95769738D01*
X150733497Y-95769737D01*
X150757155Y-95759937D01*
X150804604Y-95750500D01*
X151573920Y-95750500D01*
X151671462Y-95731096D01*
X151718913Y-95721658D01*
X151855495Y-95665084D01*
X151922805Y-95620109D01*
X151978416Y-95582952D01*
X152582952Y-94978416D01*
X152584364Y-94976301D01*
X152637257Y-94897141D01*
X152637258Y-94897139D01*
X152665084Y-94855495D01*
X152721658Y-94718913D01*
X152750500Y-94573918D01*
X152750500Y-82322229D01*
X152770185Y-82255190D01*
X152786815Y-82234552D01*
X153234549Y-81786817D01*
X153295872Y-81753333D01*
X153322230Y-81750499D01*
X154101242Y-81750499D01*
X154168281Y-81770184D01*
X154214036Y-81822988D01*
X154223980Y-81892146D01*
X154194955Y-81955702D01*
X154148695Y-81989060D01*
X154120823Y-82000604D01*
X154120814Y-82000609D01*
X153989711Y-82088210D01*
X153989707Y-82088213D01*
X153878213Y-82199707D01*
X153878210Y-82199711D01*
X153790609Y-82330814D01*
X153790602Y-82330827D01*
X153730264Y-82476498D01*
X153730261Y-82476510D01*
X153699500Y-82631153D01*
X153699500Y-82788846D01*
X153719571Y-82889747D01*
X153730263Y-82943497D01*
X153739746Y-82966392D01*
X153740061Y-82967151D01*
X153749500Y-83014604D01*
X153749500Y-84847769D01*
X153729815Y-84914808D01*
X153713181Y-84935450D01*
X153417050Y-85231580D01*
X153417044Y-85231588D01*
X153367812Y-85305268D01*
X153367813Y-85305269D01*
X153334921Y-85354496D01*
X153334914Y-85354508D01*
X153278342Y-85491086D01*
X153278340Y-85491092D01*
X153249500Y-85636079D01*
X153249500Y-85636082D01*
X153249500Y-94573918D01*
X153249500Y-94573920D01*
X153249499Y-94573920D01*
X153278340Y-94718907D01*
X153278343Y-94718917D01*
X153334913Y-94855490D01*
X153334914Y-94855492D01*
X153362742Y-94897139D01*
X153362743Y-94897141D01*
X153417043Y-94978410D01*
X153417047Y-94978415D01*
X153417048Y-94978416D01*
X155517478Y-97078846D01*
X157486685Y-99048052D01*
X157520170Y-99109375D01*
X157515186Y-99179067D01*
X157473314Y-99235000D01*
X157437323Y-99253664D01*
X157310776Y-99294781D01*
X157128386Y-99387715D01*
X156962786Y-99508028D01*
X156818028Y-99652786D01*
X156697715Y-99818386D01*
X156604781Y-100000776D01*
X156541522Y-100195465D01*
X156509500Y-100397648D01*
X156509500Y-100602351D01*
X156541522Y-100804534D01*
X156604781Y-100999223D01*
X156652105Y-101092100D01*
X156684180Y-101155051D01*
X156697715Y-101181613D01*
X156818028Y-101347213D01*
X156962786Y-101491971D01*
X157082362Y-101578846D01*
X157128390Y-101612287D01*
X157238288Y-101668283D01*
X157310776Y-101705218D01*
X157310778Y-101705218D01*
X157310781Y-101705220D01*
X157397784Y-101733489D01*
X157505465Y-101768477D01*
X157592228Y-101782219D01*
X157707648Y-101800500D01*
X157707649Y-101800500D01*
X157912351Y-101800500D01*
X157912352Y-101800500D01*
X158114534Y-101768477D01*
X158309219Y-101705220D01*
X158491610Y-101612287D01*
X158537638Y-101578846D01*
X158552615Y-101567965D01*
X158618421Y-101544485D01*
X158686475Y-101560311D01*
X158735170Y-101610416D01*
X158749500Y-101668283D01*
X158749500Y-102490953D01*
X158729815Y-102557992D01*
X158677011Y-102603747D01*
X158607853Y-102613691D01*
X158544297Y-102584666D01*
X158537819Y-102578634D01*
X158467213Y-102508028D01*
X158301613Y-102387715D01*
X158301612Y-102387714D01*
X158301610Y-102387713D01*
X158226931Y-102349662D01*
X158119223Y-102294781D01*
X157924534Y-102231522D01*
X157749995Y-102203878D01*
X157722352Y-102199500D01*
X157517648Y-102199500D01*
X157493329Y-102203351D01*
X157315465Y-102231522D01*
X157120776Y-102294781D01*
X156938386Y-102387715D01*
X156772786Y-102508028D01*
X156628028Y-102652786D01*
X156507715Y-102818386D01*
X156414781Y-103000776D01*
X156351522Y-103195465D01*
X156319500Y-103397648D01*
X156319500Y-103602351D01*
X156351522Y-103804534D01*
X156414781Y-103999223D01*
X156507715Y-104181613D01*
X156628028Y-104347213D01*
X156772786Y-104491971D01*
X156927749Y-104604556D01*
X156938390Y-104612287D01*
X157054607Y-104671503D01*
X157120776Y-104705218D01*
X157120778Y-104705218D01*
X157120781Y-104705220D01*
X157225137Y-104739127D01*
X157315465Y-104768477D01*
X157416557Y-104784488D01*
X157517648Y-104800500D01*
X157517649Y-104800500D01*
X157722351Y-104800500D01*
X157722352Y-104800500D01*
X157924534Y-104768477D01*
X157924539Y-104768475D01*
X157924541Y-104768475D01*
X157974910Y-104752109D01*
X158044751Y-104750112D01*
X158104585Y-104786192D01*
X158135414Y-104848893D01*
X158127450Y-104918307D01*
X158100911Y-104957720D01*
X157885105Y-105173526D01*
X157823782Y-105207011D01*
X157778026Y-105208318D01*
X157722352Y-105199500D01*
X157517648Y-105199500D01*
X157493329Y-105203351D01*
X157315465Y-105231522D01*
X157120776Y-105294781D01*
X156938386Y-105387715D01*
X156772786Y-105508028D01*
X156628028Y-105652786D01*
X156507715Y-105818386D01*
X156414781Y-106000776D01*
X156351522Y-106195465D01*
X156319500Y-106397648D01*
X156319500Y-106602351D01*
X156351522Y-106804534D01*
X156414781Y-106999223D01*
X156507715Y-107181613D01*
X156628028Y-107347213D01*
X156772786Y-107491971D01*
X156885071Y-107573549D01*
X156938390Y-107612287D01*
X157054607Y-107671503D01*
X157120776Y-107705218D01*
X157120778Y-107705218D01*
X157120781Y-107705220D01*
X157210459Y-107734358D01*
X157315465Y-107768477D01*
X157416557Y-107784488D01*
X157517648Y-107800500D01*
X157517649Y-107800500D01*
X157722351Y-107800500D01*
X157722352Y-107800500D01*
X157924534Y-107768477D01*
X158119219Y-107705220D01*
X158301610Y-107612287D01*
X158401017Y-107540064D01*
X158467213Y-107491971D01*
X158467215Y-107491968D01*
X158467219Y-107491966D01*
X158611966Y-107347219D01*
X158611968Y-107347215D01*
X158611971Y-107347213D01*
X158682236Y-107250500D01*
X158732287Y-107181610D01*
X158825220Y-106999219D01*
X158888477Y-106804534D01*
X158920500Y-106602352D01*
X158920500Y-106397648D01*
X158911681Y-106341971D01*
X158920635Y-106272679D01*
X158946470Y-106234895D01*
X160082951Y-105098416D01*
X160165084Y-104975495D01*
X160221658Y-104838913D01*
X160248252Y-104705220D01*
X160250500Y-104693920D01*
X160250500Y-99926081D01*
X160244061Y-99893714D01*
X160244061Y-99893711D01*
X160221660Y-99781094D01*
X160221659Y-99781088D01*
X160167408Y-99650117D01*
X160165764Y-99645522D01*
X160082954Y-99521588D01*
X160082953Y-99521587D01*
X160082951Y-99521584D01*
X159978416Y-99417049D01*
X158748656Y-98187289D01*
X158715171Y-98125966D01*
X158720155Y-98056274D01*
X158762027Y-98000341D01*
X158811732Y-97979340D01*
X158811503Y-97978384D01*
X158816231Y-97977247D01*
X158816243Y-97977246D01*
X159018412Y-97911557D01*
X159207816Y-97815051D01*
X159229789Y-97799086D01*
X159379786Y-97690109D01*
X159379788Y-97690106D01*
X159379792Y-97690104D01*
X159530104Y-97539792D01*
X159530106Y-97539788D01*
X159530109Y-97539786D01*
X159655048Y-97367820D01*
X159655047Y-97367820D01*
X159655051Y-97367816D01*
X159751557Y-97178412D01*
X159817246Y-96976243D01*
X159850500Y-96766287D01*
X159850500Y-96553713D01*
X159817246Y-96343757D01*
X159751557Y-96141588D01*
X159655051Y-95952184D01*
X159655049Y-95952181D01*
X159655048Y-95952179D01*
X159530109Y-95780213D01*
X159379786Y-95629890D01*
X159207820Y-95504951D01*
X159206401Y-95504228D01*
X159199054Y-95500485D01*
X159148259Y-95452512D01*
X159131463Y-95384692D01*
X159153999Y-95318556D01*
X159199054Y-95279515D01*
X159207816Y-95275051D01*
X159265022Y-95233489D01*
X159379786Y-95150109D01*
X159379788Y-95150106D01*
X159379792Y-95150104D01*
X159530104Y-94999792D01*
X159530106Y-94999788D01*
X159530109Y-94999786D01*
X159655048Y-94827820D01*
X159655047Y-94827820D01*
X159655051Y-94827816D01*
X159751557Y-94638412D01*
X159817246Y-94436243D01*
X159850500Y-94226287D01*
X159850500Y-94013713D01*
X159817246Y-93803757D01*
X159751557Y-93601588D01*
X159655051Y-93412184D01*
X159655049Y-93412181D01*
X159655048Y-93412179D01*
X159530109Y-93240213D01*
X159379786Y-93089890D01*
X159207820Y-92964951D01*
X159207115Y-92964591D01*
X159199054Y-92960485D01*
X159148259Y-92912512D01*
X159131463Y-92844692D01*
X159153999Y-92778556D01*
X159199054Y-92739515D01*
X159207816Y-92735051D01*
X159229789Y-92719086D01*
X159379786Y-92610109D01*
X159379788Y-92610106D01*
X159379792Y-92610104D01*
X159530104Y-92459792D01*
X159530106Y-92459788D01*
X159530109Y-92459786D01*
X159655048Y-92287820D01*
X159655047Y-92287820D01*
X159655051Y-92287816D01*
X159751557Y-92098412D01*
X159817246Y-91896243D01*
X159850500Y-91686287D01*
X159850500Y-91473713D01*
X159817246Y-91263757D01*
X159751557Y-91061588D01*
X159655051Y-90872184D01*
X159655049Y-90872181D01*
X159655048Y-90872179D01*
X159530109Y-90700213D01*
X159379786Y-90549890D01*
X159207820Y-90424951D01*
X159207115Y-90424591D01*
X159199054Y-90420485D01*
X159148259Y-90372512D01*
X159131463Y-90304692D01*
X159153999Y-90238556D01*
X159199054Y-90199515D01*
X159207816Y-90195051D01*
X159245707Y-90167522D01*
X159379786Y-90070109D01*
X159379788Y-90070106D01*
X159379792Y-90070104D01*
X159530104Y-89919792D01*
X159530106Y-89919788D01*
X159530109Y-89919786D01*
X159655048Y-89747820D01*
X159655047Y-89747820D01*
X159655051Y-89747816D01*
X159751557Y-89558412D01*
X159817246Y-89356243D01*
X159850500Y-89146287D01*
X159850500Y-88933713D01*
X159817246Y-88723757D01*
X159751557Y-88521588D01*
X159655051Y-88332184D01*
X159655049Y-88332181D01*
X159655048Y-88332179D01*
X159530109Y-88160213D01*
X159379786Y-88009890D01*
X159207820Y-87884951D01*
X159207115Y-87884591D01*
X159199054Y-87880485D01*
X159148259Y-87832512D01*
X159131463Y-87764692D01*
X159153999Y-87698556D01*
X159199054Y-87659515D01*
X159207816Y-87655051D01*
X159312704Y-87578846D01*
X159379786Y-87530109D01*
X159379788Y-87530106D01*
X159379792Y-87530104D01*
X159530104Y-87379792D01*
X159530106Y-87379788D01*
X159530109Y-87379786D01*
X159655048Y-87207820D01*
X159655047Y-87207820D01*
X159655051Y-87207816D01*
X159751557Y-87018412D01*
X159817246Y-86816243D01*
X159850500Y-86606287D01*
X159850500Y-86393713D01*
X159817246Y-86183757D01*
X159751557Y-85981588D01*
X159655051Y-85792184D01*
X159655049Y-85792181D01*
X159655048Y-85792179D01*
X159530109Y-85620213D01*
X159416181Y-85506285D01*
X159382696Y-85444962D01*
X159387680Y-85375270D01*
X159429552Y-85319337D01*
X159460529Y-85302422D01*
X159592086Y-85253354D01*
X159592093Y-85253350D01*
X159707187Y-85167190D01*
X159707190Y-85167187D01*
X159793350Y-85052093D01*
X159793354Y-85052086D01*
X159843596Y-84917379D01*
X159843598Y-84917372D01*
X159849999Y-84857844D01*
X159850000Y-84857827D01*
X159850000Y-84210000D01*
X158933012Y-84210000D01*
X158965925Y-84152993D01*
X159000000Y-84025826D01*
X159000000Y-83894174D01*
X158965925Y-83767007D01*
X158933012Y-83710000D01*
X159850000Y-83710000D01*
X159850000Y-83062172D01*
X159849999Y-83062155D01*
X159843598Y-83002627D01*
X159843596Y-83002620D01*
X159793354Y-82867913D01*
X159793350Y-82867906D01*
X159707190Y-82752812D01*
X159707187Y-82752809D01*
X159592093Y-82666649D01*
X159592086Y-82666645D01*
X159457379Y-82616403D01*
X159457372Y-82616401D01*
X159397844Y-82610000D01*
X158750000Y-82610000D01*
X158750000Y-83526988D01*
X158692993Y-83494075D01*
X158565826Y-83460000D01*
X158434174Y-83460000D01*
X158307007Y-83494075D01*
X158250000Y-83526988D01*
X158250000Y-82610000D01*
X157602155Y-82610000D01*
X157542627Y-82616401D01*
X157542620Y-82616403D01*
X157407913Y-82666645D01*
X157407906Y-82666649D01*
X157292812Y-82752809D01*
X157292809Y-82752812D01*
X157206649Y-82867906D01*
X157206645Y-82867913D01*
X157156403Y-83002620D01*
X157156401Y-83002627D01*
X157150000Y-83062155D01*
X157150000Y-83710000D01*
X158066988Y-83710000D01*
X158034075Y-83767007D01*
X158000000Y-83894174D01*
X158000000Y-84025826D01*
X158034075Y-84152993D01*
X158066988Y-84210000D01*
X157150000Y-84210000D01*
X157150000Y-84857844D01*
X157156401Y-84917372D01*
X157156403Y-84917379D01*
X157206645Y-85052086D01*
X157206649Y-85052093D01*
X157292809Y-85167187D01*
X157292812Y-85167190D01*
X157407906Y-85253350D01*
X157407913Y-85253354D01*
X157539470Y-85302422D01*
X157595404Y-85344293D01*
X157619821Y-85409758D01*
X157604969Y-85478031D01*
X157583819Y-85506285D01*
X157469889Y-85620215D01*
X157344951Y-85792179D01*
X157248444Y-85981585D01*
X157182753Y-86183760D01*
X157156389Y-86350215D01*
X157149500Y-86393713D01*
X157149500Y-86606287D01*
X157182754Y-86816243D01*
X157239117Y-86989711D01*
X157248444Y-87018414D01*
X157344951Y-87207820D01*
X157469890Y-87379786D01*
X157620213Y-87530109D01*
X157792182Y-87655050D01*
X157800946Y-87659516D01*
X157851742Y-87707491D01*
X157868536Y-87775312D01*
X157845998Y-87841447D01*
X157800946Y-87880484D01*
X157792182Y-87884949D01*
X157620213Y-88009890D01*
X157469892Y-88160211D01*
X157468778Y-88161516D01*
X157468231Y-88161872D01*
X157466451Y-88163653D01*
X157466076Y-88163278D01*
X157410266Y-88199700D01*
X157340398Y-88200188D01*
X157281357Y-88162826D01*
X157251888Y-88099474D01*
X157250500Y-88080970D01*
X157250500Y-87926079D01*
X157221659Y-87781092D01*
X157221658Y-87781091D01*
X157221658Y-87781087D01*
X157209426Y-87751557D01*
X157165086Y-87644509D01*
X157165085Y-87644507D01*
X157132186Y-87595270D01*
X157132185Y-87595268D01*
X157082956Y-87521589D01*
X157082952Y-87521584D01*
X156746071Y-87184703D01*
X156719191Y-87144475D01*
X156709394Y-87120821D01*
X156640968Y-87018414D01*
X156621789Y-86989710D01*
X156510292Y-86878213D01*
X156510288Y-86878210D01*
X156379185Y-86790609D01*
X156379172Y-86790602D01*
X156233501Y-86730264D01*
X156233489Y-86730261D01*
X156078845Y-86699500D01*
X156078842Y-86699500D01*
X155921158Y-86699500D01*
X155921155Y-86699500D01*
X155766510Y-86730261D01*
X155766498Y-86730264D01*
X155620827Y-86790602D01*
X155620814Y-86790609D01*
X155489711Y-86878210D01*
X155489707Y-86878213D01*
X155378213Y-86989707D01*
X155378210Y-86989711D01*
X155290609Y-87120814D01*
X155290602Y-87120827D01*
X155230264Y-87266498D01*
X155230261Y-87266510D01*
X155199500Y-87421153D01*
X155199500Y-87578846D01*
X155230261Y-87733489D01*
X155230264Y-87733501D01*
X155290602Y-87879172D01*
X155290609Y-87879185D01*
X155378210Y-88010288D01*
X155378213Y-88010292D01*
X155489710Y-88121789D01*
X155599975Y-88195465D01*
X155620821Y-88209394D01*
X155644475Y-88219191D01*
X155651406Y-88223823D01*
X155656449Y-88224920D01*
X155684703Y-88246071D01*
X155713181Y-88274549D01*
X155746666Y-88335872D01*
X155749500Y-88362230D01*
X155749500Y-89653918D01*
X155749500Y-89653920D01*
X155749499Y-89653920D01*
X155778340Y-89798907D01*
X155778343Y-89798917D01*
X155834914Y-89935492D01*
X155867812Y-89984727D01*
X155867813Y-89984730D01*
X155917046Y-90058414D01*
X155917052Y-90058421D01*
X157129824Y-91271191D01*
X157163309Y-91332514D01*
X157164616Y-91378270D01*
X157149500Y-91473707D01*
X157149500Y-91473713D01*
X157149500Y-91686287D01*
X157182754Y-91896243D01*
X157214439Y-91993760D01*
X157248444Y-92098414D01*
X157344951Y-92287820D01*
X157469890Y-92459786D01*
X157620213Y-92610109D01*
X157792182Y-92735050D01*
X157800946Y-92739516D01*
X157851742Y-92787491D01*
X157868536Y-92855312D01*
X157845998Y-92921447D01*
X157800946Y-92960484D01*
X157792182Y-92964949D01*
X157620213Y-93089890D01*
X157469890Y-93240213D01*
X157344951Y-93412179D01*
X157248444Y-93601585D01*
X157182753Y-93803760D01*
X157169111Y-93889896D01*
X157149500Y-94013713D01*
X157149500Y-94226287D01*
X157150130Y-94230262D01*
X157177264Y-94401585D01*
X157182754Y-94436243D01*
X157242729Y-94620827D01*
X157248444Y-94638414D01*
X157344951Y-94827820D01*
X157469890Y-94999786D01*
X157620213Y-95150109D01*
X157792182Y-95275050D01*
X157800946Y-95279516D01*
X157851742Y-95327491D01*
X157868536Y-95395312D01*
X157845998Y-95461447D01*
X157800946Y-95500484D01*
X157792182Y-95504949D01*
X157620213Y-95629890D01*
X157469890Y-95780213D01*
X157344951Y-95952179D01*
X157248444Y-96141585D01*
X157182753Y-96343760D01*
X157181616Y-96348497D01*
X157180424Y-96348210D01*
X157152927Y-96406203D01*
X157093612Y-96443128D01*
X157023749Y-96442124D01*
X156972710Y-96411342D01*
X154786819Y-94225451D01*
X154753334Y-94164128D01*
X154750500Y-94137770D01*
X154750500Y-86072230D01*
X154770185Y-86005191D01*
X154786819Y-85984549D01*
X155082950Y-85688418D01*
X155082952Y-85688416D01*
X155128523Y-85620213D01*
X155141105Y-85601383D01*
X155147155Y-85592328D01*
X155165084Y-85565495D01*
X155221658Y-85428913D01*
X155232329Y-85375270D01*
X155250500Y-85283920D01*
X155250500Y-83014604D01*
X155259939Y-82967151D01*
X155269737Y-82943497D01*
X155300500Y-82788842D01*
X155300500Y-82631158D01*
X155300500Y-82631155D01*
X155300499Y-82631153D01*
X155281529Y-82535786D01*
X155269737Y-82476503D01*
X155238256Y-82400500D01*
X155209397Y-82330827D01*
X155209390Y-82330814D01*
X155121789Y-82199711D01*
X155121786Y-82199707D01*
X155010292Y-82088213D01*
X155010288Y-82088210D01*
X154879185Y-82000609D01*
X154879172Y-82000602D01*
X154733501Y-81940264D01*
X154733489Y-81940261D01*
X154578845Y-81909500D01*
X154578842Y-81909500D01*
X154536745Y-81909500D01*
X154469706Y-81889815D01*
X154423951Y-81837011D01*
X154414007Y-81767853D01*
X154443032Y-81704297D01*
X154462433Y-81686234D01*
X154486000Y-81668590D01*
X154567546Y-81607546D01*
X154653796Y-81492331D01*
X154704091Y-81357483D01*
X154709823Y-81304162D01*
X154736560Y-81239615D01*
X154793952Y-81199767D01*
X154863777Y-81197273D01*
X154923866Y-81232925D01*
X154933430Y-81244536D01*
X155008028Y-81347212D01*
X155008032Y-81347217D01*
X155152786Y-81491971D01*
X155248645Y-81561615D01*
X155318390Y-81612287D01*
X155434607Y-81671503D01*
X155500776Y-81705218D01*
X155500778Y-81705218D01*
X155500781Y-81705220D01*
X155605137Y-81739127D01*
X155695465Y-81768477D01*
X155706243Y-81770184D01*
X155897648Y-81800500D01*
X155897649Y-81800500D01*
X156102351Y-81800500D01*
X156102352Y-81800500D01*
X156304534Y-81768477D01*
X156499219Y-81705220D01*
X156501031Y-81704297D01*
X156536481Y-81686234D01*
X156681610Y-81612287D01*
X156789903Y-81533608D01*
X156847213Y-81491971D01*
X156847215Y-81491968D01*
X156847219Y-81491966D01*
X156991966Y-81347219D01*
X156991968Y-81347215D01*
X156991971Y-81347213D01*
X157044732Y-81274590D01*
X157112287Y-81181610D01*
X157205220Y-80999219D01*
X157268477Y-80804534D01*
X157300500Y-80602352D01*
X157300500Y-80397648D01*
X157292257Y-80345606D01*
X157268477Y-80195465D01*
X157237458Y-80100000D01*
X157205220Y-80000781D01*
X157205218Y-80000778D01*
X157205218Y-80000776D01*
X157171503Y-79934607D01*
X157112287Y-79818390D01*
X157080092Y-79774077D01*
X156991971Y-79652786D01*
X156847213Y-79508028D01*
X156681613Y-79387715D01*
X156681612Y-79387714D01*
X156681610Y-79387713D01*
X156624653Y-79358691D01*
X156499223Y-79294781D01*
X156338106Y-79242431D01*
X156280431Y-79202993D01*
X156253233Y-79138634D01*
X156265148Y-79069788D01*
X156312392Y-79018312D01*
X156376425Y-79000500D01*
X158375500Y-79000500D01*
X158442539Y-79020185D01*
X158488294Y-79072989D01*
X158499500Y-79124500D01*
X158499500Y-80938387D01*
X158498463Y-80942536D01*
X158499500Y-81004196D01*
X158499500Y-81065900D01*
X158499765Y-81067914D01*
X158499802Y-81068413D01*
X158499900Y-81069072D01*
X158500376Y-81072269D01*
X158500379Y-81072283D01*
X158500678Y-81074298D01*
X158500679Y-81074301D01*
X158515284Y-81125359D01*
X158517350Y-81132581D01*
X158517905Y-81134587D01*
X158533606Y-81193182D01*
X158534385Y-81195062D01*
X158534387Y-81195067D01*
X158535630Y-81198068D01*
X158535635Y-81198080D01*
X158535885Y-81198683D01*
X158536106Y-81199123D01*
X158536919Y-81200996D01*
X158536922Y-81201002D01*
X158536923Y-81201003D01*
X158568128Y-81253012D01*
X158569156Y-81254759D01*
X158599496Y-81307308D01*
X158599498Y-81307310D01*
X158599500Y-81307314D01*
X158599502Y-81307316D01*
X158600739Y-81308928D01*
X158600745Y-81308936D01*
X158602716Y-81311505D01*
X158603128Y-81312042D01*
X158603459Y-81312413D01*
X158604721Y-81314002D01*
X158604725Y-81314006D01*
X158604726Y-81314007D01*
X158648375Y-81356212D01*
X158649804Y-81357618D01*
X158692681Y-81400496D01*
X158694301Y-81401739D01*
X158694300Y-81401739D01*
X158696874Y-81403714D01*
X158696891Y-81403727D01*
X158697405Y-81404121D01*
X158697826Y-81404398D01*
X158699464Y-81405612D01*
X158752493Y-81435050D01*
X158753407Y-81435557D01*
X158806814Y-81466392D01*
X158810943Y-81467497D01*
X158814681Y-81469573D01*
X158814683Y-81469573D01*
X158814686Y-81469575D01*
X158873554Y-81484291D01*
X158875435Y-81484778D01*
X158934108Y-81500500D01*
X158934110Y-81500500D01*
X158936123Y-81500765D01*
X158950010Y-81503406D01*
X160405575Y-81867296D01*
X160465838Y-81902653D01*
X160497420Y-81964977D01*
X160499500Y-81987594D01*
X160499500Y-95983876D01*
X160496297Y-96033544D01*
X160499500Y-96049559D01*
X160499500Y-96065894D01*
X160511347Y-96110107D01*
X160513164Y-96117882D01*
X160997092Y-98537519D01*
X160999500Y-98561837D01*
X160999500Y-102938162D01*
X160997092Y-102962480D01*
X160525621Y-105319833D01*
X160514938Y-105350970D01*
X160077349Y-106226145D01*
X160072382Y-106236078D01*
X160059769Y-106252940D01*
X160043032Y-106294779D01*
X160040725Y-106299394D01*
X160040725Y-106299395D01*
X160022870Y-106335106D01*
X160020871Y-106344873D01*
X160014522Y-106366054D01*
X159192324Y-108421552D01*
X159149150Y-108476486D01*
X159083129Y-108499358D01*
X159077193Y-108499500D01*
X154565892Y-108499500D01*
X144026401Y-108499500D01*
X143987116Y-108495345D01*
X143960772Y-108499500D01*
X143934108Y-108499500D01*
X143934106Y-108499500D01*
X143934100Y-108499501D01*
X143902276Y-108508028D01*
X143889506Y-108510738D01*
X143856943Y-108515874D01*
X143856942Y-108515874D01*
X143841452Y-108522757D01*
X143841453Y-108522758D01*
X143832568Y-108526706D01*
X143806814Y-108533608D01*
X143772618Y-108553349D01*
X143766637Y-108556008D01*
X143766631Y-108556012D01*
X140742662Y-109900000D01*
X139535597Y-110436474D01*
X139417834Y-110488813D01*
X139367473Y-110499500D01*
X136624073Y-110499500D01*
X136557034Y-110479815D01*
X136511279Y-110427011D01*
X136501335Y-110357853D01*
X136523755Y-110302614D01*
X136611859Y-110181349D01*
X136704755Y-109999031D01*
X136767990Y-109804417D01*
X136800000Y-109602317D01*
X136800000Y-109397682D01*
X136767990Y-109195582D01*
X136704755Y-109000968D01*
X136611859Y-108818650D01*
X136579474Y-108774077D01*
X136579474Y-108774076D01*
X135900000Y-109453551D01*
X135900000Y-109447339D01*
X135872741Y-109345606D01*
X135820080Y-109254394D01*
X135745606Y-109179920D01*
X135654394Y-109127259D01*
X135552661Y-109100000D01*
X135546446Y-109100000D01*
X136225922Y-108420524D01*
X136225921Y-108420523D01*
X136181359Y-108388147D01*
X136181350Y-108388141D01*
X135999031Y-108295244D01*
X135804417Y-108232009D01*
X135602317Y-108200000D01*
X135397683Y-108200000D01*
X135195582Y-108232009D01*
X135000968Y-108295244D01*
X134818644Y-108388143D01*
X134774077Y-108420523D01*
X134774077Y-108420524D01*
X135453554Y-109100000D01*
X135447339Y-109100000D01*
X135345606Y-109127259D01*
X135254394Y-109179920D01*
X135179920Y-109254394D01*
X135127259Y-109345606D01*
X135100000Y-109447339D01*
X135100000Y-109453553D01*
X134420524Y-108774077D01*
X134420523Y-108774077D01*
X134388143Y-108818644D01*
X134295244Y-109000968D01*
X134232009Y-109195582D01*
X134200000Y-109397682D01*
X134200000Y-109602317D01*
X134232009Y-109804417D01*
X134295244Y-109999031D01*
X134388140Y-110181349D01*
X134476245Y-110302614D01*
X134499725Y-110368420D01*
X134483900Y-110436474D01*
X134433794Y-110485169D01*
X134375927Y-110499500D01*
X133004856Y-110499500D01*
X132937817Y-110479815D01*
X132892062Y-110427011D01*
X132883608Y-110401482D01*
X132770306Y-109872741D01*
X132614672Y-109146446D01*
X132474812Y-108493765D01*
X132474812Y-108493761D01*
X132095711Y-106724628D01*
X132095709Y-106724620D01*
X132091550Y-106705212D01*
X131919008Y-105900013D01*
X138744888Y-105900013D01*
X138744888Y-106250000D01*
X139729202Y-106250000D01*
X139724808Y-106254394D01*
X139672147Y-106345606D01*
X139644888Y-106447339D01*
X139644888Y-106552661D01*
X139672147Y-106654394D01*
X139724808Y-106745606D01*
X139729202Y-106750000D01*
X138744889Y-106750000D01*
X138744889Y-107099986D01*
X138755382Y-107202697D01*
X138810529Y-107369119D01*
X138810531Y-107369124D01*
X138902572Y-107518345D01*
X139026542Y-107642315D01*
X139175763Y-107734356D01*
X139175768Y-107734358D01*
X139342190Y-107789505D01*
X139342197Y-107789506D01*
X139444907Y-107799999D01*
X139794887Y-107799999D01*
X139794888Y-107799998D01*
X139794888Y-106815686D01*
X139799282Y-106820080D01*
X139890494Y-106872741D01*
X139992227Y-106900000D01*
X140097549Y-106900000D01*
X140199282Y-106872741D01*
X140290494Y-106820080D01*
X140294888Y-106815686D01*
X140294888Y-107799999D01*
X140644860Y-107799999D01*
X140644874Y-107799998D01*
X140747585Y-107789505D01*
X140914007Y-107734358D01*
X140914012Y-107734356D01*
X141063233Y-107642315D01*
X141132000Y-107573549D01*
X141193323Y-107540064D01*
X141263015Y-107545048D01*
X141292562Y-107560909D01*
X141363278Y-107612287D01*
X141422211Y-107642315D01*
X141545664Y-107705218D01*
X141545666Y-107705218D01*
X141545669Y-107705220D01*
X141635347Y-107734358D01*
X141740353Y-107768477D01*
X141841445Y-107784488D01*
X141942536Y-107800500D01*
X141942537Y-107800500D01*
X142147239Y-107800500D01*
X142147240Y-107800500D01*
X142349422Y-107768477D01*
X142544107Y-107705220D01*
X142726498Y-107612287D01*
X142825905Y-107540064D01*
X142892101Y-107491971D01*
X142892103Y-107491968D01*
X142892107Y-107491966D01*
X143036854Y-107347219D01*
X143039538Y-107343524D01*
X143069988Y-107301615D01*
X143125317Y-107258949D01*
X143170306Y-107250500D01*
X148874582Y-107250500D01*
X148941621Y-107270185D01*
X148974900Y-107301615D01*
X149008028Y-107347212D01*
X149008032Y-107347217D01*
X149152786Y-107491971D01*
X149265071Y-107573549D01*
X149318390Y-107612287D01*
X149434607Y-107671503D01*
X149500776Y-107705218D01*
X149500778Y-107705218D01*
X149500781Y-107705220D01*
X149590459Y-107734358D01*
X149695465Y-107768477D01*
X149796557Y-107784488D01*
X149897648Y-107800500D01*
X149897649Y-107800500D01*
X150102351Y-107800500D01*
X150102352Y-107800500D01*
X150304534Y-107768477D01*
X150499219Y-107705220D01*
X150681610Y-107612287D01*
X150781017Y-107540064D01*
X150847213Y-107491971D01*
X150847215Y-107491968D01*
X150847219Y-107491966D01*
X150991966Y-107347219D01*
X150991968Y-107347215D01*
X150991971Y-107347213D01*
X151062236Y-107250500D01*
X151112287Y-107181610D01*
X151205220Y-106999219D01*
X151268477Y-106804534D01*
X151300500Y-106602352D01*
X151300500Y-106397648D01*
X151280707Y-106272679D01*
X151268477Y-106195465D01*
X151205218Y-106000776D01*
X151153876Y-105900013D01*
X151112287Y-105818390D01*
X151096966Y-105797302D01*
X150991971Y-105652786D01*
X150847213Y-105508028D01*
X150681613Y-105387715D01*
X150681612Y-105387714D01*
X150681610Y-105387713D01*
X150609498Y-105350970D01*
X150499223Y-105294781D01*
X150304534Y-105231522D01*
X150129995Y-105203878D01*
X150102352Y-105199500D01*
X149897648Y-105199500D01*
X149873329Y-105203351D01*
X149695465Y-105231522D01*
X149500776Y-105294781D01*
X149318386Y-105387715D01*
X149152786Y-105508028D01*
X149008032Y-105652782D01*
X149008028Y-105652787D01*
X148974900Y-105698385D01*
X148919571Y-105741051D01*
X148874582Y-105749500D01*
X143170306Y-105749500D01*
X143103267Y-105729815D01*
X143069988Y-105698385D01*
X143036859Y-105652787D01*
X143036855Y-105652782D01*
X142892101Y-105508028D01*
X142726501Y-105387715D01*
X142726500Y-105387714D01*
X142726498Y-105387713D01*
X142654386Y-105350970D01*
X142544111Y-105294781D01*
X142349422Y-105231522D01*
X142174883Y-105203878D01*
X142147240Y-105199500D01*
X141942536Y-105199500D01*
X141918217Y-105203351D01*
X141740353Y-105231522D01*
X141545664Y-105294781D01*
X141363279Y-105387712D01*
X141363277Y-105387713D01*
X141292564Y-105439088D01*
X141226757Y-105462567D01*
X141158703Y-105446740D01*
X141131999Y-105426450D01*
X141063233Y-105357684D01*
X140914012Y-105265643D01*
X140914007Y-105265641D01*
X140747585Y-105210494D01*
X140747578Y-105210493D01*
X140644874Y-105200000D01*
X140294888Y-105200000D01*
X140294888Y-106184314D01*
X140290494Y-106179920D01*
X140199282Y-106127259D01*
X140097549Y-106100000D01*
X139992227Y-106100000D01*
X139890494Y-106127259D01*
X139799282Y-106179920D01*
X139794888Y-106184314D01*
X139794888Y-105200000D01*
X139444916Y-105200000D01*
X139444900Y-105200001D01*
X139342190Y-105210494D01*
X139175768Y-105265641D01*
X139175763Y-105265643D01*
X139026542Y-105357684D01*
X138902572Y-105481654D01*
X138810531Y-105630875D01*
X138810529Y-105630880D01*
X138755382Y-105797302D01*
X138755381Y-105797309D01*
X138744888Y-105900013D01*
X131919008Y-105900013D01*
X131597073Y-104397648D01*
X134199500Y-104397648D01*
X134199500Y-104602351D01*
X134231522Y-104804534D01*
X134294781Y-104999223D01*
X134387715Y-105181613D01*
X134508028Y-105347213D01*
X134652786Y-105491971D01*
X134800552Y-105599327D01*
X134818390Y-105612287D01*
X134921639Y-105664895D01*
X135000776Y-105705218D01*
X135000778Y-105705218D01*
X135000781Y-105705220D01*
X135054893Y-105722802D01*
X135195465Y-105768477D01*
X135273907Y-105780901D01*
X135397648Y-105800500D01*
X135397649Y-105800500D01*
X135602351Y-105800500D01*
X135602352Y-105800500D01*
X135720727Y-105781751D01*
X135767196Y-105774391D01*
X135804534Y-105768477D01*
X135862939Y-105749500D01*
X135999219Y-105705220D01*
X136181610Y-105612287D01*
X136274590Y-105544732D01*
X136347213Y-105491971D01*
X136347215Y-105491968D01*
X136347219Y-105491966D01*
X136491966Y-105347219D01*
X136491968Y-105347215D01*
X136491971Y-105347213D01*
X136576024Y-105231522D01*
X136612287Y-105181610D01*
X136705220Y-104999219D01*
X136768477Y-104804534D01*
X136800500Y-104602352D01*
X136800500Y-104397648D01*
X136768477Y-104195466D01*
X136705220Y-104000781D01*
X136705218Y-104000778D01*
X136705218Y-104000776D01*
X136645066Y-103882723D01*
X136612287Y-103818390D01*
X136572378Y-103763459D01*
X136491971Y-103652786D01*
X136347213Y-103508028D01*
X136181613Y-103387715D01*
X136181612Y-103387714D01*
X136181610Y-103387713D01*
X136124653Y-103358691D01*
X135999223Y-103294781D01*
X135804534Y-103231522D01*
X135629995Y-103203878D01*
X135602352Y-103199500D01*
X135397648Y-103199500D01*
X135373329Y-103203351D01*
X135195465Y-103231522D01*
X135000776Y-103294781D01*
X134818386Y-103387715D01*
X134652786Y-103508028D01*
X134508028Y-103652786D01*
X134387715Y-103818386D01*
X134294781Y-104000776D01*
X134231522Y-104195465D01*
X134199500Y-104397648D01*
X131597073Y-104397648D01*
X131503252Y-103959816D01*
X131503252Y-103959815D01*
X131500500Y-103946973D01*
X131500500Y-103934108D01*
X131486731Y-103882723D01*
X131475584Y-103830701D01*
X131475581Y-103830696D01*
X131475209Y-103829648D01*
X131466836Y-103807885D01*
X131466391Y-103806812D01*
X131441361Y-103763459D01*
X131441359Y-103763456D01*
X131439790Y-103760738D01*
X131415561Y-103713380D01*
X131406939Y-103703836D01*
X131400505Y-103692692D01*
X131400501Y-103692687D01*
X131365112Y-103657298D01*
X131360779Y-103652740D01*
X131327219Y-103615591D01*
X131316412Y-103608598D01*
X131307314Y-103599500D01*
X131261241Y-103572899D01*
X131258614Y-103571199D01*
X131258612Y-103571197D01*
X131216578Y-103543999D01*
X131215591Y-103543531D01*
X131194174Y-103534017D01*
X131193186Y-103533608D01*
X131144817Y-103520647D01*
X131144817Y-103520646D01*
X131141770Y-103519829D01*
X131091175Y-103503483D01*
X131078322Y-103502830D01*
X131075326Y-103502027D01*
X131065893Y-103499500D01*
X131065892Y-103499500D01*
X131015838Y-103499500D01*
X131009554Y-103499341D01*
X131007677Y-103499245D01*
X130959560Y-103496803D01*
X130958417Y-103496895D01*
X130933840Y-103499500D01*
X126219064Y-103499500D01*
X126152025Y-103479815D01*
X126141602Y-103472328D01*
X124047038Y-101796677D01*
X124006986Y-101739426D01*
X124000500Y-101699849D01*
X124000500Y-95504228D01*
X124001538Y-95442536D01*
X124000500Y-95438384D01*
X124000500Y-95434108D01*
X123984785Y-95375460D01*
X123984305Y-95373608D01*
X123493720Y-93411268D01*
X123490162Y-93379240D01*
X123477808Y-93347619D01*
X123469575Y-93314686D01*
X123457982Y-93293803D01*
X123450896Y-93278736D01*
X123450558Y-93277872D01*
X123442206Y-93256491D01*
X123442206Y-93256490D01*
X123426775Y-93235515D01*
X123422086Y-93229141D01*
X123405612Y-93199465D01*
X123383211Y-93176298D01*
X123364113Y-93150337D01*
X123357657Y-93145172D01*
X123343781Y-93134071D01*
X123337596Y-93129123D01*
X123314007Y-93104726D01*
X123286378Y-93088148D01*
X123279861Y-93082934D01*
X121395735Y-91575634D01*
X121278861Y-91482135D01*
X125649500Y-91482135D01*
X125649500Y-93277870D01*
X125649501Y-93277876D01*
X125655908Y-93337483D01*
X125706202Y-93472328D01*
X125706206Y-93472335D01*
X125792452Y-93587544D01*
X125792455Y-93587547D01*
X125907664Y-93673793D01*
X125907671Y-93673797D01*
X126039082Y-93722810D01*
X126095016Y-93764681D01*
X126119433Y-93830145D01*
X126104582Y-93898418D01*
X126083431Y-93926673D01*
X125969889Y-94040215D01*
X125844951Y-94212179D01*
X125748444Y-94401585D01*
X125682753Y-94603760D01*
X125649500Y-94813713D01*
X125649500Y-95026286D01*
X125682319Y-95233501D01*
X125682754Y-95236243D01*
X125747046Y-95434114D01*
X125748444Y-95438414D01*
X125844951Y-95627820D01*
X125969890Y-95799786D01*
X126120213Y-95950109D01*
X126292182Y-96075050D01*
X126300946Y-96079516D01*
X126351742Y-96127491D01*
X126368536Y-96195312D01*
X126345998Y-96261447D01*
X126300946Y-96300484D01*
X126292182Y-96304949D01*
X126120213Y-96429890D01*
X125969890Y-96580213D01*
X125844951Y-96752179D01*
X125748444Y-96941585D01*
X125682753Y-97143760D01*
X125649500Y-97353713D01*
X125649500Y-97566286D01*
X125673717Y-97719190D01*
X125682754Y-97776243D01*
X125731439Y-97926080D01*
X125748444Y-97978414D01*
X125844951Y-98167820D01*
X125969890Y-98339786D01*
X126120213Y-98490109D01*
X126292182Y-98615050D01*
X126300946Y-98619516D01*
X126351742Y-98667491D01*
X126368536Y-98735312D01*
X126345998Y-98801447D01*
X126300946Y-98840484D01*
X126292182Y-98844949D01*
X126120213Y-98969890D01*
X125969890Y-99120213D01*
X125844951Y-99292179D01*
X125748444Y-99481585D01*
X125682753Y-99683760D01*
X125649500Y-99893711D01*
X125649500Y-100106286D01*
X125663624Y-100195465D01*
X125682754Y-100316243D01*
X125742460Y-100499999D01*
X125748444Y-100518414D01*
X125844951Y-100707820D01*
X125969890Y-100879786D01*
X126120213Y-101030109D01*
X126292179Y-101155048D01*
X126292181Y-101155049D01*
X126292184Y-101155051D01*
X126481588Y-101251557D01*
X126683757Y-101317246D01*
X126893713Y-101350500D01*
X126893714Y-101350500D01*
X127106286Y-101350500D01*
X127106287Y-101350500D01*
X127316243Y-101317246D01*
X127518412Y-101251557D01*
X127707816Y-101155051D01*
X127729789Y-101139086D01*
X127879786Y-101030109D01*
X127879788Y-101030106D01*
X127879792Y-101030104D01*
X128030104Y-100879792D01*
X128030106Y-100879788D01*
X128030109Y-100879786D01*
X128155048Y-100707820D01*
X128155047Y-100707820D01*
X128155051Y-100707816D01*
X128251557Y-100518412D01*
X128317246Y-100316243D01*
X128350500Y-100106287D01*
X128350500Y-99893713D01*
X128317246Y-99683757D01*
X128251557Y-99481588D01*
X128155051Y-99292184D01*
X128155049Y-99292181D01*
X128155048Y-99292179D01*
X128030109Y-99120213D01*
X127879786Y-98969890D01*
X127707820Y-98844951D01*
X127707115Y-98844591D01*
X127699054Y-98840485D01*
X127648259Y-98792512D01*
X127631463Y-98724692D01*
X127653999Y-98658556D01*
X127699054Y-98619515D01*
X127707816Y-98615051D01*
X127752503Y-98582584D01*
X127879786Y-98490109D01*
X127879788Y-98490106D01*
X127879792Y-98490104D01*
X128030104Y-98339792D01*
X128030106Y-98339788D01*
X128030109Y-98339786D01*
X128155048Y-98167820D01*
X128155047Y-98167820D01*
X128155051Y-98167816D01*
X128251557Y-97978412D01*
X128317246Y-97776243D01*
X128350500Y-97566287D01*
X128350500Y-97353713D01*
X128317246Y-97143757D01*
X128251557Y-96941588D01*
X128241145Y-96921153D01*
X147699500Y-96921153D01*
X147699500Y-97078846D01*
X147730261Y-97233489D01*
X147730264Y-97233501D01*
X147790602Y-97379172D01*
X147790609Y-97379185D01*
X147878210Y-97510288D01*
X147878213Y-97510292D01*
X147989710Y-97621789D01*
X148091959Y-97690109D01*
X148120821Y-97709394D01*
X148144475Y-97719191D01*
X148184703Y-97746071D01*
X148417972Y-97979340D01*
X148600951Y-98162318D01*
X148634436Y-98223641D01*
X148629452Y-98293332D01*
X148600951Y-98337680D01*
X148356047Y-98582584D01*
X148345178Y-98598852D01*
X148334355Y-98615051D01*
X148331372Y-98619516D01*
X148273914Y-98705507D01*
X148217343Y-98842082D01*
X148217340Y-98842092D01*
X148188500Y-98987079D01*
X148188500Y-98987082D01*
X148188500Y-101092100D01*
X148188500Y-101092102D01*
X148188499Y-101092102D01*
X148217341Y-101237093D01*
X148219110Y-101242924D01*
X148216777Y-101243631D01*
X148223094Y-101302437D01*
X148222684Y-101304598D01*
X148199500Y-101421159D01*
X148199500Y-101578846D01*
X148230261Y-101733489D01*
X148230264Y-101733501D01*
X148290602Y-101879172D01*
X148290609Y-101879185D01*
X148378210Y-102010288D01*
X148378213Y-102010292D01*
X148489707Y-102121786D01*
X148489711Y-102121789D01*
X148620814Y-102209390D01*
X148620827Y-102209397D01*
X148766498Y-102269735D01*
X148766503Y-102269737D01*
X148892402Y-102294780D01*
X148921153Y-102300499D01*
X148921156Y-102300500D01*
X149060953Y-102300500D01*
X149127992Y-102320185D01*
X149173747Y-102372989D01*
X149183691Y-102442147D01*
X149154666Y-102505703D01*
X149148634Y-102512181D01*
X149008032Y-102652782D01*
X149008028Y-102652786D01*
X148887715Y-102818386D01*
X148794781Y-103000776D01*
X148731522Y-103195465D01*
X148699500Y-103397648D01*
X148699500Y-103602351D01*
X148731522Y-103804534D01*
X148794781Y-103999223D01*
X148887715Y-104181613D01*
X149008028Y-104347213D01*
X149152786Y-104491971D01*
X149307749Y-104604556D01*
X149318390Y-104612287D01*
X149434607Y-104671503D01*
X149500776Y-104705218D01*
X149500778Y-104705218D01*
X149500781Y-104705220D01*
X149605137Y-104739127D01*
X149695465Y-104768477D01*
X149796557Y-104784488D01*
X149897648Y-104800500D01*
X149897649Y-104800500D01*
X150102351Y-104800500D01*
X150102352Y-104800500D01*
X150304534Y-104768477D01*
X150499219Y-104705220D01*
X150681610Y-104612287D01*
X150774590Y-104544732D01*
X150847213Y-104491971D01*
X150847215Y-104491968D01*
X150847219Y-104491966D01*
X150991966Y-104347219D01*
X150991968Y-104347215D01*
X150991971Y-104347213D01*
X151044732Y-104274590D01*
X151112287Y-104181610D01*
X151205220Y-103999219D01*
X151268477Y-103804534D01*
X151300500Y-103602352D01*
X151300500Y-103397648D01*
X151268477Y-103195466D01*
X151205220Y-103000781D01*
X151205218Y-103000778D01*
X151205218Y-103000776D01*
X151171503Y-102934607D01*
X151112287Y-102818390D01*
X151104556Y-102807749D01*
X150991971Y-102652786D01*
X150847213Y-102508028D01*
X150681613Y-102387715D01*
X150681612Y-102387714D01*
X150681610Y-102387713D01*
X150606931Y-102349662D01*
X150499223Y-102294781D01*
X150304534Y-102231522D01*
X150129995Y-102203878D01*
X150102352Y-102199500D01*
X149897648Y-102199500D01*
X149721989Y-102227321D01*
X149652696Y-102218366D01*
X149599244Y-102173370D01*
X149578605Y-102106618D01*
X149597330Y-102039305D01*
X149614915Y-102017163D01*
X149621789Y-102010289D01*
X149709394Y-101879179D01*
X149727021Y-101836622D01*
X149770860Y-101782219D01*
X149837153Y-101760153D01*
X149879901Y-101766143D01*
X149885588Y-101767991D01*
X150087683Y-101800000D01*
X150292317Y-101800000D01*
X150494417Y-101767990D01*
X150689031Y-101704755D01*
X150871349Y-101611859D01*
X150915921Y-101579474D01*
X150236447Y-100900000D01*
X150242661Y-100900000D01*
X150344394Y-100872741D01*
X150435606Y-100820080D01*
X150510080Y-100745606D01*
X150562741Y-100654394D01*
X150590000Y-100552661D01*
X150590000Y-100546447D01*
X151269474Y-101225921D01*
X151301859Y-101181349D01*
X151394755Y-100999031D01*
X151457990Y-100804417D01*
X151490000Y-100602317D01*
X151490000Y-100397682D01*
X151457990Y-100195582D01*
X151394755Y-100000968D01*
X151301859Y-99818650D01*
X151269474Y-99774077D01*
X151269474Y-99774076D01*
X150590000Y-100453551D01*
X150590000Y-100447339D01*
X150562741Y-100345606D01*
X150510080Y-100254394D01*
X150435606Y-100179920D01*
X150344394Y-100127259D01*
X150242661Y-100100000D01*
X150236446Y-100100000D01*
X150915922Y-99420524D01*
X150915921Y-99420523D01*
X150871359Y-99388147D01*
X150871350Y-99388141D01*
X150689031Y-99295244D01*
X150494417Y-99232009D01*
X150292317Y-99200000D01*
X150160731Y-99200000D01*
X150093692Y-99180315D01*
X150047937Y-99127511D01*
X150037993Y-99058353D01*
X150059934Y-99003778D01*
X150065858Y-98995509D01*
X150082952Y-98978416D01*
X150148783Y-98879891D01*
X150165084Y-98855495D01*
X150221658Y-98718913D01*
X150242319Y-98615048D01*
X150250500Y-98573920D01*
X150250500Y-97926081D01*
X150250499Y-97926080D01*
X150232366Y-97834916D01*
X150221659Y-97781088D01*
X150165996Y-97646709D01*
X150165394Y-97644968D01*
X150082954Y-97521588D01*
X150082953Y-97521587D01*
X150082951Y-97521584D01*
X149978416Y-97417049D01*
X149246071Y-96684703D01*
X149219191Y-96644475D01*
X149209394Y-96620821D01*
X149164554Y-96553713D01*
X149121789Y-96489710D01*
X149010292Y-96378213D01*
X149010288Y-96378210D01*
X148879185Y-96290609D01*
X148879172Y-96290602D01*
X148733501Y-96230264D01*
X148733489Y-96230261D01*
X148578845Y-96199500D01*
X148578842Y-96199500D01*
X148421158Y-96199500D01*
X148421155Y-96199500D01*
X148266510Y-96230261D01*
X148266498Y-96230264D01*
X148120827Y-96290602D01*
X148120814Y-96290609D01*
X147989711Y-96378210D01*
X147989707Y-96378213D01*
X147878213Y-96489707D01*
X147878210Y-96489711D01*
X147790609Y-96620814D01*
X147790602Y-96620827D01*
X147730264Y-96766498D01*
X147730261Y-96766510D01*
X147699500Y-96921153D01*
X128241145Y-96921153D01*
X128155051Y-96752184D01*
X128155049Y-96752181D01*
X128155048Y-96752179D01*
X128030109Y-96580213D01*
X127879786Y-96429890D01*
X127707820Y-96304951D01*
X127707115Y-96304591D01*
X127699054Y-96300485D01*
X127648259Y-96252512D01*
X127631463Y-96184692D01*
X127653999Y-96118556D01*
X127699054Y-96079515D01*
X127707816Y-96075051D01*
X127833309Y-95983876D01*
X127879786Y-95950109D01*
X127879788Y-95950106D01*
X127879792Y-95950104D01*
X128030104Y-95799792D01*
X128030106Y-95799788D01*
X128030109Y-95799786D01*
X128155048Y-95627820D01*
X128155047Y-95627820D01*
X128155051Y-95627816D01*
X128251557Y-95438412D01*
X128317246Y-95236243D01*
X128350500Y-95026287D01*
X128350500Y-94813713D01*
X128317246Y-94603757D01*
X128251557Y-94401588D01*
X128155051Y-94212184D01*
X128155049Y-94212181D01*
X128155048Y-94212179D01*
X128030109Y-94040213D01*
X127916569Y-93926673D01*
X127883084Y-93865350D01*
X127888068Y-93795658D01*
X127929940Y-93739725D01*
X127960915Y-93722810D01*
X128092331Y-93673796D01*
X128207546Y-93587546D01*
X128293796Y-93472331D01*
X128344091Y-93337483D01*
X128350500Y-93277873D01*
X128350499Y-91482128D01*
X128344091Y-91422517D01*
X128293796Y-91287669D01*
X128293795Y-91287668D01*
X128293793Y-91287664D01*
X128207547Y-91172455D01*
X128207544Y-91172452D01*
X128092335Y-91086206D01*
X128092328Y-91086202D01*
X127957482Y-91035908D01*
X127957483Y-91035908D01*
X127897883Y-91029501D01*
X127897881Y-91029500D01*
X127897873Y-91029500D01*
X127897864Y-91029500D01*
X126102129Y-91029500D01*
X126102123Y-91029501D01*
X126042516Y-91035908D01*
X125907671Y-91086202D01*
X125907664Y-91086206D01*
X125792455Y-91172452D01*
X125792452Y-91172455D01*
X125706206Y-91287664D01*
X125706202Y-91287671D01*
X125655908Y-91422517D01*
X125649501Y-91482116D01*
X125649501Y-91482123D01*
X125649500Y-91482135D01*
X121278861Y-91482135D01*
X120854363Y-91142537D01*
X120846079Y-91135910D01*
X120830759Y-91118633D01*
X120794825Y-91094907D01*
X120761207Y-91068013D01*
X120761205Y-91068012D01*
X120761204Y-91068011D01*
X120749761Y-91062997D01*
X120731211Y-91052905D01*
X120720787Y-91046023D01*
X120720784Y-91046022D01*
X120720783Y-91046021D01*
X120685300Y-91034193D01*
X120685300Y-91034192D01*
X120679925Y-91032400D01*
X120640500Y-91015127D01*
X120617677Y-91011650D01*
X120607615Y-91008296D01*
X120607612Y-91008296D01*
X118085288Y-90167522D01*
X118027913Y-90127648D01*
X118001205Y-90063084D01*
X118000500Y-90049885D01*
X118000500Y-89449047D01*
X118020185Y-89382008D01*
X118072989Y-89336253D01*
X118142147Y-89326309D01*
X118205703Y-89355334D01*
X118212181Y-89361366D01*
X118342786Y-89491971D01*
X118497749Y-89604556D01*
X118508390Y-89612287D01*
X118609319Y-89663713D01*
X118690776Y-89705218D01*
X118690778Y-89705218D01*
X118690781Y-89705220D01*
X118795137Y-89739127D01*
X118885465Y-89768477D01*
X118986557Y-89784488D01*
X119087648Y-89800500D01*
X119087649Y-89800500D01*
X119292351Y-89800500D01*
X119292352Y-89800500D01*
X119494534Y-89768477D01*
X119689219Y-89705220D01*
X119871610Y-89612287D01*
X119964590Y-89544732D01*
X120037213Y-89491971D01*
X120037215Y-89491968D01*
X120037219Y-89491966D01*
X120181966Y-89347219D01*
X120181968Y-89347215D01*
X120181971Y-89347213D01*
X120251445Y-89251588D01*
X120302287Y-89181610D01*
X120395220Y-88999219D01*
X120458477Y-88804534D01*
X120490500Y-88602352D01*
X120490500Y-88397648D01*
X125509500Y-88397648D01*
X125509500Y-88602351D01*
X125541522Y-88804534D01*
X125604781Y-88999223D01*
X125636862Y-89062184D01*
X125679714Y-89146286D01*
X125697715Y-89181613D01*
X125818028Y-89347213D01*
X125962786Y-89491971D01*
X126117749Y-89604556D01*
X126128390Y-89612287D01*
X126229319Y-89663713D01*
X126310776Y-89705218D01*
X126310778Y-89705218D01*
X126310781Y-89705220D01*
X126415137Y-89739127D01*
X126505465Y-89768477D01*
X126606557Y-89784488D01*
X126707648Y-89800500D01*
X126707649Y-89800500D01*
X126912351Y-89800500D01*
X126912352Y-89800500D01*
X127114534Y-89768477D01*
X127309219Y-89705220D01*
X127491610Y-89612287D01*
X127584590Y-89544732D01*
X127657213Y-89491971D01*
X127657215Y-89491968D01*
X127657219Y-89491966D01*
X127801966Y-89347219D01*
X127801968Y-89347215D01*
X127801971Y-89347213D01*
X127871445Y-89251588D01*
X127922287Y-89181610D01*
X128015220Y-88999219D01*
X128078477Y-88804534D01*
X128110500Y-88602352D01*
X128110500Y-88397648D01*
X128104890Y-88362230D01*
X128078477Y-88195465D01*
X128018309Y-88010288D01*
X128015220Y-88000781D01*
X128015218Y-88000778D01*
X128015218Y-88000776D01*
X127977157Y-87926079D01*
X127922287Y-87818390D01*
X127914556Y-87807749D01*
X127801971Y-87652786D01*
X127657213Y-87508028D01*
X127491613Y-87387715D01*
X127491612Y-87387714D01*
X127491610Y-87387713D01*
X127434653Y-87358691D01*
X127309223Y-87294781D01*
X127114534Y-87231522D01*
X126939995Y-87203878D01*
X126912352Y-87199500D01*
X126707648Y-87199500D01*
X126683329Y-87203351D01*
X126505465Y-87231522D01*
X126310776Y-87294781D01*
X126128386Y-87387715D01*
X125962786Y-87508028D01*
X125818028Y-87652786D01*
X125697715Y-87818386D01*
X125604781Y-88000776D01*
X125541522Y-88195465D01*
X125509500Y-88397648D01*
X120490500Y-88397648D01*
X120484890Y-88362230D01*
X120458477Y-88195465D01*
X120398309Y-88010288D01*
X120395220Y-88000781D01*
X120395218Y-88000778D01*
X120395218Y-88000776D01*
X120357157Y-87926079D01*
X120302287Y-87818390D01*
X120294556Y-87807749D01*
X120181971Y-87652786D01*
X120037213Y-87508028D01*
X119871613Y-87387715D01*
X119871612Y-87387714D01*
X119871610Y-87387713D01*
X119814653Y-87358691D01*
X119689223Y-87294781D01*
X119494534Y-87231522D01*
X119319995Y-87203878D01*
X119292352Y-87199500D01*
X119087648Y-87199500D01*
X119063329Y-87203351D01*
X118885465Y-87231522D01*
X118690776Y-87294781D01*
X118508386Y-87387715D01*
X118342786Y-87508028D01*
X118342782Y-87508032D01*
X118212181Y-87638634D01*
X118150858Y-87672119D01*
X118081166Y-87667135D01*
X118025233Y-87625263D01*
X118000816Y-87559799D01*
X118000500Y-87550953D01*
X118000500Y-86450114D01*
X118020185Y-86383075D01*
X118072989Y-86337320D01*
X118085283Y-86332478D01*
X120629769Y-85484316D01*
X120664895Y-85477129D01*
X120692018Y-85463567D01*
X120720783Y-85453979D01*
X120744496Y-85438321D01*
X120757352Y-85430899D01*
X122782766Y-84418193D01*
X122881368Y-84330758D01*
X122953979Y-84220783D01*
X122995653Y-84095761D01*
X123003549Y-83964214D01*
X122977129Y-83835105D01*
X122918193Y-83717234D01*
X122830758Y-83618632D01*
X122830756Y-83618631D01*
X122830757Y-83618631D01*
X122805773Y-83602135D01*
X124149500Y-83602135D01*
X124149500Y-85397870D01*
X124149501Y-85397876D01*
X124155908Y-85457483D01*
X124206202Y-85592328D01*
X124206206Y-85592335D01*
X124292452Y-85707544D01*
X124292455Y-85707547D01*
X124407664Y-85793793D01*
X124407671Y-85793797D01*
X124542517Y-85844091D01*
X124542516Y-85844091D01*
X124549444Y-85844835D01*
X124602127Y-85850500D01*
X126397872Y-85850499D01*
X126457483Y-85844091D01*
X126592331Y-85793796D01*
X126707546Y-85707546D01*
X126793796Y-85592331D01*
X126844091Y-85457483D01*
X126850500Y-85397873D01*
X126850499Y-83602128D01*
X126844468Y-83546021D01*
X126844091Y-83542516D01*
X126793797Y-83407671D01*
X126793793Y-83407664D01*
X126707547Y-83292455D01*
X126707544Y-83292452D01*
X126592335Y-83206206D01*
X126592328Y-83206202D01*
X126457482Y-83155908D01*
X126457483Y-83155908D01*
X126397883Y-83149501D01*
X126397881Y-83149500D01*
X126397873Y-83149500D01*
X126397864Y-83149500D01*
X124602129Y-83149500D01*
X124602123Y-83149501D01*
X124542516Y-83155908D01*
X124407671Y-83206202D01*
X124407664Y-83206206D01*
X124292455Y-83292452D01*
X124292452Y-83292455D01*
X124206206Y-83407664D01*
X124206202Y-83407671D01*
X124155908Y-83542517D01*
X124149980Y-83597664D01*
X124149501Y-83602123D01*
X124149500Y-83602135D01*
X122805773Y-83602135D01*
X122720788Y-83546024D01*
X122720779Y-83546019D01*
X122595761Y-83504347D01*
X122595759Y-83504346D01*
X120612603Y-82843294D01*
X118585288Y-82167522D01*
X118527913Y-82127648D01*
X118501205Y-82063084D01*
X118500500Y-82049885D01*
X118500500Y-81449047D01*
X118520185Y-81382008D01*
X118572989Y-81336253D01*
X118642147Y-81326309D01*
X118705703Y-81355334D01*
X118712181Y-81361366D01*
X118842786Y-81491971D01*
X118938645Y-81561615D01*
X119008390Y-81612287D01*
X119124607Y-81671503D01*
X119190776Y-81705218D01*
X119190778Y-81705218D01*
X119190781Y-81705220D01*
X119295137Y-81739127D01*
X119385465Y-81768477D01*
X119396243Y-81770184D01*
X119587648Y-81800500D01*
X119587649Y-81800500D01*
X119792351Y-81800500D01*
X119792352Y-81800500D01*
X119994534Y-81768477D01*
X120189219Y-81705220D01*
X120191031Y-81704297D01*
X120226481Y-81686234D01*
X120371610Y-81612287D01*
X120479903Y-81533608D01*
X120537213Y-81491971D01*
X120537215Y-81491968D01*
X120537219Y-81491966D01*
X120681966Y-81347219D01*
X120681968Y-81347215D01*
X120681971Y-81347213D01*
X120734732Y-81274590D01*
X120802287Y-81181610D01*
X120895220Y-80999219D01*
X120958477Y-80804534D01*
X120990500Y-80602352D01*
X120990500Y-80397648D01*
X120982257Y-80345606D01*
X120958477Y-80195465D01*
X120927458Y-80100000D01*
X120895220Y-80000781D01*
X120895218Y-80000778D01*
X120895218Y-80000776D01*
X120861503Y-79934607D01*
X120802287Y-79818390D01*
X120770092Y-79774077D01*
X120681971Y-79652786D01*
X120537213Y-79508028D01*
X120371613Y-79387715D01*
X120371612Y-79387714D01*
X120371610Y-79387713D01*
X120314653Y-79358691D01*
X120189223Y-79294781D01*
X120028106Y-79242431D01*
X119970431Y-79202993D01*
X119943233Y-79138634D01*
X119955148Y-79069788D01*
X120002392Y-79018312D01*
X120066425Y-79000500D01*
X126933575Y-79000500D01*
X127000614Y-79020185D01*
G37*
%TD.AperFunction*%
%TA.AperFunction,Conductor*%
G36*
X155690614Y-79020185D02*
G01*
X155736369Y-79072989D01*
X155746313Y-79142147D01*
X155717288Y-79205703D01*
X155661894Y-79242431D01*
X155500776Y-79294781D01*
X155318386Y-79387715D01*
X155152786Y-79508028D01*
X155008032Y-79652782D01*
X155008028Y-79652787D01*
X154933430Y-79755463D01*
X154878100Y-79798129D01*
X154808487Y-79804108D01*
X154746692Y-79771502D01*
X154712334Y-79710664D01*
X154709822Y-79695831D01*
X154704091Y-79642516D01*
X154653797Y-79507671D01*
X154653793Y-79507664D01*
X154567547Y-79392455D01*
X154567544Y-79392452D01*
X154452335Y-79306206D01*
X154452328Y-79306202D01*
X154317482Y-79255908D01*
X154317483Y-79255908D01*
X154257883Y-79249501D01*
X154257881Y-79249500D01*
X154257873Y-79249500D01*
X154257864Y-79249500D01*
X152662129Y-79249500D01*
X152662123Y-79249501D01*
X152602516Y-79255908D01*
X152467671Y-79306202D01*
X152467664Y-79306206D01*
X152352455Y-79392452D01*
X152352452Y-79392455D01*
X152266206Y-79507664D01*
X152266202Y-79507671D01*
X152215908Y-79642516D01*
X152210096Y-79696576D01*
X152183357Y-79761127D01*
X152125964Y-79800974D01*
X152056139Y-79803467D01*
X152007698Y-79774724D01*
X151999474Y-79774076D01*
X151320000Y-80453553D01*
X151320000Y-80447339D01*
X151292741Y-80345606D01*
X151240080Y-80254394D01*
X151165606Y-80179920D01*
X151074394Y-80127259D01*
X150972661Y-80100000D01*
X150966446Y-80100000D01*
X151645922Y-79420524D01*
X151645921Y-79420523D01*
X151601359Y-79388147D01*
X151601350Y-79388141D01*
X151419031Y-79295244D01*
X151256490Y-79242431D01*
X151198815Y-79202993D01*
X151171617Y-79138634D01*
X151183532Y-79069788D01*
X151230776Y-79018312D01*
X151294809Y-79000500D01*
X155623575Y-79000500D01*
X155690614Y-79020185D01*
G37*
%TD.AperFunction*%
%TD*%
M02*
