%TF.GenerationSoftware,KiCad,Pcbnew,9.0.7*%
%TF.CreationDate,2026-02-17T02:08:45-06:00*%
%TF.ProjectId,Esp12-F,45737031-322d-4462-9e6b-696361645f70,rev?*%
%TF.SameCoordinates,Original*%
%TF.FileFunction,Legend,Top*%
%TF.FilePolarity,Positive*%
%FSLAX46Y46*%
G04 Gerber Fmt 4.6, Leading zero omitted, Abs format (unit mm)*
G04 Created by KiCad (PCBNEW 9.0.7) date 2026-02-17 02:08:45*
%MOMM*%
%LPD*%
G01*
G04 APERTURE LIST*
%ADD10C,0.150000*%
%ADD11C,0.120000*%
G04 APERTURE END LIST*
D10*
X133359580Y-107166666D02*
X133407200Y-107214285D01*
X133407200Y-107214285D02*
X133454819Y-107357142D01*
X133454819Y-107357142D02*
X133454819Y-107452380D01*
X133454819Y-107452380D02*
X133407200Y-107595237D01*
X133407200Y-107595237D02*
X133311961Y-107690475D01*
X133311961Y-107690475D02*
X133216723Y-107738094D01*
X133216723Y-107738094D02*
X133026247Y-107785713D01*
X133026247Y-107785713D02*
X132883390Y-107785713D01*
X132883390Y-107785713D02*
X132692914Y-107738094D01*
X132692914Y-107738094D02*
X132597676Y-107690475D01*
X132597676Y-107690475D02*
X132502438Y-107595237D01*
X132502438Y-107595237D02*
X132454819Y-107452380D01*
X132454819Y-107452380D02*
X132454819Y-107357142D01*
X132454819Y-107357142D02*
X132502438Y-107214285D01*
X132502438Y-107214285D02*
X132550057Y-107166666D01*
X132550057Y-106785713D02*
X132502438Y-106738094D01*
X132502438Y-106738094D02*
X132454819Y-106642856D01*
X132454819Y-106642856D02*
X132454819Y-106404761D01*
X132454819Y-106404761D02*
X132502438Y-106309523D01*
X132502438Y-106309523D02*
X132550057Y-106261904D01*
X132550057Y-106261904D02*
X132645295Y-106214285D01*
X132645295Y-106214285D02*
X132740533Y-106214285D01*
X132740533Y-106214285D02*
X132883390Y-106261904D01*
X132883390Y-106261904D02*
X133454819Y-106833332D01*
X133454819Y-106833332D02*
X133454819Y-106214285D01*
X144378221Y-105359580D02*
X144330602Y-105407200D01*
X144330602Y-105407200D02*
X144187745Y-105454819D01*
X144187745Y-105454819D02*
X144092507Y-105454819D01*
X144092507Y-105454819D02*
X143949650Y-105407200D01*
X143949650Y-105407200D02*
X143854412Y-105311961D01*
X143854412Y-105311961D02*
X143806793Y-105216723D01*
X143806793Y-105216723D02*
X143759174Y-105026247D01*
X143759174Y-105026247D02*
X143759174Y-104883390D01*
X143759174Y-104883390D02*
X143806793Y-104692914D01*
X143806793Y-104692914D02*
X143854412Y-104597676D01*
X143854412Y-104597676D02*
X143949650Y-104502438D01*
X143949650Y-104502438D02*
X144092507Y-104454819D01*
X144092507Y-104454819D02*
X144187745Y-104454819D01*
X144187745Y-104454819D02*
X144330602Y-104502438D01*
X144330602Y-104502438D02*
X144378221Y-104550057D01*
X145330602Y-105454819D02*
X144759174Y-105454819D01*
X145044888Y-105454819D02*
X145044888Y-104454819D01*
X145044888Y-104454819D02*
X144949650Y-104597676D01*
X144949650Y-104597676D02*
X144854412Y-104692914D01*
X144854412Y-104692914D02*
X144759174Y-104740533D01*
X150666666Y-83954819D02*
X150666666Y-84669104D01*
X150666666Y-84669104D02*
X150619047Y-84811961D01*
X150619047Y-84811961D02*
X150523809Y-84907200D01*
X150523809Y-84907200D02*
X150380952Y-84954819D01*
X150380952Y-84954819D02*
X150285714Y-84954819D01*
X151571428Y-83954819D02*
X151380952Y-83954819D01*
X151380952Y-83954819D02*
X151285714Y-84002438D01*
X151285714Y-84002438D02*
X151238095Y-84050057D01*
X151238095Y-84050057D02*
X151142857Y-84192914D01*
X151142857Y-84192914D02*
X151095238Y-84383390D01*
X151095238Y-84383390D02*
X151095238Y-84764342D01*
X151095238Y-84764342D02*
X151142857Y-84859580D01*
X151142857Y-84859580D02*
X151190476Y-84907200D01*
X151190476Y-84907200D02*
X151285714Y-84954819D01*
X151285714Y-84954819D02*
X151476190Y-84954819D01*
X151476190Y-84954819D02*
X151571428Y-84907200D01*
X151571428Y-84907200D02*
X151619047Y-84859580D01*
X151619047Y-84859580D02*
X151666666Y-84764342D01*
X151666666Y-84764342D02*
X151666666Y-84526247D01*
X151666666Y-84526247D02*
X151619047Y-84431009D01*
X151619047Y-84431009D02*
X151571428Y-84383390D01*
X151571428Y-84383390D02*
X151476190Y-84335771D01*
X151476190Y-84335771D02*
X151285714Y-84335771D01*
X151285714Y-84335771D02*
X151190476Y-84383390D01*
X151190476Y-84383390D02*
X151142857Y-84431009D01*
X151142857Y-84431009D02*
X151095238Y-84526247D01*
X152166667Y-83407200D02*
X152309524Y-83454819D01*
X152309524Y-83454819D02*
X152547619Y-83454819D01*
X152547619Y-83454819D02*
X152642857Y-83407200D01*
X152642857Y-83407200D02*
X152690476Y-83359580D01*
X152690476Y-83359580D02*
X152738095Y-83264342D01*
X152738095Y-83264342D02*
X152738095Y-83169104D01*
X152738095Y-83169104D02*
X152690476Y-83073866D01*
X152690476Y-83073866D02*
X152642857Y-83026247D01*
X152642857Y-83026247D02*
X152547619Y-82978628D01*
X152547619Y-82978628D02*
X152357143Y-82931009D01*
X152357143Y-82931009D02*
X152261905Y-82883390D01*
X152261905Y-82883390D02*
X152214286Y-82835771D01*
X152214286Y-82835771D02*
X152166667Y-82740533D01*
X152166667Y-82740533D02*
X152166667Y-82645295D01*
X152166667Y-82645295D02*
X152214286Y-82550057D01*
X152214286Y-82550057D02*
X152261905Y-82502438D01*
X152261905Y-82502438D02*
X152357143Y-82454819D01*
X152357143Y-82454819D02*
X152595238Y-82454819D01*
X152595238Y-82454819D02*
X152738095Y-82502438D01*
X153071429Y-82454819D02*
X153309524Y-83454819D01*
X153309524Y-83454819D02*
X153500000Y-82740533D01*
X153500000Y-82740533D02*
X153690476Y-83454819D01*
X153690476Y-83454819D02*
X153928572Y-82454819D01*
X154261905Y-82550057D02*
X154309524Y-82502438D01*
X154309524Y-82502438D02*
X154404762Y-82454819D01*
X154404762Y-82454819D02*
X154642857Y-82454819D01*
X154642857Y-82454819D02*
X154738095Y-82502438D01*
X154738095Y-82502438D02*
X154785714Y-82550057D01*
X154785714Y-82550057D02*
X154833333Y-82645295D01*
X154833333Y-82645295D02*
X154833333Y-82740533D01*
X154833333Y-82740533D02*
X154785714Y-82883390D01*
X154785714Y-82883390D02*
X154214286Y-83454819D01*
X154214286Y-83454819D02*
X154833333Y-83454819D01*
D11*
%TO.C,C2*%
X134130000Y-109620000D02*
X134130000Y-104380000D01*
X134467000Y-109620000D02*
X134130000Y-109620000D01*
X136870000Y-109620000D02*
X136533000Y-109620000D01*
X134130000Y-104380000D02*
X134467000Y-104380000D01*
X136533000Y-104380000D02*
X136870000Y-104380000D01*
X136870000Y-104380000D02*
X136870000Y-109620000D01*
%TO.C,R3*%
X150730000Y-99130000D02*
X157270000Y-99130000D01*
X150730000Y-99460000D02*
X150730000Y-99130000D01*
X150730000Y-101540000D02*
X150730000Y-101870000D01*
X150730000Y-101870000D02*
X157270000Y-101870000D01*
X157270000Y-99130000D02*
X157270000Y-99460000D01*
X157270000Y-101870000D02*
X157270000Y-101540000D01*
%TO.C,C1*%
X138240113Y-105025000D02*
X138740113Y-105025000D01*
X138490113Y-104775000D02*
X138490113Y-105275000D01*
X141044888Y-103920000D02*
X141044888Y-105460000D01*
X141044888Y-107540000D02*
X141044888Y-109080000D01*
X141084888Y-103920000D02*
X141084888Y-105460000D01*
X141084888Y-107540000D02*
X141084888Y-109080000D01*
X141124888Y-103921000D02*
X141124888Y-105460000D01*
X141124888Y-107540000D02*
X141124888Y-109079000D01*
X141164888Y-103923000D02*
X141164888Y-105460000D01*
X141164888Y-107540000D02*
X141164888Y-109077000D01*
X141204888Y-103925000D02*
X141204888Y-105460000D01*
X141204888Y-107540000D02*
X141204888Y-109075000D01*
X141244888Y-103928000D02*
X141244888Y-105460000D01*
X141244888Y-107540000D02*
X141244888Y-109072000D01*
X141284888Y-103931000D02*
X141284888Y-105460000D01*
X141284888Y-107540000D02*
X141284888Y-109069000D01*
X141324888Y-103935000D02*
X141324888Y-105460000D01*
X141324888Y-107540000D02*
X141324888Y-109065000D01*
X141364888Y-103940000D02*
X141364888Y-105460000D01*
X141364888Y-107540000D02*
X141364888Y-109060000D01*
X141404888Y-103945000D02*
X141404888Y-105460000D01*
X141404888Y-107540000D02*
X141404888Y-109055000D01*
X141444888Y-103951000D02*
X141444888Y-105460000D01*
X141444888Y-107540000D02*
X141444888Y-109049000D01*
X141484888Y-103957000D02*
X141484888Y-105460000D01*
X141484888Y-107540000D02*
X141484888Y-109043000D01*
X141524888Y-103964000D02*
X141524888Y-105460000D01*
X141524888Y-107540000D02*
X141524888Y-109036000D01*
X141564888Y-103972000D02*
X141564888Y-105460000D01*
X141564888Y-107540000D02*
X141564888Y-109028000D01*
X141604888Y-103981000D02*
X141604888Y-105460000D01*
X141604888Y-107540000D02*
X141604888Y-109019000D01*
X141644888Y-103990000D02*
X141644888Y-105460000D01*
X141644888Y-107540000D02*
X141644888Y-109010000D01*
X141684888Y-103999000D02*
X141684888Y-105460000D01*
X141684888Y-107540000D02*
X141684888Y-109001000D01*
X141724888Y-104010000D02*
X141724888Y-105460000D01*
X141724888Y-107540000D02*
X141724888Y-108990000D01*
X141764888Y-104021000D02*
X141764888Y-105460000D01*
X141764888Y-107540000D02*
X141764888Y-108979000D01*
X141804888Y-104033000D02*
X141804888Y-105460000D01*
X141804888Y-107540000D02*
X141804888Y-108967000D01*
X141844888Y-104045000D02*
X141844888Y-105460000D01*
X141844888Y-107540000D02*
X141844888Y-108955000D01*
X141884888Y-104058000D02*
X141884888Y-105460000D01*
X141884888Y-107540000D02*
X141884888Y-108942000D01*
X141924888Y-104072000D02*
X141924888Y-105460000D01*
X141924888Y-107540000D02*
X141924888Y-108928000D01*
X141964888Y-104087000D02*
X141964888Y-105460000D01*
X141964888Y-107540000D02*
X141964888Y-108913000D01*
X142004888Y-104102000D02*
X142004888Y-105460000D01*
X142004888Y-107540000D02*
X142004888Y-108898000D01*
X142044888Y-104118000D02*
X142044888Y-105460000D01*
X142044888Y-107540000D02*
X142044888Y-108882000D01*
X142084888Y-104135000D02*
X142084888Y-105460000D01*
X142084888Y-107540000D02*
X142084888Y-108865000D01*
X142124888Y-104153000D02*
X142124888Y-105460000D01*
X142124888Y-107540000D02*
X142124888Y-108847000D01*
X142164888Y-104171000D02*
X142164888Y-105460000D01*
X142164888Y-107540000D02*
X142164888Y-108829000D01*
X142204888Y-104191000D02*
X142204888Y-105460000D01*
X142204888Y-107540000D02*
X142204888Y-108809000D01*
X142244888Y-104211000D02*
X142244888Y-105460000D01*
X142244888Y-107540000D02*
X142244888Y-108789000D01*
X142284888Y-104232000D02*
X142284888Y-105460000D01*
X142284888Y-107540000D02*
X142284888Y-108768000D01*
X142324888Y-104254000D02*
X142324888Y-105460000D01*
X142324888Y-107540000D02*
X142324888Y-108746000D01*
X142364888Y-104277000D02*
X142364888Y-105460000D01*
X142364888Y-107540000D02*
X142364888Y-108723000D01*
X142404888Y-104301000D02*
X142404888Y-105460000D01*
X142404888Y-107540000D02*
X142404888Y-108699000D01*
X142444888Y-104325000D02*
X142444888Y-105460000D01*
X142444888Y-107540000D02*
X142444888Y-108675000D01*
X142484888Y-104351000D02*
X142484888Y-105460000D01*
X142484888Y-107540000D02*
X142484888Y-108649000D01*
X142524888Y-104378000D02*
X142524888Y-105460000D01*
X142524888Y-107540000D02*
X142524888Y-108622000D01*
X142564888Y-104406000D02*
X142564888Y-105460000D01*
X142564888Y-107540000D02*
X142564888Y-108594000D01*
X142604888Y-104435000D02*
X142604888Y-105460000D01*
X142604888Y-107540000D02*
X142604888Y-108565000D01*
X142644888Y-104465000D02*
X142644888Y-105460000D01*
X142644888Y-107540000D02*
X142644888Y-108535000D01*
X142684888Y-104497000D02*
X142684888Y-105460000D01*
X142684888Y-107540000D02*
X142684888Y-108503000D01*
X142724888Y-104530000D02*
X142724888Y-105460000D01*
X142724888Y-107540000D02*
X142724888Y-108470000D01*
X142764888Y-104564000D02*
X142764888Y-105460000D01*
X142764888Y-107540000D02*
X142764888Y-108436000D01*
X142804888Y-104599000D02*
X142804888Y-105460000D01*
X142804888Y-107540000D02*
X142804888Y-108401000D01*
X142844888Y-104636000D02*
X142844888Y-105460000D01*
X142844888Y-107540000D02*
X142844888Y-108364000D01*
X142884888Y-104675000D02*
X142884888Y-105460000D01*
X142884888Y-107540000D02*
X142884888Y-108325000D01*
X142924888Y-104715000D02*
X142924888Y-105460000D01*
X142924888Y-107540000D02*
X142924888Y-108285000D01*
X142964888Y-104757000D02*
X142964888Y-105460000D01*
X142964888Y-107540000D02*
X142964888Y-108243000D01*
X143004888Y-104801000D02*
X143004888Y-105460000D01*
X143004888Y-107540000D02*
X143004888Y-108199000D01*
X143044888Y-104848000D02*
X143044888Y-105460000D01*
X143044888Y-107540000D02*
X143044888Y-108152000D01*
X143084888Y-104896000D02*
X143084888Y-108104000D01*
X143124888Y-104947000D02*
X143124888Y-108053000D01*
X143164888Y-105001000D02*
X143164888Y-107999000D01*
X143204888Y-105057000D02*
X143204888Y-107943000D01*
X143244888Y-105117000D02*
X143244888Y-107883000D01*
X143284888Y-105181000D02*
X143284888Y-107819000D01*
X143324888Y-105249000D02*
X143324888Y-107751000D01*
X143364888Y-105323000D02*
X143364888Y-107677000D01*
X143404888Y-105402000D02*
X143404888Y-107598000D01*
X143444888Y-105489000D02*
X143444888Y-107511000D01*
X143484888Y-105586000D02*
X143484888Y-107414000D01*
X143524888Y-105695000D02*
X143524888Y-107305000D01*
X143564888Y-105823000D02*
X143564888Y-107177000D01*
X143604888Y-105983000D02*
X143604888Y-107017000D01*
X143644888Y-106217000D02*
X143644888Y-106783000D01*
X143664888Y-106500000D02*
G75*
G02*
X138424888Y-106500000I-2620000J0D01*
G01*
X138424888Y-106500000D02*
G75*
G02*
X143664888Y-106500000I2620000J0D01*
G01*
%TO.C,J3*%
X123620000Y-91310000D02*
X125000000Y-91310000D01*
X123620000Y-92690000D02*
X123620000Y-91310000D01*
X123620000Y-93960000D02*
X123620000Y-101690000D01*
X123620000Y-93960000D02*
X126380000Y-93960000D01*
X123620000Y-101690000D02*
X126380000Y-101690000D01*
X126380000Y-93960000D02*
X126380000Y-101690000D01*
%TO.C,J1*%
X160120000Y-82080000D02*
X161500000Y-82080000D01*
X160120000Y-83460000D02*
X160120000Y-82080000D01*
X160120000Y-84730000D02*
X160120000Y-97540000D01*
X160120000Y-84730000D02*
X162880000Y-84730000D01*
X160120000Y-97540000D02*
X162880000Y-97540000D01*
X162880000Y-84730000D02*
X162880000Y-97540000D01*
%TO.C,J6*%
X152120000Y-84500000D02*
X153500000Y-84500000D01*
X152120000Y-85880000D02*
X152120000Y-84500000D01*
X152120000Y-87150000D02*
X152120000Y-94880000D01*
X152120000Y-87150000D02*
X154880000Y-87150000D01*
X152120000Y-94880000D02*
X154880000Y-94880000D01*
X154880000Y-87150000D02*
X154880000Y-94880000D01*
%TO.C,U1*%
X130330000Y-77880000D02*
X146570000Y-77880000D01*
X130330000Y-85164000D02*
X130330000Y-77880000D01*
X130330000Y-102120000D02*
X130330000Y-101500000D01*
X132450000Y-102120000D02*
X130330000Y-102120000D01*
X146570000Y-77880000D02*
X146570000Y-85000000D01*
X146570000Y-101500000D02*
X146570000Y-102120000D01*
X146570000Y-102120000D02*
X144450000Y-102120000D01*
X129900000Y-85000000D02*
X129660000Y-84664000D01*
X130140000Y-84664000D01*
X129900000Y-85000000D01*
G36*
X129900000Y-85000000D02*
G01*
X129660000Y-84664000D01*
X130140000Y-84664000D01*
X129900000Y-85000000D01*
G37*
%TO.C,SW2*%
X148350000Y-79140000D02*
X158570000Y-79140000D01*
X158570000Y-81860000D01*
X148350000Y-81860000D01*
X148350000Y-79140000D01*
%TO.C,R2*%
X120230000Y-79130000D02*
X126770000Y-79130000D01*
X120230000Y-79460000D02*
X120230000Y-79130000D01*
X120230000Y-81540000D02*
X120230000Y-81870000D01*
X120230000Y-81870000D02*
X126770000Y-81870000D01*
X126770000Y-79130000D02*
X126770000Y-79460000D01*
X126770000Y-81870000D02*
X126770000Y-81540000D01*
%TO.C,R4*%
X150540000Y-102130000D02*
X150540000Y-102460000D01*
X150540000Y-104870000D02*
X150540000Y-104540000D01*
X157080000Y-102130000D02*
X150540000Y-102130000D01*
X157080000Y-102460000D02*
X157080000Y-102130000D01*
X157080000Y-104540000D02*
X157080000Y-104870000D01*
X157080000Y-104870000D02*
X150540000Y-104870000D01*
%TO.C,R1*%
X119730000Y-87130000D02*
X126270000Y-87130000D01*
X119730000Y-87460000D02*
X119730000Y-87130000D01*
X119730000Y-89540000D02*
X119730000Y-89870000D01*
X119730000Y-89870000D02*
X126270000Y-89870000D01*
X126270000Y-87130000D02*
X126270000Y-87460000D01*
X126270000Y-89870000D02*
X126270000Y-89540000D01*
%TO.C,RST*%
X124120000Y-83120000D02*
X125500000Y-83120000D01*
X124120000Y-84500000D02*
X124120000Y-83120000D01*
X124120000Y-85770000D02*
X124120000Y-85880000D01*
X124120000Y-85770000D02*
X126880000Y-85770000D01*
X124120000Y-85880000D02*
X126880000Y-85880000D01*
X126880000Y-85770000D02*
X126880000Y-85880000D01*
%TO.C,R5*%
X150540000Y-105130000D02*
X157080000Y-105130000D01*
X150540000Y-105460000D02*
X150540000Y-105130000D01*
X150540000Y-107540000D02*
X150540000Y-107870000D01*
X150540000Y-107870000D02*
X157080000Y-107870000D01*
X157080000Y-105130000D02*
X157080000Y-105460000D01*
X157080000Y-107870000D02*
X157080000Y-107540000D01*
%TD*%
M02*
