%TF.GenerationSoftware,KiCad,Pcbnew,9.0.7*%
%TF.CreationDate,2026-02-08T21:28:46-06:00*%
%TF.ProjectId,Power,506f7765-722e-46b6-9963-61645f706362,rev?*%
%TF.SameCoordinates,Original*%
%TF.FileFunction,Copper,L2,Bot*%
%TF.FilePolarity,Positive*%
%FSLAX46Y46*%
G04 Gerber Fmt 4.6, Leading zero omitted, Abs format (unit mm)*
G04 Created by KiCad (PCBNEW 9.0.7) date 2026-02-08 21:28:46*
%MOMM*%
%LPD*%
G01*
G04 APERTURE LIST*
G04 Aperture macros list*
%AMRoundRect*
0 Rectangle with rounded corners*
0 $1 Rounding radius*
0 $2 $3 $4 $5 $6 $7 $8 $9 X,Y pos of 4 corners*
0 Add a 4 corners polygon primitive as box body*
4,1,4,$2,$3,$4,$5,$6,$7,$8,$9,$2,$3,0*
0 Add four circle primitives for the rounded corners*
1,1,$1+$1,$2,$3*
1,1,$1+$1,$4,$5*
1,1,$1+$1,$6,$7*
1,1,$1+$1,$8,$9*
0 Add four rect primitives between the rounded corners*
20,1,$1+$1,$2,$3,$4,$5,0*
20,1,$1+$1,$4,$5,$6,$7,0*
20,1,$1+$1,$6,$7,$8,$9,0*
20,1,$1+$1,$8,$9,$2,$3,0*%
G04 Aperture macros list end*
%TA.AperFunction,ComponentPad*%
%ADD10R,1.700000X1.700000*%
%TD*%
%TA.AperFunction,ComponentPad*%
%ADD11C,1.700000*%
%TD*%
%TA.AperFunction,ComponentPad*%
%ADD12RoundRect,0.250000X0.550000X-0.550000X0.550000X0.550000X-0.550000X0.550000X-0.550000X-0.550000X0*%
%TD*%
%TA.AperFunction,ComponentPad*%
%ADD13C,1.600000*%
%TD*%
%TA.AperFunction,Conductor*%
%ADD14C,0.500000*%
%TD*%
G04 APERTURE END LIST*
D10*
%TO.P,USB-C,1,Pin_1*%
%TO.N,GND*%
X205000000Y-88500000D03*
D11*
%TO.P,USB-C,2,Pin_2*%
%TO.N,unconnected-(J4-Pin_2-Pad2)*%
X205000000Y-91040000D03*
%TO.P,USB-C,3,Pin_3*%
%TO.N,unconnected-(J4-Pin_3-Pad3)*%
X205000000Y-93580000D03*
%TO.P,USB-C,4,Pin_4*%
%TO.N,Net-(D3-A)*%
X205000000Y-96120000D03*
%TD*%
D10*
%TO.P,GND,1,Pin_1*%
%TO.N,GND*%
X205000000Y-110160000D03*
D11*
%TO.P,GND,2,Pin_2*%
X205000000Y-107620000D03*
%TO.P,GND,3,Pin_3*%
X205000000Y-105080000D03*
%TO.P,GND,4,Pin_4*%
X205000000Y-102540000D03*
%TO.P,GND,5,Pin_5*%
X205000000Y-100000000D03*
%TD*%
D10*
%TO.P,J1,1,Pin_1*%
%TO.N,Net-(D1-A)*%
X193040000Y-109000000D03*
D11*
%TO.P,J1,2,Pin_2*%
X190500000Y-109000000D03*
%TO.P,J1,3,Pin_3*%
X187960000Y-109000000D03*
%TO.P,J1,4,Pin_4*%
X185420000Y-109000000D03*
%TO.P,J1,5,Pin_5*%
X182880000Y-109000000D03*
%TD*%
D12*
%TO.P,C4,1*%
%TO.N,Net-(D1-A)*%
X182500000Y-103000000D03*
D13*
%TO.P,C4,2*%
%TO.N,GND*%
X182500000Y-100500000D03*
%TD*%
%TO.P,C2,1*%
%TO.N,GND*%
X197500000Y-100500000D03*
%TO.P,C2,2*%
%TO.N,Net-(D3-A)*%
X197500000Y-103000000D03*
%TD*%
D10*
%TO.P,J2,1,Pin_1*%
%TO.N,Net-(D2-A)*%
X191580000Y-86500000D03*
D11*
%TO.P,J2,2,Pin_2*%
X189040000Y-86500000D03*
%TO.P,J2,3,Pin_3*%
X186500000Y-86500000D03*
%TO.P,J2,4,Pin_4*%
X183960000Y-86500000D03*
%TO.P,J2,5,Pin_5*%
X181420000Y-86500000D03*
%TD*%
D12*
%TO.P,C3,1*%
%TO.N,Net-(D2-A)*%
X182500000Y-93500000D03*
D13*
%TO.P,C3,2*%
%TO.N,GND*%
X182500000Y-91000000D03*
%TD*%
%TO.P,C1,1*%
%TO.N,GND*%
X199000000Y-94500000D03*
%TO.P,C1,2*%
%TO.N,Net-(D3-A)*%
X199000000Y-92000000D03*
%TD*%
D14*
%TO.N,Net-(D3-A)*%
X202500000Y-97500000D02*
X203620000Y-97500000D01*
X203620000Y-97500000D02*
X205000000Y-96120000D01*
X201500000Y-98500000D02*
X202500000Y-97500000D01*
X200000000Y-103000000D02*
X201500000Y-101500000D01*
X201500000Y-101500000D02*
X201500000Y-98500000D01*
X197500000Y-103000000D02*
X200000000Y-103000000D01*
X200880000Y-92000000D02*
X199000000Y-92000000D01*
X202000000Y-93120000D02*
X200880000Y-92000000D01*
X202000000Y-95000000D02*
X202000000Y-93120000D01*
X205000000Y-96120000D02*
X203120000Y-96120000D01*
X203120000Y-96120000D02*
X202000000Y-95000000D01*
%TO.N,GND*%
X184000000Y-100500000D02*
X182500000Y-100500000D01*
X187000000Y-97500000D02*
X184000000Y-100500000D01*
X197500000Y-100500000D02*
X194500000Y-97500000D01*
X182500000Y-89500000D02*
X182500000Y-91000000D01*
X183000000Y-89000000D02*
X182500000Y-89500000D01*
X185000000Y-89000000D02*
X183000000Y-89000000D01*
X186000000Y-90000000D02*
X185000000Y-89000000D01*
X186000000Y-94500000D02*
X186000000Y-90000000D01*
X185000000Y-95500000D02*
X186000000Y-94500000D01*
X194500000Y-97500000D02*
X187000000Y-97500000D01*
X197500000Y-94500000D02*
X194500000Y-97500000D01*
X199000000Y-94500000D02*
X197500000Y-94500000D01*
X187000000Y-97500000D02*
X185000000Y-95500000D01*
%TD*%
M02*
