%TF.GenerationSoftware,KiCad,Pcbnew,9.0.7*%
%TF.CreationDate,2026-02-08T21:28:46-06:00*%
%TF.ProjectId,Power,506f7765-722e-46b6-9963-61645f706362,rev?*%
%TF.SameCoordinates,Original*%
%TF.FileFunction,Legend,Bot*%
%TF.FilePolarity,Positive*%
%FSLAX46Y46*%
G04 Gerber Fmt 4.6, Leading zero omitted, Abs format (unit mm)*
G04 Created by KiCad (PCBNEW 9.0.7) date 2026-02-08 21:28:46*
%MOMM*%
%LPD*%
G01*
G04 APERTURE LIST*
%ADD10C,0.150000*%
G04 APERTURE END LIST*
D10*
X201454819Y-89119048D02*
X202264342Y-89119048D01*
X202264342Y-89119048D02*
X202359580Y-89166667D01*
X202359580Y-89166667D02*
X202407200Y-89214286D01*
X202407200Y-89214286D02*
X202454819Y-89309524D01*
X202454819Y-89309524D02*
X202454819Y-89500000D01*
X202454819Y-89500000D02*
X202407200Y-89595238D01*
X202407200Y-89595238D02*
X202359580Y-89642857D01*
X202359580Y-89642857D02*
X202264342Y-89690476D01*
X202264342Y-89690476D02*
X201454819Y-89690476D01*
X202407200Y-90119048D02*
X202454819Y-90261905D01*
X202454819Y-90261905D02*
X202454819Y-90500000D01*
X202454819Y-90500000D02*
X202407200Y-90595238D01*
X202407200Y-90595238D02*
X202359580Y-90642857D01*
X202359580Y-90642857D02*
X202264342Y-90690476D01*
X202264342Y-90690476D02*
X202169104Y-90690476D01*
X202169104Y-90690476D02*
X202073866Y-90642857D01*
X202073866Y-90642857D02*
X202026247Y-90595238D01*
X202026247Y-90595238D02*
X201978628Y-90500000D01*
X201978628Y-90500000D02*
X201931009Y-90309524D01*
X201931009Y-90309524D02*
X201883390Y-90214286D01*
X201883390Y-90214286D02*
X201835771Y-90166667D01*
X201835771Y-90166667D02*
X201740533Y-90119048D01*
X201740533Y-90119048D02*
X201645295Y-90119048D01*
X201645295Y-90119048D02*
X201550057Y-90166667D01*
X201550057Y-90166667D02*
X201502438Y-90214286D01*
X201502438Y-90214286D02*
X201454819Y-90309524D01*
X201454819Y-90309524D02*
X201454819Y-90547619D01*
X201454819Y-90547619D02*
X201502438Y-90690476D01*
X201931009Y-91452381D02*
X201978628Y-91595238D01*
X201978628Y-91595238D02*
X202026247Y-91642857D01*
X202026247Y-91642857D02*
X202121485Y-91690476D01*
X202121485Y-91690476D02*
X202264342Y-91690476D01*
X202264342Y-91690476D02*
X202359580Y-91642857D01*
X202359580Y-91642857D02*
X202407200Y-91595238D01*
X202407200Y-91595238D02*
X202454819Y-91500000D01*
X202454819Y-91500000D02*
X202454819Y-91119048D01*
X202454819Y-91119048D02*
X201454819Y-91119048D01*
X201454819Y-91119048D02*
X201454819Y-91452381D01*
X201454819Y-91452381D02*
X201502438Y-91547619D01*
X201502438Y-91547619D02*
X201550057Y-91595238D01*
X201550057Y-91595238D02*
X201645295Y-91642857D01*
X201645295Y-91642857D02*
X201740533Y-91642857D01*
X201740533Y-91642857D02*
X201835771Y-91595238D01*
X201835771Y-91595238D02*
X201883390Y-91547619D01*
X201883390Y-91547619D02*
X201931009Y-91452381D01*
X201931009Y-91452381D02*
X201931009Y-91119048D01*
X202073866Y-92119048D02*
X202073866Y-92880953D01*
X202359580Y-93928571D02*
X202407200Y-93880952D01*
X202407200Y-93880952D02*
X202454819Y-93738095D01*
X202454819Y-93738095D02*
X202454819Y-93642857D01*
X202454819Y-93642857D02*
X202407200Y-93500000D01*
X202407200Y-93500000D02*
X202311961Y-93404762D01*
X202311961Y-93404762D02*
X202216723Y-93357143D01*
X202216723Y-93357143D02*
X202026247Y-93309524D01*
X202026247Y-93309524D02*
X201883390Y-93309524D01*
X201883390Y-93309524D02*
X201692914Y-93357143D01*
X201692914Y-93357143D02*
X201597676Y-93404762D01*
X201597676Y-93404762D02*
X201502438Y-93500000D01*
X201502438Y-93500000D02*
X201454819Y-93642857D01*
X201454819Y-93642857D02*
X201454819Y-93738095D01*
X201454819Y-93738095D02*
X201502438Y-93880952D01*
X201502438Y-93880952D02*
X201550057Y-93928571D01*
X192785714Y-96454819D02*
X193261904Y-96454819D01*
X193261904Y-96454819D02*
X193309523Y-96931009D01*
X193309523Y-96931009D02*
X193261904Y-96883390D01*
X193261904Y-96883390D02*
X193166666Y-96835771D01*
X193166666Y-96835771D02*
X192928571Y-96835771D01*
X192928571Y-96835771D02*
X192833333Y-96883390D01*
X192833333Y-96883390D02*
X192785714Y-96931009D01*
X192785714Y-96931009D02*
X192738095Y-97026247D01*
X192738095Y-97026247D02*
X192738095Y-97264342D01*
X192738095Y-97264342D02*
X192785714Y-97359580D01*
X192785714Y-97359580D02*
X192833333Y-97407200D01*
X192833333Y-97407200D02*
X192928571Y-97454819D01*
X192928571Y-97454819D02*
X193166666Y-97454819D01*
X193166666Y-97454819D02*
X193261904Y-97407200D01*
X193261904Y-97407200D02*
X193309523Y-97359580D01*
X192309523Y-97359580D02*
X192261904Y-97407200D01*
X192261904Y-97407200D02*
X192309523Y-97454819D01*
X192309523Y-97454819D02*
X192357142Y-97407200D01*
X192357142Y-97407200D02*
X192309523Y-97359580D01*
X192309523Y-97359580D02*
X192309523Y-97454819D01*
X191642857Y-96454819D02*
X191547619Y-96454819D01*
X191547619Y-96454819D02*
X191452381Y-96502438D01*
X191452381Y-96502438D02*
X191404762Y-96550057D01*
X191404762Y-96550057D02*
X191357143Y-96645295D01*
X191357143Y-96645295D02*
X191309524Y-96835771D01*
X191309524Y-96835771D02*
X191309524Y-97073866D01*
X191309524Y-97073866D02*
X191357143Y-97264342D01*
X191357143Y-97264342D02*
X191404762Y-97359580D01*
X191404762Y-97359580D02*
X191452381Y-97407200D01*
X191452381Y-97407200D02*
X191547619Y-97454819D01*
X191547619Y-97454819D02*
X191642857Y-97454819D01*
X191642857Y-97454819D02*
X191738095Y-97407200D01*
X191738095Y-97407200D02*
X191785714Y-97359580D01*
X191785714Y-97359580D02*
X191833333Y-97264342D01*
X191833333Y-97264342D02*
X191880952Y-97073866D01*
X191880952Y-97073866D02*
X191880952Y-96835771D01*
X191880952Y-96835771D02*
X191833333Y-96645295D01*
X191833333Y-96645295D02*
X191785714Y-96550057D01*
X191785714Y-96550057D02*
X191738095Y-96502438D01*
X191738095Y-96502438D02*
X191642857Y-96454819D01*
X190261904Y-96454819D02*
X189928571Y-97454819D01*
X189928571Y-97454819D02*
X189595238Y-96454819D01*
X188690476Y-97454819D02*
X189023809Y-96978628D01*
X189261904Y-97454819D02*
X189261904Y-96454819D01*
X189261904Y-96454819D02*
X188880952Y-96454819D01*
X188880952Y-96454819D02*
X188785714Y-96502438D01*
X188785714Y-96502438D02*
X188738095Y-96550057D01*
X188738095Y-96550057D02*
X188690476Y-96645295D01*
X188690476Y-96645295D02*
X188690476Y-96788152D01*
X188690476Y-96788152D02*
X188738095Y-96883390D01*
X188738095Y-96883390D02*
X188785714Y-96931009D01*
X188785714Y-96931009D02*
X188880952Y-96978628D01*
X188880952Y-96978628D02*
X189261904Y-96978628D01*
X193357142Y-105954819D02*
X192738095Y-105954819D01*
X192738095Y-105954819D02*
X193071428Y-106335771D01*
X193071428Y-106335771D02*
X192928571Y-106335771D01*
X192928571Y-106335771D02*
X192833333Y-106383390D01*
X192833333Y-106383390D02*
X192785714Y-106431009D01*
X192785714Y-106431009D02*
X192738095Y-106526247D01*
X192738095Y-106526247D02*
X192738095Y-106764342D01*
X192738095Y-106764342D02*
X192785714Y-106859580D01*
X192785714Y-106859580D02*
X192833333Y-106907200D01*
X192833333Y-106907200D02*
X192928571Y-106954819D01*
X192928571Y-106954819D02*
X193214285Y-106954819D01*
X193214285Y-106954819D02*
X193309523Y-106907200D01*
X193309523Y-106907200D02*
X193357142Y-106859580D01*
X192309523Y-106859580D02*
X192261904Y-106907200D01*
X192261904Y-106907200D02*
X192309523Y-106954819D01*
X192309523Y-106954819D02*
X192357142Y-106907200D01*
X192357142Y-106907200D02*
X192309523Y-106859580D01*
X192309523Y-106859580D02*
X192309523Y-106954819D01*
X191928571Y-105954819D02*
X191309524Y-105954819D01*
X191309524Y-105954819D02*
X191642857Y-106335771D01*
X191642857Y-106335771D02*
X191500000Y-106335771D01*
X191500000Y-106335771D02*
X191404762Y-106383390D01*
X191404762Y-106383390D02*
X191357143Y-106431009D01*
X191357143Y-106431009D02*
X191309524Y-106526247D01*
X191309524Y-106526247D02*
X191309524Y-106764342D01*
X191309524Y-106764342D02*
X191357143Y-106859580D01*
X191357143Y-106859580D02*
X191404762Y-106907200D01*
X191404762Y-106907200D02*
X191500000Y-106954819D01*
X191500000Y-106954819D02*
X191785714Y-106954819D01*
X191785714Y-106954819D02*
X191880952Y-106907200D01*
X191880952Y-106907200D02*
X191928571Y-106859580D01*
X190261904Y-105954819D02*
X189928571Y-106954819D01*
X189928571Y-106954819D02*
X189595238Y-105954819D01*
X188690476Y-106954819D02*
X189023809Y-106478628D01*
X189261904Y-106954819D02*
X189261904Y-105954819D01*
X189261904Y-105954819D02*
X188880952Y-105954819D01*
X188880952Y-105954819D02*
X188785714Y-106002438D01*
X188785714Y-106002438D02*
X188738095Y-106050057D01*
X188738095Y-106050057D02*
X188690476Y-106145295D01*
X188690476Y-106145295D02*
X188690476Y-106288152D01*
X188690476Y-106288152D02*
X188738095Y-106383390D01*
X188738095Y-106383390D02*
X188785714Y-106431009D01*
X188785714Y-106431009D02*
X188880952Y-106478628D01*
X188880952Y-106478628D02*
X189261904Y-106478628D01*
X202002438Y-103238095D02*
X201954819Y-103142857D01*
X201954819Y-103142857D02*
X201954819Y-103000000D01*
X201954819Y-103000000D02*
X202002438Y-102857143D01*
X202002438Y-102857143D02*
X202097676Y-102761905D01*
X202097676Y-102761905D02*
X202192914Y-102714286D01*
X202192914Y-102714286D02*
X202383390Y-102666667D01*
X202383390Y-102666667D02*
X202526247Y-102666667D01*
X202526247Y-102666667D02*
X202716723Y-102714286D01*
X202716723Y-102714286D02*
X202811961Y-102761905D01*
X202811961Y-102761905D02*
X202907200Y-102857143D01*
X202907200Y-102857143D02*
X202954819Y-103000000D01*
X202954819Y-103000000D02*
X202954819Y-103095238D01*
X202954819Y-103095238D02*
X202907200Y-103238095D01*
X202907200Y-103238095D02*
X202859580Y-103285714D01*
X202859580Y-103285714D02*
X202526247Y-103285714D01*
X202526247Y-103285714D02*
X202526247Y-103095238D01*
X202954819Y-103714286D02*
X201954819Y-103714286D01*
X201954819Y-103714286D02*
X202954819Y-104285714D01*
X202954819Y-104285714D02*
X201954819Y-104285714D01*
X202954819Y-104761905D02*
X201954819Y-104761905D01*
X201954819Y-104761905D02*
X201954819Y-105000000D01*
X201954819Y-105000000D02*
X202002438Y-105142857D01*
X202002438Y-105142857D02*
X202097676Y-105238095D01*
X202097676Y-105238095D02*
X202192914Y-105285714D01*
X202192914Y-105285714D02*
X202383390Y-105333333D01*
X202383390Y-105333333D02*
X202526247Y-105333333D01*
X202526247Y-105333333D02*
X202716723Y-105285714D01*
X202716723Y-105285714D02*
X202811961Y-105238095D01*
X202811961Y-105238095D02*
X202907200Y-105142857D01*
X202907200Y-105142857D02*
X202954819Y-105000000D01*
X202954819Y-105000000D02*
X202954819Y-104761905D01*
X200359580Y-101583333D02*
X200407200Y-101535714D01*
X200407200Y-101535714D02*
X200454819Y-101392857D01*
X200454819Y-101392857D02*
X200454819Y-101297619D01*
X200454819Y-101297619D02*
X200407200Y-101154762D01*
X200407200Y-101154762D02*
X200311961Y-101059524D01*
X200311961Y-101059524D02*
X200216723Y-101011905D01*
X200216723Y-101011905D02*
X200026247Y-100964286D01*
X200026247Y-100964286D02*
X199883390Y-100964286D01*
X199883390Y-100964286D02*
X199692914Y-101011905D01*
X199692914Y-101011905D02*
X199597676Y-101059524D01*
X199597676Y-101059524D02*
X199502438Y-101154762D01*
X199502438Y-101154762D02*
X199454819Y-101297619D01*
X199454819Y-101297619D02*
X199454819Y-101392857D01*
X199454819Y-101392857D02*
X199502438Y-101535714D01*
X199502438Y-101535714D02*
X199550057Y-101583333D01*
X199550057Y-101964286D02*
X199502438Y-102011905D01*
X199502438Y-102011905D02*
X199454819Y-102107143D01*
X199454819Y-102107143D02*
X199454819Y-102345238D01*
X199454819Y-102345238D02*
X199502438Y-102440476D01*
X199502438Y-102440476D02*
X199550057Y-102488095D01*
X199550057Y-102488095D02*
X199645295Y-102535714D01*
X199645295Y-102535714D02*
X199740533Y-102535714D01*
X199740533Y-102535714D02*
X199883390Y-102488095D01*
X199883390Y-102488095D02*
X200454819Y-101916667D01*
X200454819Y-101916667D02*
X200454819Y-102535714D01*
X196859580Y-93083333D02*
X196907200Y-93035714D01*
X196907200Y-93035714D02*
X196954819Y-92892857D01*
X196954819Y-92892857D02*
X196954819Y-92797619D01*
X196954819Y-92797619D02*
X196907200Y-92654762D01*
X196907200Y-92654762D02*
X196811961Y-92559524D01*
X196811961Y-92559524D02*
X196716723Y-92511905D01*
X196716723Y-92511905D02*
X196526247Y-92464286D01*
X196526247Y-92464286D02*
X196383390Y-92464286D01*
X196383390Y-92464286D02*
X196192914Y-92511905D01*
X196192914Y-92511905D02*
X196097676Y-92559524D01*
X196097676Y-92559524D02*
X196002438Y-92654762D01*
X196002438Y-92654762D02*
X195954819Y-92797619D01*
X195954819Y-92797619D02*
X195954819Y-92892857D01*
X195954819Y-92892857D02*
X196002438Y-93035714D01*
X196002438Y-93035714D02*
X196050057Y-93083333D01*
X196954819Y-94035714D02*
X196954819Y-93464286D01*
X196954819Y-93750000D02*
X195954819Y-93750000D01*
X195954819Y-93750000D02*
X196097676Y-93654762D01*
X196097676Y-93654762D02*
X196192914Y-93559524D01*
X196192914Y-93559524D02*
X196240533Y-93464286D01*
M02*
