M48
; DRILL file {KiCad 9.0.7} date 2026-02-08T21:28:50-0600
; FORMAT={-:-/ absolute / metric / decimal}
; #@! TF.CreationDate,2026-02-08T21:28:50-06:00
; #@! TF.GenerationSoftware,Kicad,Pcbnew,9.0.7
; #@! TF.FileFunction,Plated,1,2,PTH
FMAT,2
METRIC
; #@! TA.AperFunction,Plated,PTH,ComponentDrill
T1C0.800
; #@! TA.AperFunction,Plated,PTH,ComponentDrill
T2C1.000
%
G90
G05
T1
X182.5Y-91.0
X182.5Y-93.5
X182.5Y-100.5
X182.5Y-103.0
X197.5Y-100.5
X197.5Y-103.0
X199.0Y-92.0
X199.0Y-94.5
T2
X181.42Y-86.5
X182.88Y-109.0
X183.96Y-86.5
X185.42Y-109.0
X186.5Y-86.5
X187.96Y-109.0
X189.04Y-86.5
X190.5Y-109.0
X191.58Y-86.5
X193.04Y-109.0
X205.0Y-88.5
X205.0Y-91.04
X205.0Y-93.58
X205.0Y-96.12
X205.0Y-100.0
X205.0Y-102.54
X205.0Y-105.08
X205.0Y-107.62
X205.0Y-110.16
M30
