%TF.GenerationSoftware,KiCad,Pcbnew,9.0.7*%
%TF.CreationDate,2026-01-31T20:36:48-06:00*%
%TF.ProjectId,Power,506f7765-722e-46b6-9963-61645f706362,rev?*%
%TF.SameCoordinates,Original*%
%TF.FileFunction,Legend,Bot*%
%TF.FilePolarity,Positive*%
%FSLAX46Y46*%
G04 Gerber Fmt 4.6, Leading zero omitted, Abs format (unit mm)*
G04 Created by KiCad (PCBNEW 9.0.7) date 2026-01-31 20:36:48*
%MOMM*%
%LPD*%
G01*
G04 APERTURE LIST*
%ADD10C,0.150000*%
G04 APERTURE END LIST*
D10*
X215356666Y-86954819D02*
X215689999Y-86478628D01*
X215928094Y-86954819D02*
X215928094Y-85954819D01*
X215928094Y-85954819D02*
X215547142Y-85954819D01*
X215547142Y-85954819D02*
X215451904Y-86002438D01*
X215451904Y-86002438D02*
X215404285Y-86050057D01*
X215404285Y-86050057D02*
X215356666Y-86145295D01*
X215356666Y-86145295D02*
X215356666Y-86288152D01*
X215356666Y-86288152D02*
X215404285Y-86383390D01*
X215404285Y-86383390D02*
X215451904Y-86431009D01*
X215451904Y-86431009D02*
X215547142Y-86478628D01*
X215547142Y-86478628D02*
X215928094Y-86478628D01*
X214975713Y-86050057D02*
X214928094Y-86002438D01*
X214928094Y-86002438D02*
X214832856Y-85954819D01*
X214832856Y-85954819D02*
X214594761Y-85954819D01*
X214594761Y-85954819D02*
X214499523Y-86002438D01*
X214499523Y-86002438D02*
X214451904Y-86050057D01*
X214451904Y-86050057D02*
X214404285Y-86145295D01*
X214404285Y-86145295D02*
X214404285Y-86240533D01*
X214404285Y-86240533D02*
X214451904Y-86383390D01*
X214451904Y-86383390D02*
X215023332Y-86954819D01*
X215023332Y-86954819D02*
X214404285Y-86954819D01*
X215356666Y-90954819D02*
X215689999Y-90478628D01*
X215928094Y-90954819D02*
X215928094Y-89954819D01*
X215928094Y-89954819D02*
X215547142Y-89954819D01*
X215547142Y-89954819D02*
X215451904Y-90002438D01*
X215451904Y-90002438D02*
X215404285Y-90050057D01*
X215404285Y-90050057D02*
X215356666Y-90145295D01*
X215356666Y-90145295D02*
X215356666Y-90288152D01*
X215356666Y-90288152D02*
X215404285Y-90383390D01*
X215404285Y-90383390D02*
X215451904Y-90431009D01*
X215451904Y-90431009D02*
X215547142Y-90478628D01*
X215547142Y-90478628D02*
X215928094Y-90478628D01*
X214404285Y-90954819D02*
X214975713Y-90954819D01*
X214689999Y-90954819D02*
X214689999Y-89954819D01*
X214689999Y-89954819D02*
X214785237Y-90097676D01*
X214785237Y-90097676D02*
X214880475Y-90192914D01*
X214880475Y-90192914D02*
X214975713Y-90240533D01*
X215356666Y-82904819D02*
X215689999Y-82428628D01*
X215928094Y-82904819D02*
X215928094Y-81904819D01*
X215928094Y-81904819D02*
X215547142Y-81904819D01*
X215547142Y-81904819D02*
X215451904Y-81952438D01*
X215451904Y-81952438D02*
X215404285Y-82000057D01*
X215404285Y-82000057D02*
X215356666Y-82095295D01*
X215356666Y-82095295D02*
X215356666Y-82238152D01*
X215356666Y-82238152D02*
X215404285Y-82333390D01*
X215404285Y-82333390D02*
X215451904Y-82381009D01*
X215451904Y-82381009D02*
X215547142Y-82428628D01*
X215547142Y-82428628D02*
X215928094Y-82428628D01*
X215023332Y-81904819D02*
X214404285Y-81904819D01*
X214404285Y-81904819D02*
X214737618Y-82285771D01*
X214737618Y-82285771D02*
X214594761Y-82285771D01*
X214594761Y-82285771D02*
X214499523Y-82333390D01*
X214499523Y-82333390D02*
X214451904Y-82381009D01*
X214451904Y-82381009D02*
X214404285Y-82476247D01*
X214404285Y-82476247D02*
X214404285Y-82714342D01*
X214404285Y-82714342D02*
X214451904Y-82809580D01*
X214451904Y-82809580D02*
X214499523Y-82857200D01*
X214499523Y-82857200D02*
X214594761Y-82904819D01*
X214594761Y-82904819D02*
X214880475Y-82904819D01*
X214880475Y-82904819D02*
X214975713Y-82857200D01*
X214975713Y-82857200D02*
X215023332Y-82809580D01*
X200859580Y-107833333D02*
X200907200Y-107785714D01*
X200907200Y-107785714D02*
X200954819Y-107642857D01*
X200954819Y-107642857D02*
X200954819Y-107547619D01*
X200954819Y-107547619D02*
X200907200Y-107404762D01*
X200907200Y-107404762D02*
X200811961Y-107309524D01*
X200811961Y-107309524D02*
X200716723Y-107261905D01*
X200716723Y-107261905D02*
X200526247Y-107214286D01*
X200526247Y-107214286D02*
X200383390Y-107214286D01*
X200383390Y-107214286D02*
X200192914Y-107261905D01*
X200192914Y-107261905D02*
X200097676Y-107309524D01*
X200097676Y-107309524D02*
X200002438Y-107404762D01*
X200002438Y-107404762D02*
X199954819Y-107547619D01*
X199954819Y-107547619D02*
X199954819Y-107642857D01*
X199954819Y-107642857D02*
X200002438Y-107785714D01*
X200002438Y-107785714D02*
X200050057Y-107833333D01*
X200050057Y-108214286D02*
X200002438Y-108261905D01*
X200002438Y-108261905D02*
X199954819Y-108357143D01*
X199954819Y-108357143D02*
X199954819Y-108595238D01*
X199954819Y-108595238D02*
X200002438Y-108690476D01*
X200002438Y-108690476D02*
X200050057Y-108738095D01*
X200050057Y-108738095D02*
X200145295Y-108785714D01*
X200145295Y-108785714D02*
X200240533Y-108785714D01*
X200240533Y-108785714D02*
X200383390Y-108738095D01*
X200383390Y-108738095D02*
X200954819Y-108166667D01*
X200954819Y-108166667D02*
X200954819Y-108785714D01*
X200859580Y-91833333D02*
X200907200Y-91785714D01*
X200907200Y-91785714D02*
X200954819Y-91642857D01*
X200954819Y-91642857D02*
X200954819Y-91547619D01*
X200954819Y-91547619D02*
X200907200Y-91404762D01*
X200907200Y-91404762D02*
X200811961Y-91309524D01*
X200811961Y-91309524D02*
X200716723Y-91261905D01*
X200716723Y-91261905D02*
X200526247Y-91214286D01*
X200526247Y-91214286D02*
X200383390Y-91214286D01*
X200383390Y-91214286D02*
X200192914Y-91261905D01*
X200192914Y-91261905D02*
X200097676Y-91309524D01*
X200097676Y-91309524D02*
X200002438Y-91404762D01*
X200002438Y-91404762D02*
X199954819Y-91547619D01*
X199954819Y-91547619D02*
X199954819Y-91642857D01*
X199954819Y-91642857D02*
X200002438Y-91785714D01*
X200002438Y-91785714D02*
X200050057Y-91833333D01*
X200954819Y-92785714D02*
X200954819Y-92214286D01*
X200954819Y-92500000D02*
X199954819Y-92500000D01*
X199954819Y-92500000D02*
X200097676Y-92404762D01*
X200097676Y-92404762D02*
X200192914Y-92309524D01*
X200192914Y-92309524D02*
X200240533Y-92214286D01*
M02*
