%TF.GenerationSoftware,KiCad,Pcbnew,9.0.7*%
%TF.CreationDate,2026-01-31T20:36:48-06:00*%
%TF.ProjectId,Power,506f7765-722e-46b6-9963-61645f706362,rev?*%
%TF.SameCoordinates,Original*%
%TF.FileFunction,Copper,L2,Bot*%
%TF.FilePolarity,Positive*%
%FSLAX46Y46*%
G04 Gerber Fmt 4.6, Leading zero omitted, Abs format (unit mm)*
G04 Created by KiCad (PCBNEW 9.0.7) date 2026-01-31 20:36:48*
%MOMM*%
%LPD*%
G01*
G04 APERTURE LIST*
G04 Aperture macros list*
%AMRoundRect*
0 Rectangle with rounded corners*
0 $1 Rounding radius*
0 $2 $3 $4 $5 $6 $7 $8 $9 X,Y pos of 4 corners*
0 Add a 4 corners polygon primitive as box body*
4,1,4,$2,$3,$4,$5,$6,$7,$8,$9,$2,$3,0*
0 Add four circle primitives for the rounded corners*
1,1,$1+$1,$2,$3*
1,1,$1+$1,$4,$5*
1,1,$1+$1,$6,$7*
1,1,$1+$1,$8,$9*
0 Add four rect primitives between the rounded corners*
20,1,$1+$1,$2,$3,$4,$5,0*
20,1,$1+$1,$4,$5,$6,$7,0*
20,1,$1+$1,$6,$7,$8,$9,0*
20,1,$1+$1,$8,$9,$2,$3,0*%
G04 Aperture macros list end*
%TA.AperFunction,EtchedComponent*%
%ADD10C,0.000000*%
%TD*%
%TA.AperFunction,ComponentPad*%
%ADD11C,1.600000*%
%TD*%
%TA.AperFunction,ComponentPad*%
%ADD12R,1.700000X1.700000*%
%TD*%
%TA.AperFunction,ComponentPad*%
%ADD13C,1.700000*%
%TD*%
%TA.AperFunction,ComponentPad*%
%ADD14O,2.000000X1.905000*%
%TD*%
%TA.AperFunction,ComponentPad*%
%ADD15R,2.000000X1.905000*%
%TD*%
%TA.AperFunction,ComponentPad*%
%ADD16R,3.500000X3.500000*%
%TD*%
%TA.AperFunction,ComponentPad*%
%ADD17RoundRect,0.750000X0.750000X1.000000X-0.750000X1.000000X-0.750000X-1.000000X0.750000X-1.000000X0*%
%TD*%
%TA.AperFunction,ComponentPad*%
%ADD18RoundRect,0.875000X0.875000X0.875000X-0.875000X0.875000X-0.875000X-0.875000X0.875000X-0.875000X0*%
%TD*%
%TA.AperFunction,ComponentPad*%
%ADD19R,1.800000X1.800000*%
%TD*%
%TA.AperFunction,ComponentPad*%
%ADD20C,1.800000*%
%TD*%
%TA.AperFunction,ComponentPad*%
%ADD21RoundRect,0.250000X-0.550000X-0.550000X0.550000X-0.550000X0.550000X0.550000X-0.550000X0.550000X0*%
%TD*%
%TA.AperFunction,Conductor*%
%ADD22C,0.500000*%
%TD*%
G04 APERTURE END LIST*
D10*
%TA.AperFunction,EtchedComponent*%
%TO.C,G\u002A\u002A\u002A*%
G36*
X185949220Y-103568014D02*
G01*
X185984603Y-103574979D01*
X185986381Y-103576664D01*
X185992155Y-103607999D01*
X185997015Y-103675031D01*
X186000749Y-103772678D01*
X186003145Y-103895856D01*
X186003990Y-104039484D01*
X186003990Y-104503990D01*
X184633348Y-104503990D01*
X184480235Y-104503947D01*
X184214879Y-104503607D01*
X183987910Y-104502886D01*
X183796798Y-104501735D01*
X183639011Y-104500106D01*
X183512018Y-104497952D01*
X183413288Y-104495223D01*
X183340292Y-104491871D01*
X183290497Y-104487849D01*
X183261372Y-104483107D01*
X183250388Y-104477597D01*
X183239622Y-104462070D01*
X183225756Y-104477597D01*
X183216810Y-104486357D01*
X183169636Y-104499413D01*
X183088515Y-104503990D01*
X183024662Y-104502993D01*
X182984222Y-104497257D01*
X182967368Y-104483009D01*
X182964255Y-104456483D01*
X182973488Y-104416422D01*
X183015792Y-104370121D01*
X183085347Y-104343785D01*
X183174386Y-104341659D01*
X183214849Y-104345618D01*
X183298508Y-104344412D01*
X183350853Y-104324820D01*
X183377459Y-104285293D01*
X183400731Y-104239013D01*
X183440178Y-104219912D01*
X183506715Y-104223808D01*
X183510616Y-104224392D01*
X183582858Y-104225280D01*
X183656324Y-104213146D01*
X183745890Y-104187727D01*
X183819781Y-104168170D01*
X183867622Y-104158868D01*
X183897241Y-104159006D01*
X183916464Y-104167772D01*
X183933118Y-104184350D01*
X183959561Y-104208824D01*
X184003450Y-104235590D01*
X184025060Y-104252191D01*
X184040399Y-104294447D01*
X184045754Y-104322606D01*
X184070055Y-104328217D01*
X184092352Y-104325969D01*
X184147807Y-104331048D01*
X184217484Y-104344214D01*
X184282641Y-104357025D01*
X184369848Y-104362492D01*
X184423364Y-104347017D01*
X184441563Y-104310841D01*
X184447444Y-104286832D01*
X184478513Y-104256629D01*
X184503979Y-104242283D01*
X184543051Y-104204507D01*
X184567487Y-104182319D01*
X184616950Y-104165711D01*
X184629053Y-104163825D01*
X184676321Y-104138497D01*
X184726399Y-104091813D01*
X184745283Y-104071534D01*
X184791207Y-104033472D01*
X184826690Y-104018370D01*
X184846403Y-104015131D01*
X184863841Y-103997256D01*
X184866991Y-103987935D01*
X184894305Y-103976143D01*
X184901001Y-103975433D01*
X184943756Y-103960706D01*
X184998035Y-103932914D01*
X185016219Y-103922585D01*
X185054828Y-103905947D01*
X185097927Y-103898930D01*
X185157949Y-103900339D01*
X185247330Y-103908981D01*
X185248094Y-103909065D01*
X185338602Y-103917560D01*
X185397487Y-103918641D01*
X185434728Y-103911705D01*
X185460308Y-103896152D01*
X185482906Y-103872284D01*
X185497257Y-103843947D01*
X185497323Y-103842905D01*
X185514125Y-103816172D01*
X185551619Y-103781105D01*
X185594386Y-103738166D01*
X185623888Y-103691244D01*
X185629549Y-103678825D01*
X185652261Y-103655528D01*
X185695498Y-103640653D01*
X185770108Y-103629627D01*
X185770302Y-103629605D01*
X185846058Y-103617960D01*
X185886475Y-103603013D01*
X185898421Y-103582228D01*
X185903481Y-103564086D01*
X185931819Y-103562163D01*
X185949220Y-103568014D01*
G37*
%TD.AperFunction*%
%TA.AperFunction,EtchedComponent*%
G36*
X182485792Y-104384128D02*
G01*
X182524815Y-104421817D01*
X182541314Y-104462249D01*
X182540899Y-104471429D01*
X182530731Y-104492243D01*
X182499125Y-104501734D01*
X182435744Y-104503990D01*
X182397723Y-104502645D01*
X182349166Y-104495426D01*
X182330175Y-104484053D01*
X182330568Y-104481099D01*
X182347034Y-104449562D01*
X182380223Y-104405933D01*
X182389870Y-104394782D01*
X182421245Y-104364370D01*
X182447339Y-104362033D01*
X182485792Y-104384128D01*
G37*
%TD.AperFunction*%
%TA.AperFunction,EtchedComponent*%
G36*
X181568177Y-104271787D02*
G01*
X181636802Y-104275793D01*
X181677269Y-104288688D01*
X181701659Y-104313965D01*
X181714720Y-104330560D01*
X181743252Y-104346601D01*
X181792097Y-104354245D01*
X181872158Y-104356192D01*
X181888862Y-104356221D01*
X181961787Y-104358581D01*
X182010253Y-104368314D01*
X182049322Y-104390422D01*
X182094053Y-104429908D01*
X182171821Y-104503623D01*
X181691480Y-104503806D01*
X181211139Y-104503990D01*
X181211139Y-104454435D01*
X181216493Y-104418524D01*
X181255460Y-104358103D01*
X181328143Y-104311810D01*
X181429768Y-104282177D01*
X181555560Y-104271737D01*
X181568177Y-104271787D01*
G37*
%TD.AperFunction*%
%TA.AperFunction,EtchedComponent*%
G36*
X176158856Y-100135925D02*
G01*
X176203198Y-100148202D01*
X176227520Y-100174256D01*
X176241295Y-100209590D01*
X176249012Y-100270459D01*
X176240372Y-100323472D01*
X176216368Y-100352704D01*
X176196395Y-100373179D01*
X176204400Y-100397066D01*
X176235134Y-100404317D01*
X176280452Y-100407088D01*
X176332034Y-100430780D01*
X176362447Y-100466659D01*
X176380552Y-100504836D01*
X176412233Y-100554794D01*
X176415706Y-100559661D01*
X176431439Y-100587769D01*
X176423567Y-100590497D01*
X176405459Y-100587574D01*
X176397174Y-100617789D01*
X176401299Y-100643526D01*
X176418288Y-100661263D01*
X176429653Y-100666834D01*
X176441069Y-100698212D01*
X176444090Y-100716175D01*
X176453385Y-100708769D01*
X176466807Y-100689137D01*
X176490801Y-100685685D01*
X176502744Y-100714048D01*
X176505126Y-100728617D01*
X176523857Y-100745719D01*
X176532816Y-100748514D01*
X176544971Y-100775130D01*
X176548962Y-100790705D01*
X176577643Y-100817080D01*
X176577665Y-100817088D01*
X176607242Y-100844632D01*
X176632485Y-100893212D01*
X176634169Y-100897865D01*
X176654748Y-100935903D01*
X176673711Y-100945029D01*
X176675579Y-100944597D01*
X176684383Y-100965007D01*
X176690486Y-101017316D01*
X176692769Y-101092852D01*
X176692744Y-101101165D01*
X176689679Y-101179508D01*
X176682271Y-101232790D01*
X176671655Y-101252452D01*
X176661942Y-101256025D01*
X176650541Y-101284123D01*
X176662554Y-101305822D01*
X176709901Y-101315793D01*
X176758035Y-101325007D01*
X176811036Y-101354712D01*
X176825407Y-101366799D01*
X176882469Y-101397587D01*
X176964589Y-101419836D01*
X177080282Y-101436122D01*
X177109467Y-101440098D01*
X177195304Y-101468891D01*
X177246140Y-101520418D01*
X177262973Y-101595552D01*
X177271310Y-101657517D01*
X177294644Y-101724649D01*
X177295296Y-101725903D01*
X177317134Y-101774000D01*
X177326185Y-101805845D01*
X177326282Y-101807398D01*
X177339385Y-101839480D01*
X177367850Y-101885078D01*
X177387266Y-101908666D01*
X177434473Y-101939394D01*
X177506405Y-101954512D01*
X177528375Y-101957823D01*
X177598653Y-101978359D01*
X177649486Y-102007351D01*
X177673970Y-102024559D01*
X177740219Y-102047734D01*
X177840628Y-102062014D01*
X177848087Y-102062678D01*
X177942822Y-102074101D01*
X177999937Y-102090603D01*
X178023760Y-102116663D01*
X178018620Y-102156759D01*
X177988845Y-102215370D01*
X177969388Y-102250507D01*
X177950580Y-102291978D01*
X177949624Y-102308146D01*
X177954114Y-102312628D01*
X177941626Y-102336035D01*
X177926338Y-102371149D01*
X177919725Y-102425769D01*
X177917142Y-102478144D01*
X177906153Y-102545677D01*
X177902615Y-102560925D01*
X177902718Y-102594760D01*
X177925469Y-102603740D01*
X177947129Y-102612347D01*
X177959601Y-102652489D01*
X177961153Y-102673253D01*
X177979936Y-102726664D01*
X178012651Y-102761795D01*
X178049943Y-102766808D01*
X178051120Y-102766374D01*
X178080792Y-102772151D01*
X178104682Y-102816163D01*
X178105156Y-102817507D01*
X178126936Y-102860433D01*
X178148981Y-102878221D01*
X178169820Y-102891010D01*
X178194733Y-102928893D01*
X178200838Y-102939523D01*
X178242260Y-102981296D01*
X178299850Y-103016555D01*
X178323166Y-103027379D01*
X178362822Y-103052856D01*
X178378874Y-103087017D01*
X178381879Y-103146597D01*
X178382626Y-103172825D01*
X178389601Y-103216558D01*
X178402079Y-103227165D01*
X178408497Y-103227763D01*
X178413982Y-103257379D01*
X178409795Y-103320089D01*
X178405266Y-103362931D01*
X178405844Y-103407634D01*
X178420246Y-103432426D01*
X178452936Y-103450843D01*
X178487999Y-103472824D01*
X178504631Y-103506906D01*
X178508562Y-103567632D01*
X178509683Y-103601815D01*
X178521965Y-103654557D01*
X178551728Y-103685648D01*
X178565145Y-103696244D01*
X178603631Y-103741937D01*
X178639926Y-103801953D01*
X178664830Y-103846313D01*
X178698311Y-103881838D01*
X178737617Y-103891687D01*
X178777057Y-103898785D01*
X178829222Y-103926934D01*
X178849259Y-103943869D01*
X178872685Y-103949211D01*
X178897633Y-103921888D01*
X178914776Y-103894004D01*
X178920627Y-103870806D01*
X178921310Y-103861409D01*
X178941518Y-103834749D01*
X178954635Y-103825813D01*
X178974549Y-103833772D01*
X178996825Y-103876977D01*
X179000236Y-103885006D01*
X179036133Y-103952216D01*
X179074497Y-104000111D01*
X179107265Y-104018370D01*
X179107857Y-104018393D01*
X179134612Y-104033785D01*
X179171193Y-104069135D01*
X179214346Y-104106649D01*
X179258105Y-104127414D01*
X179283833Y-104139866D01*
X179306789Y-104179998D01*
X179316971Y-104206728D01*
X179348644Y-104226399D01*
X179411863Y-104239856D01*
X179451516Y-104247138D01*
X179560790Y-104282653D01*
X179647111Y-104334512D01*
X179701062Y-104397579D01*
X179702283Y-104399956D01*
X179724137Y-104448993D01*
X179733168Y-104481827D01*
X179733101Y-104482111D01*
X179713678Y-104486395D01*
X179659163Y-104490188D01*
X179568762Y-104493499D01*
X179441683Y-104496339D01*
X179277134Y-104498716D01*
X179074321Y-104500639D01*
X178832453Y-104502119D01*
X178550737Y-104503165D01*
X178228379Y-104503785D01*
X177864589Y-104503990D01*
X175996010Y-104503990D01*
X175996010Y-102318703D01*
X175996010Y-100133416D01*
X176100837Y-100133416D01*
X176158856Y-100135925D01*
G37*
%TD.AperFunction*%
%TA.AperFunction,EtchedComponent*%
G36*
X186003990Y-101875311D02*
G01*
X186003936Y-102092553D01*
X186003660Y-102272203D01*
X186002990Y-102417082D01*
X186001757Y-102530927D01*
X185999789Y-102617472D01*
X185996916Y-102680453D01*
X185992968Y-102723606D01*
X185987774Y-102750667D01*
X185981163Y-102765371D01*
X185972965Y-102771454D01*
X185963009Y-102772651D01*
X185938874Y-102769680D01*
X185910698Y-102754320D01*
X185900691Y-102747292D01*
X185857843Y-102733617D01*
X185795552Y-102722218D01*
X185761132Y-102716197D01*
X185701055Y-102698235D01*
X185665810Y-102677207D01*
X185661916Y-102673167D01*
X185613005Y-102652894D01*
X185527589Y-102645968D01*
X185484003Y-102644250D01*
X185428661Y-102635929D01*
X185401117Y-102623030D01*
X185399685Y-102614235D01*
X185415016Y-102578584D01*
X185450928Y-102533296D01*
X185454433Y-102529636D01*
X185486072Y-102494993D01*
X185506658Y-102463739D01*
X185517753Y-102426777D01*
X185520915Y-102375007D01*
X185517705Y-102299332D01*
X185509683Y-102190652D01*
X185507240Y-102157576D01*
X185502426Y-102053966D01*
X185505478Y-101967324D01*
X185517808Y-101878507D01*
X185540829Y-101768375D01*
X185548556Y-101732281D01*
X185568930Y-101614353D01*
X185582934Y-101498027D01*
X185588045Y-101402829D01*
X185588075Y-101366881D01*
X185590273Y-101299431D01*
X185598119Y-101258933D01*
X185614869Y-101234405D01*
X185643780Y-101214866D01*
X185682072Y-101185524D01*
X185731898Y-101112395D01*
X185750624Y-101026547D01*
X185753494Y-101000673D01*
X185768989Y-100985540D01*
X185806974Y-100979233D01*
X185877307Y-100977971D01*
X186003990Y-100977971D01*
X186003990Y-101875311D01*
G37*
%TD.AperFunction*%
%TA.AperFunction,EtchedComponent*%
G36*
X186003990Y-95308894D02*
G01*
X186003990Y-95351122D01*
X186003990Y-95456691D01*
X186003990Y-95477805D01*
X186003990Y-95490910D01*
X186003990Y-95574958D01*
X186003990Y-95688944D01*
X186003990Y-95731172D01*
X186003990Y-95773399D01*
X186003990Y-95796891D01*
X186003990Y-95836741D01*
X186003990Y-95859554D01*
X186003990Y-95938791D01*
X186003990Y-96020529D01*
X186003990Y-96130345D01*
X186003990Y-96174563D01*
X186003990Y-96237905D01*
X186003990Y-96280133D01*
X186003990Y-96297727D01*
X186003990Y-96372048D01*
X186003990Y-96512385D01*
X186003990Y-96575727D01*
X186003990Y-96723524D01*
X186003990Y-96850207D01*
X186003990Y-96922512D01*
X186003990Y-96955293D01*
X186003990Y-96998005D01*
X186003990Y-97019118D01*
X186003990Y-97211074D01*
X186003990Y-97230257D01*
X186003990Y-97260553D01*
X186003990Y-97269950D01*
X186003990Y-97293599D01*
X186003990Y-97399168D01*
X186003990Y-97457261D01*
X186003990Y-99414576D01*
X185924813Y-99413973D01*
X185914157Y-99414007D01*
X185835424Y-99418194D01*
X185755902Y-99427231D01*
X185722168Y-99432176D01*
X185683342Y-99433162D01*
X185668533Y-99417959D01*
X185666168Y-99380545D01*
X185658052Y-99336645D01*
X185613384Y-99280358D01*
X185576110Y-99244300D01*
X185560599Y-99213251D01*
X185558855Y-99199229D01*
X185542129Y-99176510D01*
X185502410Y-99159878D01*
X185433286Y-99147213D01*
X185328346Y-99136394D01*
X185148097Y-99120928D01*
X184997444Y-99107413D01*
X184880602Y-99095919D01*
X184793341Y-99085800D01*
X184731431Y-99076412D01*
X184690642Y-99067106D01*
X184666744Y-99057239D01*
X184655508Y-99046164D01*
X184652702Y-99033235D01*
X184635230Y-99020048D01*
X184591822Y-99014380D01*
X184577743Y-99013994D01*
X184538056Y-99000968D01*
X184520851Y-98961596D01*
X184520701Y-98960806D01*
X184517078Y-98883768D01*
X184534807Y-98823716D01*
X184570577Y-98791945D01*
X184593147Y-98781555D01*
X184610474Y-98761014D01*
X184618598Y-98747695D01*
X184652702Y-98729343D01*
X184677232Y-98713916D01*
X184694930Y-98675135D01*
X184699586Y-98657631D01*
X184729707Y-98636438D01*
X184773525Y-98635166D01*
X184814178Y-98656455D01*
X184845255Y-98665922D01*
X184890710Y-98654084D01*
X184930952Y-98627129D01*
X184948296Y-98593375D01*
X184939924Y-98566556D01*
X184907953Y-98530119D01*
X184904732Y-98527757D01*
X184880199Y-98498334D01*
X184890941Y-98463681D01*
X184903448Y-98426307D01*
X184889509Y-98371971D01*
X184877178Y-98333858D01*
X184882177Y-98317622D01*
X184900653Y-98312126D01*
X184940198Y-98282392D01*
X184975347Y-98241019D01*
X184990524Y-98204298D01*
X184997505Y-98184168D01*
X185032752Y-98169825D01*
X185063966Y-98159708D01*
X185074980Y-98119679D01*
X185075461Y-98108404D01*
X185091469Y-98074519D01*
X185138321Y-98056866D01*
X185145532Y-98055377D01*
X185182773Y-98042069D01*
X185198455Y-98014684D01*
X185201663Y-97959214D01*
X185202222Y-97939814D01*
X185209589Y-97892969D01*
X185222777Y-97874231D01*
X185224587Y-97873716D01*
X185234637Y-97848077D01*
X185241408Y-97789580D01*
X185243891Y-97706276D01*
X185243891Y-97538322D01*
X185172215Y-97524876D01*
X185170122Y-97524496D01*
X185107848Y-97522243D01*
X185057477Y-97534476D01*
X185007510Y-97550967D01*
X184974031Y-97555232D01*
X184944406Y-97559006D01*
X184884363Y-97564342D01*
X184836956Y-97575291D01*
X184822442Y-97582736D01*
X184815928Y-97599140D01*
X184819494Y-97606788D01*
X184830323Y-97630010D01*
X184868295Y-97684655D01*
X184897123Y-97723018D01*
X184932744Y-97766475D01*
X184953243Y-97786256D01*
X184954355Y-97786761D01*
X184969259Y-97809968D01*
X184960125Y-97832003D01*
X184955423Y-97843347D01*
X184921388Y-97878096D01*
X184875697Y-97905409D01*
X184826892Y-97916484D01*
X184768828Y-97916510D01*
X184783288Y-97928946D01*
X184826892Y-97966447D01*
X184830010Y-97969243D01*
X184832339Y-97971332D01*
X184869674Y-98018015D01*
X184878890Y-98044388D01*
X184884955Y-98061744D01*
X184884915Y-98063705D01*
X184865316Y-98106483D01*
X184864215Y-98108885D01*
X184813509Y-98149757D01*
X184791333Y-98159268D01*
X184744412Y-98179392D01*
X184668537Y-98190860D01*
X184636799Y-98191579D01*
X184597993Y-98199791D01*
X184596488Y-98221837D01*
X184605378Y-98233167D01*
X184629161Y-98263477D01*
X184636803Y-98273705D01*
X184653842Y-98296508D01*
X184657687Y-98301654D01*
X184664964Y-98316376D01*
X184682519Y-98351894D01*
X184685847Y-98378316D01*
X184679498Y-98388002D01*
X184668211Y-98405220D01*
X184618272Y-98433643D01*
X184606499Y-98438858D01*
X184589118Y-98444305D01*
X184528270Y-98463374D01*
X184450693Y-98475976D01*
X184448305Y-98476364D01*
X184426104Y-98478381D01*
X184365234Y-98490120D01*
X184326640Y-98506648D01*
X184304266Y-98520139D01*
X184253225Y-98534439D01*
X184227130Y-98541629D01*
X184221619Y-98548629D01*
X184209311Y-98564262D01*
X184204802Y-98576383D01*
X184177640Y-98578624D01*
X184172251Y-98576867D01*
X184151646Y-98584493D01*
X184145221Y-98626793D01*
X184144473Y-98687115D01*
X184112335Y-98634330D01*
X184104329Y-98621512D01*
X184091515Y-98606413D01*
X184085792Y-98616413D01*
X184085818Y-98623773D01*
X184085934Y-98657175D01*
X184089651Y-98717131D01*
X184090719Y-98734363D01*
X184093854Y-98789411D01*
X184093374Y-98854609D01*
X184084464Y-98895422D01*
X184065676Y-98922746D01*
X184042067Y-98950199D01*
X184008558Y-99002181D01*
X184007995Y-99003290D01*
X184007474Y-99003823D01*
X183972481Y-99039641D01*
X183918559Y-99066290D01*
X183912553Y-99068081D01*
X183871000Y-99084925D01*
X183858029Y-99110656D01*
X183862088Y-99142310D01*
X183864524Y-99161302D01*
X183874958Y-99249058D01*
X183863999Y-99319826D01*
X183863358Y-99320532D01*
X183827205Y-99360377D01*
X183763334Y-99373316D01*
X183738183Y-99374489D01*
X183708595Y-99389329D01*
X183700077Y-99431379D01*
X183698988Y-99474055D01*
X183699833Y-99504546D01*
X183696144Y-99528247D01*
X183681742Y-99573166D01*
X183672221Y-99594478D01*
X183651402Y-99615571D01*
X183613008Y-99624705D01*
X183544746Y-99626683D01*
X183544193Y-99626683D01*
X183477849Y-99627797D01*
X183443297Y-99634787D01*
X183430169Y-99653128D01*
X183428097Y-99688298D01*
X183421500Y-99760094D01*
X183397950Y-99803395D01*
X183354525Y-99816708D01*
X183334068Y-99818119D01*
X183296304Y-99835049D01*
X183271914Y-99870004D01*
X183266596Y-99877626D01*
X183261745Y-99890606D01*
X183238072Y-99953948D01*
X183232390Y-99971149D01*
X183226689Y-99985619D01*
X183214210Y-100017290D01*
X183209596Y-100029001D01*
X183189482Y-100066032D01*
X183182078Y-100072614D01*
X183136710Y-100084349D01*
X183071370Y-100079813D01*
X183000541Y-100059506D01*
X182986939Y-100055111D01*
X182968190Y-100063328D01*
X182967389Y-100070074D01*
X182963268Y-100104765D01*
X182959173Y-100134662D01*
X182953776Y-100174068D01*
X182924285Y-100209419D01*
X182873261Y-100210376D01*
X182823152Y-100209605D01*
X182787510Y-100240935D01*
X182761990Y-100309429D01*
X182743557Y-100353336D01*
X182716805Y-100380673D01*
X182705093Y-100381469D01*
X182665228Y-100363481D01*
X182618148Y-100326065D01*
X182575940Y-100279800D01*
X182550691Y-100235268D01*
X182541754Y-100213523D01*
X182522062Y-100197434D01*
X182505833Y-100217343D01*
X182499086Y-100269282D01*
X182492961Y-100335789D01*
X182483292Y-100374980D01*
X182477413Y-100398811D01*
X182473249Y-100409520D01*
X182458963Y-100435414D01*
X182435896Y-100447783D01*
X182392958Y-100449852D01*
X182319059Y-100444844D01*
X182250858Y-100442070D01*
X182200926Y-100446092D01*
X182182507Y-100455630D01*
X182199172Y-100468584D01*
X182254488Y-100482853D01*
X182278261Y-100488900D01*
X182335762Y-100516163D01*
X182380804Y-100553367D01*
X182404517Y-100591853D01*
X182398033Y-100622965D01*
X182398004Y-100622993D01*
X182367277Y-100636883D01*
X182320191Y-100623138D01*
X182320064Y-100623080D01*
X182278992Y-100609864D01*
X182269239Y-100619428D01*
X182289632Y-100647593D01*
X182339000Y-100690182D01*
X182392321Y-100744093D01*
X182398168Y-100756276D01*
X182409228Y-100779322D01*
X182425915Y-100814092D01*
X182429739Y-100829652D01*
X182443553Y-100858863D01*
X182462613Y-100899167D01*
X182510959Y-100940333D01*
X182567351Y-100946213D01*
X182577670Y-100945466D01*
X182625604Y-100959628D01*
X182688600Y-100993063D01*
X182756054Y-101038216D01*
X182817364Y-101087529D01*
X182861926Y-101133446D01*
X182879136Y-101168409D01*
X182880003Y-101175099D01*
X182901976Y-101214016D01*
X182944301Y-101255354D01*
X182953597Y-101262495D01*
X182964405Y-101270963D01*
X183001659Y-101300153D01*
X183034035Y-101326654D01*
X183048655Y-101338867D01*
X183092036Y-101373776D01*
X183147085Y-101417170D01*
X183188239Y-101448675D01*
X183219457Y-101468272D01*
X183231518Y-101464836D01*
X183232116Y-101440474D01*
X183231621Y-101436998D01*
X183211617Y-101399549D01*
X183171330Y-101353483D01*
X183122279Y-101309313D01*
X183085558Y-101284123D01*
X183364755Y-101284123D01*
X183375312Y-101294679D01*
X183385869Y-101284123D01*
X183375312Y-101273566D01*
X183364755Y-101284123D01*
X183085558Y-101284123D01*
X183075981Y-101277553D01*
X183043955Y-101268717D01*
X183035377Y-101266384D01*
X183039661Y-101252694D01*
X183291006Y-101252694D01*
X183295143Y-101258231D01*
X183323774Y-101273566D01*
X183335615Y-101272451D01*
X183340593Y-101261434D01*
X183310874Y-101244396D01*
X183294405Y-101240695D01*
X183291006Y-101252694D01*
X183039661Y-101252694D01*
X183043649Y-101239947D01*
X183049504Y-101225862D01*
X183045782Y-101171855D01*
X183018621Y-101129575D01*
X183065216Y-101129575D01*
X183077738Y-101147932D01*
X183121946Y-101179104D01*
X183126942Y-101182162D01*
X183199970Y-101220530D01*
X183244272Y-101229516D01*
X183259186Y-101208978D01*
X183257528Y-101201341D01*
X183238072Y-101199667D01*
X183230094Y-101203183D01*
X183216958Y-101193745D01*
X183207301Y-101178166D01*
X183169986Y-101154113D01*
X183119859Y-101134283D01*
X183073446Y-101126427D01*
X183065216Y-101129575D01*
X183018621Y-101129575D01*
X183009962Y-101116095D01*
X182947756Y-101068776D01*
X182937043Y-101062827D01*
X182895827Y-101036120D01*
X182879136Y-101018479D01*
X182872709Y-101011703D01*
X182836503Y-100988159D01*
X182775520Y-100953503D01*
X182697945Y-100912520D01*
X182652893Y-100888991D01*
X182578185Y-100847710D01*
X182522155Y-100813787D01*
X182494409Y-100792868D01*
X182493253Y-100789294D01*
X182515712Y-100793398D01*
X182571678Y-100814727D01*
X182658171Y-100852018D01*
X182772208Y-100904005D01*
X182910807Y-100969425D01*
X182967917Y-100992985D01*
X183020195Y-101008472D01*
X183040117Y-101014128D01*
X183096668Y-101037448D01*
X183161184Y-101070218D01*
X183179193Y-101079768D01*
X183251977Y-101112934D01*
X183335587Y-101145555D01*
X183413782Y-101171602D01*
X183470325Y-101185042D01*
X183506185Y-101194972D01*
X183542547Y-101208978D01*
X183572274Y-101220428D01*
X183655071Y-101256879D01*
X183663848Y-101261434D01*
X183680388Y-101270018D01*
X183697105Y-101284123D01*
X183732212Y-101313745D01*
X183746480Y-101356803D01*
X183726043Y-101392150D01*
X183673753Y-101412742D01*
X183592460Y-101411538D01*
X183565398Y-101408094D01*
X183529101Y-101407425D01*
X183525227Y-101414838D01*
X183553070Y-101445406D01*
X183584082Y-101505663D01*
X183597008Y-101565483D01*
X183592826Y-101583120D01*
X183567014Y-101606782D01*
X183560101Y-101613119D01*
X183506640Y-101627540D01*
X183446641Y-101621129D01*
X183423095Y-101616833D01*
X183410191Y-101632004D01*
X183410223Y-101679140D01*
X183410420Y-101685286D01*
X183411432Y-101716957D01*
X183411496Y-101718948D01*
X183406280Y-101745109D01*
X183401649Y-101768338D01*
X183370524Y-101786722D01*
X183312083Y-101780324D01*
X183271710Y-101772876D01*
X183244627Y-101776912D01*
X183238072Y-101799601D01*
X183237563Y-101812744D01*
X183215696Y-101871138D01*
X183160997Y-101903958D01*
X183072694Y-101911726D01*
X183024374Y-101910259D01*
X182984211Y-101914466D01*
X182966495Y-101930934D01*
X182959710Y-101965104D01*
X182955470Y-101991917D01*
X182942309Y-102012412D01*
X182910182Y-102018566D01*
X182847551Y-102015570D01*
X182817809Y-102012210D01*
X182742386Y-101994201D01*
X182685938Y-101968064D01*
X182682747Y-101965803D01*
X182642134Y-101939097D01*
X182619825Y-101928096D01*
X182617503Y-101931390D01*
X182615683Y-101963191D01*
X182619463Y-102017830D01*
X182621206Y-102053735D01*
X182613018Y-102116233D01*
X182593046Y-102159662D01*
X182565862Y-102176318D01*
X182536035Y-102158495D01*
X182516285Y-102141085D01*
X182482765Y-102134025D01*
X182481288Y-102134351D01*
X182457617Y-102117253D01*
X182423315Y-102064875D01*
X182381230Y-101981494D01*
X182361410Y-101939701D01*
X182324107Y-101870713D01*
X182295100Y-101834689D01*
X182270868Y-101826694D01*
X182251283Y-101837822D01*
X182244632Y-101854197D01*
X182236465Y-101874306D01*
X182228781Y-101944129D01*
X182227393Y-101971903D01*
X182228260Y-102024638D01*
X182238329Y-102049084D01*
X182260452Y-102055249D01*
X182274750Y-102056433D01*
X182337488Y-102087011D01*
X182369954Y-102126918D01*
X182394982Y-102157683D01*
X182445804Y-102266818D01*
X182446947Y-102269909D01*
X182474946Y-102336394D01*
X182500652Y-102382310D01*
X182518630Y-102397880D01*
X182521450Y-102397748D01*
X182535673Y-102418206D01*
X182541314Y-102466500D01*
X182541087Y-102480614D01*
X182533513Y-102527749D01*
X182516683Y-102535283D01*
X182492615Y-102504037D01*
X182463328Y-102434829D01*
X182447567Y-102394011D01*
X182425149Y-102347405D01*
X182409675Y-102329260D01*
X182408565Y-102329284D01*
X182394657Y-102343607D01*
X182403512Y-102386450D01*
X182429018Y-102445386D01*
X182435744Y-102460929D01*
X182440366Y-102470974D01*
X182463730Y-102541571D01*
X182476485Y-102615481D01*
X182477063Y-102678480D01*
X182463896Y-102716348D01*
X182462161Y-102717995D01*
X182437504Y-102729904D01*
X182425666Y-102721484D01*
X182402305Y-102684026D01*
X182378042Y-102629571D01*
X182358997Y-102572505D01*
X182351289Y-102527214D01*
X182348056Y-102502067D01*
X182330344Y-102482291D01*
X182307574Y-102494503D01*
X182291757Y-102536774D01*
X182281465Y-102564709D01*
X182255350Y-102582626D01*
X182228938Y-102571050D01*
X182195478Y-102520424D01*
X182169827Y-102445386D01*
X182245720Y-102445386D01*
X182256276Y-102455943D01*
X182266833Y-102445386D01*
X182256276Y-102434829D01*
X182245720Y-102445386D01*
X182169827Y-102445386D01*
X182165175Y-102431779D01*
X182139042Y-102307509D01*
X182131701Y-102266356D01*
X182113395Y-102190302D01*
X182091486Y-102141802D01*
X182076924Y-102126372D01*
X182270151Y-102126372D01*
X182275191Y-102154630D01*
X182282398Y-102154303D01*
X182286280Y-102126918D01*
X182282899Y-102106164D01*
X182273524Y-102114162D01*
X182270151Y-102126372D01*
X182076924Y-102126372D01*
X182061905Y-102110458D01*
X182060072Y-102109086D01*
X182015992Y-102085920D01*
X181983991Y-102095185D01*
X181983348Y-102095712D01*
X181953843Y-102103502D01*
X181918387Y-102075819D01*
X181877298Y-102041982D01*
X181838734Y-102038838D01*
X181813438Y-102074152D01*
X181792271Y-102117901D01*
X181757740Y-102169110D01*
X181757003Y-102170043D01*
X181716954Y-102204281D01*
X181676366Y-102202804D01*
X181631667Y-102163950D01*
X181579286Y-102086057D01*
X181552814Y-102045608D01*
X181518128Y-102009984D01*
X181494408Y-102008466D01*
X181485620Y-102042883D01*
X181481465Y-102060419D01*
X181455605Y-102095633D01*
X181423437Y-102105131D01*
X181382201Y-102083872D01*
X181343618Y-102034482D01*
X181314943Y-101963765D01*
X181313285Y-101957767D01*
X181292042Y-101906883D01*
X181267007Y-101895581D01*
X181236207Y-101924366D01*
X181197668Y-101993742D01*
X181182451Y-102023484D01*
X181147672Y-102080729D01*
X181118491Y-102116159D01*
X181097482Y-102137619D01*
X181086788Y-102170129D01*
X181096205Y-102217264D01*
X181126220Y-102290005D01*
X181137414Y-102316647D01*
X181159147Y-102383548D01*
X181167602Y-102434829D01*
X181167539Y-102442399D01*
X181165514Y-102470523D01*
X181156204Y-102465119D01*
X181133408Y-102424272D01*
X181132083Y-102421817D01*
X181100304Y-102373559D01*
X181070911Y-102344046D01*
X181058444Y-102333644D01*
X181042228Y-102296540D01*
X181038562Y-102282282D01*
X181010557Y-102265918D01*
X181008587Y-102265962D01*
X180984382Y-102282455D01*
X180981473Y-102330458D01*
X180999669Y-102412559D01*
X181007047Y-102442107D01*
X181007322Y-102488187D01*
X180983833Y-102526429D01*
X180982038Y-102528599D01*
X180962144Y-102552646D01*
X180965785Y-102561695D01*
X181005279Y-102553715D01*
X181033814Y-102548106D01*
X181058100Y-102555230D01*
X181063342Y-102590196D01*
X181057173Y-102626039D01*
X181033509Y-102665557D01*
X181017552Y-102674830D01*
X180989349Y-102668503D01*
X180949053Y-102631409D01*
X180927456Y-102608846D01*
X180901040Y-102587771D01*
X180897315Y-102602053D01*
X180914197Y-102652979D01*
X180924310Y-102690559D01*
X180922077Y-102716853D01*
X180912844Y-102721483D01*
X180876582Y-102712783D01*
X180829877Y-102681808D01*
X180783465Y-102636668D01*
X180748084Y-102585470D01*
X180738697Y-102564120D01*
X180714953Y-102482862D01*
X180704405Y-102427469D01*
X180852869Y-102427469D01*
X180861805Y-102462217D01*
X180883744Y-102511593D01*
X180900615Y-102541999D01*
X180912451Y-102552385D01*
X180915415Y-102528599D01*
X180911847Y-102505862D01*
X180897245Y-102468031D01*
X180877828Y-102434643D01*
X180860678Y-102417182D01*
X180852875Y-102427137D01*
X180852869Y-102427469D01*
X180704405Y-102427469D01*
X180694967Y-102377903D01*
X180680164Y-102262142D01*
X180671968Y-102148482D01*
X180671805Y-102049822D01*
X180681100Y-101979063D01*
X180685415Y-101962597D01*
X180695017Y-101913955D01*
X180694560Y-101890098D01*
X180686496Y-101889241D01*
X180648359Y-101898000D01*
X180591630Y-101917382D01*
X180512789Y-101939296D01*
X180447828Y-101936686D01*
X180410174Y-101927875D01*
X180358398Y-101925869D01*
X180320640Y-101920448D01*
X180292119Y-101880848D01*
X180288762Y-101854197D01*
X180852203Y-101854197D01*
X180862760Y-101864754D01*
X180873317Y-101854197D01*
X180862760Y-101843640D01*
X180852203Y-101854197D01*
X180288762Y-101854197D01*
X180282452Y-101804106D01*
X180281034Y-101768640D01*
X180274027Y-101751460D01*
X180834824Y-101751460D01*
X180852203Y-101759185D01*
X180863381Y-101757661D01*
X180866279Y-101745109D01*
X180863185Y-101742582D01*
X180838127Y-101745109D01*
X180834824Y-101751460D01*
X180274027Y-101751460D01*
X180272541Y-101747818D01*
X180252491Y-101757497D01*
X180227334Y-101768872D01*
X180169029Y-101781956D01*
X180095829Y-101790276D01*
X180066362Y-101791947D01*
X180004224Y-101791885D01*
X179969955Y-101782891D01*
X179953203Y-101762986D01*
X179945528Y-101742674D01*
X179942760Y-101727514D01*
X180936659Y-101727514D01*
X180947216Y-101738071D01*
X180957773Y-101727514D01*
X180947216Y-101716957D01*
X181612303Y-101716957D01*
X181619114Y-101727514D01*
X181620221Y-101729229D01*
X181654531Y-101738071D01*
X181679075Y-101734112D01*
X181696759Y-101716957D01*
X181688840Y-101704685D01*
X181654531Y-101695843D01*
X181629987Y-101699802D01*
X181612303Y-101716957D01*
X180947216Y-101716957D01*
X180936659Y-101727514D01*
X179942760Y-101727514D01*
X179940253Y-101713782D01*
X179939048Y-101711172D01*
X179912659Y-101707144D01*
X179862193Y-101710875D01*
X179822313Y-101713039D01*
X179757907Y-101703863D01*
X179709827Y-101682167D01*
X179698160Y-101663748D01*
X181004512Y-101663748D01*
X181007038Y-101688805D01*
X181013389Y-101692108D01*
X181016421Y-101685286D01*
X182625769Y-101685286D01*
X182636326Y-101695843D01*
X182646883Y-101685286D01*
X182636326Y-101674729D01*
X182625769Y-101685286D01*
X181016421Y-101685286D01*
X181021114Y-101674729D01*
X181019591Y-101663552D01*
X181007038Y-101660653D01*
X181004512Y-101663748D01*
X179698160Y-101663748D01*
X179690940Y-101652350D01*
X179703486Y-101633862D01*
X179741674Y-101612168D01*
X179743365Y-101611521D01*
X179794782Y-101585986D01*
X179799153Y-101577411D01*
X180665496Y-101577411D01*
X180670536Y-101605669D01*
X180677743Y-101605342D01*
X180681625Y-101577957D01*
X180678244Y-101557204D01*
X180668869Y-101565201D01*
X180665496Y-101577411D01*
X179799153Y-101577411D01*
X179805019Y-101565902D01*
X179774919Y-101552758D01*
X179705328Y-101548046D01*
X179673110Y-101547227D01*
X179604319Y-101537875D01*
X179567050Y-101519741D01*
X179564117Y-101514806D01*
X179574390Y-101483141D01*
X179624156Y-101437672D01*
X179632819Y-101431920D01*
X179902079Y-101431920D01*
X179912636Y-101442477D01*
X179917154Y-101437959D01*
X180556609Y-101437959D01*
X180560827Y-101449874D01*
X180589618Y-101471739D01*
X180604933Y-101481530D01*
X180609486Y-101505669D01*
X180606054Y-101513903D01*
X180617458Y-101526932D01*
X180624908Y-101525747D01*
X180650082Y-101506185D01*
X181026885Y-101506185D01*
X181030090Y-101558204D01*
X181042032Y-101577957D01*
X181043051Y-101579643D01*
X181061719Y-101566642D01*
X181082047Y-101515341D01*
X181084624Y-101505470D01*
X181094115Y-101449090D01*
X181093535Y-101436980D01*
X181563517Y-101436980D01*
X181578217Y-101491986D01*
X181582514Y-101504144D01*
X181603136Y-101554850D01*
X181618947Y-101582842D01*
X181626317Y-101595644D01*
X181633417Y-101636021D01*
X181636885Y-101657211D01*
X181654531Y-101674729D01*
X181655551Y-101674617D01*
X181666740Y-101652815D01*
X181672784Y-101600766D01*
X181673539Y-101529357D01*
X181668857Y-101449472D01*
X181658593Y-101371999D01*
X181643974Y-101290964D01*
X181617849Y-101326350D01*
X181597965Y-101353283D01*
X181569944Y-101397172D01*
X181563517Y-101436980D01*
X181093535Y-101436980D01*
X181092307Y-101411368D01*
X181092687Y-101390537D01*
X181107811Y-101339759D01*
X181113735Y-101326350D01*
X181337823Y-101326350D01*
X181348380Y-101336907D01*
X181358936Y-101326350D01*
X181348380Y-101315793D01*
X181337823Y-101326350D01*
X181113735Y-101326350D01*
X181135802Y-101276405D01*
X181149559Y-101248930D01*
X181157483Y-101231338D01*
X181380050Y-101231338D01*
X181380664Y-101236385D01*
X181401164Y-101252452D01*
X181406211Y-101251838D01*
X181422278Y-101231338D01*
X181421665Y-101226291D01*
X181401164Y-101210224D01*
X181396117Y-101210838D01*
X181380050Y-101231338D01*
X181157483Y-101231338D01*
X181178591Y-101184476D01*
X181184352Y-101157439D01*
X181612303Y-101157439D01*
X181622860Y-101167996D01*
X181633417Y-101157439D01*
X181622860Y-101146882D01*
X181622579Y-101147163D01*
X181612303Y-101157439D01*
X181184352Y-101157439D01*
X181186542Y-101147163D01*
X181173609Y-101129943D01*
X181139988Y-101125768D01*
X181119876Y-101129338D01*
X181099533Y-101146562D01*
X181085992Y-101175299D01*
X181082253Y-101183234D01*
X181075249Y-101210224D01*
X181066226Y-101244998D01*
X181049641Y-101337497D01*
X181034524Y-101440281D01*
X181030687Y-101466373D01*
X181026885Y-101506185D01*
X180650082Y-101506185D01*
X180652609Y-101504221D01*
X180656857Y-101487576D01*
X180657788Y-101440281D01*
X180653328Y-101379117D01*
X180645088Y-101318104D01*
X180634678Y-101271264D01*
X180623710Y-101252616D01*
X180608097Y-101267174D01*
X180585364Y-101305504D01*
X180565266Y-101350417D01*
X180556609Y-101384590D01*
X180557599Y-101389763D01*
X180575510Y-101391059D01*
X180586205Y-101389254D01*
X180606106Y-101409852D01*
X180608639Y-101427638D01*
X180587204Y-101428585D01*
X180571974Y-101425562D01*
X180564094Y-101431920D01*
X180556609Y-101437959D01*
X179917154Y-101437959D01*
X179923192Y-101431920D01*
X179912636Y-101421363D01*
X179902079Y-101431920D01*
X179632819Y-101431920D01*
X179713138Y-101378587D01*
X179726810Y-101370837D01*
X179923192Y-101370837D01*
X179929044Y-101378703D01*
X179953245Y-101375766D01*
X179975828Y-101358263D01*
X179977755Y-101348489D01*
X179955960Y-101349965D01*
X179939754Y-101357277D01*
X179923192Y-101370837D01*
X179726810Y-101370837D01*
X179784511Y-101338130D01*
X180018961Y-101338130D01*
X180025494Y-101348165D01*
X180026039Y-101348489D01*
X180037999Y-101355603D01*
X180060587Y-101344797D01*
X180105092Y-101312179D01*
X180112864Y-101306230D01*
X180387698Y-101306230D01*
X180389834Y-101319865D01*
X180408069Y-101336907D01*
X180419718Y-101333124D01*
X180445838Y-101303113D01*
X180463859Y-101259115D01*
X180464408Y-101220495D01*
X180462168Y-101206599D01*
X180467005Y-101199243D01*
X180603348Y-101199243D01*
X180605875Y-101224300D01*
X180612225Y-101227603D01*
X180619951Y-101210224D01*
X180618427Y-101199046D01*
X180605875Y-101196148D01*
X180603348Y-101199243D01*
X180467005Y-101199243D01*
X180478618Y-101181584D01*
X180487843Y-101175299D01*
X180470264Y-101169663D01*
X180456364Y-101173029D01*
X180424443Y-101203497D01*
X180408128Y-101234588D01*
X180398441Y-101253047D01*
X180387698Y-101306230D01*
X180112864Y-101306230D01*
X180132423Y-101291260D01*
X180177131Y-101254676D01*
X180196873Y-101234588D01*
X180187116Y-101235247D01*
X180181031Y-101238123D01*
X180141559Y-101256432D01*
X180086335Y-101281795D01*
X180066579Y-101291665D01*
X180028354Y-101318145D01*
X180018961Y-101338130D01*
X179784511Y-101338130D01*
X179841061Y-101306075D01*
X180007648Y-101220323D01*
X180102547Y-101171448D01*
X180164822Y-101137319D01*
X180514381Y-101137319D01*
X180522243Y-101142860D01*
X180556609Y-101146882D01*
X180588281Y-101133465D01*
X180593861Y-101113335D01*
X182248758Y-101113335D01*
X182249479Y-101133179D01*
X182266710Y-101157439D01*
X182271583Y-101164300D01*
X182286853Y-101193163D01*
X182271614Y-101231338D01*
X182271404Y-101231865D01*
X182258480Y-101258830D01*
X182261764Y-101273566D01*
X182282460Y-101288810D01*
X182310578Y-101326982D01*
X182324994Y-101347847D01*
X182350581Y-101366989D01*
X182361026Y-101350236D01*
X182357982Y-101336907D01*
X182417603Y-101336907D01*
X182424895Y-101350236D01*
X182472470Y-101437198D01*
X182494517Y-101477500D01*
X182518878Y-101522038D01*
X182522879Y-101529357D01*
X182529047Y-101540638D01*
X182533430Y-101538456D01*
X182555054Y-101517380D01*
X182564897Y-101501991D01*
X182560656Y-101461446D01*
X182549967Y-101436169D01*
X182544961Y-101405067D01*
X182776442Y-101405067D01*
X182791967Y-101437198D01*
X182812747Y-101468191D01*
X182834790Y-101484704D01*
X182842600Y-101487252D01*
X182865249Y-101501991D01*
X182877055Y-101509674D01*
X182923781Y-101547709D01*
X182944002Y-101564468D01*
X182992727Y-101597056D01*
X183026933Y-101609384D01*
X183043421Y-101606782D01*
X183032212Y-101597404D01*
X183015753Y-101579827D01*
X183005819Y-101536976D01*
X183005497Y-101527344D01*
X182994712Y-101486918D01*
X182974993Y-101471731D01*
X182955033Y-101489851D01*
X182950100Y-101494526D01*
X182955314Y-101466785D01*
X182959666Y-101446673D01*
X182954307Y-101426212D01*
X182920804Y-101432097D01*
X182892000Y-101437538D01*
X182886372Y-101426735D01*
X182887289Y-101402503D01*
X182870683Y-101368721D01*
X182846183Y-101343240D01*
X182825069Y-101341709D01*
X182821262Y-101356665D01*
X182836908Y-101389692D01*
X182839356Y-101392728D01*
X182854022Y-101426199D01*
X182838602Y-101437590D01*
X182802291Y-101419093D01*
X182784518Y-101405075D01*
X182776442Y-101405067D01*
X182544961Y-101405067D01*
X182541637Y-101384413D01*
X182540621Y-101368905D01*
X182524537Y-101343370D01*
X182479459Y-101336907D01*
X182417603Y-101336907D01*
X182357982Y-101336907D01*
X182349941Y-101301691D01*
X182337272Y-101253945D01*
X182330175Y-101188039D01*
X182329133Y-101175179D01*
X182659262Y-101175179D01*
X182677774Y-101204421D01*
X182716926Y-101248503D01*
X182746771Y-101281465D01*
X182775767Y-101321820D01*
X182781034Y-101343516D01*
X182777643Y-101347307D01*
X182778019Y-101358021D01*
X182803058Y-101342900D01*
X182823890Y-101306545D01*
X182826385Y-101270963D01*
X182802724Y-101243102D01*
X182755577Y-101208651D01*
X182702862Y-101179979D01*
X182662001Y-101167996D01*
X182659262Y-101175179D01*
X182329133Y-101175179D01*
X182325809Y-101134150D01*
X182313114Y-101066503D01*
X182295585Y-101002373D01*
X182276765Y-100954529D01*
X182260195Y-100935743D01*
X182251930Y-100942394D01*
X182255496Y-100972693D01*
X182260792Y-100988528D01*
X182271594Y-101020822D01*
X182277459Y-101048351D01*
X182283283Y-101075691D01*
X182283204Y-101095736D01*
X182283142Y-101111262D01*
X182270129Y-101117248D01*
X182269799Y-101117045D01*
X182248758Y-101113335D01*
X180593861Y-101113335D01*
X180598739Y-101095736D01*
X180584157Y-101054702D01*
X181193760Y-101054702D01*
X181211139Y-101062427D01*
X181222317Y-101060903D01*
X181225215Y-101048351D01*
X181222121Y-101045824D01*
X181197063Y-101048351D01*
X181193760Y-101054702D01*
X180584157Y-101054702D01*
X180581062Y-101045992D01*
X180578534Y-101042374D01*
X180560807Y-101038596D01*
X180539157Y-101073378D01*
X180522208Y-101113182D01*
X180514381Y-101137319D01*
X180164822Y-101137319D01*
X180211904Y-101111516D01*
X180310032Y-101054203D01*
X180383431Y-101007168D01*
X180395930Y-100998531D01*
X180411078Y-100988528D01*
X181253367Y-100988528D01*
X181263924Y-100999085D01*
X181274481Y-100988528D01*
X181263924Y-100977971D01*
X181253367Y-100988528D01*
X180411078Y-100988528D01*
X180460427Y-100955940D01*
X180510612Y-100925963D01*
X180530091Y-100917438D01*
X182209147Y-100917438D01*
X182214156Y-100935743D01*
X182223824Y-100930356D01*
X182242971Y-100899382D01*
X182256453Y-100858863D01*
X182256007Y-100829738D01*
X182237275Y-100810373D01*
X182219325Y-100822371D01*
X182209620Y-100872444D01*
X182209560Y-100873320D01*
X182209147Y-100917438D01*
X180530091Y-100917438D01*
X180536507Y-100914630D01*
X180543684Y-100896608D01*
X180549287Y-100844989D01*
X180552967Y-100768661D01*
X180554740Y-100676552D01*
X180554619Y-100577590D01*
X180552620Y-100480703D01*
X180548757Y-100394819D01*
X180543043Y-100328865D01*
X180535495Y-100291770D01*
X180526156Y-100270523D01*
X180518139Y-100261859D01*
X180515865Y-100292347D01*
X180512945Y-100305394D01*
X180486929Y-100348793D01*
X180444538Y-100396234D01*
X180398696Y-100434438D01*
X180362327Y-100450124D01*
X180345932Y-100442925D01*
X180308775Y-100412511D01*
X180266990Y-100369988D01*
X180232890Y-100328226D01*
X180218787Y-100300094D01*
X180212154Y-100289639D01*
X180179406Y-100281213D01*
X180156672Y-100278003D01*
X180098220Y-100247307D01*
X180062140Y-100210010D01*
X181913920Y-100210010D01*
X181938036Y-100259035D01*
X181954907Y-100300073D01*
X181957520Y-100334624D01*
X181957196Y-100335770D01*
X181963987Y-100367173D01*
X181987541Y-100422586D01*
X182023142Y-100490792D01*
X182026206Y-100496230D01*
X182062454Y-100563399D01*
X182088157Y-100616132D01*
X182097922Y-100643424D01*
X182099530Y-100650190D01*
X182119036Y-100650706D01*
X182131197Y-100650130D01*
X182140822Y-100675852D01*
X182145968Y-100703386D01*
X182169542Y-100750997D01*
X182172180Y-100754420D01*
X182203214Y-100784434D01*
X182217626Y-100779322D01*
X182213220Y-100756276D01*
X182266833Y-100756276D01*
X182277390Y-100766832D01*
X182287947Y-100756276D01*
X182277390Y-100745719D01*
X182266833Y-100756276D01*
X182213220Y-100756276D01*
X182210193Y-100740440D01*
X182205130Y-100721358D01*
X182197266Y-100659730D01*
X182195178Y-100587364D01*
X182195260Y-100548144D01*
X182192743Y-100518319D01*
X182187850Y-100524023D01*
X182180808Y-100548681D01*
X182163042Y-100582224D01*
X182147079Y-100587305D01*
X182140150Y-100558670D01*
X182135712Y-100530791D01*
X182121249Y-100522655D01*
X182109193Y-100523642D01*
X182089338Y-100500437D01*
X182085826Y-100478772D01*
X182107165Y-100478369D01*
X182125344Y-100481008D01*
X182126259Y-100459606D01*
X182117898Y-100446004D01*
X182084584Y-100429010D01*
X182058834Y-100414544D01*
X182042348Y-100388029D01*
X182055695Y-100388029D01*
X182056299Y-100392742D01*
X182076808Y-100407896D01*
X182086899Y-100403868D01*
X182097922Y-100374980D01*
X182094884Y-100359898D01*
X182076808Y-100355112D01*
X182071042Y-100359433D01*
X182055695Y-100388029D01*
X182042348Y-100388029D01*
X182033907Y-100374454D01*
X182024762Y-100340732D01*
X182025088Y-100303603D01*
X182037884Y-100288493D01*
X182059469Y-100305351D01*
X182060265Y-100306506D01*
X182073140Y-100318179D01*
X182071411Y-100291770D01*
X182062022Y-100267892D01*
X182038605Y-100254821D01*
X182024965Y-100251734D01*
X182013452Y-100223150D01*
X182004087Y-100198144D01*
X181960667Y-100183156D01*
X181945616Y-100182522D01*
X181915565Y-100187460D01*
X181913920Y-100210010D01*
X180062140Y-100210010D01*
X180047302Y-100194671D01*
X180018148Y-100133159D01*
X180015195Y-100121613D01*
X181886784Y-100121613D01*
X181889368Y-100137344D01*
X181907897Y-100154530D01*
X181912907Y-100153961D01*
X181929011Y-100134662D01*
X181928206Y-100128738D01*
X181907897Y-100101745D01*
X181897019Y-100099759D01*
X181886784Y-100121613D01*
X180015195Y-100121613D01*
X180009723Y-100100218D01*
X179993245Y-100075551D01*
X179962197Y-100077534D01*
X179905474Y-100103216D01*
X179900958Y-100105398D01*
X179844719Y-100123413D01*
X179799865Y-100123924D01*
X179795064Y-100122124D01*
X179755086Y-100086872D01*
X179740526Y-100059093D01*
X182017978Y-100059093D01*
X182020505Y-100084150D01*
X182026855Y-100087453D01*
X182034581Y-100070074D01*
X182033057Y-100058897D01*
X182020505Y-100055998D01*
X182017978Y-100059093D01*
X179740526Y-100059093D01*
X179724347Y-100028227D01*
X179724275Y-100027847D01*
X180282128Y-100027847D01*
X180282742Y-100032893D01*
X180303242Y-100048960D01*
X180308289Y-100048347D01*
X180324356Y-100027847D01*
X180323743Y-100022800D01*
X180316712Y-100017290D01*
X181992353Y-100017290D01*
X182002910Y-100027847D01*
X182013467Y-100017290D01*
X182002910Y-100006733D01*
X181992353Y-100017290D01*
X180316712Y-100017290D01*
X180303242Y-100006733D01*
X180298196Y-100007346D01*
X180282128Y-100027847D01*
X179724275Y-100027847D01*
X179712054Y-99963059D01*
X179700154Y-99930755D01*
X179653990Y-99898439D01*
X179606779Y-99878814D01*
X179561411Y-99858004D01*
X179534396Y-99850227D01*
X179482190Y-99852193D01*
X179459569Y-99854875D01*
X179432249Y-99838589D01*
X179412049Y-99800230D01*
X180339820Y-99800230D01*
X180345187Y-99816708D01*
X180356534Y-99811100D01*
X180366907Y-99779758D01*
X180369555Y-99759770D01*
X180379473Y-99759452D01*
X180392533Y-99783922D01*
X180404208Y-99823746D01*
X180409972Y-99869492D01*
X180415295Y-99922122D01*
X180427989Y-99974292D01*
X180437413Y-99995412D01*
X180447170Y-99995913D01*
X180453521Y-99975062D01*
X181781214Y-99975062D01*
X181791771Y-99985619D01*
X181802328Y-99975062D01*
X181801903Y-99974637D01*
X181912408Y-99974637D01*
X181912451Y-99975062D01*
X181914935Y-99999695D01*
X181921286Y-100002998D01*
X181929011Y-99985619D01*
X181927488Y-99974441D01*
X181914935Y-99971543D01*
X181912408Y-99974637D01*
X181801903Y-99974637D01*
X181791771Y-99964505D01*
X181781214Y-99975062D01*
X180453521Y-99975062D01*
X180458578Y-99958457D01*
X180475867Y-99919243D01*
X180500276Y-99901163D01*
X180508382Y-99899357D01*
X180545028Y-99876596D01*
X180552719Y-99869607D01*
X180643029Y-99869607D01*
X180647059Y-99893082D01*
X180648252Y-99894222D01*
X180692613Y-99910320D01*
X180759979Y-99907382D01*
X180836544Y-99885929D01*
X180857308Y-99877296D01*
X180903512Y-99852227D01*
X180908562Y-99835513D01*
X180872719Y-99827521D01*
X180796240Y-99828620D01*
X180739315Y-99834311D01*
X180675641Y-99849213D01*
X180643029Y-99869607D01*
X180552719Y-99869607D01*
X180589608Y-99836087D01*
X180625991Y-99801801D01*
X180668538Y-99780687D01*
X180719855Y-99781912D01*
X180750860Y-99784792D01*
X180791101Y-99778423D01*
X180802118Y-99760893D01*
X180777415Y-99737242D01*
X180767015Y-99731137D01*
X180754934Y-99714544D01*
X180777481Y-99690708D01*
X180790894Y-99681495D01*
X180825879Y-99679007D01*
X180844286Y-99712898D01*
X180844460Y-99714180D01*
X180849564Y-99753366D01*
X180864235Y-99767179D01*
X180904988Y-99774480D01*
X180939720Y-99780340D01*
X180957773Y-99798056D01*
X180966168Y-99810104D01*
X180999979Y-99810596D01*
X181026702Y-99807766D01*
X181054010Y-99818690D01*
X181056381Y-99827061D01*
X181042202Y-99835513D01*
X181038196Y-99837901D01*
X181033619Y-99839124D01*
X181042765Y-99853930D01*
X181079688Y-99880128D01*
X181130524Y-99908734D01*
X181161148Y-99919990D01*
X181160724Y-99909031D01*
X181141691Y-99890606D01*
X181675645Y-99890606D01*
X181679239Y-99905362D01*
X181706653Y-99922277D01*
X181722264Y-99917845D01*
X181725508Y-99890606D01*
X181717581Y-99875738D01*
X181694500Y-99858936D01*
X181685846Y-99862491D01*
X181675645Y-99890606D01*
X181141691Y-99890606D01*
X181126684Y-99876078D01*
X181101035Y-99854306D01*
X181088766Y-99840957D01*
X181100138Y-99839772D01*
X181140804Y-99850565D01*
X181216418Y-99873154D01*
X181237422Y-99878967D01*
X181251883Y-99876666D01*
X181233844Y-99850712D01*
X181218005Y-99828983D01*
X181224552Y-99820584D01*
X181265515Y-99827701D01*
X181315284Y-99839484D01*
X181357753Y-99851051D01*
X181363646Y-99852735D01*
X181373498Y-99848652D01*
X181352428Y-99821181D01*
X181343561Y-99810808D01*
X181327588Y-99777796D01*
X181347704Y-99765484D01*
X181402754Y-99774936D01*
X181449607Y-99782706D01*
X181463303Y-99770019D01*
X181448988Y-99749839D01*
X181742843Y-99749839D01*
X181770657Y-99763925D01*
X181771833Y-99764414D01*
X181815761Y-99792747D01*
X181862084Y-99835813D01*
X181881048Y-99856043D01*
X181900334Y-99870004D01*
X181898944Y-99851696D01*
X181889082Y-99818494D01*
X181873708Y-99761405D01*
X181856700Y-99725021D01*
X181817812Y-99687011D01*
X181805808Y-99680823D01*
X181783927Y-99675380D01*
X181787399Y-99696802D01*
X181789556Y-99716850D01*
X181764208Y-99738219D01*
X181753340Y-99741072D01*
X181742843Y-99749839D01*
X181448988Y-99749839D01*
X181440338Y-99737644D01*
X181436338Y-99733278D01*
X181434759Y-99714291D01*
X181470928Y-99699733D01*
X181494597Y-99692826D01*
X181513335Y-99676410D01*
X181500574Y-99645779D01*
X181480200Y-99621695D01*
X181468555Y-99615701D01*
X181722384Y-99615701D01*
X181724910Y-99640759D01*
X181731261Y-99644062D01*
X181738986Y-99626683D01*
X181737463Y-99615505D01*
X181724910Y-99612607D01*
X181722384Y-99615701D01*
X181468555Y-99615701D01*
X181448870Y-99605569D01*
X181438968Y-99604042D01*
X181422278Y-99584455D01*
X181429633Y-99572423D01*
X181463260Y-99563341D01*
X181465289Y-99563329D01*
X181507970Y-99552290D01*
X181513628Y-99525173D01*
X181480695Y-99488697D01*
X181451738Y-99460460D01*
X181459227Y-99443266D01*
X181474249Y-99436013D01*
X181485812Y-99416724D01*
X181463115Y-99400957D01*
X181411721Y-99394430D01*
X181390723Y-99394266D01*
X181349457Y-99389131D01*
X181347186Y-99383873D01*
X181696759Y-99383873D01*
X181707316Y-99394430D01*
X181717872Y-99383873D01*
X181707316Y-99373316D01*
X181696759Y-99383873D01*
X181347186Y-99383873D01*
X181341382Y-99370436D01*
X181359679Y-99329700D01*
X181364649Y-99319946D01*
X181368282Y-99294759D01*
X181338565Y-99288861D01*
X181310408Y-99281808D01*
X181295595Y-99246633D01*
X181289145Y-99220175D01*
X181255127Y-99204405D01*
X181231734Y-99201022D01*
X181207620Y-99183958D01*
X181199528Y-99176631D01*
X181159454Y-99163241D01*
X181098767Y-99153608D01*
X181066895Y-99149490D01*
X181004983Y-99135566D01*
X180966806Y-99118685D01*
X180943206Y-99104757D01*
X180936336Y-99122643D01*
X180932083Y-99139178D01*
X180915545Y-99119950D01*
X180903634Y-99106061D01*
X180894754Y-99112209D01*
X180886633Y-99128204D01*
X180852203Y-99147181D01*
X180826842Y-99150361D01*
X180809976Y-99141115D01*
X180803964Y-99136900D01*
X180769795Y-99142487D01*
X180714436Y-99160836D01*
X180648287Y-99187899D01*
X180581745Y-99219628D01*
X180525210Y-99251974D01*
X180502900Y-99268970D01*
X180447439Y-99328461D01*
X180396751Y-99402693D01*
X180359781Y-99477417D01*
X180345470Y-99538383D01*
X180352708Y-99565590D01*
X180388810Y-99595365D01*
X180416937Y-99611115D01*
X180410375Y-99635356D01*
X180393862Y-99659247D01*
X180368928Y-99708225D01*
X180349324Y-99759644D01*
X180339820Y-99800230D01*
X179412049Y-99800230D01*
X179406439Y-99789577D01*
X179404256Y-99784229D01*
X179379528Y-99708649D01*
X179361895Y-99630867D01*
X179354823Y-99594949D01*
X179336701Y-99559896D01*
X179301131Y-99551315D01*
X179236991Y-99563180D01*
X179227873Y-99565139D01*
X179190360Y-99562149D01*
X179163316Y-99531858D01*
X179139284Y-99466922D01*
X179126929Y-99426949D01*
X179109302Y-99389670D01*
X179085422Y-99378100D01*
X179044776Y-99382891D01*
X179010119Y-99387814D01*
X178954133Y-99382720D01*
X178913711Y-99352491D01*
X178883197Y-99291437D01*
X178856936Y-99193869D01*
X178842941Y-99130548D01*
X178813442Y-99183312D01*
X178783944Y-99236076D01*
X178770474Y-99188570D01*
X178757507Y-99160947D01*
X178727329Y-99145013D01*
X178668489Y-99141064D01*
X178597674Y-99135916D01*
X178541135Y-99112213D01*
X178514280Y-99064226D01*
X178511566Y-98986496D01*
X178514304Y-98946964D01*
X178512344Y-98906613D01*
X178497450Y-98890570D01*
X178464291Y-98887697D01*
X178463696Y-98887694D01*
X178409042Y-98873573D01*
X178354947Y-98840191D01*
X178343138Y-98829953D01*
X178285999Y-98781919D01*
X178225181Y-98732421D01*
X178187442Y-98699041D01*
X178157491Y-98654021D01*
X178149626Y-98598948D01*
X178146581Y-98550865D01*
X178134669Y-98536843D01*
X179571870Y-98536843D01*
X179584805Y-98549875D01*
X179603836Y-98560782D01*
X179626940Y-98597381D01*
X179637864Y-98623677D01*
X179645275Y-98630820D01*
X179647374Y-98599966D01*
X179643842Y-98573058D01*
X179624629Y-98536465D01*
X179598212Y-98517724D01*
X179575447Y-98527736D01*
X179571870Y-98536843D01*
X178134669Y-98536843D01*
X178130588Y-98532039D01*
X178091563Y-98532528D01*
X178076878Y-98533492D01*
X178042274Y-98521551D01*
X178034014Y-98482596D01*
X178050738Y-98412635D01*
X178055547Y-98391381D01*
X178046084Y-98378343D01*
X178012148Y-98374801D01*
X177944943Y-98377864D01*
X177860361Y-98378865D01*
X177751190Y-98361838D01*
X177680499Y-98325873D01*
X179271979Y-98325873D01*
X179277020Y-98354132D01*
X179284227Y-98353805D01*
X179288109Y-98326420D01*
X179284728Y-98305666D01*
X179275353Y-98313663D01*
X179271979Y-98325873D01*
X177680499Y-98325873D01*
X177674624Y-98322884D01*
X177633658Y-98264837D01*
X180176559Y-98264837D01*
X180187116Y-98275394D01*
X180197673Y-98264837D01*
X180187116Y-98254280D01*
X180176559Y-98264837D01*
X177633658Y-98264837D01*
X177632412Y-98263071D01*
X177626301Y-98183463D01*
X177619875Y-98148835D01*
X177579552Y-98127287D01*
X177556712Y-98119840D01*
X177534098Y-98096037D01*
X177532126Y-98046941D01*
X177532556Y-98029812D01*
X179142435Y-98029812D01*
X179147470Y-98068184D01*
X179163093Y-98085369D01*
X179172806Y-98088943D01*
X179184207Y-98117040D01*
X179186246Y-98131567D01*
X179202393Y-98148711D01*
X179211936Y-98135096D01*
X179210465Y-98095805D01*
X179209539Y-98055788D01*
X179224489Y-98013815D01*
X179236609Y-97989499D01*
X179214511Y-97971640D01*
X179195555Y-97966793D01*
X179172346Y-97969243D01*
X179161187Y-97970421D01*
X179148315Y-97990029D01*
X179142435Y-98029812D01*
X177532556Y-98029812D01*
X177533072Y-98009245D01*
X177520392Y-97985015D01*
X177483071Y-97979800D01*
X177444567Y-97970744D01*
X177444065Y-97969243D01*
X178318537Y-97969243D01*
X178329094Y-97979800D01*
X178339651Y-97969243D01*
X178329094Y-97958686D01*
X178318537Y-97969243D01*
X177444065Y-97969243D01*
X177437004Y-97948129D01*
X179120865Y-97948129D01*
X179131422Y-97958686D01*
X179141979Y-97948129D01*
X179131422Y-97937572D01*
X179120865Y-97948129D01*
X177437004Y-97948129D01*
X177435599Y-97943928D01*
X177459290Y-97904865D01*
X177483399Y-97884788D01*
X178487449Y-97884788D01*
X178498005Y-97895344D01*
X178508562Y-97884788D01*
X178503439Y-97879665D01*
X179045051Y-97879665D01*
X179045238Y-97884788D01*
X179045436Y-97890217D01*
X179067570Y-97916035D01*
X179087687Y-97928801D01*
X179099751Y-97920290D01*
X179092869Y-97900518D01*
X179068494Y-97879213D01*
X179045051Y-97879665D01*
X178503439Y-97879665D01*
X178498005Y-97874231D01*
X178487449Y-97884788D01*
X177483399Y-97884788D01*
X177514200Y-97859138D01*
X177556586Y-97830574D01*
X178584395Y-97830574D01*
X178600131Y-97827554D01*
X178642811Y-97810269D01*
X178681638Y-97786615D01*
X178698587Y-97766681D01*
X178690537Y-97745675D01*
X178661334Y-97748799D01*
X178616066Y-97783081D01*
X178609626Y-97789420D01*
X178584503Y-97819210D01*
X178584395Y-97830574D01*
X177556586Y-97830574D01*
X177585796Y-97810889D01*
X177478620Y-97810889D01*
X177407090Y-97801703D01*
X177308017Y-97775085D01*
X177196891Y-97735818D01*
X177174801Y-97726433D01*
X178740815Y-97726433D01*
X178741674Y-97732221D01*
X178763175Y-97747547D01*
X178770812Y-97745890D01*
X178772486Y-97726433D01*
X178768152Y-97720115D01*
X178750126Y-97705320D01*
X178748019Y-97705869D01*
X178740815Y-97726433D01*
X177174801Y-97726433D01*
X177086029Y-97688718D01*
X176987750Y-97638601D01*
X176938507Y-97606176D01*
X178691843Y-97606176D01*
X178698587Y-97615140D01*
X178713357Y-97622097D01*
X178742257Y-97645461D01*
X178746253Y-97650048D01*
X178768650Y-97649333D01*
X178782195Y-97629550D01*
X178771638Y-97608109D01*
X178724980Y-97601417D01*
X178722667Y-97601492D01*
X178691843Y-97606176D01*
X176938507Y-97606176D01*
X176914371Y-97590283D01*
X176907785Y-97584947D01*
X176889473Y-97568079D01*
X178550790Y-97568079D01*
X178561347Y-97578636D01*
X178571904Y-97568079D01*
X178567210Y-97563385D01*
X178850465Y-97563385D01*
X178853935Y-97568079D01*
X178874188Y-97595477D01*
X178896586Y-97626713D01*
X178897616Y-97629550D01*
X178910398Y-97664754D01*
X178915800Y-97688446D01*
X178936273Y-97726433D01*
X178939118Y-97731712D01*
X178952760Y-97748415D01*
X178979999Y-97766681D01*
X178981053Y-97767388D01*
X179002995Y-97750369D01*
X179001571Y-97730902D01*
X178976931Y-97698259D01*
X178972927Y-97694216D01*
X178947488Y-97647107D01*
X178934238Y-97585385D01*
X178930909Y-97546671D01*
X178921300Y-97504448D01*
X178903652Y-97497460D01*
X178873685Y-97521173D01*
X178857175Y-97538982D01*
X178854980Y-97546965D01*
X178850465Y-97563385D01*
X178567210Y-97563385D01*
X178561347Y-97557522D01*
X178550790Y-97568079D01*
X176889473Y-97568079D01*
X176872250Y-97552215D01*
X176870813Y-97546965D01*
X178128513Y-97546965D01*
X178139069Y-97557522D01*
X178149626Y-97546965D01*
X178139069Y-97536409D01*
X178128513Y-97546965D01*
X176870813Y-97546965D01*
X176866102Y-97529750D01*
X176884944Y-97504781D01*
X176905287Y-97491008D01*
X176961998Y-97469381D01*
X177032742Y-97453989D01*
X177069770Y-97447158D01*
X177160403Y-97421483D01*
X177238271Y-97388964D01*
X177329826Y-97340222D01*
X177181634Y-97293599D01*
X177832918Y-97293599D01*
X177843475Y-97304156D01*
X177854032Y-97293599D01*
X177843475Y-97283042D01*
X177832918Y-97293599D01*
X177181634Y-97293599D01*
X177174930Y-97291490D01*
X177169752Y-97289852D01*
X177084786Y-97260825D01*
X177008444Y-97231231D01*
X176956692Y-97207236D01*
X176937927Y-97196065D01*
X176882030Y-97159245D01*
X176812724Y-97110568D01*
X176763075Y-97074324D01*
X177769944Y-97074324D01*
X177786820Y-97097592D01*
X177807935Y-97135464D01*
X177808393Y-97177770D01*
X177786479Y-97203509D01*
X177775376Y-97210792D01*
X177793212Y-97224252D01*
X177822064Y-97219448D01*
X177848373Y-97175342D01*
X177872117Y-97134121D01*
X177915540Y-97114131D01*
X177926142Y-97113893D01*
X177957926Y-97106478D01*
X177955684Y-97092612D01*
X177924602Y-97077653D01*
X177869867Y-97066957D01*
X177829447Y-97063305D01*
X177782579Y-97063476D01*
X177769944Y-97074324D01*
X176763075Y-97074324D01*
X176738017Y-97056031D01*
X176665922Y-97001634D01*
X176604447Y-96953375D01*
X176561604Y-96917251D01*
X176545404Y-96899262D01*
X176546117Y-96895009D01*
X176570142Y-96880190D01*
X176617067Y-96876384D01*
X176671655Y-96885277D01*
X176711315Y-96896686D01*
X176812717Y-96923522D01*
X176920546Y-96949477D01*
X177026915Y-96972939D01*
X177123939Y-96992296D01*
X177203733Y-97005938D01*
X177258409Y-97012251D01*
X177280084Y-97009625D01*
X177292369Y-96992114D01*
X177313799Y-96990364D01*
X177320907Y-97013840D01*
X177323287Y-97023520D01*
X177357007Y-97038359D01*
X177430885Y-97046767D01*
X177434893Y-97046994D01*
X177498486Y-97049880D01*
X177527098Y-97046870D01*
X177527582Y-97034628D01*
X177506790Y-97009818D01*
X177475633Y-96980451D01*
X177450096Y-96966334D01*
X177438901Y-96963558D01*
X177393545Y-96947869D01*
X177321561Y-96921018D01*
X177230715Y-96886079D01*
X177128774Y-96846130D01*
X177023503Y-96804247D01*
X176922668Y-96763505D01*
X176834035Y-96726981D01*
X176765370Y-96697752D01*
X176724439Y-96678892D01*
X176666604Y-96648901D01*
X176608313Y-96618506D01*
X176559766Y-96595320D01*
X176506586Y-96576038D01*
X176473656Y-96571550D01*
X176469675Y-96584022D01*
X176477633Y-96593053D01*
X176514547Y-96607398D01*
X176527960Y-96609574D01*
X176544971Y-96628512D01*
X176542112Y-96637538D01*
X176515366Y-96649625D01*
X176488507Y-96666053D01*
X176463580Y-96707689D01*
X176458262Y-96720781D01*
X176393992Y-96817837D01*
X176296667Y-96889817D01*
X176227432Y-96917177D01*
X176154654Y-96919912D01*
X176069231Y-96893512D01*
X175996010Y-96862919D01*
X175996010Y-96427930D01*
X176270491Y-96427930D01*
X176281048Y-96438487D01*
X176291605Y-96427930D01*
X176281048Y-96417373D01*
X176270491Y-96427930D01*
X175996010Y-96427930D01*
X175996010Y-96316109D01*
X176558189Y-96316109D01*
X176569074Y-96324053D01*
X176604811Y-96323701D01*
X176625279Y-96320961D01*
X176671655Y-96333076D01*
X176681592Y-96340445D01*
X176679775Y-96351105D01*
X176639984Y-96355133D01*
X176623383Y-96355872D01*
X176607001Y-96360029D01*
X176625589Y-96369386D01*
X176682212Y-96386195D01*
X176721571Y-96396887D01*
X176775686Y-96410658D01*
X176803616Y-96416441D01*
X176808319Y-96417898D01*
X176810938Y-96427930D01*
X176814173Y-96440322D01*
X176814432Y-96443297D01*
X176839101Y-96464491D01*
X176899946Y-96496116D01*
X176993477Y-96536637D01*
X177116202Y-96584522D01*
X177264628Y-96638235D01*
X177338125Y-96662138D01*
X177426439Y-96686990D01*
X177496401Y-96702631D01*
X177516375Y-96705918D01*
X177561168Y-96710987D01*
X177574012Y-96704895D01*
X177568292Y-96695670D01*
X177715564Y-96695670D01*
X177715930Y-96704895D01*
X177717793Y-96751825D01*
X177721722Y-96777621D01*
X177746589Y-96813913D01*
X177802862Y-96847420D01*
X177824009Y-96857834D01*
X177872086Y-96884510D01*
X177896260Y-96902637D01*
X177915856Y-96916442D01*
X177959601Y-96933144D01*
X177972117Y-96936719D01*
X178050431Y-96965452D01*
X178087307Y-96993894D01*
X178083439Y-97022547D01*
X178077646Y-97030225D01*
X178077904Y-97046525D01*
X178114124Y-97050789D01*
X178152341Y-97055858D01*
X178181297Y-97071903D01*
X178180653Y-97079369D01*
X178150166Y-97089410D01*
X178085771Y-97093017D01*
X178082792Y-97093023D01*
X178014611Y-97098143D01*
X177996861Y-97106478D01*
X177986292Y-97111441D01*
X177996783Y-97130852D01*
X178045031Y-97154312D01*
X178129985Y-97179756D01*
X178178484Y-97193151D01*
X178246366Y-97220626D01*
X178272579Y-97248376D01*
X178271289Y-97269948D01*
X178251085Y-97283056D01*
X178225100Y-97264477D01*
X178210051Y-97251480D01*
X178169151Y-97234281D01*
X178151693Y-97230511D01*
X178132963Y-97237459D01*
X178137553Y-97273960D01*
X178141648Y-97310144D01*
X178128617Y-97323704D01*
X178101177Y-97305426D01*
X178064939Y-97256650D01*
X178023101Y-97188029D01*
X178023022Y-97275293D01*
X178022893Y-97293599D01*
X178022877Y-97295928D01*
X178018387Y-97340590D01*
X178001685Y-97357931D01*
X177964880Y-97359359D01*
X177920781Y-97353435D01*
X177882278Y-97340616D01*
X177867710Y-97337070D01*
X177863969Y-97362118D01*
X177871989Y-97381119D01*
X177898897Y-97392186D01*
X177905301Y-97390885D01*
X177955661Y-97386525D01*
X178029599Y-97385189D01*
X178116149Y-97386472D01*
X178204344Y-97389966D01*
X178283217Y-97395263D01*
X178341800Y-97401958D01*
X178369127Y-97409641D01*
X178375777Y-97429145D01*
X178349073Y-97461759D01*
X178323544Y-97482760D01*
X178323473Y-97490707D01*
X178360388Y-97478564D01*
X178380103Y-97469104D01*
X178426732Y-97428410D01*
X178429587Y-97421051D01*
X178606583Y-97421051D01*
X178646574Y-97444475D01*
X178677629Y-97455861D01*
X178745868Y-97469938D01*
X178803290Y-97468820D01*
X178835828Y-97451953D01*
X178835409Y-97444670D01*
X178805660Y-97434499D01*
X178742061Y-97430839D01*
X178704892Y-97429561D01*
X178654482Y-97421651D01*
X178635246Y-97408479D01*
X178632159Y-97399779D01*
X178609625Y-97401954D01*
X178608379Y-97402767D01*
X178606583Y-97421051D01*
X178429587Y-97421051D01*
X178445221Y-97380760D01*
X178454035Y-97356941D01*
X179500915Y-97356941D01*
X179511472Y-97367497D01*
X179522029Y-97356941D01*
X179511472Y-97346384D01*
X179500915Y-97356941D01*
X178454035Y-97356941D01*
X178455425Y-97353186D01*
X178489202Y-97317973D01*
X178517017Y-97296290D01*
X178516049Y-97293599D01*
X178909726Y-97293599D01*
X178912417Y-97296290D01*
X178920283Y-97304156D01*
X178930840Y-97293599D01*
X178920283Y-97283042D01*
X178909726Y-97293599D01*
X178516049Y-97293599D01*
X178512734Y-97284378D01*
X178471055Y-97273522D01*
X178412180Y-97247372D01*
X178338435Y-97183412D01*
X178285889Y-97114131D01*
X178666917Y-97114131D01*
X178675157Y-97122856D01*
X178711636Y-97135245D01*
X179268662Y-97135245D01*
X179269276Y-97140291D01*
X179289776Y-97156359D01*
X179294823Y-97155745D01*
X179310890Y-97135245D01*
X179310276Y-97130198D01*
X179289776Y-97114131D01*
X179284729Y-97114744D01*
X179268662Y-97135245D01*
X178711636Y-97135245D01*
X178725708Y-97132399D01*
X178730258Y-97114131D01*
X178722018Y-97105406D01*
X178685538Y-97093017D01*
X178671466Y-97095863D01*
X178666917Y-97114131D01*
X178285889Y-97114131D01*
X178267248Y-97089554D01*
X178245510Y-97052190D01*
X178245246Y-97032521D01*
X178269793Y-97021169D01*
X178294433Y-97002701D01*
X178311073Y-96955240D01*
X178311658Y-96938486D01*
X178305898Y-96915343D01*
X178284955Y-96925692D01*
X178249190Y-96938709D01*
X178176885Y-96929839D01*
X178082902Y-96895267D01*
X178258931Y-96895267D01*
X178276310Y-96902992D01*
X178287487Y-96901468D01*
X178290386Y-96888916D01*
X178287291Y-96886389D01*
X178262234Y-96888916D01*
X178258931Y-96895267D01*
X178082902Y-96895267D01*
X178075728Y-96892628D01*
X178070119Y-96890167D01*
X178003156Y-96863811D01*
X177931398Y-96839236D01*
X177921206Y-96835793D01*
X177848464Y-96800652D01*
X177782987Y-96754868D01*
X177715564Y-96695670D01*
X177568292Y-96695670D01*
X177562161Y-96685783D01*
X177552395Y-96675551D01*
X177512768Y-96647100D01*
X177449159Y-96614406D01*
X177357407Y-96575656D01*
X177233348Y-96529037D01*
X177218949Y-96523987D01*
X177854032Y-96523987D01*
X177868949Y-96544065D01*
X177909158Y-96566060D01*
X177949240Y-96587772D01*
X178009991Y-96629836D01*
X178075067Y-96681664D01*
X178075659Y-96682169D01*
X178134533Y-96729609D01*
X178182766Y-96763419D01*
X178209966Y-96776309D01*
X178212538Y-96776376D01*
X178231405Y-96789168D01*
X178232842Y-96831484D01*
X178248545Y-96849229D01*
X178288040Y-96873712D01*
X178321036Y-96888916D01*
X178332232Y-96894075D01*
X178361933Y-96902992D01*
X178380053Y-96897893D01*
X178382720Y-96892435D01*
X178635246Y-96892435D01*
X178645803Y-96902992D01*
X178656360Y-96892435D01*
X178645803Y-96881878D01*
X178635246Y-96892435D01*
X178382720Y-96892435D01*
X178392292Y-96872848D01*
X178374849Y-96846227D01*
X178351380Y-96825235D01*
X178320877Y-96781587D01*
X178308695Y-96765327D01*
X178808668Y-96765327D01*
X178811195Y-96790385D01*
X178817545Y-96793688D01*
X178825271Y-96776309D01*
X178823747Y-96765131D01*
X178811195Y-96762233D01*
X178808668Y-96765327D01*
X178308695Y-96765327D01*
X178297908Y-96750929D01*
X178267008Y-96734081D01*
X178247724Y-96727762D01*
X178201910Y-96700453D01*
X178146346Y-96658883D01*
X178109363Y-96628580D01*
X178101599Y-96622225D01*
X178280135Y-96622225D01*
X178296941Y-96652872D01*
X178339711Y-96661492D01*
X178367791Y-96650872D01*
X178614132Y-96650872D01*
X178614538Y-96656155D01*
X178632657Y-96669502D01*
X178674449Y-96651941D01*
X178689364Y-96638409D01*
X178679728Y-96619348D01*
X178665804Y-96613937D01*
X178630764Y-96621406D01*
X178614132Y-96650872D01*
X178367791Y-96650872D01*
X178402993Y-96637558D01*
X178437133Y-96616191D01*
X178445221Y-96606204D01*
X178373235Y-96595254D01*
X178313974Y-96591840D01*
X178284902Y-96600640D01*
X178280135Y-96622225D01*
X178101599Y-96622225D01*
X178055370Y-96584388D01*
X178019449Y-96555049D01*
X177996299Y-96539682D01*
X177974871Y-96535824D01*
X177953068Y-96536464D01*
X177942716Y-96533499D01*
X178318537Y-96533499D01*
X178329094Y-96544056D01*
X178339651Y-96533499D01*
X178445221Y-96533499D01*
X178455778Y-96544056D01*
X178466335Y-96533499D01*
X178455778Y-96522942D01*
X178445221Y-96533499D01*
X178339651Y-96533499D01*
X178329094Y-96522942D01*
X178318537Y-96533499D01*
X177942716Y-96533499D01*
X177909745Y-96524055D01*
X177870849Y-96513566D01*
X177854032Y-96523987D01*
X177218949Y-96523987D01*
X177072818Y-96472737D01*
X177042693Y-96462336D01*
X176935974Y-96424292D01*
X176906357Y-96413187D01*
X178136483Y-96413187D01*
X178163646Y-96434301D01*
X178211678Y-96455987D01*
X178239232Y-96464802D01*
X178263451Y-96466125D01*
X178262289Y-96447630D01*
X178254484Y-96434638D01*
X178232306Y-96429027D01*
X178210369Y-96430755D01*
X178168629Y-96416243D01*
X178141375Y-96405340D01*
X178136483Y-96413187D01*
X176906357Y-96413187D01*
X176841321Y-96388801D01*
X176768075Y-96359440D01*
X176725575Y-96339783D01*
X176698410Y-96326641D01*
X176645812Y-96309387D01*
X176596842Y-96300740D01*
X176563601Y-96302410D01*
X176558189Y-96316109D01*
X175996010Y-96316109D01*
X175996010Y-96259019D01*
X176566085Y-96259019D01*
X176576642Y-96269576D01*
X176587199Y-96259019D01*
X176576642Y-96248462D01*
X176566085Y-96259019D01*
X175996010Y-96259019D01*
X175996010Y-96154117D01*
X176760297Y-96154117D01*
X176761500Y-96154988D01*
X176790645Y-96166970D01*
X176851005Y-96187971D01*
X176934580Y-96215290D01*
X177033369Y-96246230D01*
X177043218Y-96249254D01*
X177074962Y-96259019D01*
X177145410Y-96280690D01*
X177235574Y-96308515D01*
X177304260Y-96329807D01*
X177342020Y-96341646D01*
X177364476Y-96348242D01*
X177386585Y-96349879D01*
X177373060Y-96334111D01*
X177342180Y-96313186D01*
X178424267Y-96313186D01*
X178442528Y-96338196D01*
X178452553Y-96349879D01*
X178461852Y-96360716D01*
X178479477Y-96375145D01*
X178483182Y-96374798D01*
X178483325Y-96361042D01*
X178450499Y-96330224D01*
X178435201Y-96318429D01*
X178424267Y-96313186D01*
X177342180Y-96313186D01*
X177323237Y-96300350D01*
X177236451Y-96248007D01*
X177229716Y-96244044D01*
X177139829Y-96188989D01*
X177138263Y-96187973D01*
X177526706Y-96187973D01*
X177531409Y-96197260D01*
X177568171Y-96232058D01*
X177582178Y-96244242D01*
X177624748Y-96276787D01*
X177651019Y-96290121D01*
X177653418Y-96289438D01*
X177643484Y-96274059D01*
X177608791Y-96244681D01*
X177608340Y-96244340D01*
X177552777Y-96203799D01*
X177526706Y-96187973D01*
X177138263Y-96187973D01*
X177085033Y-96153449D01*
X177452868Y-96153449D01*
X177463425Y-96164006D01*
X177473982Y-96153449D01*
X177463425Y-96142892D01*
X177452868Y-96153449D01*
X177085033Y-96153449D01*
X177049671Y-96130514D01*
X177021875Y-96111221D01*
X177410641Y-96111221D01*
X177421197Y-96121778D01*
X177431754Y-96111221D01*
X177421197Y-96100665D01*
X177410641Y-96111221D01*
X177021875Y-96111221D01*
X176977806Y-96080633D01*
X176949376Y-96059811D01*
X177352476Y-96059811D01*
X177357856Y-96079551D01*
X177362194Y-96085801D01*
X177381462Y-96100665D01*
X177384350Y-96099290D01*
X177378970Y-96079551D01*
X177374632Y-96073301D01*
X177355364Y-96058437D01*
X177352476Y-96059811D01*
X176949376Y-96059811D01*
X176944381Y-96056153D01*
X176877585Y-96008493D01*
X176838595Y-95983471D01*
X176823401Y-95978710D01*
X176824209Y-95981019D01*
X176827993Y-95991833D01*
X176832376Y-96002875D01*
X176820698Y-96016209D01*
X176808615Y-96022276D01*
X176798338Y-96054214D01*
X176795343Y-96075197D01*
X176773353Y-96117204D01*
X176762326Y-96131561D01*
X176760297Y-96154117D01*
X175996010Y-96154117D01*
X175996010Y-95987370D01*
X176738731Y-95987370D01*
X176756110Y-95995095D01*
X176767288Y-95993571D01*
X176770186Y-95981019D01*
X176767092Y-95978492D01*
X176742034Y-95981019D01*
X176738731Y-95987370D01*
X175996010Y-95987370D01*
X175996010Y-95942310D01*
X176713882Y-95942310D01*
X176724439Y-95952867D01*
X176734996Y-95942310D01*
X176777224Y-95942310D01*
X176787781Y-95952867D01*
X176798338Y-95942310D01*
X176787781Y-95931753D01*
X176777224Y-95942310D01*
X176734996Y-95942310D01*
X176724439Y-95931753D01*
X176713882Y-95942310D01*
X175996010Y-95942310D01*
X175996010Y-95792098D01*
X176909096Y-95792098D01*
X176932290Y-95801340D01*
X176949855Y-95807101D01*
X176967249Y-95825270D01*
X176973026Y-95836308D01*
X177004198Y-95854424D01*
X177011000Y-95857159D01*
X177053186Y-95879785D01*
X177116132Y-95917901D01*
X177153875Y-95942310D01*
X177188945Y-95964990D01*
X177251959Y-96006030D01*
X177291512Y-96028750D01*
X177301403Y-96028464D01*
X177283957Y-96006180D01*
X177282459Y-96004565D01*
X177229003Y-95956223D01*
X177174448Y-95919341D01*
X177154240Y-95907427D01*
X177097086Y-95866426D01*
X177038072Y-95816855D01*
X177033700Y-95812866D01*
X176984479Y-95772421D01*
X176952476Y-95759281D01*
X176927876Y-95769199D01*
X176923179Y-95773157D01*
X176909096Y-95792098D01*
X175996010Y-95792098D01*
X175996010Y-95783956D01*
X176865428Y-95783956D01*
X176891135Y-95771479D01*
X176907791Y-95736075D01*
X176900708Y-95698793D01*
X176897800Y-95694710D01*
X176884587Y-95679943D01*
X176889709Y-95702206D01*
X176890226Y-95706539D01*
X176892017Y-95721566D01*
X176876921Y-95760270D01*
X176866604Y-95772283D01*
X176865428Y-95783956D01*
X175996010Y-95783956D01*
X175996010Y-95712889D01*
X176780959Y-95712889D01*
X176798338Y-95720615D01*
X176809516Y-95719091D01*
X176812414Y-95706539D01*
X176809319Y-95704012D01*
X176784262Y-95706539D01*
X176780959Y-95712889D01*
X175996010Y-95712889D01*
X175996010Y-95679464D01*
X175996010Y-95636159D01*
X176798338Y-95636159D01*
X176799197Y-95641946D01*
X176820698Y-95657273D01*
X176828335Y-95655615D01*
X176830009Y-95636159D01*
X176825675Y-95629841D01*
X176807649Y-95615045D01*
X176805542Y-95615594D01*
X176798338Y-95636159D01*
X175996010Y-95636159D01*
X175996010Y-95600179D01*
X177103350Y-95600179D01*
X177109514Y-95612735D01*
X177135356Y-95636159D01*
X177146717Y-95646457D01*
X177191136Y-95681031D01*
X177261334Y-95730020D01*
X177270770Y-95736075D01*
X177336742Y-95778408D01*
X177400952Y-95818203D01*
X177491764Y-95875396D01*
X177594096Y-95940502D01*
X177695678Y-96005748D01*
X177699190Y-96008016D01*
X177731111Y-96028464D01*
X177795160Y-96069493D01*
X177842354Y-96099290D01*
X177861251Y-96111221D01*
X177886089Y-96126903D01*
X177928883Y-96153449D01*
X177961868Y-96173910D01*
X178012386Y-96204182D01*
X178096842Y-96252606D01*
X178001829Y-96164241D01*
X177946423Y-96115918D01*
X177862731Y-96049175D01*
X177781125Y-95989560D01*
X177754075Y-95969992D01*
X177674329Y-95905366D01*
X177587001Y-95827220D01*
X177506644Y-95748343D01*
X177446460Y-95686783D01*
X177392751Y-95636883D01*
X177350997Y-95607587D01*
X177312390Y-95592934D01*
X177268122Y-95586967D01*
X177244165Y-95585919D01*
X177197094Y-95589147D01*
X177178388Y-95599191D01*
X177167219Y-95608140D01*
X177130882Y-95604864D01*
X177126256Y-95603618D01*
X177103350Y-95600179D01*
X175996010Y-95600179D01*
X175996010Y-95562261D01*
X177030591Y-95562261D01*
X177041148Y-95572817D01*
X177051705Y-95562261D01*
X177041148Y-95551704D01*
X177030591Y-95562261D01*
X175996010Y-95562261D01*
X175996010Y-95541147D01*
X176988363Y-95541147D01*
X176998920Y-95551704D01*
X177009477Y-95541147D01*
X176998920Y-95530590D01*
X176988363Y-95541147D01*
X175996010Y-95541147D01*
X175996010Y-95498919D01*
X176692769Y-95498919D01*
X176703325Y-95509476D01*
X176713882Y-95498919D01*
X176703325Y-95488362D01*
X176692769Y-95498919D01*
X175996010Y-95498919D01*
X175996010Y-95467704D01*
X177222854Y-95467704D01*
X177232719Y-95485144D01*
X177244613Y-95498919D01*
X177262843Y-95520033D01*
X177267766Y-95525219D01*
X177284335Y-95541147D01*
X177302907Y-95559001D01*
X177307646Y-95562261D01*
X177322989Y-95572817D01*
X177323946Y-95572361D01*
X177314082Y-95554921D01*
X177283957Y-95520033D01*
X177279034Y-95514847D01*
X177243894Y-95481064D01*
X177223812Y-95467248D01*
X177222854Y-95467704D01*
X175996010Y-95467704D01*
X175996010Y-95456691D01*
X176861680Y-95456691D01*
X176872237Y-95467248D01*
X176882793Y-95456691D01*
X176872237Y-95446134D01*
X176861680Y-95456691D01*
X175996010Y-95456691D01*
X175996010Y-95420161D01*
X177537324Y-95420161D01*
X177548440Y-95439085D01*
X177563194Y-95456691D01*
X177585983Y-95483886D01*
X177645561Y-95548824D01*
X177668103Y-95572361D01*
X177722520Y-95629181D01*
X177812207Y-95720240D01*
X177909969Y-95817285D01*
X178011153Y-95915598D01*
X178111104Y-96010463D01*
X178205171Y-96097161D01*
X178227805Y-96117567D01*
X178304436Y-96185515D01*
X178368363Y-96240482D01*
X178383223Y-96252606D01*
X178413456Y-96277272D01*
X178431706Y-96289438D01*
X178433583Y-96290689D01*
X178436251Y-96288951D01*
X178427905Y-96266182D01*
X178400415Y-96224407D01*
X178360408Y-96173042D01*
X178314514Y-96121506D01*
X178312348Y-96119240D01*
X178272213Y-96074867D01*
X178217472Y-96011643D01*
X178159311Y-95942470D01*
X178096907Y-95868270D01*
X178030913Y-95791799D01*
X177977054Y-95731331D01*
X177895754Y-95641347D01*
X177880425Y-95623495D01*
X178185188Y-95623495D01*
X178190280Y-95650372D01*
X178224114Y-95696350D01*
X178238038Y-95711907D01*
X178275172Y-95744042D01*
X178299106Y-95751246D01*
X178307148Y-95749378D01*
X178306815Y-95768823D01*
X178306499Y-95769721D01*
X178312361Y-95805279D01*
X178340336Y-95849097D01*
X178346508Y-95856006D01*
X178368711Y-95877279D01*
X178369669Y-95870428D01*
X178363787Y-95853300D01*
X178380056Y-95856728D01*
X178390594Y-95867450D01*
X178394231Y-95903018D01*
X178392586Y-95919520D01*
X178413906Y-95945369D01*
X178428268Y-95953810D01*
X178445221Y-95983525D01*
X178457599Y-96012198D01*
X178491078Y-96049886D01*
X178493648Y-96052120D01*
X178519769Y-96071239D01*
X178522404Y-96065174D01*
X178518224Y-96053708D01*
X178528228Y-96027661D01*
X178539459Y-96030405D01*
X178539481Y-96062342D01*
X178538852Y-96069907D01*
X178548485Y-96106114D01*
X178578414Y-96161098D01*
X178631215Y-96239130D01*
X178668217Y-96288951D01*
X178709461Y-96344484D01*
X178718380Y-96356142D01*
X178722236Y-96361042D01*
X178793701Y-96451868D01*
X178805434Y-96466125D01*
X178860878Y-96533499D01*
X178868748Y-96543063D01*
X178923410Y-96606204D01*
X178935270Y-96619903D01*
X178952752Y-96638409D01*
X178985012Y-96672559D01*
X179018244Y-96706778D01*
X179079924Y-96776309D01*
X179082980Y-96779754D01*
X179155319Y-96866820D01*
X179160036Y-96872848D01*
X179175361Y-96892435D01*
X179224923Y-96955777D01*
X179273766Y-97019992D01*
X179333353Y-97097036D01*
X179363584Y-97135245D01*
X179382390Y-97159014D01*
X179413525Y-97196539D01*
X179437360Y-97224719D01*
X179456528Y-97253523D01*
X179449614Y-97256481D01*
X179416330Y-97230140D01*
X179384581Y-97207004D01*
X179363035Y-97202745D01*
X179362689Y-97214054D01*
X179384278Y-97240391D01*
X179401654Y-97259087D01*
X179416320Y-97293599D01*
X179416459Y-97293925D01*
X179420762Y-97308707D01*
X179449857Y-97333568D01*
X179480061Y-97343697D01*
X179498438Y-97339814D01*
X179491824Y-97309434D01*
X179490136Y-97301900D01*
X179501901Y-97304091D01*
X179531793Y-97333832D01*
X179532533Y-97334681D01*
X179550425Y-97356941D01*
X179565637Y-97375866D01*
X179583832Y-97404232D01*
X179583665Y-97412773D01*
X179561684Y-97394484D01*
X179545604Y-97382822D01*
X179514864Y-97378470D01*
X179497252Y-97393088D01*
X179507134Y-97419964D01*
X179522852Y-97432983D01*
X179548421Y-97437934D01*
X179556260Y-97437439D01*
X179561282Y-97451953D01*
X179564257Y-97460550D01*
X179569496Y-97477165D01*
X179597967Y-97522503D01*
X179644341Y-97581623D01*
X179700808Y-97644850D01*
X179759560Y-97702508D01*
X179782440Y-97727011D01*
X179794731Y-97750369D01*
X179796509Y-97753748D01*
X179811779Y-97785929D01*
X179849240Y-97817843D01*
X179890014Y-97832003D01*
X179906023Y-97834923D01*
X179923192Y-97855376D01*
X179917286Y-97866298D01*
X179887427Y-97865024D01*
X179870852Y-97859496D01*
X179866488Y-97865309D01*
X179891151Y-97894935D01*
X179899501Y-97903846D01*
X179923089Y-97920290D01*
X179928812Y-97924280D01*
X179949413Y-97911679D01*
X179959436Y-97905130D01*
X179953810Y-97935488D01*
X179950528Y-97948129D01*
X179949835Y-97950800D01*
X179950536Y-97975712D01*
X179974389Y-97972774D01*
X179995514Y-97968866D01*
X180003218Y-97987782D01*
X180003648Y-97989499D01*
X180005968Y-97998759D01*
X180031538Y-98037011D01*
X180078247Y-98091653D01*
X180139610Y-98154744D01*
X180139656Y-98154790D01*
X180213628Y-98227828D01*
X180248460Y-98264837D01*
X180258773Y-98275794D01*
X180277484Y-98302044D01*
X180272155Y-98309934D01*
X180245179Y-98302822D01*
X180225736Y-98296760D01*
X180222701Y-98303716D01*
X180241265Y-98326420D01*
X180248001Y-98334658D01*
X180282099Y-98362242D01*
X180311343Y-98366524D01*
X180320455Y-98362249D01*
X180319634Y-98369984D01*
X180315491Y-98378804D01*
X180318538Y-98400310D01*
X180334665Y-98436671D01*
X180366554Y-98492892D01*
X180416885Y-98573979D01*
X180433620Y-98599966D01*
X180488341Y-98684939D01*
X180512610Y-98723676D01*
X180559805Y-98807646D01*
X180595170Y-98882363D01*
X180612444Y-98935203D01*
X180615064Y-98949806D01*
X180627351Y-98995831D01*
X180639364Y-99014380D01*
X180643630Y-99012191D01*
X180649761Y-99003823D01*
X181021114Y-99003823D01*
X181031671Y-99014380D01*
X181042228Y-99003823D01*
X181031671Y-98993266D01*
X181021114Y-99003823D01*
X180649761Y-99003823D01*
X180663917Y-98984504D01*
X180664760Y-98982876D01*
X181682882Y-98982876D01*
X181684320Y-99003823D01*
X181687561Y-99051020D01*
X181693151Y-99097685D01*
X181705653Y-99164585D01*
X181719428Y-99207311D01*
X181729378Y-99231354D01*
X181726587Y-99246633D01*
X181723489Y-99252738D01*
X181739030Y-99278356D01*
X181753497Y-99312643D01*
X181752700Y-99373369D01*
X181752469Y-99374537D01*
X181751881Y-99383873D01*
X181749681Y-99418768D01*
X181760628Y-99436658D01*
X181774011Y-99449114D01*
X181781214Y-99488197D01*
X181785984Y-99523680D01*
X181786822Y-99525173D01*
X181802328Y-99552784D01*
X181813457Y-99565670D01*
X181823442Y-99605569D01*
X181825933Y-99626683D01*
X181826131Y-99628357D01*
X181840892Y-99656090D01*
X181846935Y-99655351D01*
X181853781Y-99629618D01*
X181854591Y-99583334D01*
X181850203Y-99530461D01*
X181845169Y-99504278D01*
X181912239Y-99504278D01*
X181915028Y-99547506D01*
X181922359Y-99551087D01*
X181925678Y-99521113D01*
X181922734Y-99492069D01*
X181915028Y-99494721D01*
X181912239Y-99504278D01*
X181845169Y-99504278D01*
X181841455Y-99484962D01*
X181829183Y-99460800D01*
X181816450Y-99438953D01*
X181803555Y-99390330D01*
X181793663Y-99329133D01*
X181788396Y-99268793D01*
X181789376Y-99222741D01*
X181798223Y-99204405D01*
X181828281Y-99217131D01*
X181850860Y-99257699D01*
X181851112Y-99311073D01*
X181847087Y-99342050D01*
X181855684Y-99346754D01*
X181857564Y-99345468D01*
X181881059Y-99353986D01*
X181911447Y-99388981D01*
X181916685Y-99396704D01*
X181941568Y-99424108D01*
X181951592Y-99415544D01*
X181952640Y-99410342D01*
X181962803Y-99418202D01*
X181979757Y-99457026D01*
X182002901Y-99521113D01*
X182006175Y-99530179D01*
X182029837Y-99462305D01*
X182032626Y-99453905D01*
X182041431Y-99411640D01*
X182035459Y-99394430D01*
X182026848Y-99385891D01*
X182028463Y-99352202D01*
X182026801Y-99320532D01*
X182055695Y-99320532D01*
X182066252Y-99331088D01*
X182076808Y-99320532D01*
X182066252Y-99309975D01*
X182055695Y-99320532D01*
X182026801Y-99320532D01*
X182026705Y-99318711D01*
X182007210Y-99310820D01*
X181985978Y-99336367D01*
X181971359Y-99346515D01*
X181943257Y-99320532D01*
X181928103Y-99298278D01*
X181902909Y-99243526D01*
X181892651Y-99193764D01*
X181901395Y-99164180D01*
X181906826Y-99159206D01*
X181928081Y-99129261D01*
X181971239Y-99129261D01*
X181973823Y-99144992D01*
X181992353Y-99162177D01*
X181997362Y-99161609D01*
X182013467Y-99142310D01*
X182012661Y-99136386D01*
X181992353Y-99109393D01*
X181981475Y-99107406D01*
X181971239Y-99129261D01*
X181928081Y-99129261D01*
X181930303Y-99126130D01*
X181956678Y-99078038D01*
X181979865Y-99027778D01*
X181993780Y-98988200D01*
X181993248Y-98982285D01*
X182060206Y-98982285D01*
X182062733Y-99007342D01*
X182069083Y-99010645D01*
X182076808Y-98993266D01*
X182075285Y-98982089D01*
X182062733Y-98979190D01*
X182060206Y-98982285D01*
X181993248Y-98982285D01*
X181992337Y-98972152D01*
X181977794Y-98978673D01*
X181951816Y-99009102D01*
X181938447Y-99027365D01*
X181929836Y-99024937D01*
X181934376Y-99012578D01*
X181960817Y-98974604D01*
X182003093Y-98926056D01*
X182023201Y-98903506D01*
X182083193Y-98903506D01*
X182096120Y-98942210D01*
X182137898Y-98991163D01*
X182140164Y-98993266D01*
X182148061Y-99000595D01*
X182184041Y-99030849D01*
X182199925Y-99033695D01*
X182203492Y-99011552D01*
X182201935Y-99003823D01*
X182266833Y-99003823D01*
X182274562Y-99011552D01*
X182277390Y-99014380D01*
X182287947Y-99003823D01*
X182277390Y-98993266D01*
X182266833Y-99003823D01*
X182201935Y-99003823D01*
X182196300Y-98975852D01*
X182173074Y-98925834D01*
X182143062Y-98884067D01*
X182115945Y-98866583D01*
X182105448Y-98870301D01*
X182084451Y-98898236D01*
X182083193Y-98903506D01*
X182023201Y-98903506D01*
X182033150Y-98892349D01*
X182065516Y-98847709D01*
X182075109Y-98821411D01*
X182060820Y-98818407D01*
X182021542Y-98843649D01*
X182017158Y-98847031D01*
X181976122Y-98872392D01*
X181950754Y-98877529D01*
X181936727Y-98886469D01*
X181909607Y-98924544D01*
X181876820Y-98983386D01*
X181864808Y-99006070D01*
X181825280Y-99065959D01*
X181791861Y-99095542D01*
X181768738Y-99092295D01*
X181760100Y-99053697D01*
X181761145Y-99045357D01*
X181778065Y-98998320D01*
X181811398Y-98929197D01*
X181855581Y-98847908D01*
X181884956Y-98798303D01*
X182168445Y-98798303D01*
X182199837Y-98797711D01*
X182227803Y-98791878D01*
X182245720Y-98776388D01*
X182246984Y-98770940D01*
X182265774Y-98770916D01*
X182284528Y-98768193D01*
X182309814Y-98738493D01*
X182320438Y-98717131D01*
X182318835Y-98701340D01*
X182284481Y-98708438D01*
X182245628Y-98725747D01*
X182194558Y-98762183D01*
X182170228Y-98786593D01*
X182168445Y-98798303D01*
X181884956Y-98798303D01*
X181905050Y-98764370D01*
X181954245Y-98688501D01*
X181997602Y-98630219D01*
X182002958Y-98623773D01*
X182097922Y-98623773D01*
X182108479Y-98634330D01*
X182119036Y-98623773D01*
X182108479Y-98613216D01*
X182097922Y-98623773D01*
X182002958Y-98623773D01*
X182019613Y-98603731D01*
X182053260Y-98561678D01*
X182245720Y-98561678D01*
X182246268Y-98563785D01*
X182266833Y-98570989D01*
X182272620Y-98570129D01*
X182287947Y-98548629D01*
X182286289Y-98540992D01*
X182266833Y-98539318D01*
X182260515Y-98543651D01*
X182245720Y-98561678D01*
X182053260Y-98561678D01*
X182096047Y-98508201D01*
X182119345Y-98475976D01*
X182224606Y-98475976D01*
X182235163Y-98486533D01*
X182245720Y-98475976D01*
X182235163Y-98465419D01*
X182224606Y-98475976D01*
X182119345Y-98475976D01*
X182150181Y-98433324D01*
X182334686Y-98433324D01*
X182337213Y-98458381D01*
X182343564Y-98461685D01*
X182351289Y-98444305D01*
X182349765Y-98433128D01*
X182337213Y-98430230D01*
X182334686Y-98433324D01*
X182150181Y-98433324D01*
X182152926Y-98429527D01*
X182174848Y-98394352D01*
X182355024Y-98394352D01*
X182372403Y-98402078D01*
X182383580Y-98400554D01*
X182386479Y-98388002D01*
X182383384Y-98385475D01*
X182358327Y-98388002D01*
X182355024Y-98394352D01*
X182174848Y-98394352D01*
X182198213Y-98356861D01*
X182213677Y-98329425D01*
X182330175Y-98329425D01*
X182332351Y-98342839D01*
X182351289Y-98359850D01*
X182363788Y-98351356D01*
X182372403Y-98316376D01*
X182367907Y-98292416D01*
X182351289Y-98285951D01*
X182343043Y-98293478D01*
X182330175Y-98329425D01*
X182213677Y-98329425D01*
X182224150Y-98310844D01*
X182235935Y-98285951D01*
X182287947Y-98285951D01*
X182298504Y-98296508D01*
X182309061Y-98285951D01*
X182308637Y-98285527D01*
X182735850Y-98285527D01*
X182738377Y-98310584D01*
X182744727Y-98313887D01*
X182752453Y-98296508D01*
X182750929Y-98285331D01*
X182738377Y-98282432D01*
X182735850Y-98285527D01*
X182308637Y-98285527D01*
X182298504Y-98275394D01*
X182287947Y-98285951D01*
X182235935Y-98285951D01*
X182241733Y-98273705D01*
X182241150Y-98257708D01*
X182224606Y-98254280D01*
X182214893Y-98257854D01*
X182203492Y-98285951D01*
X182201110Y-98300521D01*
X182182378Y-98317622D01*
X182173244Y-98320584D01*
X182161264Y-98347533D01*
X182159916Y-98360176D01*
X182145429Y-98384483D01*
X182145184Y-98384600D01*
X182124744Y-98404642D01*
X182087326Y-98449006D01*
X182040847Y-98508317D01*
X181992882Y-98569059D01*
X181939390Y-98632134D01*
X181898328Y-98675630D01*
X181893928Y-98679865D01*
X181858915Y-98722430D01*
X181844556Y-98756548D01*
X181838620Y-98772952D01*
X181808211Y-98813415D01*
X181760647Y-98860500D01*
X181712930Y-98904590D01*
X181689166Y-98939731D01*
X181682882Y-98982876D01*
X180664760Y-98982876D01*
X180689437Y-98935203D01*
X180698202Y-98915723D01*
X180713870Y-98873155D01*
X180710696Y-98849078D01*
X180688557Y-98828735D01*
X180617131Y-98774869D01*
X180567928Y-98734209D01*
X180542641Y-98706947D01*
X180535495Y-98687765D01*
X180535432Y-98686498D01*
X180519122Y-98655683D01*
X180482710Y-98617164D01*
X180480198Y-98614949D01*
X180444827Y-98575817D01*
X180430634Y-98544736D01*
X180435383Y-98540539D01*
X180459113Y-98557084D01*
X180495949Y-98597288D01*
X180536938Y-98642416D01*
X180573501Y-98664795D01*
X180611367Y-98663619D01*
X180644922Y-98660318D01*
X180662178Y-98672683D01*
X180677877Y-98692113D01*
X180721624Y-98724492D01*
X180783583Y-98762034D01*
X180785468Y-98763080D01*
X180830965Y-98786819D01*
X180874821Y-98804677D01*
X180923293Y-98817170D01*
X180982641Y-98824812D01*
X181059123Y-98828117D01*
X181158995Y-98827602D01*
X181288518Y-98823780D01*
X181453949Y-98817165D01*
X181525062Y-98813343D01*
X181594139Y-98805473D01*
X181653987Y-98790407D01*
X181708508Y-98764539D01*
X181761601Y-98724258D01*
X181817166Y-98665957D01*
X181879103Y-98586027D01*
X181951310Y-98480861D01*
X182037689Y-98346848D01*
X182128890Y-98201496D01*
X182238084Y-98201496D01*
X182245655Y-98216455D01*
X182265573Y-98233167D01*
X183195844Y-98233167D01*
X183196458Y-98238213D01*
X183216958Y-98254280D01*
X183222005Y-98253667D01*
X183238072Y-98233167D01*
X183237458Y-98228120D01*
X183216958Y-98212053D01*
X183211911Y-98212666D01*
X183211210Y-98213561D01*
X183195844Y-98233167D01*
X182265573Y-98233167D01*
X182272591Y-98229634D01*
X182280909Y-98201496D01*
X182280822Y-98201089D01*
X182319176Y-98201089D01*
X182319930Y-98201496D01*
X182340732Y-98212721D01*
X182374709Y-98225667D01*
X182406004Y-98229971D01*
X182423214Y-98215245D01*
X182423955Y-98213561D01*
X182409266Y-98201702D01*
X182366397Y-98196283D01*
X182333767Y-98196515D01*
X182319176Y-98201089D01*
X182280822Y-98201089D01*
X182277757Y-98186814D01*
X182253420Y-98169825D01*
X182240601Y-98174262D01*
X182238084Y-98201496D01*
X182128890Y-98201496D01*
X182142138Y-98180382D01*
X182170692Y-98135194D01*
X182397565Y-98135194D01*
X182426914Y-98157009D01*
X182444155Y-98163438D01*
X182463864Y-98169810D01*
X182465953Y-98159268D01*
X183238072Y-98159268D01*
X183248629Y-98169825D01*
X183259186Y-98159268D01*
X183248629Y-98148711D01*
X183238072Y-98159268D01*
X182465953Y-98159268D01*
X182467011Y-98153927D01*
X182470023Y-98111747D01*
X182470072Y-98110604D01*
X182469933Y-98106483D01*
X183227515Y-98106483D01*
X183230603Y-98110604D01*
X183231837Y-98112250D01*
X183260432Y-98127597D01*
X183265146Y-98126993D01*
X183280300Y-98106483D01*
X183276271Y-98096393D01*
X183247383Y-98085369D01*
X183232302Y-98088408D01*
X183227515Y-98106483D01*
X182469933Y-98106483D01*
X182468985Y-98078299D01*
X182462985Y-98080091D01*
X182456632Y-98090627D01*
X182426037Y-98105237D01*
X182423428Y-98106483D01*
X182399239Y-98113669D01*
X182397565Y-98135194D01*
X182170692Y-98135194D01*
X182171422Y-98134039D01*
X182181517Y-98118286D01*
X182309061Y-98118286D01*
X182309610Y-98120393D01*
X182330175Y-98127597D01*
X182335962Y-98126738D01*
X182351289Y-98105237D01*
X182349631Y-98097600D01*
X182330175Y-98095926D01*
X182323856Y-98100260D01*
X182309061Y-98118286D01*
X182181517Y-98118286D01*
X182223195Y-98053249D01*
X182250706Y-98010702D01*
X182380434Y-98010702D01*
X182384137Y-98045047D01*
X182387542Y-98049915D01*
X182418039Y-98063007D01*
X182448794Y-98039109D01*
X182451527Y-98031339D01*
X183259186Y-98031339D01*
X183261770Y-98047070D01*
X183280300Y-98064256D01*
X183285309Y-98063687D01*
X183301414Y-98044388D01*
X183300608Y-98038464D01*
X183280300Y-98011471D01*
X183269422Y-98009485D01*
X183261281Y-98026867D01*
X183259186Y-98031339D01*
X182451527Y-98031339D01*
X182453100Y-98026867D01*
X182439351Y-98005635D01*
X182430544Y-98000838D01*
X182426302Y-97977997D01*
X182429140Y-97971501D01*
X182427201Y-97969243D01*
X182752453Y-97969243D01*
X182763010Y-97979800D01*
X182773567Y-97969243D01*
X182763010Y-97958686D01*
X182752453Y-97969243D01*
X182427201Y-97969243D01*
X182418136Y-97958686D01*
X182395220Y-97974363D01*
X182380434Y-98010702D01*
X182250706Y-98010702D01*
X182284099Y-97959057D01*
X182322866Y-97899573D01*
X183267034Y-97899573D01*
X183283473Y-97918866D01*
X183314194Y-97934336D01*
X183337866Y-97928946D01*
X183335835Y-97890066D01*
X183328240Y-97856603D01*
X183324866Y-97832003D01*
X183512552Y-97832003D01*
X183513412Y-97837790D01*
X183534912Y-97853117D01*
X183542549Y-97851459D01*
X183544223Y-97832003D01*
X183539890Y-97825684D01*
X183521863Y-97810889D01*
X183519756Y-97811438D01*
X183512552Y-97832003D01*
X183324866Y-97832003D01*
X183321970Y-97810889D01*
X183321468Y-97806975D01*
X183309807Y-97807929D01*
X183287906Y-97840013D01*
X183274006Y-97867663D01*
X183271033Y-97881269D01*
X183267034Y-97899573D01*
X182322866Y-97899573D01*
X182330657Y-97887619D01*
X182545049Y-97887619D01*
X182562428Y-97895344D01*
X182573605Y-97893821D01*
X182576504Y-97881269D01*
X182573409Y-97878742D01*
X182548352Y-97881269D01*
X182545049Y-97887619D01*
X182330657Y-97887619D01*
X182346263Y-97863674D01*
X182387001Y-97800332D01*
X182625769Y-97800332D01*
X182636326Y-97810889D01*
X182646883Y-97800332D01*
X182636326Y-97789775D01*
X182625769Y-97800332D01*
X182387001Y-97800332D01*
X182400580Y-97779218D01*
X182583542Y-97779218D01*
X182594099Y-97789775D01*
X182604656Y-97779218D01*
X182594099Y-97768661D01*
X182583542Y-97779218D01*
X182400580Y-97779218D01*
X182454897Y-97694763D01*
X182625769Y-97694763D01*
X182636326Y-97705320D01*
X182644052Y-97697594D01*
X182692846Y-97697594D01*
X182710225Y-97705320D01*
X182721403Y-97703796D01*
X182724301Y-97691244D01*
X182721206Y-97688717D01*
X182696149Y-97691244D01*
X182694319Y-97694763D01*
X182692846Y-97697594D01*
X182644052Y-97697594D01*
X182646883Y-97694763D01*
X182636326Y-97684206D01*
X182625769Y-97694763D01*
X182454897Y-97694763D01*
X182459733Y-97687243D01*
X182493894Y-97631421D01*
X182667997Y-97631421D01*
X182678554Y-97641978D01*
X182689111Y-97631421D01*
X182678554Y-97620864D01*
X182667997Y-97631421D01*
X182493894Y-97631421D01*
X182510321Y-97604578D01*
X182888039Y-97604578D01*
X182891343Y-97631421D01*
X182894592Y-97657813D01*
X182895454Y-97663080D01*
X182903811Y-97691244D01*
X182908782Y-97707996D01*
X182925520Y-97726433D01*
X182933335Y-97723904D01*
X182936533Y-97700041D01*
X182934330Y-97682859D01*
X183316171Y-97682859D01*
X183319400Y-97706088D01*
X183358311Y-97731411D01*
X183360140Y-97732335D01*
X183399138Y-97760149D01*
X183408854Y-97779218D01*
X183412261Y-97785906D01*
X183411927Y-97795216D01*
X183417670Y-97800332D01*
X183429520Y-97810889D01*
X183440673Y-97802664D01*
X183439281Y-97779218D01*
X183470325Y-97779218D01*
X183480882Y-97789775D01*
X183491439Y-97779218D01*
X183480882Y-97768661D01*
X183470325Y-97779218D01*
X183439281Y-97779218D01*
X183438654Y-97768661D01*
X183435614Y-97757737D01*
X183438307Y-97731499D01*
X183467190Y-97731729D01*
X183525974Y-97757974D01*
X183527421Y-97758726D01*
X183574384Y-97779218D01*
X183583931Y-97783384D01*
X183615263Y-97788131D01*
X183616824Y-97774173D01*
X183584020Y-97742719D01*
X183558058Y-97722415D01*
X183504866Y-97677272D01*
X183477847Y-97645834D01*
X183470325Y-97620949D01*
X183479570Y-97608019D01*
X183517831Y-97610267D01*
X183520271Y-97610947D01*
X183547378Y-97615615D01*
X183545143Y-97613139D01*
X183748540Y-97613139D01*
X183765919Y-97620864D01*
X183777097Y-97619340D01*
X183779995Y-97606788D01*
X183776900Y-97604261D01*
X183751843Y-97606788D01*
X183748540Y-97613139D01*
X183545143Y-97613139D01*
X183536685Y-97603769D01*
X183522584Y-97586396D01*
X183521584Y-97541213D01*
X183526204Y-97530830D01*
X183558969Y-97509665D01*
X183606732Y-97516939D01*
X183657522Y-97551726D01*
X183677047Y-97566072D01*
X183710307Y-97572525D01*
X183718115Y-97567264D01*
X183731742Y-97534503D01*
X183732875Y-97516081D01*
X183772754Y-97516081D01*
X183785083Y-97546204D01*
X183815360Y-97550933D01*
X183833248Y-97549033D01*
X183875486Y-97560433D01*
X183881889Y-97563553D01*
X183915144Y-97570545D01*
X183923150Y-97555232D01*
X183907005Y-97526947D01*
X183882905Y-97507323D01*
X185180549Y-97507323D01*
X185190082Y-97517577D01*
X185212569Y-97506582D01*
X185231558Y-97480637D01*
X185234045Y-97473942D01*
X185235594Y-97457261D01*
X185212703Y-97472666D01*
X185194556Y-97489127D01*
X185180549Y-97507323D01*
X183882905Y-97507323D01*
X183867803Y-97495026D01*
X183824845Y-97471278D01*
X183797820Y-97466801D01*
X183781160Y-97484311D01*
X183772754Y-97516081D01*
X183732875Y-97516081D01*
X183734548Y-97488879D01*
X183726751Y-97448341D01*
X183708572Y-97430839D01*
X183698201Y-97429224D01*
X183681463Y-97409725D01*
X183687780Y-97399168D01*
X184040399Y-97399168D01*
X184050956Y-97409725D01*
X184061513Y-97399168D01*
X184050956Y-97388611D01*
X184040399Y-97399168D01*
X183687780Y-97399168D01*
X183688604Y-97397790D01*
X183721964Y-97388611D01*
X183759295Y-97385659D01*
X183810193Y-97366470D01*
X183829261Y-97333568D01*
X183831267Y-97321089D01*
X183850375Y-97304156D01*
X183856447Y-97305126D01*
X183871488Y-97327029D01*
X183873943Y-97335850D01*
X183897684Y-97341171D01*
X183900352Y-97340179D01*
X183916156Y-97323907D01*
X183917380Y-97314713D01*
X183955944Y-97314713D01*
X183966501Y-97325270D01*
X183977058Y-97314713D01*
X183966501Y-97304156D01*
X183955944Y-97314713D01*
X183917380Y-97314713D01*
X183920297Y-97292800D01*
X184032457Y-97292800D01*
X184043435Y-97313278D01*
X184047372Y-97314713D01*
X184068238Y-97322319D01*
X184089215Y-97293599D01*
X185307232Y-97293599D01*
X185317789Y-97304156D01*
X185328346Y-97293599D01*
X185317789Y-97283042D01*
X185307232Y-97293599D01*
X184089215Y-97293599D01*
X184091422Y-97290577D01*
X184097435Y-97269950D01*
X184089441Y-97243817D01*
X184052223Y-97247963D01*
X184037387Y-97258439D01*
X184032457Y-97292800D01*
X183920297Y-97292800D01*
X183921158Y-97286335D01*
X183917721Y-97230257D01*
X184124855Y-97230257D01*
X184135412Y-97240814D01*
X184145969Y-97230257D01*
X184136787Y-97221075D01*
X185227954Y-97221075D01*
X185230457Y-97230257D01*
X185233334Y-97240814D01*
X185237672Y-97247064D01*
X185256940Y-97261928D01*
X185259828Y-97260553D01*
X185254448Y-97240814D01*
X185250110Y-97234564D01*
X185244527Y-97230257D01*
X185307232Y-97230257D01*
X185317789Y-97240814D01*
X185328346Y-97230257D01*
X185317789Y-97219700D01*
X185307232Y-97230257D01*
X185244527Y-97230257D01*
X185230842Y-97219700D01*
X185227954Y-97221075D01*
X184136787Y-97221075D01*
X184135412Y-97219700D01*
X184124855Y-97230257D01*
X183917721Y-97230257D01*
X183916930Y-97217350D01*
X183910072Y-97204084D01*
X184282323Y-97204084D01*
X184290910Y-97219700D01*
X184319181Y-97207606D01*
X184335994Y-97173954D01*
X184328499Y-97157903D01*
X184306457Y-97161688D01*
X184286131Y-97188029D01*
X184282323Y-97204084D01*
X183910072Y-97204084D01*
X183905475Y-97195193D01*
X183864926Y-97192655D01*
X183820637Y-97189659D01*
X183785961Y-97168612D01*
X183780527Y-97157355D01*
X184727216Y-97157355D01*
X184729279Y-97159221D01*
X184761347Y-97168931D01*
X184792200Y-97173954D01*
X184822229Y-97178843D01*
X184900931Y-97187077D01*
X184907200Y-97187584D01*
X184997658Y-97195211D01*
X185080435Y-97202687D01*
X185138321Y-97208461D01*
X185152771Y-97209930D01*
X185182677Y-97211074D01*
X185177519Y-97206510D01*
X185157109Y-97191813D01*
X185136086Y-97152676D01*
X185128919Y-97109248D01*
X185141153Y-97080710D01*
X185156774Y-97068810D01*
X185158928Y-97052942D01*
X185129826Y-97048460D01*
X185076224Y-97057752D01*
X185055930Y-97063916D01*
X185015654Y-97083007D01*
X185005588Y-97100309D01*
X185008557Y-97108834D01*
X184991812Y-97104370D01*
X184989886Y-97103372D01*
X184955950Y-97099867D01*
X184901366Y-97104709D01*
X184838668Y-97115389D01*
X184780388Y-97129396D01*
X184739060Y-97144221D01*
X184727216Y-97157355D01*
X183780527Y-97157355D01*
X183771932Y-97139549D01*
X183788391Y-97112743D01*
X183805626Y-97104843D01*
X183844843Y-97103036D01*
X183855928Y-97104847D01*
X183865957Y-97089294D01*
X183871891Y-97076134D01*
X183909175Y-97052553D01*
X183971845Y-97027574D01*
X184000380Y-97019118D01*
X185307232Y-97019118D01*
X185317789Y-97029675D01*
X185328346Y-97019118D01*
X185317789Y-97008561D01*
X185307232Y-97019118D01*
X184000380Y-97019118D01*
X184050051Y-97004399D01*
X184079576Y-96998005D01*
X185265005Y-96998005D01*
X185275562Y-97008561D01*
X185286119Y-96998005D01*
X185275562Y-96987448D01*
X185265005Y-96998005D01*
X184079576Y-96998005D01*
X184133943Y-96986231D01*
X184213670Y-96976270D01*
X184263952Y-96971216D01*
X184335063Y-96958113D01*
X184382893Y-96941885D01*
X184384092Y-96941223D01*
X184414592Y-96922512D01*
X184410212Y-96912557D01*
X184367665Y-96902956D01*
X184322337Y-96900009D01*
X184287438Y-96917916D01*
X184286105Y-96919973D01*
X184255742Y-96942306D01*
X184223993Y-96940419D01*
X184209311Y-96915001D01*
X184207813Y-96906524D01*
X184183582Y-96890844D01*
X184124855Y-96888118D01*
X184119646Y-96888352D01*
X184060111Y-96898469D01*
X184040399Y-96920922D01*
X184034825Y-96938947D01*
X184010951Y-96925950D01*
X183998510Y-96917437D01*
X183949916Y-96908856D01*
X183909830Y-96933656D01*
X183906525Y-96936341D01*
X183879350Y-96929598D01*
X183839770Y-96898146D01*
X183828737Y-96887046D01*
X183800472Y-96853802D01*
X183800335Y-96851042D01*
X184619963Y-96851042D01*
X184621031Y-96857540D01*
X184632930Y-96856559D01*
X184677216Y-96850207D01*
X185476143Y-96850207D01*
X185486700Y-96860764D01*
X185497257Y-96850207D01*
X185486700Y-96839650D01*
X185476143Y-96850207D01*
X184677216Y-96850207D01*
X184684564Y-96849153D01*
X184763385Y-96836014D01*
X184859650Y-96818955D01*
X184963615Y-96799790D01*
X185065537Y-96780332D01*
X185155672Y-96762394D01*
X185224278Y-96747789D01*
X185261610Y-96738331D01*
X185281054Y-96731502D01*
X185295246Y-96723524D01*
X185328346Y-96723524D01*
X185338903Y-96734081D01*
X185349460Y-96723524D01*
X185338903Y-96712967D01*
X185330147Y-96721723D01*
X185328346Y-96723524D01*
X185295246Y-96723524D01*
X185298450Y-96721723D01*
X185282420Y-96713942D01*
X185228830Y-96703804D01*
X185207591Y-96700667D01*
X185149939Y-96697638D01*
X185114720Y-96703947D01*
X185101770Y-96709546D01*
X185105184Y-96694226D01*
X185110862Y-96687666D01*
X185148612Y-96662042D01*
X185204335Y-96635536D01*
X185226690Y-96626190D01*
X185267570Y-96606046D01*
X185280245Y-96594487D01*
X185270030Y-96596471D01*
X185227306Y-96610604D01*
X185158626Y-96635386D01*
X185071860Y-96667803D01*
X184974876Y-96704840D01*
X184875543Y-96743484D01*
X184781731Y-96780719D01*
X184701309Y-96813533D01*
X184642145Y-96838910D01*
X184619963Y-96851042D01*
X183800335Y-96851042D01*
X183799329Y-96830695D01*
X183822543Y-96802358D01*
X183825338Y-96799412D01*
X183851432Y-96768952D01*
X183862663Y-96752845D01*
X183994128Y-96752845D01*
X184024025Y-96741690D01*
X184087016Y-96705730D01*
X184149353Y-96660282D01*
X184204134Y-96606243D01*
X184225237Y-96575727D01*
X185307232Y-96575727D01*
X185317789Y-96586284D01*
X185328346Y-96575727D01*
X185317789Y-96565170D01*
X185307232Y-96575727D01*
X184225237Y-96575727D01*
X184239137Y-96555626D01*
X184241263Y-96544485D01*
X184652702Y-96544485D01*
X184653100Y-96549073D01*
X184668537Y-96564671D01*
X184672680Y-96564241D01*
X184711863Y-96554076D01*
X184775044Y-96533431D01*
X184834359Y-96512385D01*
X185476143Y-96512385D01*
X185486700Y-96522942D01*
X185497257Y-96512385D01*
X185486700Y-96501828D01*
X185476143Y-96512385D01*
X184834359Y-96512385D01*
X184851551Y-96506285D01*
X184930708Y-96476619D01*
X185001842Y-96448410D01*
X185054277Y-96425637D01*
X185077340Y-96412281D01*
X185081315Y-96407140D01*
X185104084Y-96396056D01*
X185131677Y-96394501D01*
X185180312Y-96385754D01*
X185242714Y-96372048D01*
X185191477Y-96320812D01*
X185187844Y-96317244D01*
X185171372Y-96304078D01*
X185395423Y-96304078D01*
X185412802Y-96311803D01*
X185423979Y-96310280D01*
X185426878Y-96297727D01*
X185423783Y-96295201D01*
X185398726Y-96297727D01*
X185395423Y-96304078D01*
X185171372Y-96304078D01*
X185145448Y-96283358D01*
X185138004Y-96280133D01*
X185497257Y-96280133D01*
X185507814Y-96290689D01*
X185518371Y-96280133D01*
X185507814Y-96269576D01*
X185497257Y-96280133D01*
X185138004Y-96280133D01*
X185112889Y-96269252D01*
X185099215Y-96265244D01*
X185117207Y-96248462D01*
X185129663Y-96237905D01*
X185581713Y-96237905D01*
X185592270Y-96248462D01*
X185602827Y-96237905D01*
X185592270Y-96227348D01*
X185581713Y-96237905D01*
X185129663Y-96237905D01*
X185131225Y-96236581D01*
X185125758Y-96227671D01*
X185097607Y-96239512D01*
X185066925Y-96267425D01*
X185046132Y-96297723D01*
X185047297Y-96316710D01*
X185052054Y-96320271D01*
X185036466Y-96318962D01*
X185021425Y-96320250D01*
X184976406Y-96338753D01*
X184920339Y-96372318D01*
X184898149Y-96387106D01*
X184872356Y-96402985D01*
X184818104Y-96436385D01*
X184742436Y-96478254D01*
X184713671Y-96493951D01*
X184678340Y-96517892D01*
X184669927Y-96523593D01*
X184652702Y-96544485D01*
X184241263Y-96544485D01*
X184246336Y-96517892D01*
X184245012Y-96515091D01*
X184227273Y-96517661D01*
X184198825Y-96551541D01*
X184179069Y-96577066D01*
X184126775Y-96630824D01*
X184065443Y-96683071D01*
X184037601Y-96704918D01*
X183998322Y-96740239D01*
X183994128Y-96752845D01*
X183862663Y-96752845D01*
X183878874Y-96729596D01*
X183913794Y-96671866D01*
X183962323Y-96586284D01*
X184003623Y-96512385D01*
X183948872Y-96575727D01*
X183938020Y-96588532D01*
X183906439Y-96629426D01*
X183893362Y-96652615D01*
X183879283Y-96665025D01*
X183839249Y-96679552D01*
X183809356Y-96690240D01*
X183747655Y-96719757D01*
X183679838Y-96758201D01*
X183631730Y-96786100D01*
X183585482Y-96808644D01*
X183563689Y-96813369D01*
X183562581Y-96791126D01*
X183574781Y-96747566D01*
X183577890Y-96738518D01*
X183580337Y-96712967D01*
X183648748Y-96712967D01*
X183662144Y-96704373D01*
X183688800Y-96673602D01*
X183716864Y-96633499D01*
X183736824Y-96597961D01*
X183739165Y-96580885D01*
X183735232Y-96572196D01*
X183745720Y-96536784D01*
X183773769Y-96485002D01*
X183802471Y-96435673D01*
X183813507Y-96402985D01*
X183797464Y-96402198D01*
X183754481Y-96433678D01*
X183738559Y-96448598D01*
X183725371Y-96468985D01*
X183683846Y-96533179D01*
X183654888Y-96644347D01*
X183654226Y-96649853D01*
X183650896Y-96681296D01*
X183649486Y-96694607D01*
X183648748Y-96712967D01*
X183580337Y-96712967D01*
X183581428Y-96701569D01*
X183568154Y-96689755D01*
X183545082Y-96711577D01*
X183542665Y-96714192D01*
X183510086Y-96722200D01*
X183457268Y-96719028D01*
X183395795Y-96716658D01*
X183362965Y-96736254D01*
X183347916Y-96763971D01*
X183351903Y-96788250D01*
X183387805Y-96814846D01*
X183401282Y-96822778D01*
X183433716Y-96829738D01*
X183462868Y-96804089D01*
X183478502Y-96785124D01*
X183485240Y-96781416D01*
X183470849Y-96813067D01*
X183467986Y-96819289D01*
X183459971Y-96866572D01*
X183476886Y-96913549D01*
X183480241Y-96922867D01*
X183503037Y-96978967D01*
X183512552Y-97026368D01*
X183517747Y-97050800D01*
X183519358Y-97052549D01*
X183544223Y-97079538D01*
X183558812Y-97088795D01*
X183575894Y-97124025D01*
X183575729Y-97124688D01*
X183572057Y-97139405D01*
X183544223Y-97156359D01*
X183529679Y-97158538D01*
X183512552Y-97175746D01*
X183511161Y-97188029D01*
X183511130Y-97188305D01*
X183499737Y-97228530D01*
X183499510Y-97230257D01*
X183497004Y-97249336D01*
X183520850Y-97261928D01*
X183542827Y-97272679D01*
X183552413Y-97297897D01*
X183556729Y-97309251D01*
X183555657Y-97357109D01*
X183540453Y-97400802D01*
X183511960Y-97424876D01*
X183485189Y-97438780D01*
X183480942Y-97473258D01*
X183484232Y-97490565D01*
X183481714Y-97504738D01*
X183474213Y-97546965D01*
X183473751Y-97549564D01*
X183440205Y-97603564D01*
X183424801Y-97613639D01*
X183393672Y-97633999D01*
X183360650Y-97646578D01*
X183322228Y-97674010D01*
X183316171Y-97682859D01*
X182934330Y-97682859D01*
X182934216Y-97681971D01*
X182944944Y-97638810D01*
X182951425Y-97613639D01*
X182928512Y-97590807D01*
X182915784Y-97586127D01*
X182893555Y-97583739D01*
X182888039Y-97604578D01*
X182510321Y-97604578D01*
X182545838Y-97546541D01*
X182693622Y-97546541D01*
X182696149Y-97571598D01*
X182702500Y-97574902D01*
X182710225Y-97557522D01*
X182708786Y-97546965D01*
X182858022Y-97546965D01*
X182868579Y-97557522D01*
X182879136Y-97546965D01*
X182868579Y-97536409D01*
X182858022Y-97546965D01*
X182708786Y-97546965D01*
X182708701Y-97546345D01*
X182696149Y-97543446D01*
X182693622Y-97546541D01*
X182545838Y-97546541D01*
X182552878Y-97535038D01*
X182570128Y-97504738D01*
X183216958Y-97504738D01*
X183227515Y-97515295D01*
X183238072Y-97504738D01*
X183227515Y-97494181D01*
X183216958Y-97504738D01*
X182570128Y-97504738D01*
X182629211Y-97400957D01*
X182683829Y-97295556D01*
X183165740Y-97295556D01*
X183176544Y-97316898D01*
X183192619Y-97335526D01*
X183210878Y-97343189D01*
X183233678Y-97319991D01*
X183236337Y-97316610D01*
X183238578Y-97297897D01*
X183203821Y-97290506D01*
X183188737Y-97289924D01*
X183165740Y-97295556D01*
X182683829Y-97295556D01*
X182693271Y-97277334D01*
X182717970Y-97230257D01*
X183132503Y-97230257D01*
X183143059Y-97240814D01*
X183153616Y-97230257D01*
X183143059Y-97219700D01*
X183132503Y-97230257D01*
X182717970Y-97230257D01*
X182724269Y-97218252D01*
X182742146Y-97188029D01*
X183280300Y-97188029D01*
X183290857Y-97198586D01*
X183301414Y-97188029D01*
X183290857Y-97177473D01*
X183280300Y-97188029D01*
X182742146Y-97188029D01*
X182773369Y-97135245D01*
X182974148Y-97135245D01*
X182975379Y-97148231D01*
X183004573Y-97156359D01*
X183030310Y-97152234D01*
X183048047Y-97135245D01*
X183044911Y-97125936D01*
X183042026Y-97124688D01*
X183280300Y-97124688D01*
X183290857Y-97135245D01*
X183301414Y-97124688D01*
X183290857Y-97114131D01*
X183280300Y-97124688D01*
X183042026Y-97124688D01*
X183017622Y-97114131D01*
X183004698Y-97115817D01*
X182974148Y-97135245D01*
X182773369Y-97135245D01*
X182778647Y-97126323D01*
X182792553Y-97105158D01*
X183327630Y-97105158D01*
X183338759Y-97108550D01*
X183356453Y-97089547D01*
X183364113Y-97052549D01*
X183363881Y-97045923D01*
X183358336Y-97033312D01*
X183351738Y-97042610D01*
X183341064Y-97057651D01*
X183329524Y-97082297D01*
X183327630Y-97105158D01*
X182792553Y-97105158D01*
X182828274Y-97050789D01*
X183259186Y-97050789D01*
X183259428Y-97055567D01*
X183268497Y-97071903D01*
X183271884Y-97070932D01*
X183290857Y-97050789D01*
X183294156Y-97042610D01*
X183281546Y-97029675D01*
X183275417Y-97030487D01*
X183259186Y-97050789D01*
X182828274Y-97050789D01*
X182838745Y-97034851D01*
X182899244Y-96951088D01*
X182954824Y-96882281D01*
X183000165Y-96835681D01*
X183029947Y-96818537D01*
X183033341Y-96822419D01*
X183030495Y-96853765D01*
X183015214Y-96906286D01*
X183006410Y-96932169D01*
X182993044Y-96982717D01*
X182996473Y-97001404D01*
X183017390Y-96987430D01*
X183056487Y-96939995D01*
X183075252Y-96913549D01*
X183280300Y-96913549D01*
X183290857Y-96924106D01*
X183301414Y-96913549D01*
X183290857Y-96902992D01*
X183280300Y-96913549D01*
X183075252Y-96913549D01*
X183114457Y-96858297D01*
X183191993Y-96741536D01*
X183230592Y-96681296D01*
X183449211Y-96681296D01*
X183459768Y-96691853D01*
X183470325Y-96681296D01*
X183459768Y-96670739D01*
X183449211Y-96681296D01*
X183230592Y-96681296D01*
X183262295Y-96631817D01*
X183428097Y-96631817D01*
X183428509Y-96637403D01*
X183441529Y-96647656D01*
X183476254Y-96632696D01*
X183537321Y-96590781D01*
X183557585Y-96574481D01*
X183601949Y-96527792D01*
X183623851Y-96487438D01*
X183625437Y-96468985D01*
X183615085Y-96464222D01*
X183585387Y-96482946D01*
X183530462Y-96527692D01*
X183482127Y-96570573D01*
X183443076Y-96609940D01*
X183428097Y-96631817D01*
X183262295Y-96631817D01*
X183289787Y-96588911D01*
X183379207Y-96443343D01*
X183407971Y-96392268D01*
X183523199Y-96392268D01*
X183543213Y-96374611D01*
X183584478Y-96324685D01*
X183599131Y-96305299D01*
X184468334Y-96305299D01*
X184491469Y-96297982D01*
X184544614Y-96272994D01*
X184631588Y-96229609D01*
X184731514Y-96179118D01*
X184740341Y-96174563D01*
X185286119Y-96174563D01*
X185296675Y-96185120D01*
X185307232Y-96174563D01*
X185296675Y-96164006D01*
X185286119Y-96174563D01*
X184740341Y-96174563D01*
X184778773Y-96154730D01*
X185247940Y-96154730D01*
X185252429Y-96161882D01*
X185286119Y-96142892D01*
X185300969Y-96130345D01*
X185292643Y-96122102D01*
X185285283Y-96122818D01*
X185254448Y-96142892D01*
X185247940Y-96154730D01*
X184778773Y-96154730D01*
X184853298Y-96116271D01*
X184939620Y-96069586D01*
X184992163Y-96038019D01*
X185012611Y-96020529D01*
X185002648Y-96016070D01*
X184963956Y-96023599D01*
X184929495Y-96026790D01*
X184884779Y-96015654D01*
X184868622Y-96002544D01*
X184879676Y-95995418D01*
X184889398Y-95993700D01*
X184906069Y-95972473D01*
X184912262Y-95953067D01*
X184918109Y-95945142D01*
X185142056Y-95945142D01*
X185159435Y-95952867D01*
X185170613Y-95951344D01*
X185173511Y-95938791D01*
X185170417Y-95936265D01*
X185145359Y-95938791D01*
X185142056Y-95945142D01*
X184918109Y-95945142D01*
X184938745Y-95917175D01*
X184955978Y-95894318D01*
X184958138Y-95871215D01*
X184956132Y-95870012D01*
X184933789Y-95881097D01*
X184902043Y-95916704D01*
X184891794Y-95929296D01*
X184838031Y-95977813D01*
X184774059Y-96018926D01*
X184758342Y-96027512D01*
X184689814Y-96074988D01*
X184634553Y-96126951D01*
X184629976Y-96132339D01*
X184574192Y-96193525D01*
X184516169Y-96251566D01*
X184496812Y-96269827D01*
X184471388Y-96295672D01*
X184468334Y-96305299D01*
X183599131Y-96305299D01*
X183646082Y-96243183D01*
X183659299Y-96225142D01*
X183665353Y-96216573D01*
X184170384Y-96216573D01*
X184171725Y-96217388D01*
X184194221Y-96207397D01*
X184229639Y-96175400D01*
X184245279Y-96159929D01*
X184301749Y-96111898D01*
X184365203Y-96065278D01*
X184428961Y-96020096D01*
X184497482Y-95966173D01*
X184552670Y-95917186D01*
X184587408Y-95879519D01*
X184594578Y-95859554D01*
X184592104Y-95857243D01*
X184570593Y-95848889D01*
X184540023Y-95858365D01*
X184495484Y-95888957D01*
X184432063Y-95943951D01*
X184344851Y-96026631D01*
X184340365Y-96030984D01*
X184270978Y-96100004D01*
X184215868Y-96157917D01*
X184180512Y-96198760D01*
X184170384Y-96216573D01*
X183665353Y-96216573D01*
X183687574Y-96185120D01*
X183899966Y-96185120D01*
X183909036Y-96179994D01*
X183943211Y-96150637D01*
X183995076Y-96101353D01*
X184057773Y-96039177D01*
X184124446Y-95971142D01*
X184188239Y-95904284D01*
X184242294Y-95845637D01*
X184249691Y-95837067D01*
X184589360Y-95837067D01*
X184593295Y-95841326D01*
X184621031Y-95854933D01*
X184643305Y-95855087D01*
X184648667Y-95836741D01*
X184969410Y-95836741D01*
X184979967Y-95847298D01*
X184990524Y-95836741D01*
X184979967Y-95826184D01*
X184969410Y-95836741D01*
X184648667Y-95836741D01*
X184652702Y-95822936D01*
X184652550Y-95813432D01*
X184649830Y-95805070D01*
X184673816Y-95805070D01*
X184674058Y-95809848D01*
X184681324Y-95822936D01*
X184683127Y-95826184D01*
X184686514Y-95825212D01*
X184705487Y-95805070D01*
X184708786Y-95796891D01*
X184696176Y-95783956D01*
X184690047Y-95784768D01*
X184673816Y-95805070D01*
X184649830Y-95805070D01*
X184645389Y-95791417D01*
X184621031Y-95805070D01*
X184603255Y-95820814D01*
X184589360Y-95837067D01*
X184249691Y-95837067D01*
X184265965Y-95818212D01*
X184547133Y-95818212D01*
X184547479Y-95821917D01*
X184561236Y-95822060D01*
X184592054Y-95789235D01*
X184603848Y-95773937D01*
X184604106Y-95773399D01*
X184737158Y-95773399D01*
X184747715Y-95783956D01*
X184758271Y-95773399D01*
X185032752Y-95773399D01*
X185043309Y-95783956D01*
X185053866Y-95773399D01*
X185043309Y-95762842D01*
X185032752Y-95773399D01*
X184758271Y-95773399D01*
X184747715Y-95762842D01*
X184747554Y-95763003D01*
X184737158Y-95773399D01*
X184604106Y-95773399D01*
X184609091Y-95763003D01*
X184584082Y-95781263D01*
X184561561Y-95800588D01*
X184547133Y-95818212D01*
X184265965Y-95818212D01*
X184279755Y-95802235D01*
X184293766Y-95781113D01*
X184292148Y-95774163D01*
X184272652Y-95773399D01*
X184264340Y-95776537D01*
X184251538Y-95761830D01*
X184256728Y-95750469D01*
X184285163Y-95750114D01*
X184308629Y-95751556D01*
X184322718Y-95731172D01*
X184610474Y-95731172D01*
X184621031Y-95741729D01*
X184631588Y-95731172D01*
X184621031Y-95720615D01*
X184610474Y-95731172D01*
X184322718Y-95731172D01*
X184329791Y-95720939D01*
X184340021Y-95697788D01*
X184358449Y-95689773D01*
X184367774Y-95689860D01*
X184368784Y-95688944D01*
X184631588Y-95688944D01*
X184642145Y-95699501D01*
X184652702Y-95688944D01*
X184642145Y-95678387D01*
X184631588Y-95688944D01*
X184368784Y-95688944D01*
X184391189Y-95668618D01*
X184411767Y-95633047D01*
X184413117Y-95626161D01*
X184699008Y-95626161D01*
X184708517Y-95625975D01*
X184725243Y-95600120D01*
X184726746Y-95596115D01*
X184731176Y-95574958D01*
X184713424Y-95588301D01*
X184701376Y-95603825D01*
X184699008Y-95626161D01*
X184413117Y-95626161D01*
X184418234Y-95600065D01*
X184417395Y-95594423D01*
X184421123Y-95548429D01*
X184444149Y-95530590D01*
X184454859Y-95537284D01*
X184439509Y-95567539D01*
X184434341Y-95574992D01*
X184439183Y-95576996D01*
X184468595Y-95553302D01*
X184486072Y-95537363D01*
X184518646Y-95503858D01*
X184523911Y-95490910D01*
X184506650Y-95498919D01*
X184499652Y-95502166D01*
X184488076Y-95508053D01*
X184441260Y-95519247D01*
X184421502Y-95523617D01*
X184370428Y-95552003D01*
X184316765Y-95596906D01*
X184275600Y-95646716D01*
X184262086Y-95668144D01*
X184254558Y-95674153D01*
X184262510Y-95641438D01*
X184264652Y-95633319D01*
X184269866Y-95598702D01*
X184260477Y-95599148D01*
X184245080Y-95622954D01*
X184239322Y-95631857D01*
X184209236Y-95694029D01*
X184199345Y-95715391D01*
X184164623Y-95782947D01*
X184122546Y-95858091D01*
X184079781Y-95929540D01*
X184042997Y-95986007D01*
X184018862Y-96016209D01*
X184012367Y-96023079D01*
X183984891Y-96056710D01*
X183947043Y-96105943D01*
X183927975Y-96132280D01*
X183903953Y-96170214D01*
X183899966Y-96185120D01*
X183687574Y-96185120D01*
X183731954Y-96122301D01*
X183791534Y-96031748D01*
X183835615Y-95957805D01*
X183861772Y-95904789D01*
X183867581Y-95877021D01*
X183850616Y-95878819D01*
X183840595Y-95880431D01*
X183842998Y-95857181D01*
X183855660Y-95836517D01*
X183872412Y-95848792D01*
X183880673Y-95853717D01*
X183903520Y-95831987D01*
X183935336Y-95771385D01*
X183953240Y-95732084D01*
X183981137Y-95672198D01*
X183999552Y-95634400D01*
X184003971Y-95622954D01*
X183993690Y-95602011D01*
X183952465Y-95600862D01*
X183885374Y-95620140D01*
X183870400Y-95625490D01*
X183829544Y-95631570D01*
X183805254Y-95613136D01*
X183801376Y-95607700D01*
X183790257Y-95602857D01*
X183790572Y-95625602D01*
X183790718Y-95636159D01*
X183790927Y-95674565D01*
X183787381Y-95688944D01*
X183781547Y-95712602D01*
X183774802Y-95727653D01*
X183773332Y-95730932D01*
X183758844Y-95773399D01*
X183755725Y-95782542D01*
X183736856Y-95847298D01*
X183736115Y-95849842D01*
X183716626Y-95918467D01*
X183667175Y-96069211D01*
X183614364Y-96202647D01*
X183562841Y-96306525D01*
X183550571Y-96327996D01*
X183525347Y-96376961D01*
X183523199Y-96392268D01*
X183407971Y-96392268D01*
X183473424Y-96276048D01*
X183541606Y-96135695D01*
X183583039Y-96023787D01*
X183597008Y-95941828D01*
X183602197Y-95907580D01*
X183618122Y-95889526D01*
X183630394Y-95881607D01*
X183639236Y-95847298D01*
X183633362Y-95822642D01*
X183608228Y-95805070D01*
X183594474Y-95808616D01*
X183587876Y-95832841D01*
X183589669Y-95863025D01*
X183577156Y-95912018D01*
X183562887Y-95944272D01*
X183558196Y-95941948D01*
X183560559Y-95900083D01*
X183561302Y-95887056D01*
X183555944Y-95850093D01*
X183533666Y-95844705D01*
X183520008Y-95847722D01*
X183475603Y-95853502D01*
X183466011Y-95855015D01*
X183449211Y-95871931D01*
X183446162Y-95879607D01*
X183418963Y-95889526D01*
X183398775Y-95897516D01*
X183375312Y-95931753D01*
X183360166Y-95956306D01*
X183315209Y-95973981D01*
X183279932Y-95983007D01*
X183238072Y-96016209D01*
X183207432Y-96042887D01*
X183139821Y-96058437D01*
X183136631Y-96058453D01*
X183083547Y-96068491D01*
X183058604Y-96100665D01*
X183056957Y-96105368D01*
X183030408Y-96134429D01*
X182975287Y-96142892D01*
X182946962Y-96144235D01*
X182906221Y-96160837D01*
X182879136Y-96206234D01*
X182876159Y-96213341D01*
X182859313Y-96244915D01*
X182835392Y-96261713D01*
X182792681Y-96268385D01*
X182719466Y-96269576D01*
X182655293Y-96272063D01*
X182599411Y-96279699D01*
X182572985Y-96290689D01*
X182565914Y-96296418D01*
X182525842Y-96307430D01*
X182466169Y-96311803D01*
X182438911Y-96312653D01*
X182391262Y-96319651D01*
X182372403Y-96331409D01*
X182368677Y-96345440D01*
X182346010Y-96379485D01*
X182263637Y-96492041D01*
X182202516Y-96633790D01*
X182192332Y-96664385D01*
X182167208Y-96714967D01*
X182143296Y-96734081D01*
X182117676Y-96742071D01*
X182079285Y-96771653D01*
X182046302Y-96800500D01*
X181992353Y-96833566D01*
X181991676Y-96833879D01*
X181962961Y-96851285D01*
X181966783Y-96859335D01*
X181976178Y-96872055D01*
X181950948Y-96906973D01*
X181921915Y-96950529D01*
X181907897Y-97000259D01*
X181905725Y-97032060D01*
X181895082Y-97080733D01*
X181891812Y-97087529D01*
X181866084Y-97109713D01*
X181837166Y-97112593D01*
X181823442Y-97093017D01*
X181815523Y-97080745D01*
X181781214Y-97071903D01*
X181756670Y-97067944D01*
X181738986Y-97050789D01*
X181737081Y-97046295D01*
X181708312Y-97034433D01*
X181655954Y-97029675D01*
X181612376Y-97031794D01*
X181576590Y-97045325D01*
X181559526Y-97077182D01*
X181555018Y-97092991D01*
X181529918Y-97169858D01*
X181505670Y-97214698D01*
X181476086Y-97235640D01*
X181434979Y-97240814D01*
X181408612Y-97236892D01*
X181351224Y-97212654D01*
X181293915Y-97174440D01*
X181249865Y-97131781D01*
X181232253Y-97094207D01*
X181224327Y-97081238D01*
X181190025Y-97071903D01*
X181162727Y-97064963D01*
X181147798Y-97029675D01*
X181140858Y-97002377D01*
X181105570Y-96987448D01*
X181079112Y-96980998D01*
X181063342Y-96946979D01*
X181059013Y-96923398D01*
X181036950Y-96897714D01*
X181031756Y-96894467D01*
X181014589Y-96861039D01*
X181004802Y-96806220D01*
X180995261Y-96694792D01*
X180983030Y-96602012D01*
X180969592Y-96543383D01*
X180955647Y-96522942D01*
X180944619Y-96515037D01*
X180936659Y-96480714D01*
X180932700Y-96456171D01*
X180915545Y-96438487D01*
X180905378Y-96434360D01*
X180894431Y-96405308D01*
X180885072Y-96371264D01*
X180848644Y-96329654D01*
X180801168Y-96311803D01*
X180769790Y-96320483D01*
X180725503Y-96348388D01*
X180719621Y-96353166D01*
X180667889Y-96380184D01*
X180614772Y-96389086D01*
X180573326Y-96379626D01*
X180556609Y-96351560D01*
X180549936Y-96326946D01*
X180514381Y-96311803D01*
X180487083Y-96304863D01*
X180472153Y-96269576D01*
X180465213Y-96242278D01*
X180429926Y-96227348D01*
X180402628Y-96220408D01*
X180387698Y-96185120D01*
X180383739Y-96160576D01*
X180366584Y-96142892D01*
X180366564Y-96142892D01*
X180355737Y-96123300D01*
X180348260Y-96070912D01*
X180345470Y-95995095D01*
X180345470Y-95994952D01*
X180348269Y-95919167D01*
X180355753Y-95866827D01*
X180366584Y-95847298D01*
X180371631Y-95846684D01*
X180387698Y-95826184D01*
X180387135Y-95824295D01*
X180361218Y-95814281D01*
X180302436Y-95807540D01*
X180218787Y-95805070D01*
X180194360Y-95805019D01*
X180118716Y-95803266D01*
X180074946Y-95797658D01*
X180054762Y-95786352D01*
X180051404Y-95773399D01*
X183639236Y-95773399D01*
X183649793Y-95783956D01*
X183660350Y-95773399D01*
X183649793Y-95762842D01*
X183639236Y-95773399D01*
X180051404Y-95773399D01*
X180049876Y-95767504D01*
X180040627Y-95737443D01*
X180037637Y-95734003D01*
X183642970Y-95734003D01*
X183660350Y-95741729D01*
X183671527Y-95740205D01*
X183674426Y-95727653D01*
X183671331Y-95725126D01*
X183646274Y-95727653D01*
X183642970Y-95734003D01*
X180037637Y-95734003D01*
X180007648Y-95699501D01*
X179998494Y-95688944D01*
X183660350Y-95688944D01*
X183670907Y-95699501D01*
X183681463Y-95688944D01*
X183670907Y-95678387D01*
X183660350Y-95688944D01*
X179998494Y-95688944D01*
X179981498Y-95669343D01*
X179968941Y-95623296D01*
X183642553Y-95623296D01*
X183647593Y-95651555D01*
X183654801Y-95651228D01*
X183658434Y-95625602D01*
X183681463Y-95625602D01*
X183692020Y-95636159D01*
X183702577Y-95625602D01*
X183692020Y-95615045D01*
X183683222Y-95623843D01*
X183681463Y-95625602D01*
X183658434Y-95625602D01*
X183658683Y-95623843D01*
X183655302Y-95603089D01*
X183645926Y-95611086D01*
X183642553Y-95623296D01*
X179968941Y-95623296D01*
X179965420Y-95610384D01*
X179956888Y-95565424D01*
X179927854Y-95551704D01*
X179897793Y-95542455D01*
X179859851Y-95509476D01*
X179848507Y-95498919D01*
X184061513Y-95498919D01*
X184072070Y-95509476D01*
X184082627Y-95498919D01*
X184072070Y-95488362D01*
X184061513Y-95498919D01*
X179848507Y-95498919D01*
X179825818Y-95477805D01*
X183723691Y-95477805D01*
X183734248Y-95488362D01*
X183744805Y-95477805D01*
X183734248Y-95467248D01*
X183723691Y-95477805D01*
X179825818Y-95477805D01*
X179820504Y-95472860D01*
X179786624Y-95474689D01*
X179763095Y-95512622D01*
X179755298Y-95575403D01*
X179754281Y-95583593D01*
X179747950Y-95618848D01*
X179720835Y-95666590D01*
X179718776Y-95668745D01*
X179690166Y-95713999D01*
X179667058Y-95773667D01*
X179664215Y-95783084D01*
X179641550Y-95828863D01*
X179616049Y-95847298D01*
X179602400Y-95849517D01*
X179585370Y-95868412D01*
X179577452Y-95880684D01*
X179543143Y-95889526D01*
X179518599Y-95893485D01*
X179500915Y-95910640D01*
X179487459Y-95920175D01*
X179441710Y-95928548D01*
X179374232Y-95931753D01*
X179323077Y-95930241D01*
X179267482Y-95922288D01*
X179247548Y-95908539D01*
X179247265Y-95906746D01*
X179223274Y-95895681D01*
X179159843Y-95891032D01*
X179055809Y-95892703D01*
X178965468Y-95897560D01*
X178899470Y-95905614D01*
X178859487Y-95918200D01*
X178837064Y-95937032D01*
X178814809Y-95955635D01*
X178762159Y-95972457D01*
X178698495Y-95976121D01*
X178636866Y-95967581D01*
X178590319Y-95947787D01*
X178571904Y-95917692D01*
X178569439Y-95904396D01*
X178552249Y-95899181D01*
X178544408Y-95902063D01*
X178519119Y-95889526D01*
X178513050Y-95882597D01*
X178485828Y-95879971D01*
X178478564Y-95882200D01*
X178447366Y-95870312D01*
X178416783Y-95840326D01*
X178402993Y-95806578D01*
X178403741Y-95800279D01*
X178421848Y-95783956D01*
X178442888Y-95772309D01*
X178453663Y-95737140D01*
X178443267Y-95697586D01*
X178442821Y-95696895D01*
X178423816Y-95678732D01*
X178404182Y-95698824D01*
X178393522Y-95711830D01*
X178373270Y-95711599D01*
X178340840Y-95679757D01*
X178340412Y-95679263D01*
X178310036Y-95638929D01*
X178297424Y-95611815D01*
X178297047Y-95608914D01*
X178276109Y-95596039D01*
X178236244Y-95597142D01*
X178195797Y-95612162D01*
X178185188Y-95623495D01*
X177880425Y-95623495D01*
X177835917Y-95571660D01*
X177801653Y-95526445D01*
X177796017Y-95514339D01*
X178089202Y-95514339D01*
X178104685Y-95546425D01*
X178121791Y-95574869D01*
X178142034Y-95593355D01*
X178149626Y-95575403D01*
X178142917Y-95559009D01*
X178114499Y-95527897D01*
X178097230Y-95514292D01*
X178089202Y-95514339D01*
X177796017Y-95514339D01*
X177790716Y-95502951D01*
X177788186Y-95496968D01*
X177766314Y-95500935D01*
X177755615Y-95505824D01*
X177755302Y-95494378D01*
X177756701Y-95490677D01*
X177748170Y-95458097D01*
X177747217Y-95456691D01*
X184526019Y-95456691D01*
X184536576Y-95467248D01*
X184547133Y-95456691D01*
X184536576Y-95446134D01*
X184526019Y-95456691D01*
X177747217Y-95456691D01*
X177718610Y-95414503D01*
X177668555Y-95356250D01*
X177653429Y-95425117D01*
X177651333Y-95433969D01*
X177637515Y-95470360D01*
X177624763Y-95475338D01*
X177612629Y-95460707D01*
X177579770Y-95431840D01*
X177550180Y-95415492D01*
X177537324Y-95420161D01*
X175996010Y-95420161D01*
X175996010Y-95351122D01*
X177537324Y-95351122D01*
X177547881Y-95361679D01*
X177558438Y-95351122D01*
X177547881Y-95340565D01*
X177537324Y-95351122D01*
X175996010Y-95351122D01*
X175996010Y-95308894D01*
X177600665Y-95308894D01*
X177611222Y-95319451D01*
X177621779Y-95308894D01*
X177611222Y-95298337D01*
X177600665Y-95308894D01*
X175996010Y-95308894D01*
X175996010Y-95266666D01*
X177875146Y-95266666D01*
X177885703Y-95277223D01*
X177896260Y-95266666D01*
X177885703Y-95256109D01*
X177875146Y-95266666D01*
X175996010Y-95266666D01*
X175996010Y-94496010D01*
X181000000Y-94496010D01*
X186003990Y-94496010D01*
X186003990Y-95266666D01*
X186003990Y-95308894D01*
G37*
%TD.AperFunction*%
%TA.AperFunction,EtchedComponent*%
G36*
X179332004Y-101946571D02*
G01*
X179335457Y-101957388D01*
X179363272Y-101970324D01*
X179388469Y-101986298D01*
X179408033Y-102028387D01*
X179425031Y-102072915D01*
X179454698Y-102112842D01*
X179470022Y-102128791D01*
X179458078Y-102137207D01*
X179409938Y-102139235D01*
X179396742Y-102139540D01*
X179350634Y-102146688D01*
X179332004Y-102160349D01*
X179331390Y-102165395D01*
X179310890Y-102181463D01*
X179305843Y-102180849D01*
X179289776Y-102160349D01*
X179286289Y-102150712D01*
X179258347Y-102139235D01*
X179246221Y-102137809D01*
X179199452Y-102114284D01*
X179159133Y-102073712D01*
X179141979Y-102031558D01*
X179147246Y-102004797D01*
X179187221Y-101963153D01*
X179265396Y-101936139D01*
X179313637Y-101932167D01*
X179332004Y-101946571D01*
G37*
%TD.AperFunction*%
%TA.AperFunction,EtchedComponent*%
G36*
X184569183Y-100736290D02*
G01*
X184586486Y-100751855D01*
X184625728Y-100766832D01*
X184649282Y-100772622D01*
X184698345Y-100807107D01*
X184748082Y-100862604D01*
X184788826Y-100927462D01*
X184810910Y-100990030D01*
X184812780Y-101000638D01*
X184828664Y-101067376D01*
X184846944Y-101118863D01*
X184857839Y-101158903D01*
X184855766Y-101218409D01*
X184845694Y-101245088D01*
X184820433Y-101261113D01*
X184788096Y-101238255D01*
X184751524Y-101177625D01*
X184745053Y-101164802D01*
X184716857Y-101121950D01*
X184693883Y-101104655D01*
X184649192Y-101117393D01*
X184596107Y-101147907D01*
X184556758Y-101183664D01*
X184524772Y-101202776D01*
X184461745Y-101206607D01*
X184420710Y-101200123D01*
X184392416Y-101180289D01*
X184381551Y-101136325D01*
X184379819Y-101085853D01*
X184382203Y-101008503D01*
X184388332Y-100923102D01*
X184391906Y-100886136D01*
X184400601Y-100821549D01*
X184413553Y-100783110D01*
X184435977Y-100759521D01*
X184473087Y-100739484D01*
X184516468Y-100720943D01*
X184546922Y-100718357D01*
X184569183Y-100736290D01*
G37*
%TD.AperFunction*%
%TA.AperFunction,EtchedComponent*%
G36*
X183378831Y-101111693D02*
G01*
X183382134Y-101118043D01*
X183364755Y-101125768D01*
X183353578Y-101124245D01*
X183350679Y-101111693D01*
X183353774Y-101109166D01*
X183378831Y-101111693D01*
G37*
%TD.AperFunction*%
%TA.AperFunction,EtchedComponent*%
G36*
X183322527Y-101094098D02*
G01*
X183311971Y-101104655D01*
X183301414Y-101094098D01*
X183311971Y-101083541D01*
X183322527Y-101094098D01*
G37*
%TD.AperFunction*%
%TA.AperFunction,EtchedComponent*%
G36*
X176143681Y-98313156D02*
G01*
X176191314Y-98314812D01*
X176210741Y-98319750D01*
X176228263Y-98340630D01*
X176236673Y-98361436D01*
X176270000Y-98397662D01*
X176313886Y-98429518D01*
X176352201Y-98443603D01*
X176372147Y-98451940D01*
X176414869Y-98485003D01*
X176465784Y-98533473D01*
X176514733Y-98586796D01*
X176551554Y-98634418D01*
X176566085Y-98665782D01*
X176562726Y-98697373D01*
X176543912Y-98742506D01*
X176515703Y-98761014D01*
X176492463Y-98771322D01*
X176459898Y-98804736D01*
X176439337Y-98827552D01*
X176403764Y-98840208D01*
X176344390Y-98835735D01*
X176334946Y-98834321D01*
X176252226Y-98822349D01*
X176170200Y-98811001D01*
X176146425Y-98807138D01*
X176099228Y-98794098D01*
X176080466Y-98780002D01*
X176072561Y-98768974D01*
X176038238Y-98761014D01*
X176032948Y-98760904D01*
X176015858Y-98756239D01*
X176005042Y-98739214D01*
X175999076Y-98702363D01*
X175996540Y-98638219D01*
X175996010Y-98539318D01*
X175996841Y-98468522D01*
X176000130Y-98390080D01*
X176005340Y-98336222D01*
X176011846Y-98315766D01*
X176028115Y-98314556D01*
X176081706Y-98313111D01*
X176143681Y-98313156D01*
G37*
%TD.AperFunction*%
%TA.AperFunction,EtchedComponent*%
G36*
X184808573Y-98491017D02*
G01*
X184808135Y-98518204D01*
X184801298Y-98533365D01*
X184787683Y-98549875D01*
X184783903Y-98546374D01*
X184779385Y-98518204D01*
X184781689Y-98503645D01*
X184799837Y-98486533D01*
X184808573Y-98491017D01*
G37*
%TD.AperFunction*%
%TA.AperFunction,EtchedComponent*%
G36*
X184737158Y-98412635D02*
G01*
X184726601Y-98423192D01*
X184716044Y-98412635D01*
X184726601Y-98402078D01*
X184737158Y-98412635D01*
G37*
%TD.AperFunction*%
%TA.AperFunction,EtchedComponent*%
G36*
X184990524Y-97726433D02*
G01*
X184989000Y-97737611D01*
X184976448Y-97740509D01*
X184973921Y-97737415D01*
X184976448Y-97712358D01*
X184982799Y-97709054D01*
X184990524Y-97726433D01*
G37*
%TD.AperFunction*%
%TA.AperFunction,EtchedComponent*%
G36*
X184990524Y-97589193D02*
G01*
X184979967Y-97599750D01*
X184969410Y-97589193D01*
X184979967Y-97578636D01*
X184990524Y-97589193D01*
G37*
%TD.AperFunction*%
%TA.AperFunction,EtchedComponent*%
G36*
X181075493Y-101449482D02*
G01*
X181069442Y-101472040D01*
X181060893Y-101523381D01*
X181060365Y-101530552D01*
X181056874Y-101546808D01*
X181048916Y-101522317D01*
X181047698Y-101495940D01*
X181063516Y-101448419D01*
X181073851Y-101432510D01*
X181082840Y-101422809D01*
X181075493Y-101449482D01*
G37*
%TD.AperFunction*%
%TA.AperFunction,EtchedComponent*%
G36*
X180520087Y-99768238D02*
G01*
X180535495Y-99798086D01*
X180533868Y-99805186D01*
X180514381Y-99806151D01*
X180508675Y-99801836D01*
X180493267Y-99771988D01*
X180494894Y-99764888D01*
X180514381Y-99763923D01*
X180520087Y-99768238D01*
G37*
%TD.AperFunction*%
%TA.AperFunction,EtchedComponent*%
G36*
X180871932Y-99500376D02*
G01*
X180878437Y-99515425D01*
X180850737Y-99542615D01*
X180813166Y-99578604D01*
X180775977Y-99631961D01*
X180748881Y-99673572D01*
X180715425Y-99688079D01*
X180667170Y-99670452D01*
X180644558Y-99659471D01*
X180590028Y-99638089D01*
X180565470Y-99622761D01*
X180575420Y-99600861D01*
X180622980Y-99571389D01*
X180709798Y-99532896D01*
X180710860Y-99532465D01*
X180781775Y-99508457D01*
X180837588Y-99497907D01*
X180871932Y-99500376D01*
G37*
%TD.AperFunction*%
%TA.AperFunction,EtchedComponent*%
G36*
X181929011Y-99067165D02*
G01*
X181918454Y-99077722D01*
X181907897Y-99067165D01*
X181918454Y-99056608D01*
X181929011Y-99067165D01*
G37*
%TD.AperFunction*%
%TA.AperFunction,EtchedComponent*%
G36*
X180387698Y-98433748D02*
G01*
X180377141Y-98444305D01*
X180366584Y-98433748D01*
X180377141Y-98423192D01*
X180387698Y-98433748D01*
G37*
%TD.AperFunction*%
%TA.AperFunction,EtchedComponent*%
G36*
X180366584Y-98391521D02*
G01*
X180356027Y-98402078D01*
X180345470Y-98391521D01*
X180356027Y-98380964D01*
X180366584Y-98391521D01*
G37*
%TD.AperFunction*%
%TA.AperFunction,EtchedComponent*%
G36*
X180113217Y-98095926D02*
G01*
X180102660Y-98106483D01*
X180092104Y-98095926D01*
X180102660Y-98085369D01*
X180113217Y-98095926D01*
G37*
%TD.AperFunction*%
%TA.AperFunction,EtchedComponent*%
G36*
X179879408Y-96005158D02*
G01*
X179883202Y-96006429D01*
X179916456Y-96027311D01*
X179920140Y-96048652D01*
X179891522Y-96058437D01*
X179876952Y-96060819D01*
X179859851Y-96079551D01*
X179859717Y-96082024D01*
X179842848Y-96099043D01*
X179812022Y-96095959D01*
X179787712Y-96074272D01*
X179776945Y-96058745D01*
X179763079Y-96074272D01*
X179748775Y-96093406D01*
X179724107Y-96097872D01*
X179712054Y-96071555D01*
X179712054Y-96071452D01*
X179730603Y-96042188D01*
X179775315Y-96017165D01*
X179830235Y-96002711D01*
X179879408Y-96005158D01*
G37*
%TD.AperFunction*%
%TA.AperFunction,EtchedComponent*%
G36*
X178485782Y-95940551D02*
G01*
X178484289Y-95961966D01*
X178474692Y-95968263D01*
X178470508Y-95960793D01*
X178473025Y-95927795D01*
X178480625Y-95918022D01*
X178485782Y-95940551D01*
G37*
%TD.AperFunction*%
%TA.AperFunction,EtchedComponent*%
G36*
X178239757Y-95655581D02*
G01*
X178240334Y-95657814D01*
X178244360Y-95688755D01*
X178230525Y-95683276D01*
X178222112Y-95671519D01*
X178217449Y-95633273D01*
X178227236Y-95627279D01*
X178239757Y-95655581D01*
G37*
%TD.AperFunction*%
%TA.AperFunction,EtchedComponent*%
G36*
X183723691Y-97546965D02*
G01*
X183713134Y-97557522D01*
X183702577Y-97546965D01*
X183713134Y-97536409D01*
X183723691Y-97546965D01*
G37*
%TD.AperFunction*%
%TA.AperFunction,EtchedComponent*%
G36*
X183744805Y-97335827D02*
G01*
X183734248Y-97346384D01*
X183723691Y-97335827D01*
X183734248Y-97325270D01*
X183744805Y-97335827D01*
G37*
%TD.AperFunction*%
%TA.AperFunction,EtchedComponent*%
G36*
X183618122Y-97050789D02*
G01*
X183628076Y-97068876D01*
X183638589Y-97103574D01*
X183634852Y-97109917D01*
X183618122Y-97093017D01*
X183608167Y-97074930D01*
X183597655Y-97040232D01*
X183601392Y-97033889D01*
X183618122Y-97050789D01*
G37*
%TD.AperFunction*%
%TA.AperFunction,EtchedComponent*%
G36*
X183758633Y-96934584D02*
G01*
X183793139Y-96967771D01*
X183808147Y-97001787D01*
X183807860Y-97011199D01*
X183799434Y-97023747D01*
X183771280Y-97005868D01*
X183717264Y-96960368D01*
X183694033Y-96931611D01*
X183698975Y-96915776D01*
X183720410Y-96914656D01*
X183758633Y-96934584D01*
G37*
%TD.AperFunction*%
%TA.AperFunction,EtchedComponent*%
G36*
X178079247Y-97121169D02*
G01*
X178082550Y-97127520D01*
X178065171Y-97135245D01*
X178053993Y-97133721D01*
X178051095Y-97121169D01*
X178054190Y-97118642D01*
X178079247Y-97121169D01*
G37*
%TD.AperFunction*%
%TA.AperFunction,EtchedComponent*%
G36*
X185205622Y-96719658D02*
G01*
X185215395Y-96727258D01*
X185192866Y-96732414D01*
X185171451Y-96730921D01*
X185165154Y-96721325D01*
X185172623Y-96717141D01*
X185205622Y-96719658D01*
G37*
%TD.AperFunction*%
%TA.AperFunction,EtchedComponent*%
G36*
X185110169Y-96361069D02*
G01*
X185113473Y-96367420D01*
X185096094Y-96375145D01*
X185084916Y-96373621D01*
X185082018Y-96361069D01*
X185085112Y-96358542D01*
X185110169Y-96361069D01*
G37*
%TD.AperFunction*%
%TA.AperFunction,EtchedComponent*%
G36*
X183850375Y-95773399D02*
G01*
X183839818Y-95783956D01*
X183829261Y-95773399D01*
X183839818Y-95762842D01*
X183850375Y-95773399D01*
G37*
%TD.AperFunction*%
%TA.AperFunction,EtchedComponent*%
G36*
X176903907Y-96068994D02*
G01*
X176893350Y-96079551D01*
X176882793Y-96068994D01*
X176893350Y-96058437D01*
X176903907Y-96068994D01*
G37*
%TD.AperFunction*%
%TA.AperFunction,EtchedComponent*%
G36*
X177706235Y-95520033D02*
G01*
X177695678Y-95530590D01*
X177685121Y-95520033D01*
X177695678Y-95509476D01*
X177706235Y-95520033D01*
G37*
%TD.AperFunction*%
%TA.AperFunction,EtchedComponent*%
G36*
X177283957Y-95688944D02*
G01*
X177273400Y-95699501D01*
X177262843Y-95688944D01*
X177273400Y-95678387D01*
X177283957Y-95688944D01*
G37*
%TD.AperFunction*%
%TD*%
D11*
%TO.P,R2,2*%
%TO.N,GND*%
X212500000Y-86500000D03*
%TO.P,R2,1*%
%TO.N,Net-(D2-K)*%
X204880000Y-86500000D03*
%TD*%
%TO.P,R1,1*%
%TO.N,Net-(D1-K)*%
X204880000Y-90500000D03*
%TO.P,R1,2*%
%TO.N,GND*%
X212500000Y-90500000D03*
%TD*%
%TO.P,R3,2*%
%TO.N,GND*%
X212500000Y-82500000D03*
%TO.P,R3,1*%
%TO.N,Net-(D3-K)*%
X204880000Y-82500000D03*
%TD*%
D12*
%TO.P,J3,1,Pin_1*%
%TO.N,GND*%
X203460000Y-110000000D03*
D13*
%TO.P,J3,2,Pin_2*%
X206000000Y-110000000D03*
%TO.P,J3,3,Pin_3*%
X208540000Y-110000000D03*
%TO.P,J3,4,Pin_4*%
X211080000Y-110000000D03*
%TO.P,J3,5,Pin_5*%
X213620000Y-110000000D03*
%TD*%
D12*
%TO.P,J2,1,Pin_1*%
%TO.N,Net-(D2-A)*%
X173500000Y-84500000D03*
D13*
%TO.P,J2,2,Pin_2*%
X173500000Y-87040000D03*
%TO.P,J2,3,Pin_3*%
X173500000Y-89580000D03*
%TO.P,J2,4,Pin_4*%
X173500000Y-92120000D03*
%TO.P,J2,5,Pin_5*%
X173500000Y-94660000D03*
%TD*%
D12*
%TO.P,J1,1,Pin_1*%
%TO.N,Net-(D1-A)*%
X173500000Y-100460000D03*
D13*
%TO.P,J1,2,Pin_2*%
X173500000Y-103000000D03*
%TO.P,J1,3,Pin_3*%
X173500000Y-105540000D03*
%TO.P,J1,4,Pin_4*%
X173500000Y-108080000D03*
%TO.P,J1,5,Pin_5*%
X173500000Y-110620000D03*
%TD*%
D14*
%TO.P,U3,3,VI*%
%TO.N,Net-(D3-A)*%
X192500000Y-105370000D03*
%TO.P,U3,2,VO*%
%TO.N,Net-(D1-A)*%
X192500000Y-107910000D03*
D15*
%TO.P,U3,1,GND*%
%TO.N,GND*%
X192500000Y-110450000D03*
%TD*%
%TO.P,U1,1,VI*%
%TO.N,Net-(D3-A)*%
X192500000Y-96080000D03*
D14*
%TO.P,U1,2,GND*%
%TO.N,GND*%
X192500000Y-93540000D03*
%TO.P,U1,3,VO*%
%TO.N,Net-(D2-A)*%
X192500000Y-91000000D03*
%TD*%
D16*
%TO.P,J4,1*%
%TO.N,Net-(D3-A)*%
X202500000Y-101957500D03*
D17*
%TO.P,J4,2*%
%TO.N,GND*%
X208500000Y-101957500D03*
D18*
%TO.P,J4,3*%
%TO.N,N/C*%
X205500000Y-97257500D03*
%TD*%
D19*
%TO.P,D3,1,K*%
%TO.N,Net-(D3-K)*%
X197000000Y-84275000D03*
D20*
%TO.P,D3,2,A*%
%TO.N,Net-(D3-A)*%
X197000000Y-81735000D03*
%TD*%
D19*
%TO.P,D2,1,K*%
%TO.N,Net-(D2-K)*%
X190500000Y-84275000D03*
D20*
%TO.P,D2,2,A*%
%TO.N,Net-(D2-A)*%
X190500000Y-81735000D03*
%TD*%
D19*
%TO.P,D1,1,K*%
%TO.N,Net-(D1-K)*%
X184000000Y-84275000D03*
D20*
%TO.P,D1,2,A*%
%TO.N,Net-(D1-A)*%
X184000000Y-81735000D03*
%TD*%
D21*
%TO.P,C4,1*%
%TO.N,Net-(D1-A)*%
X178500000Y-109000000D03*
D11*
%TO.P,C4,2*%
%TO.N,GND*%
X181000000Y-109000000D03*
%TD*%
D21*
%TO.P,C3,1*%
%TO.N,Net-(D2-A)*%
X178817621Y-91500000D03*
D11*
%TO.P,C3,2*%
%TO.N,GND*%
X181317621Y-91500000D03*
%TD*%
%TO.P,C2,1*%
%TO.N,GND*%
X198000000Y-106750000D03*
%TO.P,C2,2*%
%TO.N,Net-(D3-A)*%
X198000000Y-109250000D03*
%TD*%
%TO.P,C1,1*%
%TO.N,GND*%
X198000000Y-90750000D03*
%TO.P,C1,2*%
%TO.N,Net-(D3-A)*%
X198000000Y-93250000D03*
%TD*%
D22*
%TO.N,Net-(D1-K)*%
X202000000Y-90500000D02*
X204880000Y-90500000D01*
X199000000Y-87500000D02*
X202000000Y-90500000D01*
X187225000Y-87500000D02*
X199000000Y-87500000D01*
X184000000Y-84275000D02*
X187225000Y-87500000D01*
%TO.N,Net-(D2-K)*%
X192725000Y-86500000D02*
X204880000Y-86500000D01*
X190500000Y-84275000D02*
X192725000Y-86500000D01*
%TO.N,Net-(D3-K)*%
X201050000Y-82500000D02*
X199275000Y-84275000D01*
X204880000Y-82500000D02*
X201050000Y-82500000D01*
X199275000Y-84275000D02*
X197000000Y-84275000D01*
%TO.N,GND*%
X212500000Y-82500000D02*
X212500000Y-90500000D01*
X212500000Y-97957500D02*
X208500000Y-101957500D01*
X212500000Y-90500000D02*
X212500000Y-97957500D01*
X198000000Y-90750000D02*
X203299000Y-96049000D01*
X203707500Y-106750000D02*
X208500000Y-101957500D01*
X198000000Y-106750000D02*
X203707500Y-106750000D01*
X206000000Y-110000000D02*
X203460000Y-110000000D01*
X208540000Y-110000000D02*
X206000000Y-110000000D01*
X211080000Y-110000000D02*
X208540000Y-110000000D01*
X213620000Y-110000000D02*
X211080000Y-110000000D01*
X203460000Y-110000000D02*
X213620000Y-110000000D01*
X208500000Y-109960000D02*
X208540000Y-110000000D01*
X208500000Y-101957500D02*
X208500000Y-109960000D01*
%TO.N,Net-(D1-A)*%
X175545010Y-90189990D02*
X175545010Y-95454990D01*
X175545010Y-95454990D02*
X173500000Y-97500000D01*
X184000000Y-81735000D02*
X175545010Y-90189990D01*
X173500000Y-97500000D02*
X173500000Y-100460000D01*
%TO.N,GND*%
X206299000Y-99756500D02*
X208500000Y-101957500D01*
X203299000Y-98689044D02*
X204366456Y-99756500D01*
X203299000Y-96049000D02*
X203299000Y-98689044D01*
X204366456Y-99756500D02*
X206299000Y-99756500D01*
X195290000Y-90750000D02*
X192500000Y-93540000D01*
X198000000Y-90750000D02*
X195290000Y-90750000D01*
X193310000Y-111260000D02*
X192500000Y-110450000D01*
X186950000Y-110450000D02*
X192500000Y-110450000D01*
X186500000Y-110000000D02*
X186950000Y-110450000D01*
X185000000Y-110000000D02*
X186500000Y-110000000D01*
X184000000Y-109000000D02*
X185000000Y-110000000D01*
X181000000Y-109000000D02*
X184000000Y-109000000D01*
X196200000Y-106750000D02*
X192500000Y-110450000D01*
X198000000Y-106750000D02*
X196200000Y-106750000D01*
%TD*%
M02*
