%TF.GenerationSoftware,KiCad,Pcbnew,9.0.7*%
%TF.CreationDate,2026-01-31T20:36:48-06:00*%
%TF.ProjectId,Power,506f7765-722e-46b6-9963-61645f706362,rev?*%
%TF.SameCoordinates,Original*%
%TF.FileFunction,Legend,Top*%
%TF.FilePolarity,Positive*%
%FSLAX46Y46*%
G04 Gerber Fmt 4.6, Leading zero omitted, Abs format (unit mm)*
G04 Created by KiCad (PCBNEW 9.0.7) date 2026-01-31 20:36:48*
%MOMM*%
%LPD*%
G01*
G04 APERTURE LIST*
%ADD10C,0.150000*%
%ADD11C,0.120000*%
G04 APERTURE END LIST*
D10*
X200534819Y-110333333D02*
X201249104Y-110333333D01*
X201249104Y-110333333D02*
X201391961Y-110380952D01*
X201391961Y-110380952D02*
X201487200Y-110476190D01*
X201487200Y-110476190D02*
X201534819Y-110619047D01*
X201534819Y-110619047D02*
X201534819Y-110714285D01*
X200534819Y-109952380D02*
X200534819Y-109333333D01*
X200534819Y-109333333D02*
X200915771Y-109666666D01*
X200915771Y-109666666D02*
X200915771Y-109523809D01*
X200915771Y-109523809D02*
X200963390Y-109428571D01*
X200963390Y-109428571D02*
X201011009Y-109380952D01*
X201011009Y-109380952D02*
X201106247Y-109333333D01*
X201106247Y-109333333D02*
X201344342Y-109333333D01*
X201344342Y-109333333D02*
X201439580Y-109380952D01*
X201439580Y-109380952D02*
X201487200Y-109428571D01*
X201487200Y-109428571D02*
X201534819Y-109523809D01*
X201534819Y-109523809D02*
X201534819Y-109809523D01*
X201534819Y-109809523D02*
X201487200Y-109904761D01*
X201487200Y-109904761D02*
X201439580Y-109952380D01*
X173166666Y-81574819D02*
X173166666Y-82289104D01*
X173166666Y-82289104D02*
X173119047Y-82431961D01*
X173119047Y-82431961D02*
X173023809Y-82527200D01*
X173023809Y-82527200D02*
X172880952Y-82574819D01*
X172880952Y-82574819D02*
X172785714Y-82574819D01*
X173595238Y-81670057D02*
X173642857Y-81622438D01*
X173642857Y-81622438D02*
X173738095Y-81574819D01*
X173738095Y-81574819D02*
X173976190Y-81574819D01*
X173976190Y-81574819D02*
X174071428Y-81622438D01*
X174071428Y-81622438D02*
X174119047Y-81670057D01*
X174119047Y-81670057D02*
X174166666Y-81765295D01*
X174166666Y-81765295D02*
X174166666Y-81860533D01*
X174166666Y-81860533D02*
X174119047Y-82003390D01*
X174119047Y-82003390D02*
X173547619Y-82574819D01*
X173547619Y-82574819D02*
X174166666Y-82574819D01*
X173166666Y-97534819D02*
X173166666Y-98249104D01*
X173166666Y-98249104D02*
X173119047Y-98391961D01*
X173119047Y-98391961D02*
X173023809Y-98487200D01*
X173023809Y-98487200D02*
X172880952Y-98534819D01*
X172880952Y-98534819D02*
X172785714Y-98534819D01*
X174166666Y-98534819D02*
X173595238Y-98534819D01*
X173880952Y-98534819D02*
X173880952Y-97534819D01*
X173880952Y-97534819D02*
X173785714Y-97677676D01*
X173785714Y-97677676D02*
X173690476Y-97772914D01*
X173690476Y-97772914D02*
X173595238Y-97820533D01*
X187854819Y-108671904D02*
X188664342Y-108671904D01*
X188664342Y-108671904D02*
X188759580Y-108624285D01*
X188759580Y-108624285D02*
X188807200Y-108576666D01*
X188807200Y-108576666D02*
X188854819Y-108481428D01*
X188854819Y-108481428D02*
X188854819Y-108290952D01*
X188854819Y-108290952D02*
X188807200Y-108195714D01*
X188807200Y-108195714D02*
X188759580Y-108148095D01*
X188759580Y-108148095D02*
X188664342Y-108100476D01*
X188664342Y-108100476D02*
X187854819Y-108100476D01*
X187854819Y-107719523D02*
X187854819Y-107100476D01*
X187854819Y-107100476D02*
X188235771Y-107433809D01*
X188235771Y-107433809D02*
X188235771Y-107290952D01*
X188235771Y-107290952D02*
X188283390Y-107195714D01*
X188283390Y-107195714D02*
X188331009Y-107148095D01*
X188331009Y-107148095D02*
X188426247Y-107100476D01*
X188426247Y-107100476D02*
X188664342Y-107100476D01*
X188664342Y-107100476D02*
X188759580Y-107148095D01*
X188759580Y-107148095D02*
X188807200Y-107195714D01*
X188807200Y-107195714D02*
X188854819Y-107290952D01*
X188854819Y-107290952D02*
X188854819Y-107576666D01*
X188854819Y-107576666D02*
X188807200Y-107671904D01*
X188807200Y-107671904D02*
X188759580Y-107719523D01*
X187854819Y-94301904D02*
X188664342Y-94301904D01*
X188664342Y-94301904D02*
X188759580Y-94254285D01*
X188759580Y-94254285D02*
X188807200Y-94206666D01*
X188807200Y-94206666D02*
X188854819Y-94111428D01*
X188854819Y-94111428D02*
X188854819Y-93920952D01*
X188854819Y-93920952D02*
X188807200Y-93825714D01*
X188807200Y-93825714D02*
X188759580Y-93778095D01*
X188759580Y-93778095D02*
X188664342Y-93730476D01*
X188664342Y-93730476D02*
X187854819Y-93730476D01*
X188854819Y-92730476D02*
X188854819Y-93301904D01*
X188854819Y-93016190D02*
X187854819Y-93016190D01*
X187854819Y-93016190D02*
X187997676Y-93111428D01*
X187997676Y-93111428D02*
X188092914Y-93206666D01*
X188092914Y-93206666D02*
X188140533Y-93301904D01*
X210616666Y-95662319D02*
X210616666Y-96376604D01*
X210616666Y-96376604D02*
X210569047Y-96519461D01*
X210569047Y-96519461D02*
X210473809Y-96614700D01*
X210473809Y-96614700D02*
X210330952Y-96662319D01*
X210330952Y-96662319D02*
X210235714Y-96662319D01*
X211521428Y-95995652D02*
X211521428Y-96662319D01*
X211283333Y-95614700D02*
X211045238Y-96328985D01*
X211045238Y-96328985D02*
X211664285Y-96328985D01*
X201514819Y-83738094D02*
X200514819Y-83738094D01*
X200514819Y-83738094D02*
X200514819Y-83499999D01*
X200514819Y-83499999D02*
X200562438Y-83357142D01*
X200562438Y-83357142D02*
X200657676Y-83261904D01*
X200657676Y-83261904D02*
X200752914Y-83214285D01*
X200752914Y-83214285D02*
X200943390Y-83166666D01*
X200943390Y-83166666D02*
X201086247Y-83166666D01*
X201086247Y-83166666D02*
X201276723Y-83214285D01*
X201276723Y-83214285D02*
X201371961Y-83261904D01*
X201371961Y-83261904D02*
X201467200Y-83357142D01*
X201467200Y-83357142D02*
X201514819Y-83499999D01*
X201514819Y-83499999D02*
X201514819Y-83738094D01*
X200514819Y-82833332D02*
X200514819Y-82214285D01*
X200514819Y-82214285D02*
X200895771Y-82547618D01*
X200895771Y-82547618D02*
X200895771Y-82404761D01*
X200895771Y-82404761D02*
X200943390Y-82309523D01*
X200943390Y-82309523D02*
X200991009Y-82261904D01*
X200991009Y-82261904D02*
X201086247Y-82214285D01*
X201086247Y-82214285D02*
X201324342Y-82214285D01*
X201324342Y-82214285D02*
X201419580Y-82261904D01*
X201419580Y-82261904D02*
X201467200Y-82309523D01*
X201467200Y-82309523D02*
X201514819Y-82404761D01*
X201514819Y-82404761D02*
X201514819Y-82690475D01*
X201514819Y-82690475D02*
X201467200Y-82785713D01*
X201467200Y-82785713D02*
X201419580Y-82833332D01*
X190484819Y-87738094D02*
X189484819Y-87738094D01*
X189484819Y-87738094D02*
X189484819Y-87499999D01*
X189484819Y-87499999D02*
X189532438Y-87357142D01*
X189532438Y-87357142D02*
X189627676Y-87261904D01*
X189627676Y-87261904D02*
X189722914Y-87214285D01*
X189722914Y-87214285D02*
X189913390Y-87166666D01*
X189913390Y-87166666D02*
X190056247Y-87166666D01*
X190056247Y-87166666D02*
X190246723Y-87214285D01*
X190246723Y-87214285D02*
X190341961Y-87261904D01*
X190341961Y-87261904D02*
X190437200Y-87357142D01*
X190437200Y-87357142D02*
X190484819Y-87499999D01*
X190484819Y-87499999D02*
X190484819Y-87738094D01*
X189580057Y-86785713D02*
X189532438Y-86738094D01*
X189532438Y-86738094D02*
X189484819Y-86642856D01*
X189484819Y-86642856D02*
X189484819Y-86404761D01*
X189484819Y-86404761D02*
X189532438Y-86309523D01*
X189532438Y-86309523D02*
X189580057Y-86261904D01*
X189580057Y-86261904D02*
X189675295Y-86214285D01*
X189675295Y-86214285D02*
X189770533Y-86214285D01*
X189770533Y-86214285D02*
X189913390Y-86261904D01*
X189913390Y-86261904D02*
X190484819Y-86833332D01*
X190484819Y-86833332D02*
X190484819Y-86214285D01*
X180454819Y-83738094D02*
X179454819Y-83738094D01*
X179454819Y-83738094D02*
X179454819Y-83499999D01*
X179454819Y-83499999D02*
X179502438Y-83357142D01*
X179502438Y-83357142D02*
X179597676Y-83261904D01*
X179597676Y-83261904D02*
X179692914Y-83214285D01*
X179692914Y-83214285D02*
X179883390Y-83166666D01*
X179883390Y-83166666D02*
X180026247Y-83166666D01*
X180026247Y-83166666D02*
X180216723Y-83214285D01*
X180216723Y-83214285D02*
X180311961Y-83261904D01*
X180311961Y-83261904D02*
X180407200Y-83357142D01*
X180407200Y-83357142D02*
X180454819Y-83499999D01*
X180454819Y-83499999D02*
X180454819Y-83738094D01*
X180454819Y-82214285D02*
X180454819Y-82785713D01*
X180454819Y-82499999D02*
X179454819Y-82499999D01*
X179454819Y-82499999D02*
X179597676Y-82595237D01*
X179597676Y-82595237D02*
X179692914Y-82690475D01*
X179692914Y-82690475D02*
X179740533Y-82785713D01*
X179583333Y-104959580D02*
X179535714Y-105007200D01*
X179535714Y-105007200D02*
X179392857Y-105054819D01*
X179392857Y-105054819D02*
X179297619Y-105054819D01*
X179297619Y-105054819D02*
X179154762Y-105007200D01*
X179154762Y-105007200D02*
X179059524Y-104911961D01*
X179059524Y-104911961D02*
X179011905Y-104816723D01*
X179011905Y-104816723D02*
X178964286Y-104626247D01*
X178964286Y-104626247D02*
X178964286Y-104483390D01*
X178964286Y-104483390D02*
X179011905Y-104292914D01*
X179011905Y-104292914D02*
X179059524Y-104197676D01*
X179059524Y-104197676D02*
X179154762Y-104102438D01*
X179154762Y-104102438D02*
X179297619Y-104054819D01*
X179297619Y-104054819D02*
X179392857Y-104054819D01*
X179392857Y-104054819D02*
X179535714Y-104102438D01*
X179535714Y-104102438D02*
X179583333Y-104150057D01*
X180440476Y-104388152D02*
X180440476Y-105054819D01*
X180202381Y-104007200D02*
X179964286Y-104721485D01*
X179964286Y-104721485D02*
X180583333Y-104721485D01*
X175870954Y-87234580D02*
X175823335Y-87282200D01*
X175823335Y-87282200D02*
X175680478Y-87329819D01*
X175680478Y-87329819D02*
X175585240Y-87329819D01*
X175585240Y-87329819D02*
X175442383Y-87282200D01*
X175442383Y-87282200D02*
X175347145Y-87186961D01*
X175347145Y-87186961D02*
X175299526Y-87091723D01*
X175299526Y-87091723D02*
X175251907Y-86901247D01*
X175251907Y-86901247D02*
X175251907Y-86758390D01*
X175251907Y-86758390D02*
X175299526Y-86567914D01*
X175299526Y-86567914D02*
X175347145Y-86472676D01*
X175347145Y-86472676D02*
X175442383Y-86377438D01*
X175442383Y-86377438D02*
X175585240Y-86329819D01*
X175585240Y-86329819D02*
X175680478Y-86329819D01*
X175680478Y-86329819D02*
X175823335Y-86377438D01*
X175823335Y-86377438D02*
X175870954Y-86425057D01*
X176204288Y-86329819D02*
X176823335Y-86329819D01*
X176823335Y-86329819D02*
X176490002Y-86710771D01*
X176490002Y-86710771D02*
X176632859Y-86710771D01*
X176632859Y-86710771D02*
X176728097Y-86758390D01*
X176728097Y-86758390D02*
X176775716Y-86806009D01*
X176775716Y-86806009D02*
X176823335Y-86901247D01*
X176823335Y-86901247D02*
X176823335Y-87139342D01*
X176823335Y-87139342D02*
X176775716Y-87234580D01*
X176775716Y-87234580D02*
X176728097Y-87282200D01*
X176728097Y-87282200D02*
X176632859Y-87329819D01*
X176632859Y-87329819D02*
X176347145Y-87329819D01*
X176347145Y-87329819D02*
X176251907Y-87282200D01*
X176251907Y-87282200D02*
X176204288Y-87234580D01*
D11*
%TO.C,R2*%
X211960000Y-87870000D02*
X211960000Y-87540000D01*
X211960000Y-85130000D02*
X211960000Y-85460000D01*
X205420000Y-87870000D02*
X211960000Y-87870000D01*
X205420000Y-87540000D02*
X205420000Y-87870000D01*
X205420000Y-85460000D02*
X205420000Y-85130000D01*
X205420000Y-85130000D02*
X211960000Y-85130000D01*
%TO.C,R1*%
X205420000Y-89130000D02*
X211960000Y-89130000D01*
X205420000Y-89460000D02*
X205420000Y-89130000D01*
X205420000Y-91540000D02*
X205420000Y-91870000D01*
X205420000Y-91870000D02*
X211960000Y-91870000D01*
X211960000Y-89130000D02*
X211960000Y-89460000D01*
X211960000Y-91870000D02*
X211960000Y-91540000D01*
%TO.C,R3*%
X211960000Y-83870000D02*
X211960000Y-83540000D01*
X211960000Y-81130000D02*
X211960000Y-81460000D01*
X205420000Y-83870000D02*
X211960000Y-83870000D01*
X205420000Y-83540000D02*
X205420000Y-83870000D01*
X205420000Y-81460000D02*
X205420000Y-81130000D01*
X205420000Y-81130000D02*
X211960000Y-81130000D01*
%TO.C,J3*%
X202080000Y-111380000D02*
X202080000Y-110000000D01*
X203460000Y-111380000D02*
X202080000Y-111380000D01*
X204730000Y-111380000D02*
X215000000Y-111380000D01*
X204730000Y-111380000D02*
X204730000Y-108620000D01*
X215000000Y-111380000D02*
X215000000Y-108620000D01*
X204730000Y-108620000D02*
X215000000Y-108620000D01*
%TO.C,J2*%
X172120000Y-83120000D02*
X173500000Y-83120000D01*
X172120000Y-84500000D02*
X172120000Y-83120000D01*
X172120000Y-85770000D02*
X172120000Y-96040000D01*
X172120000Y-85770000D02*
X174880000Y-85770000D01*
X172120000Y-96040000D02*
X174880000Y-96040000D01*
X174880000Y-85770000D02*
X174880000Y-96040000D01*
%TO.C,J1*%
X172120000Y-99080000D02*
X173500000Y-99080000D01*
X172120000Y-100460000D02*
X172120000Y-99080000D01*
X172120000Y-101730000D02*
X172120000Y-112000000D01*
X172120000Y-101730000D02*
X174880000Y-101730000D01*
X172120000Y-112000000D02*
X174880000Y-112000000D01*
X174880000Y-101730000D02*
X174880000Y-112000000D01*
%TO.C,U3*%
X193860000Y-102800000D02*
X193860000Y-113020000D01*
X189240000Y-102800000D02*
X193860000Y-102800000D01*
X189240000Y-106060000D02*
X190620000Y-106060000D01*
X189240000Y-109760000D02*
X190620000Y-109760000D01*
X193860000Y-113020000D02*
X189240000Y-113020000D01*
X190620000Y-113020000D02*
X190620000Y-102800000D01*
X189240000Y-113020000D02*
X189240000Y-102800000D01*
%TO.C,U1*%
X189240000Y-98650000D02*
X189240000Y-88430000D01*
X190620000Y-98650000D02*
X190620000Y-88430000D01*
X193860000Y-98650000D02*
X189240000Y-98650000D01*
X189240000Y-95390000D02*
X190620000Y-95390000D01*
X189240000Y-91690000D02*
X190620000Y-91690000D01*
X189240000Y-88430000D02*
X193860000Y-88430000D01*
X193860000Y-88430000D02*
X193860000Y-98650000D01*
%TO.C,J4*%
X216300000Y-106557500D02*
X201600000Y-106557500D01*
X216300000Y-97357500D02*
X216300000Y-106557500D01*
X207500000Y-97357500D02*
X216300000Y-97357500D01*
X202450000Y-106757500D02*
X201400000Y-106757500D01*
X201600000Y-106557500D02*
X201600000Y-103957500D01*
X201600000Y-100057500D02*
X201600000Y-97357500D01*
X201600000Y-97357500D02*
X203500000Y-97357500D01*
X201400000Y-105707500D02*
X201400000Y-106757500D01*
%TO.C,D3*%
X195455000Y-85565000D02*
X198545000Y-85565000D01*
X195455170Y-85565000D02*
G75*
G02*
X197000000Y-80015000I1544830J2560000D01*
G01*
X197000000Y-80015000D02*
G75*
G02*
X198544830Y-85565000I0J-2990000D01*
G01*
X199500000Y-83005000D02*
G75*
G02*
X194500000Y-83005000I-2500000J0D01*
G01*
X194500000Y-83005000D02*
G75*
G02*
X199500000Y-83005000I2500000J0D01*
G01*
%TO.C,D2*%
X188955000Y-85565000D02*
X192045000Y-85565000D01*
X188955170Y-85565000D02*
G75*
G02*
X190500000Y-80015000I1544830J2560000D01*
G01*
X190500000Y-80015000D02*
G75*
G02*
X192044830Y-85565000I0J-2990000D01*
G01*
X193000000Y-83005000D02*
G75*
G02*
X188000000Y-83005000I-2500000J0D01*
G01*
X188000000Y-83005000D02*
G75*
G02*
X193000000Y-83005000I2500000J0D01*
G01*
%TO.C,D1*%
X182455000Y-85565000D02*
X185545000Y-85565000D01*
X182455170Y-85565000D02*
G75*
G02*
X184000000Y-80015000I1544830J2560000D01*
G01*
X184000000Y-80015000D02*
G75*
G02*
X185544830Y-85565000I0J-2990000D01*
G01*
X186500000Y-83005000D02*
G75*
G02*
X181500000Y-83005000I-2500000J0D01*
G01*
X181500000Y-83005000D02*
G75*
G02*
X186500000Y-83005000I2500000J0D01*
G01*
%TO.C,C4*%
X176249759Y-107161000D02*
X176879759Y-107161000D01*
X176564759Y-106846000D02*
X176564759Y-107476000D01*
X179750000Y-105770000D02*
X179750000Y-112230000D01*
X179790000Y-105770000D02*
X179790000Y-112230000D01*
X179830000Y-105771000D02*
X179830000Y-112229000D01*
X179870000Y-105772000D02*
X179870000Y-112228000D01*
X179910000Y-105774000D02*
X179910000Y-112226000D01*
X179950000Y-105776000D02*
X179950000Y-112224000D01*
X179990000Y-105779000D02*
X179990000Y-107960000D01*
X179990000Y-110040000D02*
X179990000Y-112221000D01*
X180030000Y-105782000D02*
X180030000Y-107960000D01*
X180030000Y-110040000D02*
X180030000Y-112218000D01*
X180070000Y-105786000D02*
X180070000Y-107960000D01*
X180070000Y-110040000D02*
X180070000Y-112214000D01*
X180110000Y-105790000D02*
X180110000Y-107960000D01*
X180110000Y-110040000D02*
X180110000Y-112210000D01*
X180150000Y-105795000D02*
X180150000Y-107960000D01*
X180150000Y-110040000D02*
X180150000Y-112205000D01*
X180190000Y-105800000D02*
X180190000Y-107960000D01*
X180190000Y-110040000D02*
X180190000Y-112200000D01*
X180230000Y-105805000D02*
X180230000Y-107960000D01*
X180230000Y-110040000D02*
X180230000Y-112195000D01*
X180270000Y-105812000D02*
X180270000Y-107960000D01*
X180270000Y-110040000D02*
X180270000Y-112188000D01*
X180310000Y-105818000D02*
X180310000Y-107960000D01*
X180310000Y-110040000D02*
X180310000Y-112182000D01*
X180350000Y-105826000D02*
X180350000Y-107960000D01*
X180350000Y-110040000D02*
X180350000Y-112174000D01*
X180390000Y-105833000D02*
X180390000Y-107960000D01*
X180390000Y-110040000D02*
X180390000Y-112167000D01*
X180430000Y-105841000D02*
X180430000Y-107960000D01*
X180430000Y-110040000D02*
X180430000Y-112159000D01*
X180470000Y-105850000D02*
X180470000Y-107960000D01*
X180470000Y-110040000D02*
X180470000Y-112150000D01*
X180510000Y-105860000D02*
X180510000Y-107960000D01*
X180510000Y-110040000D02*
X180510000Y-112140000D01*
X180550000Y-105869000D02*
X180550000Y-107960000D01*
X180550000Y-110040000D02*
X180550000Y-112131000D01*
X180590000Y-105880000D02*
X180590000Y-107960000D01*
X180590000Y-110040000D02*
X180590000Y-112120000D01*
X180630000Y-105891000D02*
X180630000Y-107960000D01*
X180630000Y-110040000D02*
X180630000Y-112109000D01*
X180670000Y-105902000D02*
X180670000Y-107960000D01*
X180670000Y-110040000D02*
X180670000Y-112098000D01*
X180710000Y-105914000D02*
X180710000Y-107960000D01*
X180710000Y-110040000D02*
X180710000Y-112086000D01*
X180750000Y-105927000D02*
X180750000Y-107960000D01*
X180750000Y-110040000D02*
X180750000Y-112073000D01*
X180790000Y-105940000D02*
X180790000Y-107960000D01*
X180790000Y-110040000D02*
X180790000Y-112060000D01*
X180830000Y-105953000D02*
X180830000Y-107960000D01*
X180830000Y-110040000D02*
X180830000Y-112047000D01*
X180870000Y-105968000D02*
X180870000Y-107960000D01*
X180870000Y-110040000D02*
X180870000Y-112032000D01*
X180910000Y-105983000D02*
X180910000Y-107960000D01*
X180910000Y-110040000D02*
X180910000Y-112017000D01*
X180950000Y-105998000D02*
X180950000Y-107960000D01*
X180950000Y-110040000D02*
X180950000Y-112002000D01*
X180990000Y-106014000D02*
X180990000Y-107960000D01*
X180990000Y-110040000D02*
X180990000Y-111986000D01*
X181030000Y-106031000D02*
X181030000Y-107960000D01*
X181030000Y-110040000D02*
X181030000Y-111969000D01*
X181070000Y-106048000D02*
X181070000Y-107960000D01*
X181070000Y-110040000D02*
X181070000Y-111952000D01*
X181110000Y-106066000D02*
X181110000Y-107960000D01*
X181110000Y-110040000D02*
X181110000Y-111934000D01*
X181150000Y-106085000D02*
X181150000Y-107960000D01*
X181150000Y-110040000D02*
X181150000Y-111915000D01*
X181190000Y-106104000D02*
X181190000Y-107960000D01*
X181190000Y-110040000D02*
X181190000Y-111896000D01*
X181230000Y-106124000D02*
X181230000Y-107960000D01*
X181230000Y-110040000D02*
X181230000Y-111876000D01*
X181270000Y-106145000D02*
X181270000Y-107960000D01*
X181270000Y-110040000D02*
X181270000Y-111855000D01*
X181310000Y-106166000D02*
X181310000Y-107960000D01*
X181310000Y-110040000D02*
X181310000Y-111834000D01*
X181350000Y-106188000D02*
X181350000Y-107960000D01*
X181350000Y-110040000D02*
X181350000Y-111812000D01*
X181390000Y-106211000D02*
X181390000Y-107960000D01*
X181390000Y-110040000D02*
X181390000Y-111789000D01*
X181430000Y-106235000D02*
X181430000Y-107960000D01*
X181430000Y-110040000D02*
X181430000Y-111765000D01*
X181470000Y-106259000D02*
X181470000Y-107960000D01*
X181470000Y-110040000D02*
X181470000Y-111741000D01*
X181510000Y-106284000D02*
X181510000Y-107960000D01*
X181510000Y-110040000D02*
X181510000Y-111716000D01*
X181550000Y-106310000D02*
X181550000Y-107960000D01*
X181550000Y-110040000D02*
X181550000Y-111690000D01*
X181590000Y-106337000D02*
X181590000Y-107960000D01*
X181590000Y-110040000D02*
X181590000Y-111663000D01*
X181630000Y-106364000D02*
X181630000Y-107960000D01*
X181630000Y-110040000D02*
X181630000Y-111636000D01*
X181670000Y-106393000D02*
X181670000Y-107960000D01*
X181670000Y-110040000D02*
X181670000Y-111607000D01*
X181710000Y-106423000D02*
X181710000Y-107960000D01*
X181710000Y-110040000D02*
X181710000Y-111577000D01*
X181750000Y-106453000D02*
X181750000Y-107960000D01*
X181750000Y-110040000D02*
X181750000Y-111547000D01*
X181790000Y-106484000D02*
X181790000Y-107960000D01*
X181790000Y-110040000D02*
X181790000Y-111516000D01*
X181830000Y-106517000D02*
X181830000Y-107960000D01*
X181830000Y-110040000D02*
X181830000Y-111483000D01*
X181870000Y-106550000D02*
X181870000Y-107960000D01*
X181870000Y-110040000D02*
X181870000Y-111450000D01*
X181910000Y-106585000D02*
X181910000Y-107960000D01*
X181910000Y-110040000D02*
X181910000Y-111415000D01*
X181950000Y-106621000D02*
X181950000Y-107960000D01*
X181950000Y-110040000D02*
X181950000Y-111379000D01*
X181990000Y-106658000D02*
X181990000Y-107960000D01*
X181990000Y-110040000D02*
X181990000Y-111342000D01*
X182030000Y-106696000D02*
X182030000Y-107960000D01*
X182030000Y-110040000D02*
X182030000Y-111304000D01*
X182070000Y-106736000D02*
X182070000Y-111264000D01*
X182110000Y-106777000D02*
X182110000Y-111223000D01*
X182150000Y-106819000D02*
X182150000Y-111181000D01*
X182190000Y-106863000D02*
X182190000Y-111137000D01*
X182230000Y-106909000D02*
X182230000Y-111091000D01*
X182270000Y-106956000D02*
X182270000Y-111044000D01*
X182310000Y-107005000D02*
X182310000Y-110995000D01*
X182350000Y-107057000D02*
X182350000Y-110943000D01*
X182390000Y-107110000D02*
X182390000Y-110890000D01*
X182430000Y-107166000D02*
X182430000Y-110834000D01*
X182470000Y-107225000D02*
X182470000Y-110775000D01*
X182510000Y-107286000D02*
X182510000Y-110714000D01*
X182550000Y-107351000D02*
X182550000Y-110649000D01*
X182590000Y-107419000D02*
X182590000Y-110581000D01*
X182630000Y-107491000D02*
X182630000Y-110509000D01*
X182670000Y-107568000D02*
X182670000Y-110432000D01*
X182710000Y-107650000D02*
X182710000Y-110350000D01*
X182750000Y-107739000D02*
X182750000Y-110261000D01*
X182790000Y-107835000D02*
X182790000Y-110165000D01*
X182830000Y-107942000D02*
X182830000Y-110058000D01*
X182870000Y-108061000D02*
X182870000Y-109939000D01*
X182910000Y-108199000D02*
X182910000Y-109801000D01*
X182950000Y-108367000D02*
X182950000Y-109633000D01*
X182990000Y-108598000D02*
X182990000Y-109402000D01*
X183020000Y-109000000D02*
G75*
G02*
X176480000Y-109000000I-3270000J0D01*
G01*
X176480000Y-109000000D02*
G75*
G02*
X183020000Y-109000000I3270000J0D01*
G01*
%TO.C,C3*%
X176567380Y-89661000D02*
X177197380Y-89661000D01*
X176882380Y-89346000D02*
X176882380Y-89976000D01*
X180067621Y-88270000D02*
X180067621Y-94730000D01*
X180107621Y-88270000D02*
X180107621Y-94730000D01*
X180147621Y-88271000D02*
X180147621Y-94729000D01*
X180187621Y-88272000D02*
X180187621Y-94728000D01*
X180227621Y-88274000D02*
X180227621Y-94726000D01*
X180267621Y-88276000D02*
X180267621Y-94724000D01*
X180307621Y-88279000D02*
X180307621Y-90460000D01*
X180307621Y-92540000D02*
X180307621Y-94721000D01*
X180347621Y-88282000D02*
X180347621Y-90460000D01*
X180347621Y-92540000D02*
X180347621Y-94718000D01*
X180387621Y-88286000D02*
X180387621Y-90460000D01*
X180387621Y-92540000D02*
X180387621Y-94714000D01*
X180427621Y-88290000D02*
X180427621Y-90460000D01*
X180427621Y-92540000D02*
X180427621Y-94710000D01*
X180467621Y-88295000D02*
X180467621Y-90460000D01*
X180467621Y-92540000D02*
X180467621Y-94705000D01*
X180507621Y-88300000D02*
X180507621Y-90460000D01*
X180507621Y-92540000D02*
X180507621Y-94700000D01*
X180547621Y-88305000D02*
X180547621Y-90460000D01*
X180547621Y-92540000D02*
X180547621Y-94695000D01*
X180587621Y-88312000D02*
X180587621Y-90460000D01*
X180587621Y-92540000D02*
X180587621Y-94688000D01*
X180627621Y-88318000D02*
X180627621Y-90460000D01*
X180627621Y-92540000D02*
X180627621Y-94682000D01*
X180667621Y-88326000D02*
X180667621Y-90460000D01*
X180667621Y-92540000D02*
X180667621Y-94674000D01*
X180707621Y-88333000D02*
X180707621Y-90460000D01*
X180707621Y-92540000D02*
X180707621Y-94667000D01*
X180747621Y-88341000D02*
X180747621Y-90460000D01*
X180747621Y-92540000D02*
X180747621Y-94659000D01*
X180787621Y-88350000D02*
X180787621Y-90460000D01*
X180787621Y-92540000D02*
X180787621Y-94650000D01*
X180827621Y-88360000D02*
X180827621Y-90460000D01*
X180827621Y-92540000D02*
X180827621Y-94640000D01*
X180867621Y-88369000D02*
X180867621Y-90460000D01*
X180867621Y-92540000D02*
X180867621Y-94631000D01*
X180907621Y-88380000D02*
X180907621Y-90460000D01*
X180907621Y-92540000D02*
X180907621Y-94620000D01*
X180947621Y-88391000D02*
X180947621Y-90460000D01*
X180947621Y-92540000D02*
X180947621Y-94609000D01*
X180987621Y-88402000D02*
X180987621Y-90460000D01*
X180987621Y-92540000D02*
X180987621Y-94598000D01*
X181027621Y-88414000D02*
X181027621Y-90460000D01*
X181027621Y-92540000D02*
X181027621Y-94586000D01*
X181067621Y-88427000D02*
X181067621Y-90460000D01*
X181067621Y-92540000D02*
X181067621Y-94573000D01*
X181107621Y-88440000D02*
X181107621Y-90460000D01*
X181107621Y-92540000D02*
X181107621Y-94560000D01*
X181147621Y-88453000D02*
X181147621Y-90460000D01*
X181147621Y-92540000D02*
X181147621Y-94547000D01*
X181187621Y-88468000D02*
X181187621Y-90460000D01*
X181187621Y-92540000D02*
X181187621Y-94532000D01*
X181227621Y-88483000D02*
X181227621Y-90460000D01*
X181227621Y-92540000D02*
X181227621Y-94517000D01*
X181267621Y-88498000D02*
X181267621Y-90460000D01*
X181267621Y-92540000D02*
X181267621Y-94502000D01*
X181307621Y-88514000D02*
X181307621Y-90460000D01*
X181307621Y-92540000D02*
X181307621Y-94486000D01*
X181347621Y-88531000D02*
X181347621Y-90460000D01*
X181347621Y-92540000D02*
X181347621Y-94469000D01*
X181387621Y-88548000D02*
X181387621Y-90460000D01*
X181387621Y-92540000D02*
X181387621Y-94452000D01*
X181427621Y-88566000D02*
X181427621Y-90460000D01*
X181427621Y-92540000D02*
X181427621Y-94434000D01*
X181467621Y-88585000D02*
X181467621Y-90460000D01*
X181467621Y-92540000D02*
X181467621Y-94415000D01*
X181507621Y-88604000D02*
X181507621Y-90460000D01*
X181507621Y-92540000D02*
X181507621Y-94396000D01*
X181547621Y-88624000D02*
X181547621Y-90460000D01*
X181547621Y-92540000D02*
X181547621Y-94376000D01*
X181587621Y-88645000D02*
X181587621Y-90460000D01*
X181587621Y-92540000D02*
X181587621Y-94355000D01*
X181627621Y-88666000D02*
X181627621Y-90460000D01*
X181627621Y-92540000D02*
X181627621Y-94334000D01*
X181667621Y-88688000D02*
X181667621Y-90460000D01*
X181667621Y-92540000D02*
X181667621Y-94312000D01*
X181707621Y-88711000D02*
X181707621Y-90460000D01*
X181707621Y-92540000D02*
X181707621Y-94289000D01*
X181747621Y-88735000D02*
X181747621Y-90460000D01*
X181747621Y-92540000D02*
X181747621Y-94265000D01*
X181787621Y-88759000D02*
X181787621Y-90460000D01*
X181787621Y-92540000D02*
X181787621Y-94241000D01*
X181827621Y-88784000D02*
X181827621Y-90460000D01*
X181827621Y-92540000D02*
X181827621Y-94216000D01*
X181867621Y-88810000D02*
X181867621Y-90460000D01*
X181867621Y-92540000D02*
X181867621Y-94190000D01*
X181907621Y-88837000D02*
X181907621Y-90460000D01*
X181907621Y-92540000D02*
X181907621Y-94163000D01*
X181947621Y-88864000D02*
X181947621Y-90460000D01*
X181947621Y-92540000D02*
X181947621Y-94136000D01*
X181987621Y-88893000D02*
X181987621Y-90460000D01*
X181987621Y-92540000D02*
X181987621Y-94107000D01*
X182027621Y-88923000D02*
X182027621Y-90460000D01*
X182027621Y-92540000D02*
X182027621Y-94077000D01*
X182067621Y-88953000D02*
X182067621Y-90460000D01*
X182067621Y-92540000D02*
X182067621Y-94047000D01*
X182107621Y-88984000D02*
X182107621Y-90460000D01*
X182107621Y-92540000D02*
X182107621Y-94016000D01*
X182147621Y-89017000D02*
X182147621Y-90460000D01*
X182147621Y-92540000D02*
X182147621Y-93983000D01*
X182187621Y-89050000D02*
X182187621Y-90460000D01*
X182187621Y-92540000D02*
X182187621Y-93950000D01*
X182227621Y-89085000D02*
X182227621Y-90460000D01*
X182227621Y-92540000D02*
X182227621Y-93915000D01*
X182267621Y-89121000D02*
X182267621Y-90460000D01*
X182267621Y-92540000D02*
X182267621Y-93879000D01*
X182307621Y-89158000D02*
X182307621Y-90460000D01*
X182307621Y-92540000D02*
X182307621Y-93842000D01*
X182347621Y-89196000D02*
X182347621Y-90460000D01*
X182347621Y-92540000D02*
X182347621Y-93804000D01*
X182387621Y-89236000D02*
X182387621Y-93764000D01*
X182427621Y-89277000D02*
X182427621Y-93723000D01*
X182467621Y-89319000D02*
X182467621Y-93681000D01*
X182507621Y-89363000D02*
X182507621Y-93637000D01*
X182547621Y-89409000D02*
X182547621Y-93591000D01*
X182587621Y-89456000D02*
X182587621Y-93544000D01*
X182627621Y-89505000D02*
X182627621Y-93495000D01*
X182667621Y-89557000D02*
X182667621Y-93443000D01*
X182707621Y-89610000D02*
X182707621Y-93390000D01*
X182747621Y-89666000D02*
X182747621Y-93334000D01*
X182787621Y-89725000D02*
X182787621Y-93275000D01*
X182827621Y-89786000D02*
X182827621Y-93214000D01*
X182867621Y-89851000D02*
X182867621Y-93149000D01*
X182907621Y-89919000D02*
X182907621Y-93081000D01*
X182947621Y-89991000D02*
X182947621Y-93009000D01*
X182987621Y-90068000D02*
X182987621Y-92932000D01*
X183027621Y-90150000D02*
X183027621Y-92850000D01*
X183067621Y-90239000D02*
X183067621Y-92761000D01*
X183107621Y-90335000D02*
X183107621Y-92665000D01*
X183147621Y-90442000D02*
X183147621Y-92558000D01*
X183187621Y-90561000D02*
X183187621Y-92439000D01*
X183227621Y-90699000D02*
X183227621Y-92301000D01*
X183267621Y-90867000D02*
X183267621Y-92133000D01*
X183307621Y-91098000D02*
X183307621Y-91902000D01*
X183337621Y-91500000D02*
G75*
G02*
X176797621Y-91500000I-3270000J0D01*
G01*
X176797621Y-91500000D02*
G75*
G02*
X183337621Y-91500000I3270000J0D01*
G01*
%TO.C,C2*%
X199370000Y-105380000D02*
X199370000Y-110620000D01*
X196630000Y-105380000D02*
X199370000Y-105380000D01*
X199370000Y-110620000D02*
X196630000Y-110620000D01*
X196630000Y-110620000D02*
X196630000Y-105380000D01*
%TO.C,C1*%
X199370000Y-89380000D02*
X199370000Y-94620000D01*
X196630000Y-89380000D02*
X199370000Y-89380000D01*
X199370000Y-94620000D02*
X196630000Y-94620000D01*
X196630000Y-94620000D02*
X196630000Y-89380000D01*
%TD*%
M02*
