%TF.GenerationSoftware,KiCad,Pcbnew,9.0.7*%
%TF.CreationDate,2026-02-04T23:41:12-06:00*%
%TF.ProjectId,Power,506f7765-722e-46b6-9963-61645f706362,rev?*%
%TF.SameCoordinates,Original*%
%TF.FileFunction,Copper,L1,Top*%
%TF.FilePolarity,Positive*%
%FSLAX46Y46*%
G04 Gerber Fmt 4.6, Leading zero omitted, Abs format (unit mm)*
G04 Created by KiCad (PCBNEW 9.0.7) date 2026-02-04 23:41:12*
%MOMM*%
%LPD*%
G01*
G04 APERTURE LIST*
G04 Aperture macros list*
%AMRoundRect*
0 Rectangle with rounded corners*
0 $1 Rounding radius*
0 $2 $3 $4 $5 $6 $7 $8 $9 X,Y pos of 4 corners*
0 Add a 4 corners polygon primitive as box body*
4,1,4,$2,$3,$4,$5,$6,$7,$8,$9,$2,$3,0*
0 Add four circle primitives for the rounded corners*
1,1,$1+$1,$2,$3*
1,1,$1+$1,$4,$5*
1,1,$1+$1,$6,$7*
1,1,$1+$1,$8,$9*
0 Add four rect primitives between the rounded corners*
20,1,$1+$1,$2,$3,$4,$5,0*
20,1,$1+$1,$4,$5,$6,$7,0*
20,1,$1+$1,$6,$7,$8,$9,0*
20,1,$1+$1,$8,$9,$2,$3,0*%
G04 Aperture macros list end*
%TA.AperFunction,ComponentPad*%
%ADD10C,1.600000*%
%TD*%
%TA.AperFunction,ComponentPad*%
%ADD11R,1.700000X1.700000*%
%TD*%
%TA.AperFunction,ComponentPad*%
%ADD12C,1.700000*%
%TD*%
%TA.AperFunction,ComponentPad*%
%ADD13R,1.800000X1.800000*%
%TD*%
%TA.AperFunction,ComponentPad*%
%ADD14C,1.800000*%
%TD*%
%TA.AperFunction,ComponentPad*%
%ADD15RoundRect,0.250000X-0.550000X-0.550000X0.550000X-0.550000X0.550000X0.550000X-0.550000X0.550000X0*%
%TD*%
%TA.AperFunction,ComponentPad*%
%ADD16R,3.500000X3.500000*%
%TD*%
%TA.AperFunction,ComponentPad*%
%ADD17RoundRect,0.750000X0.750000X1.000000X-0.750000X1.000000X-0.750000X-1.000000X0.750000X-1.000000X0*%
%TD*%
%TA.AperFunction,ComponentPad*%
%ADD18RoundRect,0.875000X0.875000X0.875000X-0.875000X0.875000X-0.875000X-0.875000X0.875000X-0.875000X0*%
%TD*%
%TA.AperFunction,ComponentPad*%
%ADD19R,2.000000X1.905000*%
%TD*%
%TA.AperFunction,ComponentPad*%
%ADD20O,2.000000X1.905000*%
%TD*%
%TA.AperFunction,Conductor*%
%ADD21C,0.500000*%
%TD*%
G04 APERTURE END LIST*
D10*
%TO.P,R3,1*%
%TO.N,Net-(D3-K)*%
X204880000Y-82500000D03*
%TO.P,R3,2*%
%TO.N,GND*%
X212500000Y-82500000D03*
%TD*%
D11*
%TO.P,J3,1,Pin_1*%
%TO.N,GND*%
X203460000Y-110000000D03*
D12*
%TO.P,J3,2,Pin_2*%
X206000000Y-110000000D03*
%TO.P,J3,3,Pin_3*%
X208540000Y-110000000D03*
%TO.P,J3,4,Pin_4*%
X211080000Y-110000000D03*
%TO.P,J3,5,Pin_5*%
X213620000Y-110000000D03*
%TD*%
D10*
%TO.P,R2,1*%
%TO.N,Net-(D2-K)*%
X204880000Y-86500000D03*
%TO.P,R2,2*%
%TO.N,GND*%
X212500000Y-86500000D03*
%TD*%
D11*
%TO.P,J1,1,Pin_1*%
%TO.N,Net-(D1-A)*%
X173500000Y-100460000D03*
D12*
%TO.P,J1,2,Pin_2*%
X173500000Y-103000000D03*
%TO.P,J1,3,Pin_3*%
X173500000Y-105540000D03*
%TO.P,J1,4,Pin_4*%
X173500000Y-108080000D03*
%TO.P,J1,5,Pin_5*%
X173500000Y-110620000D03*
%TD*%
D13*
%TO.P,D1,1,K*%
%TO.N,Net-(D1-K)*%
X184000000Y-84275000D03*
D14*
%TO.P,D1,2,A*%
%TO.N,Net-(D1-A)*%
X184000000Y-81735000D03*
%TD*%
D13*
%TO.P,D3,1,K*%
%TO.N,Net-(D3-K)*%
X197000000Y-84275000D03*
D14*
%TO.P,D3,2,A*%
%TO.N,Net-(D3-A)*%
X197000000Y-81735000D03*
%TD*%
D15*
%TO.P,C4,1*%
%TO.N,Net-(D1-A)*%
X180000000Y-103000000D03*
D10*
%TO.P,C4,2*%
%TO.N,GND*%
X182500000Y-103000000D03*
%TD*%
D16*
%TO.P,J4,1*%
%TO.N,Net-(D3-A)*%
X202500000Y-101957500D03*
D17*
%TO.P,J4,2*%
%TO.N,GND*%
X208500000Y-101957500D03*
D18*
%TO.P,J4,3*%
%TO.N,N/C*%
X205500000Y-97257500D03*
%TD*%
D10*
%TO.P,C2,1*%
%TO.N,GND*%
X198000000Y-106750000D03*
%TO.P,C2,2*%
%TO.N,Net-(D3-A)*%
X198000000Y-109250000D03*
%TD*%
D19*
%TO.P,U3,1,GND*%
%TO.N,GND*%
X192500000Y-110450000D03*
D20*
%TO.P,U3,2,VO*%
%TO.N,Net-(D1-A)*%
X192500000Y-107910000D03*
%TO.P,U3,3,VI*%
%TO.N,Net-(D3-A)*%
X192500000Y-105370000D03*
%TD*%
D13*
%TO.P,D2,1,K*%
%TO.N,Net-(D2-K)*%
X190500000Y-84275000D03*
D14*
%TO.P,D2,2,A*%
%TO.N,Net-(D2-A)*%
X190500000Y-81735000D03*
%TD*%
D10*
%TO.P,R1,1*%
%TO.N,Net-(D1-K)*%
X204880000Y-90500000D03*
%TO.P,R1,2*%
%TO.N,GND*%
X212500000Y-90500000D03*
%TD*%
D11*
%TO.P,J2,1,Pin_1*%
%TO.N,Net-(D2-A)*%
X173500000Y-84500000D03*
D12*
%TO.P,J2,2,Pin_2*%
X173500000Y-87040000D03*
%TO.P,J2,3,Pin_3*%
X173500000Y-89580000D03*
%TO.P,J2,4,Pin_4*%
X173500000Y-92120000D03*
%TO.P,J2,5,Pin_5*%
X173500000Y-94660000D03*
%TD*%
D19*
%TO.P,U1,1,VI*%
%TO.N,Net-(D3-A)*%
X192500000Y-96080000D03*
D20*
%TO.P,U1,2,GND*%
%TO.N,GND*%
X192500000Y-93540000D03*
%TO.P,U1,3,VO*%
%TO.N,Net-(D2-A)*%
X192500000Y-91000000D03*
%TD*%
D15*
%TO.P,C3,1*%
%TO.N,Net-(D2-A)*%
X178817621Y-91500000D03*
D10*
%TO.P,C3,2*%
%TO.N,GND*%
X181317621Y-91500000D03*
%TD*%
%TO.P,C1,1*%
%TO.N,GND*%
X198000000Y-90750000D03*
%TO.P,C1,2*%
%TO.N,Net-(D3-A)*%
X198000000Y-93250000D03*
%TD*%
D21*
%TO.N,Net-(D1-A)*%
X180500000Y-106500000D02*
X180500000Y-103500000D01*
X180500000Y-103500000D02*
X180000000Y-103000000D01*
X181000000Y-107000000D02*
X180500000Y-106500000D01*
X182500000Y-106500000D02*
X182000000Y-107000000D01*
X185680000Y-106500000D02*
X182500000Y-106500000D01*
X187090000Y-107910000D02*
X185680000Y-106500000D01*
X192500000Y-107910000D02*
X187090000Y-107910000D01*
X182000000Y-107000000D02*
X181000000Y-107000000D01*
X177420000Y-108080000D02*
X173500000Y-108080000D01*
X178000000Y-107500000D02*
X177420000Y-108080000D01*
X178000000Y-105000000D02*
X178000000Y-107500000D01*
X180000000Y-103000000D02*
X178000000Y-105000000D01*
%TO.N,Net-(D3-A)*%
X195480818Y-106000000D02*
X196000000Y-106519182D01*
X202500000Y-97750000D02*
X201439000Y-96689000D01*
X202500000Y-101957500D02*
X202500000Y-97750000D01*
X194040000Y-94540000D02*
X192500000Y-96080000D01*
X197481818Y-108481818D02*
X198000000Y-109000000D01*
X201439000Y-85174000D02*
X201439000Y-96689000D01*
X202500000Y-104750000D02*
X198000000Y-109250000D01*
X198000000Y-81735000D02*
X201439000Y-85174000D01*
X198000000Y-93250000D02*
X196250000Y-93250000D01*
X202500000Y-101957500D02*
X202500000Y-104750000D01*
X201439000Y-96689000D02*
X198000000Y-93250000D01*
X196250000Y-93250000D02*
X194960000Y-94540000D01*
X198000000Y-109000000D02*
X198000000Y-109250000D01*
X192500000Y-105370000D02*
X193130000Y-106000000D01*
X194960000Y-94540000D02*
X194040000Y-94540000D01*
X196000000Y-106519182D02*
X196000000Y-108001000D01*
X193130000Y-106000000D02*
X195480818Y-106000000D01*
X196000000Y-108001000D02*
X196480818Y-108481818D01*
X196480818Y-108481818D02*
X197481818Y-108481818D01*
%TO.N,GND*%
X183357621Y-93540000D02*
X181317621Y-91500000D01*
X192500000Y-93540000D02*
X183357621Y-93540000D01*
%TO.N,Net-(D1-A)*%
X173500000Y-110620000D02*
X173500000Y-100460000D01*
%TO.N,Net-(D2-A)*%
X190960000Y-89460000D02*
X180857621Y-89460000D01*
X178000000Y-80000000D02*
X188765000Y-80000000D01*
X173500000Y-84500000D02*
X178000000Y-80000000D01*
X173500000Y-94660000D02*
X173500000Y-84500000D01*
X188765000Y-80000000D02*
X190500000Y-81735000D01*
X178817621Y-91500000D02*
X176660000Y-91500000D01*
X176660000Y-91500000D02*
X173500000Y-94660000D01*
X180857621Y-89460000D02*
X178817621Y-91500000D01*
X192500000Y-91000000D02*
X190960000Y-89460000D01*
%TD*%
M02*
