M48
; DRILL file {KiCad 9.0.7} date 2026-01-31T20:36:51-0600
; FORMAT={-:-/ absolute / metric / decimal}
; #@! TF.CreationDate,2026-01-31T20:36:51-06:00
; #@! TF.GenerationSoftware,Kicad,Pcbnew,9.0.7
; #@! TF.FileFunction,Plated,1,2,PTH
FMAT,2
METRIC
; #@! TA.AperFunction,Plated,PTH,ComponentDrill
T1C0.800
; #@! TA.AperFunction,Plated,PTH,ComponentDrill
T2C0.900
; #@! TA.AperFunction,Plated,PTH,ComponentDrill
T3C1.000
; #@! TA.AperFunction,Plated,PTH,ComponentDrill
T4C1.100
%
G90
G05
T1
X178.5Y-109.0
X178.818Y-91.5
X181.0Y-109.0
X181.318Y-91.5
X198.0Y-90.75
X198.0Y-93.25
X198.0Y-106.75
X198.0Y-109.25
X204.88Y-82.5
X204.88Y-86.5
X204.88Y-90.5
X212.5Y-82.5
X212.5Y-86.5
X212.5Y-90.5
T2
X184.0Y-81.735
X184.0Y-84.275
X190.5Y-81.735
X190.5Y-84.275
X197.0Y-81.735
X197.0Y-84.275
T3
X173.5Y-84.5
X173.5Y-87.04
X173.5Y-89.58
X173.5Y-92.12
X173.5Y-94.66
X173.5Y-100.46
X173.5Y-103.0
X173.5Y-105.54
X173.5Y-108.08
X173.5Y-110.62
X203.46Y-110.0
X206.0Y-110.0
X208.54Y-110.0
X211.08Y-110.0
X213.62Y-110.0
T4
X192.5Y-91.0
X192.5Y-93.54
X192.5Y-96.08
X192.5Y-105.37
X192.5Y-107.91
X192.5Y-110.45
T3
G00X202.5Y-102.957
M15
G01X202.5Y-100.957
M16
G05
G00X206.5Y-97.257
M15
G01X204.5Y-97.257
M16
G05
G00X208.5Y-102.957
M15
G01X208.5Y-100.957
M16
G05
M30
